<svg id="2644b885-ba0e-4844-a230-34cf13cd6603" data-name="Layer 1" xmlns="http://www.w3.org/2000/svg" viewBox="0 0 28 28"><defs><style>.\34 eafc694-e816-467e-9e13-c268a7b2c9da{fill:none}.\38 b166b62-ccdc-4eb2-b09b-824abca99b57{fill:#3d4e4d}</style></defs><title>icon-twitter-hover</title><path class="4eafc694-e816-467e-9e13-c268a7b2c9da" d="M0 0h28v28H0z"/><path class="8b166b62-ccdc-4eb2-b09b-824abca99b57" d="M27.23 5.79a10.85 10.85 0 0 1-3.12.85 5.44 5.44 0 0 0 2.39-3A10.87 10.87 0 0 1 23.05 5a5.43 5.43 0 0 0-9.25 5A15.41 15.41 0 0 1 2.61 4.24a5.43 5.43 0 0 0 1.68 7.25 5.41 5.41 0 0 1-2.46-.68v.07a5.43 5.43 0 0 0 4.36 5.32 5.44 5.44 0 0 1-2.45.09 5.43 5.43 0 0 0 5.07 3.77 10.89 10.89 0 0 1-6.74 2.32 11 11 0 0 1-1.29-.08 15.36 15.36 0 0 0 8.32 2.44A15.34 15.34 0 0 0 24.54 9.31v-.7a11 11 0 0 0 2.69-2.82z"/></svg>