<svg id="_x38_ebfe83a-5787-43f1-ae5d-75f3d6211f4e" xmlns="http://www.w3.org/2000/svg" viewBox="0 0 28 28"><style>.st0{fill:#d0d4d2}</style><title>icon-linkedin</title><path class="st0" d="M24.6 2H4.1c-1 0-1.7.7-1.8 1.7v20.5c0 1 .8 1.8 1.7 1.8h20.6c1 0 1.8-.8 1.8-1.7V3.7c-.1-1-.9-1.7-1.8-1.7zM8.7 16.1c-1.1 0-2.1-.9-2.1-2.1 0-1.1.9-2.1 2.1-2.1 1.1 0 2 .9 2.1 2-.1 1.2-1 2.1-2.1 2.2 0-.1 0-.1 0 0zm5.6 0c-1.1 0-2.1-.9-2.1-2.1 0-1.1.9-2.1 2.1-2.1 1.1 0 2 .9 2.1 2 0 1.2-.9 2.1-2.1 2.2.1-.1 0-.1 0 0zm5.7 0c-1.1 0-2.1-.9-2.1-2.1 0-1.1.9-2.1 2.1-2.1 1.1 0 2 .9 2.1 2 0 1.2-.9 2.1-2.1 2.2 0-.1 0-.1 0 0z"/></svg>