<?xml version="1.0" encoding="utf-8"?>
<!-- Generator: Adobe Illustrator 20.0.0, SVG Export Plug-In . SVG Version: 6.00 Build 0)  -->
<svg version="1.1" id="Layer_1" xmlns="http://www.w3.org/2000/svg" xmlns:xlink="http://www.w3.org/1999/xlink" x="0px" y="0px"
	 viewBox="0 0 512 128" style="enable-background:new 0 0 512 128;" xml:space="preserve">
<style type="text/css">
	.st0{fill:none;}
	.st1{fill:#3E4F4E;}
</style>
<g id="Container">
	<rect class="st0" width="512" height="128"/>
</g>
<g>
	<g>
		<g>
			<path class="st1" d="M59.1,64.7c0-7.6-6-13.7-13.5-13.9l0,0c0,0-4.7-0.3-8.2-0.5c-3.5-0.2-6.9-1-6.9-1s0.5,3.4,0.6,5.9
				c0.2,2.6,0.1,9.4,0.1,9.4c0,7.7,6.2,13.9,13.9,13.9c0.1,0,0.1,0,0.2,0c-3.9-0.1-7-3.3-7-7.1c0-3.9,3.2-7.2,7.2-7.2
				c4,0,7.2,3.2,7.2,7.2c0,3.6-2.7,6.6-6.2,7.1C53.6,77.9,59.1,71.9,59.1,64.7z"/>
			<path class="st1" d="M-0.5,63.2c0,7.6,6,13.7,13.5,13.9l0,0c0,0,4.7,0.3,8.2,0.5c3.5,0.2,6.9,1,6.9,1s-0.5-3.4-0.6-5.9
				c-0.2-2.6-0.1-9.4-0.1-9.4c0-7.7-6.2-13.9-13.9-13.9c-0.1,0-0.1,0-0.2,0c3.9,0.1,7,3.3,7,7.1c0,4-3.2,7.2-7.2,7.2
				c-4,0-7.2-3.2-7.2-7.2c0-3.6,2.7-6.6,6.2-7.1C5,50.1-0.5,56-0.5,63.2z"/>
		</g>
		<circle class="st1" cx="13.6" cy="56" r="6.7"/>
		<circle class="st1" cx="44.8" cy="71.9" r="6.7"/>
	</g>
	<g>
		<path class="st1" d="M86.5,66.1c-1.9,1.3-4.3,1.4-6.5,1.4h-4.5v10h-2.5V52.7h7c2.3,0,4.6,0.2,6.5,1.4c2,1.4,3.1,3.5,3.1,6
			C89.6,62.5,88.5,64.7,86.5,66.1z M84.2,55.6c-1.4-0.7-2.8-0.6-4.3-0.6h-4.4v10.3h4.4c1.6,0,2.9,0,4.3-0.6c1.9-0.9,2.9-2.5,2.9-4.5
			C87.1,58.1,86,56.4,84.2,55.6z"/>
		<path class="st1" d="M99.1,77.5V52.7h13.8v2.2h-11.3v8.9h10.9v2.2h-10.9v9.1h11.3v2.2H99.1z"/>
		<path class="st1" d="M133.2,68.2l7.1,9.2h-3.2l-8.6-11.2c1.6,0,3.9,0.1,5.4-0.4c2.5-0.7,4.2-2.7,4.2-5.3c0-1.9-1.1-3.9-2.8-4.8
			c-1.6-0.8-3.1-0.9-4.9-0.9h-4.4v22.5h-2.5V52.7h6.4c1.9,0,4.4,0.1,6.2,0.9c2.8,1.3,4.5,4,4.5,7.1C140.7,64.9,137.4,68,133.2,68.2z
			"/>
		<path class="st1" d="M162.1,77.9c-7.2,0-13.2-5.6-13.2-12.8c0-7.2,5.8-12.8,13.2-12.8c3.8,0,7.4,1.6,10,4.4
			c0.6,0.7,1.2,1.5,1.6,2.3h-2.8c-1.9-2.8-5.3-4.5-8.8-4.5c-5.8,0-10.6,5-10.6,10.6c0,5.6,5,10.5,10.7,10.5c3.7,0,6.7-1.9,8.8-4.7
			h2.8C171.4,75.2,166.9,77.9,162.1,77.9z"/>
		<path class="st1" d="M195.4,77.9c-7.1,0-13.4-5.6-13.4-12.7c0-7.2,6-13,13.4-13c7.2,0,13.4,5.7,13.4,12.8S202.6,77.9,195.4,77.9z
			 M195.4,54.5c-6,0-10.8,4.9-10.8,10.7c0,5.7,5,10.4,10.8,10.4c5.9,0,10.9-4.7,10.9-10.5S201.4,54.5,195.4,54.5z"/>
		<path class="st1" d="M218.5,77.5V52.7h2.5v22.5h10.5v2.2H218.5z"/>
		<path class="st1" d="M260.1,77.5l-3.7-8.3h-11.7l-3.7,8.3h-2.6l10.8-24.8h2.8l10.9,24.8H260.1z M250.7,55.5l-5,11.4h9.8
			L250.7,55.5z"/>
		<path class="st1" d="M274.5,54.9v22.5H272V54.9h-5.8v-2.2h14.1v2.2H274.5z"/>
		<path class="st1" d="M305.4,77.5l-3.7-8.3H290l-3.7,8.3h-2.6l10.8-24.8h2.8l10.9,24.8H305.4z M295.9,55.5l-5,11.4h9.8L295.9,55.5z
			"/>
	</g>
</g>
</svg>
