<svg id="Layer_1" xmlns="http://www.w3.org/2000/svg" viewBox="0 0 512 128"><style>.st0{fill:none}.st1{fill:#3e4f4e}</style><path class="st0" d="M0 0h512v128H0z" id="Container"/><g id="Logos"><g id="Rigetti"><path class="st1" d="M69.9 49.8V51c0 11.1-.1 22.2 0 33.3 0 4.2-3.5 7.5-7.4 7.4-5.9-.2-11.8 0-17.8 0h-1.3c0-1.3-.1-2.5 0-3.6.1-1.2 1.1-1.9 2.5-1.9h10.5c2.5 0 3.8-1.4 3.8-3.8V80H49.5c-4.1 0-7.2-3-7.3-7-.1-5.5-.1-10.9 0-16.4.1-4 3-6.9 7.1-7 6.7-.1 13.4 0 20 0 .3 0 .3.1.6.2zm-9.7 5.7H55c-1.7.1-3 1.5-3 3.4v12.2c0 1.9 1.3 3.3 3.2 3.4 1.7.1 3.3 0 5.1 0-.1-6.3-.1-12.6-.1-19zM99.6 68.4h-16c0 1.2-.1 2.3 0 3.4.3 1.7 1.7 2.7 3.6 2.8h8.1c1.7 0 2.5.8 2.5 2.4v2.5c0 .1 0 .2-.1.5H81.4c-4 0-7.1-3.1-7.1-7.1V57.1c0-4.2 2.4-7.2 6.5-7.4 4.3-.3 8.6-.2 12.9.1 3 .2 5.7 2.8 5.8 5.9.3 4.2.1 8.4.1 12.7zm-7.8-12.9c-1.8 0-3.6-.1-5.4 0-1.4.1-2.6 1.1-2.8 2.5-.2 2-.1 4.1-.1 6.1h8.2c.1-2.8.1-5.6.1-8.6zM140.9 80c-3.4 0-6.7.2-9.9 0-3.7-.2-6.2-3.1-6.3-7-.1-9.1 0-18.2 0-27.4 0-2.8 1.6-4.2 4.3-4.2h5.2v8.3h3.9c2 0 2.7.8 2.7 2.8v3.1h-6.5c-.1.3-.1.5-.1.8 0 5 0 10 .1 15 0 1.8 1.4 3.2 3.3 3.3h1.3c1.1.1 1.9.9 1.9 1.9.1 1 .1 2.1.1 3.4zM113.6 41.4v8.3h3.8c2 0 2.8.8 2.8 2.9v3h-6.6c0 .4-.1.8-.1 1.1v13.6c0 3 1.2 4.3 4.2 4.3 1.6 0 2.4.8 2.4 2.4v3.1h-9c-.6 0-1.2-.1-1.8-.2-3.2-.7-5.4-3.2-5.4-6.5V45.5c0-2.4 1.6-4 4.1-4 1.8-.2 3.6-.1 5.6-.1zM24.1 49.6c0 2.2.1 4.3 0 6.4-.2 1.9-1.7 3.1-3.6 3.1h-6.6c-2.7 0-4.2 1.5-4.2 4.2v12.9c0 1.9-1.4 3.5-3.2 3.7-2 .1-4.1 0-6.3 0-.2-.3-.2-.7-.2-1.1v-15c0-3.3 1.4-4.7 4.8-4.7 2.9 0 4.6-1.2 4.7-3.5v-1.8c.1-2.4 1.3-4 3.7-4.1 3.6-.2 7.2-.1 10.9-.1zM28.4 80v-1.3-27.8c0-1.1.3-1.3 1.4-1.3 2.7.1 5.4 0 8.2 0 0 .5.1.9.1 1.3v24.7c0 2.9-1.5 4.3-4.4 4.3-1.7.1-3.4.1-5.3.1zM145.3 49.6h9c.2 0 .4.3.5.6s0 .6 0 .9v24.5c0 3-1.4 4.4-4.4 4.4h-5.1V49.6zM28.4 46.1v-8.8c0-.2.4-.7.6-.7h8.8c0 2.3.2 4.4 0 6.6-.2 1.7-1.6 2.9-3.3 2.9h-6.1zM145.3 36.6h9.6c-.1 2.3-.1 4.7-.4 7-.2 1.5-1.6 2.3-3.1 2.4-2 .1-4 0-6 0-.1-3.1-.1-6.2-.1-9.4z"/></g></g></svg>