<?xml version="1.0" encoding="utf-8"?>
<!-- Generator: Adobe Illustrator 19.2.1, SVG Export Plug-In . SVG Version: 6.00 Build 0)  -->
<svg version="1.1" id="Layer_1" xmlns="http://www.w3.org/2000/svg" xmlns:xlink="http://www.w3.org/1999/xlink" x="0px" y="0px"
	 viewBox="0 0 512 128" style="enable-background:new 0 0 512 128;" xml:space="preserve">
<style type="text/css">
	.st0{fill:none;}
	.st1{fill:#3E4F4E;}
</style>
<g id="Container">
	<rect class="st0" width="512" height="128"/>
</g>
<g id="Logos">
	<g id="Robinhood">
		<g>
			<path class="st1" d="M1.5,109c-1.9,0-1.6,0-1.2-1.6C2.5,98.5,4.9,89.7,7.8,81c0.1-0.3,0.1-0.7,0-1.1C7,75.5,6.2,71,5.4,66.5
				c-0.1-0.4-0.2-0.8-0.2-1.3c0.1-0.6,0.1-1.3,0.4-1.8c3.7-5.5,7.6-10.8,11.7-15.9c0.8-1,1.6-1.9,2.3-2.9c0.8-1.1,1.8-1.7,3.1-1.9
				c6-1.1,12-2.3,18.1-3.4c0.8-0.2,1.7-0.2,2.5-0.3c0.2,0,0.4,0.1,0.7,0.2c-0.1,0.2-0.1,0.4-0.3,0.6c-5.1,5.9-9.8,12-14.3,18.3
				C22,68.7,15.6,79.8,10.3,91.5c-2.5,5.5-4.7,11.2-7,16.8c-0.2,0.6-0.5,0.8-1.1,0.7C2,109,1.8,109,1.5,109z"/>
			<path class="st1" d="M50.4,47.3c0-2.8,0-6.6,0-10.3c0-1.3-0.9-2.1-2.2-1.9c-3.2,0.4-6.3,0.8-9.5,1.3c-3.6,0.6-7.2,1.3-10.8,1.9
				c-0.7,0.1-1.4,0.3-2.1,0.4c-0.2,0-0.4-0.1-0.7-0.1c0.1-0.2,0.1-0.5,0.2-0.6c2.6-2.8,5.2-5.6,7.9-8.4c2-2.1,4.2-4.1,6.2-6.2
				c1.2-1.2,2.6-1.8,4.2-2.3c3.6-1,7.3-1.8,11.1-1.8c2.2,0,4.4,0.2,6.4,1.1c1.7,0.7,2.9,1.8,3.7,3.5c1,2.2,1.5,4.5,1.7,6.9
				c0.3,3.1,0.2,6.2-0.3,9.2c-0.1,0.6-0.5,1.3-0.9,1.8c-3.4,4.3-6.9,8.6-10.4,13c-1.1,1.4-2.1,2.9-3.1,4.3c-0.1,0.2-0.4,0.3-0.5,0.4
				c-0.1-0.2-0.3-0.4-0.3-0.6C51,55.4,50.7,51.8,50.4,47.3z"/>
			<path class="st1" d="M48.4,63.5c0.2,0.6-0.1,1.2-0.5,1.8c-3.3,5.7-6.7,11.5-10,17.2c-0.3,0.6-0.8,0.9-1.4,1.1
				c-7.2,2.1-14.3,4.6-21.2,7.4c-0.3,0.1-0.7,0.1-1,0.2c0.1-0.3,0.1-0.7,0.2-1c2.9-6.1,6.1-12,9.6-17.8c4.2-7,8.8-13.9,13.9-20.3
				c2.6-3.3,5.3-6.6,8-9.8c0.1-0.1,0.2-0.2,0.3-0.3c0.2-0.1,0.4-0.2,0.5-0.3c0.1,0.2,0.2,0.4,0.2,0.6c0.1,2.1,0.1,4.2,0.3,6.4
				c0.3,4,0.5,8,0.8,12C48.3,61.5,48.3,62.4,48.4,63.5z"/>
			<path class="st1" d="M10.1,101.6c0.5-1.2,1-2.5,1.5-3.7c1-2.4,1-2.4,3.4-3.4c4.2-1.6,8.4-3.2,12.6-4.7c0.2-0.1,0.5,0,0.7,0
				c-0.1,0.2-0.1,0.5-0.2,0.7c-0.5,1-0.9,2-1.5,2.9c-0.2,0.4-0.6,0.8-1,1c-4.8,2.4-9.6,4.7-14.5,7.1c-0.3,0.2-0.7,0.3-1,0.4
				C10.2,101.7,10.1,101.7,10.1,101.6z"/>
		</g>
	</g>
</g>
</svg>
