<?xml version="1.0" encoding="utf-8"?>
<!-- Generator: Adobe Illustrator 19.2.1, SVG Export Plug-In . SVG Version: 6.00 Build 0)  -->
<svg version="1.1" id="Layer_1" xmlns="http://www.w3.org/2000/svg" xmlns:xlink="http://www.w3.org/1999/xlink" x="0px" y="0px"
	 viewBox="0 0 512 128" style="enable-background:new 0 0 512 128;" xml:space="preserve">
<style type="text/css">
	.st0{fill:none;}
	.st1{fill:#3E4F4E;}
	.st2{fill:#7E8A88;}
</style>
<path id="Container" class="st0" d="M0,0h512v128H0V0z"/>
<g>
	<path class="st1" d="M107.6,44.6c-0.4-0.6-0.9-1.1-1.5-1.3c-0.6-0.3-1.3-0.4-2-0.4c-0.5,0-1,0.1-1.5,0.2c-0.5,0.1-0.9,0.3-1.3,0.6
		c-0.4,0.3-0.7,0.6-0.9,1c-0.2,0.4-0.4,0.9-0.4,1.5c0,0.4,0.1,0.8,0.2,1.2c0.1,0.3,0.4,0.6,0.7,0.9c0.3,0.3,0.7,0.5,1.3,0.8
		c0.5,0.2,1.2,0.5,1.9,0.7c0.7,0.2,1.5,0.5,2.2,0.8c0.7,0.3,1.3,0.6,1.9,1c0.5,0.4,1,0.9,1.3,1.6c0.3,0.6,0.5,1.4,0.5,2.4
		c0,1-0.2,1.8-0.6,2.5c-0.4,0.7-0.9,1.3-1.5,1.8c-0.6,0.5-1.3,0.8-2.2,1c-0.8,0.2-1.7,0.3-2.5,0.3c-0.6,0-1.1-0.1-1.7-0.2
		c-0.6-0.1-1.1-0.3-1.6-0.5c-0.5-0.2-1-0.5-1.5-0.8s-0.8-0.8-1.2-1.2l2-1.6c0.4,0.7,1,1.2,1.7,1.6c0.7,0.4,1.5,0.5,2.4,0.5
		c0.5,0,1-0.1,1.5-0.2c0.5-0.1,1-0.4,1.3-0.6c0.4-0.3,0.7-0.6,1-1c0.3-0.4,0.4-0.9,0.4-1.4c0-0.6-0.1-1.1-0.3-1.5
		c-0.2-0.4-0.5-0.7-0.9-1c-0.4-0.3-0.9-0.5-1.6-0.7c-0.6-0.2-1.4-0.5-2.2-0.8c-0.7-0.2-1.3-0.5-1.9-0.7c-0.6-0.3-1.1-0.6-1.5-1
		c-0.4-0.4-0.8-0.9-1-1.5c-0.2-0.6-0.4-1.3-0.4-2.1c0-0.9,0.2-1.7,0.5-2.4c0.4-0.7,0.9-1.3,1.5-1.7c0.6-0.5,1.3-0.8,2.1-1
		c0.8-0.2,1.6-0.4,2.5-0.4c1.1,0,2.1,0.2,3,0.5c0.9,0.3,1.7,0.9,2.4,1.8L107.6,44.6z"/>
	<path class="st1" d="M126.6,43.3h-6.4v17.2h-2.3V43.3h-6.4v-2.1h15V43.3z"/>
	<path class="st1" d="M135.3,41.2h2.2l8.2,19.3H143l-2-4.7h-9.6l-2,4.7h-2.6L135.3,41.2z M136.3,44.1L136.3,44.1l-4.1,9.5h7.9
		L136.3,44.1z"/>
	<path class="st1" d="M148.8,41.2h2.9l11.2,16h0.1v-16h2.3v19.3h-2.9l-11.2-16H151v16h-2.3V41.2z"/>
	<path class="st1" d="M170.1,41.2h7.4c0.6,0,1.3,0.1,2,0.2c0.7,0.1,1.4,0.4,2.1,0.7c0.7,0.3,1.4,0.7,2,1.2c0.6,0.5,1.2,1.1,1.7,1.8
		c0.5,0.7,0.9,1.5,1.2,2.5c0.3,0.9,0.4,2,0.4,3.2s-0.1,2.2-0.4,3.2c-0.3,0.9-0.7,1.8-1.2,2.5c-0.5,0.7-1.1,1.3-1.7,1.8
		c-0.6,0.5-1.3,0.9-2,1.2c-0.7,0.3-1.4,0.5-2.1,0.7c-0.7,0.1-1.4,0.2-2,0.2h-7.4V41.2z M172.4,58.3h4.4c1.1,0,2.1-0.1,3.1-0.4
		c0.9-0.3,1.8-0.7,2.5-1.3c0.7-0.6,1.2-1.4,1.6-2.3c0.4-0.9,0.6-2.1,0.6-3.4s-0.2-2.5-0.6-3.4c-0.4-0.9-0.9-1.7-1.6-2.3
		c-0.7-0.6-1.5-1.1-2.5-1.3c-0.9-0.3-2-0.4-3.1-0.4h-4.4V58.3z"/>
	<path class="st1" d="M198,41.2h2.2l8.2,19.3h-2.7l-2-4.7h-9.6l-2,4.7h-2.6L198,41.2z M199.1,44.1L199.1,44.1l-4.1,9.5h7.9
		L199.1,44.1z"/>
	<path class="st1" d="M213.1,41.2h4.9c0.9,0,1.8,0.1,2.8,0.2c0.9,0.1,1.7,0.3,2.5,0.7c0.7,0.4,1.3,0.9,1.8,1.6
		c0.5,0.7,0.7,1.6,0.7,2.8c0,1.4-0.4,2.6-1.3,3.4c-0.9,0.9-2,1.4-3.5,1.7l5.5,8.9h-2.8l-5.2-8.7h-2.9v8.7h-2.3V41.2z M215.4,49.7h2
		c0.6,0,1.3,0,2-0.1c0.7,0,1.3-0.2,1.9-0.4c0.6-0.2,1-0.5,1.4-0.9c0.4-0.4,0.6-1,0.6-1.8c0-0.7-0.1-1.2-0.4-1.7
		c-0.3-0.4-0.6-0.7-1.1-1c-0.4-0.2-0.9-0.4-1.5-0.4c-0.6-0.1-1.1-0.1-1.7-0.1h-3.2V49.7z"/>
	<path class="st1" d="M231,41.2h7.4c0.6,0,1.3,0.1,2,0.2c0.7,0.1,1.4,0.4,2.1,0.7c0.7,0.3,1.4,0.7,2,1.2c0.6,0.5,1.2,1.1,1.7,1.8
		c0.5,0.7,0.9,1.5,1.2,2.5c0.3,0.9,0.4,2,0.4,3.2s-0.1,2.2-0.4,3.2c-0.3,0.9-0.7,1.8-1.2,2.5c-0.5,0.7-1.1,1.3-1.7,1.8
		c-0.6,0.5-1.3,0.9-2,1.2c-0.7,0.3-1.4,0.5-2.1,0.7c-0.7,0.1-1.4,0.2-2,0.2H231V41.2z M233.3,58.3h4.4c1.1,0,2.1-0.1,3.1-0.4
		c0.9-0.3,1.8-0.7,2.5-1.3c0.7-0.6,1.2-1.4,1.6-2.3c0.4-0.9,0.6-2.1,0.6-3.4s-0.2-2.5-0.6-3.4c-0.4-0.9-0.9-1.7-1.6-2.3
		c-0.7-0.6-1.5-1.1-2.5-1.3c-0.9-0.3-2-0.4-3.1-0.4h-4.4V58.3z"/>
	<path class="st1" d="M111.4,71.4h-6.4v17.2h-2.3V71.4h-6.4v-2.1h15V71.4z"/>
	<path class="st1" d="M115.8,69.3h4.9c0.9,0,1.8,0.1,2.8,0.2c0.9,0.1,1.7,0.3,2.5,0.7c0.7,0.4,1.3,0.9,1.8,1.6
		c0.5,0.7,0.7,1.6,0.7,2.8c0,1.4-0.4,2.6-1.3,3.4c-0.9,0.9-2,1.4-3.5,1.7l5.5,8.9h-2.8l-5.2-8.7H118v8.7h-2.3V69.3z M118,77.8h2
		c0.6,0,1.3,0,2-0.1c0.7,0,1.3-0.2,1.9-0.4c0.6-0.2,1-0.5,1.4-0.9c0.4-0.4,0.6-1,0.6-1.8c0-0.7-0.1-1.2-0.4-1.7
		c-0.3-0.4-0.6-0.7-1.1-1s-0.9-0.4-1.5-0.4c-0.6-0.1-1.1-0.1-1.7-0.1H118V77.8z"/>
	<path class="st1" d="M134.6,69.3h12.1v2.1h-9.8v6h9.2v2.1h-9.2v6.9h10.3v2.1h-12.6V69.3z"/>
	<path class="st1" d="M160.2,69.3h2.2l8.2,19.3h-2.7l-2-4.7h-9.6l-2,4.7h-2.6L160.2,69.3z M161.3,72.2L161.3,72.2l-4.1,9.5h7.9
		L161.3,72.2z"/>
	<path class="st1" d="M184.5,72.7c-0.4-0.6-0.9-1.1-1.5-1.3c-0.6-0.3-1.3-0.4-2-0.4c-0.5,0-1,0.1-1.5,0.2c-0.5,0.1-0.9,0.3-1.3,0.6
		c-0.4,0.3-0.7,0.6-0.9,1c-0.2,0.4-0.4,0.9-0.4,1.5c0,0.4,0.1,0.8,0.2,1.2c0.1,0.3,0.4,0.6,0.7,0.9c0.3,0.3,0.7,0.5,1.3,0.8
		c0.5,0.2,1.2,0.5,1.9,0.7c0.7,0.2,1.5,0.5,2.2,0.8c0.7,0.3,1.3,0.6,1.9,1c0.5,0.4,1,0.9,1.3,1.6c0.3,0.6,0.5,1.4,0.5,2.4
		c0,1-0.2,1.8-0.6,2.5c-0.4,0.7-0.9,1.3-1.5,1.8c-0.6,0.5-1.3,0.8-2.2,1c-0.8,0.2-1.7,0.3-2.5,0.3c-0.6,0-1.1-0.1-1.7-0.2
		c-0.6-0.1-1.1-0.3-1.6-0.5c-0.5-0.2-1-0.5-1.5-0.8s-0.8-0.8-1.2-1.2l2-1.6c0.4,0.7,1,1.2,1.7,1.6c0.7,0.4,1.5,0.5,2.4,0.5
		c0.5,0,1-0.1,1.5-0.2c0.5-0.1,1-0.4,1.3-0.6c0.4-0.3,0.7-0.6,1-1c0.3-0.4,0.4-0.9,0.4-1.4c0-0.6-0.1-1.1-0.3-1.5
		c-0.2-0.4-0.5-0.7-0.9-1c-0.4-0.3-0.9-0.5-1.6-0.7c-0.6-0.2-1.4-0.5-2.2-0.8c-0.7-0.2-1.3-0.5-1.9-0.7c-0.6-0.3-1.1-0.6-1.5-1
		c-0.4-0.4-0.8-0.9-1-1.5c-0.2-0.6-0.4-1.3-0.4-2.1c0-0.9,0.2-1.7,0.5-2.4c0.4-0.7,0.9-1.3,1.5-1.7s1.3-0.8,2.1-1
		c0.8-0.2,1.6-0.4,2.5-0.4c1.1,0,2.1,0.2,3,0.5c0.9,0.3,1.7,0.9,2.4,1.8L184.5,72.7z"/>
	<path class="st1" d="M207.1,81.2c0,1.1-0.1,2.1-0.4,3c-0.3,0.9-0.7,1.8-1.3,2.5c-0.6,0.7-1.3,1.3-2.2,1.7c-0.9,0.4-2.1,0.6-3.4,0.6
		s-2.4-0.2-3.4-0.6c-0.9-0.4-1.7-1-2.2-1.7c-0.6-0.7-1-1.5-1.3-2.5c-0.3-0.9-0.4-1.9-0.4-3V69.3h2.3v11.6c0,0.8,0.1,1.5,0.2,2.3
		c0.2,0.7,0.4,1.4,0.8,1.9c0.4,0.6,0.9,1,1.5,1.3s1.4,0.5,2.4,0.5c1,0,1.8-0.2,2.4-0.5c0.6-0.3,1.1-0.8,1.5-1.3
		c0.4-0.6,0.7-1.2,0.8-1.9c0.2-0.7,0.2-1.5,0.2-2.3V69.3h2.3V81.2z"/>
	<path class="st1" d="M213.5,69.3h4.9c0.9,0,1.8,0.1,2.8,0.2c0.9,0.1,1.7,0.3,2.5,0.7c0.7,0.4,1.3,0.9,1.8,1.6
		c0.5,0.7,0.7,1.6,0.7,2.8c0,1.4-0.4,2.6-1.3,3.4c-0.9,0.9-2,1.4-3.5,1.7l5.5,8.9h-2.8l-5.2-8.7h-2.9v8.7h-2.3V69.3z M215.7,77.8h2
		c0.6,0,1.3,0,2-0.1c0.7,0,1.3-0.2,1.9-0.4c0.6-0.2,1-0.5,1.4-0.9c0.4-0.4,0.6-1,0.6-1.8c0-0.7-0.1-1.2-0.4-1.7
		c-0.3-0.4-0.6-0.7-1.1-1c-0.4-0.2-0.9-0.4-1.5-0.4c-0.6-0.1-1.1-0.1-1.7-0.1h-3.2V77.8z"/>
	<path class="st1" d="M239.7,80.3l-7.2-11h2.9l5.4,8.7l5.6-8.7h2.8l-7.2,11v8.3h-2.3V80.3z"/>
	<path class="st2" d="M57.7,32.2c-0.7-0.5-1.5-1-2.2-1.5L36.1,41.9L17.1,31c-0.8,0.5-1.5,1-2.2,1.5l21.1,12.2L57.7,32.2z"/>
	<path class="st1" d="M0,60.9L19.3,72v22.2c0.8,0.4,1.6,0.8,2.4,1.2V70.6L0.1,58.2C0.1,59.1,0,60,0,60.9z"/>
	<path class="st1" d="M72.8,57.7L51.3,70.1v25.3c0.8-0.4,1.6-0.7,2.4-1.2V71.5L73,60.4C72.9,59.5,72.9,58.6,72.8,57.7z"/>
	<path class="st2" d="M64.1,38L36.1,54.2L8.6,38.4c-0.5,0.6-1,1.3-1.5,1.9l29,16.7l29.6-17.1C65.1,39.3,64.6,38.7,64.1,38z"/>
	<path class="st1" d="M2.1,49.7L30,65.8v32.1c0.8,0.1,1.6,0.3,2.4,0.4V64.4l-29.4-17C2.6,48.2,2.4,49,2.1,49.7z"/>
	<path class="st1" d="M69.9,47.1L40.6,63.9v34.3c0.8-0.1,1.6-0.2,2.4-0.4V65.3l27.7-16C70.5,48.5,70.2,47.8,69.9,47.1z"/>
</g>
</svg>
