<?xml version="1.0" encoding="utf-8"?>
<!-- Generator: Adobe Illustrator 19.2.1, SVG Export Plug-In . SVG Version: 6.00 Build 0)  -->
<svg version="1.1" id="Layer_1" xmlns="http://www.w3.org/2000/svg" xmlns:xlink="http://www.w3.org/1999/xlink" x="0px" y="0px"
	 viewBox="0 0 512 128" style="enable-background:new 0 0 512 128;" xml:space="preserve">
<style type="text/css">
	.st0{fill:none;}
	.st1{fill:#3E4F4E;}
</style>
<g id="Container">
	<rect class="st0" width="512" height="128"/>
</g>
<g id="Logos">
	<g id="Qadium">
		<g>
			<path class="st1" d="M33.1,77c1.6,1.9,3.2,3.7,5,5.9c-3-0.2-5.6,0.4-8.2-0.5c-0.6-0.2-1.1-0.6-1.5-1.1c-3.6-4-7.2-7.9-10.7-11.9
				c-0.1-0.1-0.1-0.2-0.2-0.5c2.9,0,5.6,0,8.4,0c0.4,0,0.8,0.5,1.1,0.8c0.6,0.6,1.1,1.3,2,2.3c0.5-2.1,1-3.8,1.3-5.5
				c0.4-2.7,0.2-5.3-0.8-7.8c-1.7-4.7-5.4-7.3-10.6-7.3c-5.3,0-9.2,2.5-10.8,7.3C6.6,62.4,6.6,66.2,7.9,70c1.6,4.6,5.3,7.2,10.2,7.3
				c1.1,0,1.7,0.3,2.4,1.1c1.1,1.3,2.3,2.6,3.5,3.9C18.7,84.7,8.2,83,3.2,75.5c-5.3-7.9-3.9-19.6,3-25.6c7-6,18.5-5.8,25.3,0.3
				C38.7,56.7,39.4,69.3,33.1,77z"/>
			<path class="st1" d="M80.1,82.7c0-12.2,0-24.4,0-36.7c1.1,0,2.1,0,3.1,0c4.8,0.1,9.7-0.2,14.5,0.4c8.5,1,14.5,7.9,15,16.5
				c0.2,3.4-0.2,6.7-1.7,9.9c-3.1,6.6-8.6,9.7-15.7,10.1c-4.9,0.2-9.8,0.1-14.7,0.1C80.5,82.8,80.3,82.8,80.1,82.7z M86.9,77.2
				c3.2,0,6.5,0.3,9.6-0.1c4.3-0.5,7.1-3.2,8.4-7.4c1.1-3.4,1.1-6.8,0.1-10.2c-1.4-5-5.2-7.9-10.4-8c-2.3-0.1-4.7,0-7,0
				c-0.2,0-0.5,0.1-0.7,0.1C86.9,60.2,86.9,68.7,86.9,77.2z"/>
			<path class="st1" d="M207.4,46c0,12.3,0,24.5,0,36.8c-1.9,0-3.9,0-6,0c0-8,0-16,0-24.5c-1.9,2.5-3.8,4.5-5.2,6.8
				c-1.9,3.1-4.3,4.5-8,4c-1.4-0.2-2.3-0.5-3.1-1.6c-5.3-6.7-10.6-13.4-15.9-20.1c-0.3-0.4-0.6-0.8-1-1.3c3,0,5.9-0.1,8.7,0.1
				c0.9,0.1,1.9,1,2.5,1.8c3.2,3.9,6.3,8,9.4,12c0.3,0.3,0.6,0.7,0.9,1.1c2-2.6,3.9-5,5.8-7.5c1.8-2.3,3.5-4.6,5.3-6.8
				c0.3-0.4,1-0.7,1.5-0.8C204.1,45.9,205.7,46,207.4,46z"/>
			<path class="st1" d="M133.2,46c1.8,0,3.4-0.1,5,0c1.3,0.1,2,1,2,2.6c0,6.1,0,12.2,0,18.3c0,0.7,0,1.4,0,2.2
				c0.3,5.9,4.8,9.3,10.6,8c3.6-0.8,6.1-3.9,6.2-8.1c0.1-3.2,0-6.4,0-9.6c0-3.6,0-7.2,0-10.8c0-1.9,0.7-2.6,2.6-2.6
				c1.4,0,2.8,0,4.2,0c0,0.5,0.1,0.8,0.1,1.2c0,7,0.1,13.9-0.1,20.9c0,2.1-0.4,4.2-1.1,6.2c-2.4,6.4-8,9.1-14.5,9.1
				c-7.2,0-12.5-4.1-14.3-10.5c-0.3-1.2-0.6-2.5-0.6-3.7c-0.1-7.1-0.1-14.3-0.1-21.4C133.2,47.2,133.2,46.7,133.2,46z"/>
			<path class="st1" d="M40.1,82.9c1.7-4.4,3.4-8.7,5.1-12.9c3-7.6,6-15.2,8.9-22.8c0.3-0.9,0.8-1.3,1.7-1.2c1.6,0.1,3.2,0,4.8,0.1
				c0.4,0,1.1,0.4,1.2,0.7c4.7,11.9,9.4,23.9,14,35.8c0,0,0,0.1,0,0.2c-1.9,0-3.9,0.1-5.8-0.1c-0.6-0.1-1.4-1-1.7-1.7
				c-0.9-2-1.6-4.1-2.3-6.2c-0.3-0.7-0.6-1-1.4-1c-4.4,0-8.8,0-13.2,0c-0.8,0-1.2,0.3-1.4,1c-0.7,2-1.4,4-2.2,5.9
				c-0.6,1.7-1.2,2.1-3,2.1C43.4,82.9,41.9,82.9,40.1,82.9z M58.1,52.9c-2,5.5-3.9,10.7-5.8,15.9c3.9,0,7.7,0,11.7,0
				C62,63.5,60.1,58.4,58.1,52.9z"/>
			<path class="st1" d="M125.6,82.8c-2.3,0-4.5,0-6.7,0c0-12.3,0-24.4,0-36.7c2.2,0,4.4,0,6.7,0C125.6,58.3,125.6,70.5,125.6,82.8z"
				/>
			<path class="st1" d="M177.8,82.8c-2.1,0-4,0-5.9,0c0-8.7,0-17.4,0-26.3c0.8,1,1.3,1.9,2.1,2.6c3.2,3,4.3,6.7,3.9,11.1
				C177.5,74.3,177.8,78.5,177.8,82.8z"/>
		</g>
	</g>
</g>
</svg>
