<?xml version="1.0" encoding="utf-8"?>
<!-- Generator: Adobe Illustrator 19.2.1, SVG Export Plug-In . SVG Version: 6.00 Build 0)  -->
<svg version="1.1" id="Layer_1" xmlns="http://www.w3.org/2000/svg" xmlns:xlink="http://www.w3.org/1999/xlink" x="0px" y="0px"
	 viewBox="0 0 512 128" style="enable-background:new 0 0 512 128;" xml:space="preserve">
<style type="text/css">
	.st0{fill:none;}
	.st1{fill:#3E4F4E;}
</style>
<g id="Container">
	<rect class="st0" width="512" height="128"/>
</g>
<g id="Logos">
	<g id="Bright">
		<g>
			<path class="st1" d="M26.4,63c0.4,0.3,0.7,0.4,0.9,0.6c2.6,1.4,4.2,3.6,4.5,6.6c0.2,2.1,0,4.3-0.3,6.3c-0.4,2.4-2,4.1-4.2,5.3
				c-2,1.1-4.1,1.7-6.3,1.7c-6.6,0-13.2,0-19.9,0.1c-0.9,0-1.1-0.3-1.1-1.2c0-12.1,0-24.1,0-36.2c0-0.8,0.2-1.1,1-1.1
				c6.9,0.1,13.8,0,20.7,0.2c5.4,0.1,8.8,3.8,8.8,9.4c0,1.5-0.3,2.9-0.6,4.4c-0.3,1.6-1.4,2.7-2.8,3.5C26.9,62.7,26.7,62.8,26.4,63z
				 M14,67.1c0-0.1,0-0.1,0-0.2c-1.7,0-3.4,0-5.1,0c-0.7,0-0.9,0.2-0.9,0.9c0,2.7,0,5.5,0,8.2c0,0.8,0.3,1.1,1,1c3.1,0,6.3,0,9.4,0
				c1.2,0,2.4-0.3,3.5-0.6c1.2-0.3,1.9-1.2,1.9-2.5c0.1-1.1,0.1-2.2,0-3.4c-0.1-2.1-1.3-3.3-3.5-3.4C18.2,67.1,16.1,67.1,14,67.1z
				 M14.1,60.3L14.1,60.3c1.3-0.1,2.7-0.1,4-0.1c3.8-0.1,4.7-1.1,4.6-4.8c0-2.3-0.8-3.3-3.1-3.4c-3.6-0.2-7.2-0.2-10.8-0.3
				C8.2,51.7,8,52,8,52.5c0,2.3,0,4.6,0,6.8c0,0.7,0.3,0.9,0.9,0.9C10.7,60.3,12.4,60.3,14.1,60.3z"/>
			<path class="st1" d="M63,68.2c3.3,5.1,6.4,10.1,9.7,15.2c-0.5,0.1-0.8,0.1-1,0.1c-2.2,0-4.3,0-6.5,0.1c-1.5,0.1-2.3-0.4-3-1.7
				c-2.5-4.2-5.1-8.3-7.7-12.4c-0.4-0.7-0.9-1-1.7-0.9c-1.6,0-3.3,0.1-4.9,0c-0.8,0-1.1,0.2-1.1,1c0,4.3,0,8.5,0,12.8
				c0,0.9-0.3,1.2-1.1,1.1c-1.8-0.1-3.6-0.1-5.5,0c-1.1,0.1-1.4-0.2-1.4-1.3c0.1-5.2,0-10.4,0-15.6c0-6.7,0-13.4,0-20.1
				c0-1.4,0-1.4,1.4-1.4c6.8,0,13.7,0,20.5,0.2c3.1,0.1,6.1,0.9,7.9,3.8c0.5,0.8,1,1.7,1.2,2.5c0.9,3.3,0.8,6.6,0.1,9.9
				c-0.7,3.1-2.7,5-5.7,6.1C63.8,67.8,63.5,68,63,68.2z M52.4,51.7L52.4,51.7c-1.5,0.1-3.1,0.1-4.6,0.1c-0.8,0-1.1,0.2-1.1,1.1
				c0,2.7,0,5.5,0,8.2c0,0.8,0.4,0.9,1,0.9c2.5,0,5,0,7.6-0.1c1.2,0,2.4-0.1,3.6-0.4c2-0.4,3-1.5,3.3-3.5c0.1-0.6,0.1-1.3,0.1-1.9
				c0-2.5-1-3.7-3.5-4C56.7,51.9,54.5,51.8,52.4,51.7z"/>
			<path class="st1" d="M127,57.1c-0.4,0-0.7,0.1-1,0.1c-2,0-4,0-6,0c-0.6,0-0.9-0.2-1-0.8c-0.6-3.4-3.1-4.8-6.2-5.1
				c-2.1-0.2-4.4-0.1-6.5,0.1c-3.9,0.5-6.1,3.1-6.9,6.8c-1,4.5-1,9,0.3,13.4c1,3.5,3.7,5.7,7.5,5.9c2.3,0.1,4.6,0.1,6.9-0.3
				c4.4-0.6,5.4-3.5,5.7-6.9c0.1-0.7-0.4-0.8-0.9-0.8c-2.3,0-4.6,0-6.9,0c-0.8,0-1.1-0.3-1.1-1c0-1.6,0.1-3.2,0-4.8
				c0-0.8,0.5-0.9,1.1-0.9c4.4,0,8.8,0,13.2,0c2.4,0,2.5,0,2.4,2.4c-0.1,2.6-0.1,5.2-0.5,7.7c-1,5.5-4.4,9.2-9.9,10.5
				c-5.1,1.3-10.4,1.4-15.5-0.2c-5-1.6-8.4-4.9-9.7-10c-1.8-6.5-1.9-13,0.5-19.3c1.8-5,5.5-7.9,10.7-9s10.3-1,15.4,0.6
				c5.3,1.7,7.9,5.6,8.6,10.9C127,56.7,127,56.9,127,57.1z"/>
			<path class="st1" d="M164.9,64.4c0,6,0,12,0,18c0,1-0.3,1.3-1.3,1.2c-1.8-0.1-3.6-0.1-5.5,0c-1,0-1.2-0.3-1.2-1.3
				c0-4.8,0-9.7,0-14.5c0-1-0.3-1.3-1.3-1.3c-4.2,0-8.3,0.1-12.5,0c-1.1,0-1.3,0.4-1.3,1.4c0,4.8,0,9.5,0,14.3
				c0,1.1-0.3,1.4-1.4,1.3c-1.8-0.1-3.6-0.1-5.5,0c-0.9,0-1.2-0.2-1.2-1.2c0-10.1,0-20.3,0-30.4c0-1.9,0.1-3.7,0-5.6
				c0-1.1,0.3-1.3,1.3-1.3c1.8,0.1,3.6,0.1,5.5,0c1,0,1.3,0.3,1.3,1.2c0,4,0,8.1,0,12.1c0,1.4,0,1.4,1.4,1.4c4.1,0,8.3,0,12.4,0
				c1,0,1.3-0.3,1.3-1.2c0-4.1,0-8.2,0-12.3c0-0.9,0.3-1.2,1.2-1.2c1.8,0,3.6,0,5.5,0c0.9,0,1.3,0.2,1.3,1.2
				C164.9,52.4,164.9,58.4,164.9,64.4L164.9,64.4z"/>
			<path class="st1" d="M181.2,67.8c0-4.9,0-9.7,0-14.6c0-1-0.3-1.3-1.2-1.2c-3.1,0.1-6.2,0-9.2,0c-0.8,0-1.1-0.3-1.1-1.1
				c0-1.5,0-3.1,0-4.6c0-0.9,0.3-1.1,1.2-1.1c7.9,0,15.8,0,23.6,0c1.6,0,3.2,0,4.8,0c1.5,0,1.5,0,1.5,1.4c0,1.5,0,2.9,0,4.4
				c0,0.8-0.3,1-1,1c-3.1,0-6.2,0-9.2-0.1c-1,0-1.3,0.3-1.3,1.2c0,9.6,0,19.3,0,28.9c0,1.4,0,1.4-1.4,1.4c-1.9,0-3.7,0-5.6,0
				c-0.8,0-1.1-0.2-1.1-1.1C181.2,77.7,181.2,72.7,181.2,67.8L181.2,67.8z"/>
			<path class="st1" d="M76.9,64.3c0-6.1,0-12.1,0-18.2c0-0.7,0.2-0.9,0.9-0.9c2.1,0,4.1,0,6.2,0c0.6,0,0.9,0.3,0.9,0.9
				c0,0.6,0,1.2,0,1.8c0,11.5,0,22.9,0,34.4c0,1.4,0,1.4-1.4,1.4c-1.8,0-3.6-0.1-5.4,0c-0.9,0-1.2-0.3-1.2-1.2
				C77,76.4,77,70.4,76.9,64.3L76.9,64.3z"/>
		</g>
	</g>
</g>
</svg>
