<?xml version="1.0" encoding="utf-8"?>
<!-- Generator: Adobe Illustrator 19.2.1, SVG Export Plug-In . SVG Version: 6.00 Build 0)  -->
<svg version="1.1" id="Layer_1" xmlns="http://www.w3.org/2000/svg" xmlns:xlink="http://www.w3.org/1999/xlink" x="0px" y="0px"
	 viewBox="0 0 512 128" style="enable-background:new 0 0 512 128;" xml:space="preserve">
<style type="text/css">
	.st0{fill:none;}
	.st1{fill:#3E4F4E;}
	.st2{fill:#7E8A88;}
</style>
<path id="Container" class="st0" d="M0,0h512v128H0V0z"/>
<g>
	<g>
		<path class="st1" d="M89.3,56.2c-0.2,0.1-0.5,0-0.6-0.2c-1.3-1.7-4.2-3.3-7.5-3.3c-4.6,0-6.8,1.9-6.8,4.3c0,2.8,3.4,3.6,7.3,4.1
			c6.2,0.8,12,2.3,13,8.4c1,6.1-3.6,11.7-9.7,12.3c-8.4,0.8-15-0.7-17.9-7.4c-0.1-0.2,0-0.5,0.2-0.6l4.3-2.2c0.2-0.1,0.5,0,0.6,0.2
			c1.6,3.3,5.2,4.7,9,4.7c3.9,0,7.5-1.4,7.5-4.9c0-3.1-3.2-4.3-7.6-4.8c-6.7-0.8-12.8-2.6-12.8-9.9c0-6.7,6.6-9.5,12.7-9.5
			c4.9,0,10.1,1.4,12.6,6.1c0.1,0.2,0,0.5-0.2,0.7L89.3,56.2z"/>
		<path class="st1" d="M129.6,76.7c0.2,0.2,0.2,0.5,0,0.7c-3.3,3.1-7.5,4.5-12.1,4.5c-12.1,0-17.3-8.4-17.3-16.9
			c0-8.5,5.5-17.2,17.3-17.2c4.3,0,8.3,1.6,11.6,4.6c0.2,0.2,0.2,0.5,0,0.7l-3.4,3.3c-0.2,0.2-0.5,0.2-0.6,0
			c-2.1-1.9-4.9-2.8-7.6-2.8c-7.9,0-11.3,5.9-11.3,11.3c0,5.4,3.2,11.1,11.3,11.1c2.7,0,5.7-1.1,7.9-3c0.2-0.2,0.5-0.2,0.7,0
			L129.6,76.7z"/>
		<path class="st1" d="M188.1,71.6h-8.7c-0.3,0-0.6,0.3-0.6,0.6v6.9c0,0.6-0.3,1.2-0.9,1.5l-3.6,1.9c-0.7,0.4-1.6-0.2-1.6-1V49.1
			c0-0.3,0.2-0.6,0.6-0.6c4.9,0,9.9,0,14.8,0C204.1,48.5,204.1,71.6,188.1,71.6z M178.9,65.4c0,0.3,0.3,0.6,0.6,0.6h8.7
			c7.9,0,7.8-11.6,0-11.6h-8.7c-0.3,0-0.6,0.3-0.6,0.6V65.4z"/>
		<path class="st1" d="M230.4,81.2h-23.5c-0.3,0-0.5-0.2-0.5-0.5V49c0-0.3,0.2-0.5,0.5-0.5h23.5c0.3,0,0.5,0.2,0.5,0.5v5
			c0,0.3-0.2,0.5-0.5,0.5H213c-0.3,0-0.5,0.2-0.5,0.5v6.6c0,0.3,0.2,0.5,0.5,0.5h16.8c0.3,0,0.5,0.2,0.5,0.5v4.8
			c0,0.3-0.2,0.5-0.5,0.5H213c-0.3,0-0.5,0.2-0.5,0.5v6.4c0,0.3,0.2,0.5,0.5,0.5h17.4c0.3,0,0.5,0.2,0.5,0.5v5.1
			C230.8,81,230.6,81.2,230.4,81.2z"/>
	</g>
	<path class="st1" d="M166.7,65c0,0,0-0.1,0-0.1c0-0.1,0-0.1,0-0.2c0-7.2-3.8-14.2-11.8-16.2l0,0c-1.5-0.4-3.2-0.6-4.9-0.6
		c-2,0-3.7,0.3-5.3,0.7c-7.3,2-10.9,8.3-11.4,14.9c0,0.1,0,0.1,0,0.2c0,0.4-0.1,0.8-0.1,1.2c0,0,0,0.1,0,0.1c0,0.1,0,0.1,0,0.2
		c0,7.2,3.8,14.2,11.8,16.2l0,0c1.5,0.4,3.2,0.6,4.9,0.6c2,0,3.7-0.3,5.3-0.7c7.3-2,10.9-8.3,11.4-14.9c0-0.1,0-0.1,0-0.2
		C166.7,65.8,166.7,65.4,166.7,65z M160.6,65.3c0,0.3,0,0.6,0,0.8c0,0,0,0,0,0c0,0.3-0.1,0.6-0.1,0.9c0,0.1,0,0.1,0,0.2
		c0,0.3-0.1,0.5-0.1,0.7c0,0.2-0.1,0.4-0.2,0.6c0,0.1,0,0.2-0.1,0.3c-0.7,2.4-2.2,4.7-4.5,6.1c-1.5,0.9-3.3,1.4-5.6,1.4
		c-3.3,0-5.7-1.1-7.4-2.7c-0.9-0.8-1.5-1.8-2.1-2.9c0,0,0-0.1,0-0.1c-0.1-0.3-0.3-0.6-0.4-0.9c0-0.1-0.1-0.2-0.1-0.3
		c-0.1-0.2-0.1-0.5-0.2-0.7c0-0.2-0.1-0.3-0.1-0.5l0,0c-0.1-0.6-0.3-1.5-0.3-2c0,0,0,0,0,0c0-0.2,0-0.4,0-0.6c0-0.2,0-0.5,0-0.7
		c0-0.1,0-0.2,0-0.3c0-0.3,0-0.6,0-0.8c0,0,0,0,0,0c0-0.3,0.1-0.6,0.1-0.9c0-0.1,0-0.1,0-0.2c0-0.3,0.1-0.5,0.1-0.7
		c0-0.2,0.1-0.4,0.2-0.6c0-0.1,0-0.2,0.1-0.3c0.7-2.4,2.2-4.7,4.5-6.1c1.5-0.9,3.3-1.4,5.6-1.4c3.3,0,5.7,1.1,7.4,2.7
		c0.9,0.8,1.5,1.8,2.1,2.9c0,0,0,0.1,0,0.1c0.1,0.3,0.3,0.6,0.4,0.9c0,0.1,0.1,0.2,0.1,0.3c0.1,0.2,0.1,0.5,0.2,0.7
		c0,0.2,0.1,0.3,0.1,0.5c0,0,0,0,0,0c0.1,0.6,0.2,1.2,0.3,1.8c0,0.1,0,0.2,0,0.2c0,0.2,0,0.4,0,0.6c0,0.2,0,0.5,0,0.7
		C160.6,65.1,160.6,65.2,160.6,65.3z"/>
	<g>
		<g>
			<path class="st2" d="M257.4,57.5c0.1-0.1,0.2-0.2,0.2-0.3v-1.3c0-0.1-0.1-0.3-0.2-0.3l-15.9-7.1c-0.1,0-0.2,0-0.3,0
				c-0.1,0.1-0.2,0.2-0.2,0.3v1.3c0,0.1,0.1,0.3,0.2,0.3l3.7,1.6v9.1l-3.7,1.7c-0.1,0.1-0.2,0.2-0.2,0.3v1.3c0,0.1,0.1,0.2,0.2,0.3
				c0.1,0.1,0.2,0.1,0.3,0L257.4,57.5z M246.7,52.8l8.5,3.7l-8.5,3.7V52.8z"/>
			<path class="st2" d="M240.7,64.4V63c0-0.2,0.1-0.5,0.4-0.6l3.5-1.6v-8.7l-3.5-1.6c-0.2-0.1-0.4-0.3-0.4-0.6v-1.3
				c0-0.2,0.1-0.4,0.3-0.5c0.2-0.1,0.4-0.1,0.6,0l15.9,7.1c0.2,0.1,0.4,0.3,0.4,0.6v1.3c0,0.2-0.1,0.5-0.4,0.6h0l-15.9,7.1
				c-0.2,0.1-0.4,0.1-0.6,0C240.8,64.8,240.7,64.6,240.7,64.4z M245.2,52v9.1c0,0.1-0.1,0.2-0.2,0.3l-3.7,1.7l0,1.4l0.2,0.3
				l-0.1-0.3l15.9-7.1c0,0,0,0,0,0v-1.3l-15.9-7.2l-0.1,0v1.3l3.7,1.7C245.1,51.8,245.2,51.9,245.2,52z M246.4,60.3v-7.5
				c0-0.1,0-0.2,0.1-0.2c0.1-0.1,0.2-0.1,0.3,0l8.5,3.7c0.1,0,0.2,0.2,0.2,0.3l0,0c0,0.1-0.1,0.2-0.2,0.3l-8.5,3.7
				c-0.1,0-0.2,0-0.3,0C246.5,60.5,246.4,60.4,246.4,60.3z M247,53.2v6.6l7.5-3.3L247,53.2z"/>
		</g>
		<g>
			<path class="st2" d="M241.6,81.7l5.6-5.1c0.1,1.4,0.6,2.5,1.5,3.3c0.9,0.9,2.2,1.4,3.7,1.4c2.6,0,5.3-1.8,5.3-5.6v-7
				c0-0.2-0.2-0.3-0.3-0.3h-15.9c-0.2,0-0.3,0.2-0.3,0.3V70c0,0.2,0.2,0.3,0.3,0.3h5.7v3.8l-5.9,5.4c-0.1,0.1-0.1,0.2-0.1,0.3v1.6
				c0,0.1,0.1,0.3,0.2,0.3C241.3,81.9,241.4,81.8,241.6,81.7z M248.8,75.7v-5.3h6.9v5.4c0,1.1-0.3,2-1,2.6c-0.6,0.6-1.5,1-2.5,1
				C250.7,79.3,248.8,78.7,248.8,75.7z"/>
			<path class="st2" d="M240.7,81.5v-1.6c0-0.2,0.1-0.3,0.2-0.5l5.8-5.3v-3.4h-5.4c-0.3,0-0.6-0.3-0.6-0.6v-1.2
				c0-0.3,0.3-0.6,0.6-0.6h15.9c0.3,0,0.6,0.3,0.6,0.6v7c0,4-2.9,5.8-5.6,5.9c-1.5,0-2.9-0.5-3.9-1.5c-0.8-0.8-1.3-1.8-1.5-3
				l-5.1,4.7c-0.2,0.2-0.5,0.2-0.7,0.1C240.8,82,240.7,81.7,240.7,81.5z M247.3,70.4v3.8c0,0.1,0,0.2-0.1,0.2l-5.9,5.4l0,1.7l0.1,0
				l5.6-5.1c0.1-0.1,0.2-0.1,0.3-0.1c0.1,0,0.2,0.1,0.2,0.2c0.1,1.3,0.6,2.4,1.4,3.2c0.9,0.9,2.1,1.3,3.5,1.3c2.4,0,5-1.7,5-5.3v-7
				c0,0,0-0.1-0.1-0.1h-15.9c0,0-0.1,0-0.1,0.1V70c0,0,0,0.1,0.1,0.1h5.7C247.2,70.1,247.3,70.2,247.3,70.4z M248.6,75.7v-5.3
				c0-0.2,0.1-0.3,0.3-0.3h6.9c0.2,0,0.3,0.1,0.3,0.3v5.4c0,1.1-0.4,2.1-1.1,2.8c-0.7,0.7-1.7,1.1-2.7,1
				C249.9,79.6,248.6,78.2,248.6,75.7z M249.1,70.7v5c0,2.2,1.1,3.4,3.2,3.4c0.9,0,1.7-0.3,2.3-0.9c0.6-0.6,0.9-1.4,0.9-2.4v-5.1
				H249.1z"/>
		</g>
	</g>
	<path class="st2" d="M50,51.4c0-0.5-0.3-0.9-0.7-1.2L25.5,36.1c-0.3-0.2-0.6-0.2-0.9,0L0.6,50.2C0.2,50.4,0,50.8,0,51.3l0,27.5
		c0,0.3,0.2,0.7,0.5,0.8c0,0,19.7,11.6,24.2,14.1c0.5,0.3,1.2,0.3,1.7,0l23.2-13.8c0.3-0.2,0.5-0.5,0.5-0.8L50,51.4z M23.2,88.2
		c0,0-0.1,0.1-0.3,0L4.1,77.3c-0.3-0.2-0.4-0.4-0.4-0.5l0-21.4c0-0.2,0.2-0.4,0.4-0.3l4.2,2.4C8.8,57.8,9,58.2,9,58.7l0.1,15.3
		c0,0.3,0.2,0.6,0.5,0.8l7.9,4.6c0.3,0.2,0.7,0.2,0.9,0c0.3-0.2,0.5-0.5,0.5-0.8l0-2.2c0-0.3-0.2-0.6-0.5-0.8L13,72.4
		c-0.1,0-0.1-0.1-0.1-0.2l0-11.5c0-0.1,0.1-0.2,0.1-0.2c0,0,0.1-0.1,0.3,0l9.7,5.5c0.2,0.1,0.3,0.5,0.3,0.6L23.4,88
		C23.4,88.2,23.3,88.2,23.2,88.2z M25.5,62.6c-0.2,0.1-0.4,0.2-0.7,0l-19.1-11c-0.1-0.1-0.1-0.2-0.1-0.2c0,0,0-0.1,0.1-0.2l19-10.8
		c0.2-0.1,0.4-0.1,0.7,0l9.6,5.7l8.8,5.2c0.2,0.1,0.2,0.4,0,0.5l-3.9,2.3c-0.4,0.3-1,0.3-1.5,0l-12.9-7.4c-0.3-0.2-0.6-0.2-1,0
		l-7.8,4.8c-0.3,0.2-0.5,0.5-0.5,0.8c0,0.3,0.2,0.6,0.5,0.8l1.9,1.1c0.3,0.2,0.7,0.2,1,0L25,51c0.1,0,0.2,0,0.3,0l9.8,5.6
		c0.1,0.1,0.1,0.2,0.1,0.2c0,0.1,0,0.1-0.1,0.2L25.5,62.6z M45.9,77.7L27.5,88.8c-0.2,0.1-0.4,0-0.4-0.2l0-5.4
		c0-0.3,0.2-0.6,0.4-0.8l13.2-7.7c0.3-0.2,0.5-0.5,0.5-0.8l0-8.9c0-0.3-0.2-0.6-0.5-0.8c-0.3-0.2-0.6-0.2-0.9,0l-1.9,1.1
		c-0.3,0.2-0.5,0.5-0.5,0.8l0,6c0,0.1,0,0.2-0.1,0.2L27.5,78c-0.1,0.1-0.2,0-0.3,0c0,0-0.1-0.1-0.1-0.2l0-11.1
		c0-0.3,0.1-0.6,0.4-0.8l14.1-8.4c0.1,0,0.1-0.1,0.1-0.1l4.2-2.5c0.1-0.1,0.2,0,0.2,0c0,0,0.1,0.1,0.1,0.2l0.1,21.8
		C46.3,77.3,46.2,77.5,45.9,77.7z"/>
</g>
</svg>
