<?xml version="1.0" encoding="utf-8"?>
<!-- Generator: Adobe Illustrator 19.2.1, SVG Export Plug-In . SVG Version: 6.00 Build 0)  -->
<svg version="1.1" id="Layer_1" xmlns="http://www.w3.org/2000/svg" xmlns:xlink="http://www.w3.org/1999/xlink" x="0px" y="0px"
	 viewBox="0 0 512 128" style="enable-background:new 0 0 512 128;" xml:space="preserve">
<style type="text/css">
	.st0{fill:none;}
	.st1{fill:#3E4F4E;}
</style>
<g id="Container">
	<rect class="st0" width="512" height="128"/>
</g>
<g id="Logos">
	<path id="Hodinkee" class="st1" d="M22.7,64.9h-18v15.3H0V47.8h4.7v12.7h18.1V47.8h4.7v32.4h-4.7C22.7,80.3,22.7,64.9,22.7,64.9z
		 M56.1,47.4c9.2,0,16.2,7.2,16.2,16.7s-7.1,16.7-16.2,16.7S39.9,73.5,39.9,64C40,54.6,47,47.4,56.1,47.4z M56.1,76.3
		c6.6,0,11.6-5.3,11.6-12.3s-4.9-12.3-11.6-12.3S44.5,56.9,44.5,64C44.6,71.1,49.6,76.3,56.1,76.3z M87.4,80.3V47.8h9.7
		c5.1,0,8.5,1.1,11.1,3.1c4,3,6.5,7.8,6.5,13.2s-2.5,10.2-6.5,13.2c-2.6,1.9-6,3.1-11.2,3.1L87.4,80.3L87.4,80.3z M106.2,54.9
		c-2.1-1.7-4.7-2.7-9.3-2.7H92v23.6h4.9c4.6,0,7.2-0.9,9.3-2.7c2.5-2.2,3.9-5.5,3.9-9.1C110.1,60.4,108.7,57.1,106.2,54.9
		L106.2,54.9z M129.7,47.8h4.7v32.4h-4.7V47.8z M156,56.4v23.8h-4.7V47.8h3.3l19.5,23.8V47.8h4.7v32.4h-3.3L156,56.4z M195.9,47.8
		h4.7v13.7L214,47.8h6.2l-14.6,15L221,80.2h-5.9L200.6,64v16.2h-4.7L195.9,47.8L195.9,47.8z M249.8,60.5v4.4h-10.6v10.9h14.4v4.4
		h-19V47.8h18.6v4.4h-13.9v8.3H249.8L249.8,60.5z M284,60.5v4.4h-10.6v10.9h14.4v4.4h-19V47.8h18.6v4.4h-13.9v8.3H284L284,60.5
		L284,60.5z"/>
</g>
</svg>
