<?xml version="1.0" encoding="utf-8"?>
<!-- Generator: Adobe Illustrator 19.2.1, SVG Export Plug-In . SVG Version: 6.00 Build 0)  -->
<svg version="1.1" id="Layer_1" xmlns="http://www.w3.org/2000/svg" xmlns:xlink="http://www.w3.org/1999/xlink" x="0px" y="0px"
	 viewBox="0 0 512 128" style="enable-background:new 0 0 512 128;" xml:space="preserve">
<style type="text/css">
	.st0{fill:none;}
	.st1{fill:#3E4F4E;}
</style>
<g id="Container">
	<rect class="st0" width="512" height="128"/>
</g>
<g id="Logos">
	<g id="Scalyr">
		<g>
			<path class="st1" d="M222.9,75.5c-2.1,0-4.3,0-6.4,0c-0.6,0-0.8-0.2-1.1-0.7c-1-1.9-2-3.7-2.9-5.6c-0.2-0.4-0.4-0.5-0.8-0.5
				c-1.4,0-2.8,0-4.3,0c0,2.3,0,4.5,0,6.7c-2.1,0-4.2,0-6.3,0c0-8.1,0-16.2,0-24.3c0.2,0,0.4,0,0.7,0c3.9,0,7.8-0.1,11.6,0
				c3.1,0.1,6,1.1,7.7,4c2.1,3.6,1.4,9.8-2.9,12.1c-0.1,0-0.2,0.1-0.3,0.2c1.7,2.6,3.4,5.2,5,7.8C222.9,75.4,222.9,75.5,222.9,75.5z
				 M207,63.7c1.6,0,3.1,0,4.7,0c0.4,0,0.9,0,1.3-0.1c2-0.5,2.8-1.7,2.8-3.9c0-2-1.2-3.2-2.5-3.3c-2.1-0.3-4.2-0.2-6.3-0.3
				C207,58.7,207,61.2,207,63.7z"/>
			<path class="st1" d="M39.6,39.4c1.2,0.5,2.3,1.2,2.7,2.5c0.7,2.2-1,4.7-3.3,4.7c-9.5,0-19,0-28.4,0c-1.5,0-3.2-1.5-3.4-2.9
				C7,41.9,8,40.2,9.8,39.6c0.1,0,0.2-0.1,0.3-0.2C19.9,39.4,29.8,39.4,39.6,39.4z"/>
			<path class="st1" d="M0,52.4c0.8-1.9,2.2-2.8,4.3-2.8c9.1,0.1,18.1,0.1,27.2,0c1.9,0,3.8,1.8,3.8,3.7c0,1.7-1.8,3.6-3.8,3.6
				c-9.1,0-18.1-0.1-27.2,0c-2.1,0-3.5-0.8-4.3-2.8C0,53.6,0,53,0,52.4z"/>
			<path class="st1" d="M10.1,88.7c-1.2-0.5-2.3-1.2-2.7-2.5c-0.7-2.3,1-4.7,3.4-4.7c5.5,0,11,0,16.5,0c3.8,0,7.6,0,11.4,0
				c1.8,0,3.5,1.3,3.8,3c0.3,1.9-0.7,3.5-2.7,4.1c-0.1,0-0.1,0.1-0.2,0.1C29.8,88.7,19.9,88.7,10.1,88.7z"/>
			<path class="st1" d="M143,75.5c-2.1,0-4.1,0-6.1,0c-0.4,0-0.6-0.2-0.7-0.6c-0.4-1.1-0.8-2.3-1.3-3.4c-0.1-0.2-0.5-0.5-0.7-0.5
				c-3.3,0-6.6,0-10,0c-0.6,1.5-1.2,3-1.8,4.5c-2.1,0-4.3,0-6.5,0c3.5-8.1,7-16.2,10.5-24.3c2,0,4,0,6.1,0c0.2,0,0.5,0.2,0.6,0.4
				c3.3,7.9,6.7,15.8,10,23.8C143,75.3,143,75.4,143,75.5z M129.4,57.5c-1.2,3-2.3,5.8-3.4,8.7c2.3,0,4.5,0,6.8,0
				C131.6,63.3,130.5,60.5,129.4,57.5z"/>
			<path class="st1" d="M60.6,72.3c0.8-1.7,1.6-3.3,2.3-4.9c1.8,1.4,3.6,2.3,5.7,2.9c1.5,0.4,3.1,0.7,4.7,0.3
				c0.9-0.2,1.5-0.8,1.6-1.7c0.1-0.9-0.5-1.6-1.3-1.9c-1.4-0.5-2.8-0.9-4.2-1.3c-1.4-0.5-2.8-0.9-4.2-1.5c-4.1-1.9-4.3-7-2.1-9.8
				c1.5-2,3.7-2.8,6-3.2c3.7-0.6,7.2,0,10.6,1.6c0.4,0.2,0.8,0.4,1.3,0.7c-0.7,1.7-1.5,3.3-2.2,4.9c-1.5-0.6-2.9-1.2-4.4-1.6
				c-1.5-0.5-3.1-0.9-4.7-0.4c-0.7,0.2-1.3,0.6-1.4,1.3s0.2,1.5,0.9,1.7c1.5,0.6,2.9,1.1,4.5,1.6c1.9,0.6,3.8,1.1,5.4,2.3
				c1.9,1.4,2.7,4.1,2.3,6.3c-0.6,3.4-2.9,5.2-6.1,5.9c-5.2,1.2-10.1,0.1-14.5-2.9C60.8,72.4,60.7,72.4,60.6,72.3z"/>
			<path class="st1" d="M111.2,55.1c-1.2,1.4-2.4,2.8-3.6,4.2c-3.7-4.1-8.1-3.7-10.6-1.5c-2.8,2.5-3.1,7.1-0.6,10.1
				c1.4,1.8,3.4,2.5,5.7,2.3c2.2-0.2,3.9-1.3,5.5-2.8c1.2,1.3,2.4,2.6,3.7,3.9c-1,1.2-2.2,2-3.5,2.7c-2.4,1.3-4.9,2-7.7,1.8
				c-5.5-0.5-10.2-4-11.5-9.9c-1.4-6.7,2.6-12.8,8.9-14.5C102.2,50.1,108,51.6,111.2,55.1z"/>
			<path class="st1" d="M24.9,60.1c4.6,0,9.3,0,13.9,0c1.9,0,3.8,1.8,3.7,3.7c0,1.7-1.8,3.6-3.7,3.6c-9.3,0-18.6,0-27.9,0
				c-1.9,0-3.8-1.8-3.8-3.7c0-1.7,1.8-3.6,3.7-3.6C15.6,60.2,20.2,60.1,24.9,60.1z"/>
			<path class="st1" d="M30.2,70.9c4.6,0,9.2,0,13.9,0c1.8,0,3.8,1.8,3.7,3.7c0,1.7-1.8,3.6-3.7,3.6c-9.3,0-18.6,0-27.9,0
				c-1.8,0-3.8-1.8-3.7-3.7c0-1.7,1.8-3.6,3.7-3.6C20.9,70.9,25.6,70.9,30.2,70.9z"/>
			<path class="st1" d="M182.8,61.6c1.8-3.2,3.5-6.4,5.2-9.6c0.3-0.6,0.7-0.9,1.4-0.8c1.7,0.1,3.5,0,5.3,0c-0.3,0.5-0.5,1-0.7,1.4
				c-2.6,4.9-5.2,9.7-7.8,14.6c-0.2,0.3-0.3,0.7-0.3,1.1c0,2.4,0,4.7,0,7.2c-2.1,0-4.1,0-6.3,0c0-1.5-0.1-3,0-4.5
				c0.2-2.2-0.4-4.1-1.5-6c-2.6-4.5-5-9.2-7.5-13.8c0.3,0,0.4-0.1,0.6-0.1c1.7,0,3.3,0,5,0c0.5,0,0.8,0.2,1,0.6
				c1.7,3.2,3.5,6.3,5.2,9.5C182.6,61.4,182.7,61.5,182.8,61.6z"/>
			<path class="st1" d="M167.1,75.7c-5.6,0-11.1,0-16.6,0c0-8.1,0-16.1,0-24.3c2,0,4.1,0,6.2,0c0,6.3,0,12.6,0,19c1.1,0,2.1,0,3.2,0
				c2.2,0,4.4,0,6.6,0c0.2,0,0.6,0.3,0.7,0.4C167.1,72.4,167.1,74,167.1,75.7z"/>
		</g>
	</g>
</g>
</svg>
