<?xml version="1.0" encoding="utf-8"?>
<!-- Generator: Adobe Illustrator 19.2.1, SVG Export Plug-In . SVG Version: 6.00 Build 0)  -->
<svg version="1.1" id="Layer_1" xmlns="http://www.w3.org/2000/svg" xmlns:xlink="http://www.w3.org/1999/xlink" x="0px" y="0px"
	 viewBox="0 0 512 128" style="enable-background:new 0 0 512 128;" xml:space="preserve">
<style type="text/css">
	.st0{fill:none;}
	.st1{fill:#3E4F4E;}
	.st2{fill:#687675;}
</style>
<g id="Container">
	<rect class="st0" width="512" height="128"/>
</g>
<g id="Logos">
	<g id="Modsy">
		<g id="_x34_RSaus.tif">
			<g>
				<path class="st1" d="M59.9,58.7c0,7.5,0,15,0,22.5c-1.7,0-3.4,0-5.1,0c0-11.7,0-23.4,0-35.4c0.5,0.4,0.9,0.7,1.2,1
					c5.2,6,10.3,12,15.5,18c0.2,0.2,0.3,0.3,0.5,0.6c0.3-0.3,0.5-0.6,0.8-0.9c5-5.9,10.1-11.9,15.1-17.8c0.2-0.3,0.6-0.5,1.1-0.9
					c0,12,0,23.7,0,35.4c-1.7,0-3.4,0-5.1,0c0-7.5,0-15,0-22.4c-1.9,2.3-3.8,4.7-5.7,7c-1.8,2.2-3.6,4.4-5.4,6.5
					c-0.8,0.9-1,0.9-1.8,0c-3.6-4.4-7.2-8.8-10.7-13.3C60.1,58.9,60,58.8,59.9,58.7z"/>
				<path class="st1" d="M112.1,46.1c10.2,0,17.9,7.7,17.9,18c0,10.1-7.8,17.8-18,17.7c-10.1,0-17.8-7.8-17.9-17.8
					C94.1,53.8,101.9,46.1,112.1,46.1z M112.1,50.9c-7.1,0-12.4,5.5-12.4,12.8c0,7.6,5.2,13.1,12.4,13.1c7.2,0,12.4-5.5,12.4-13
					C124.5,56.5,119.2,50.9,112.1,50.9z"/>
				<path class="st1" d="M135.4,81.2c0-11.5,0-23,0-34.7c0.4,0,0.8,0,1.2,0c3.6,0.1,7.3,0,10.9,0.2c7.7,0.5,13.8,5.4,15.5,12.5
					c1.3,5.3,0.7,10.5-2.5,15.1c-2.8,3.9-6.7,6.2-11.4,6.7c-4.4,0.5-9,0.3-13.4,0.4C135.5,81.3,135.4,81.2,135.4,81.2z M140.9,76.5
					c3.3,0,6.5,0.2,9.6-0.9c3.6-1.3,5.8-3.8,6.8-7.5c0.8-2.9,0.7-5.8-0.1-8.7s-2.6-5.1-5.3-6.5c-3.5-1.8-7.2-1.7-11-1.6
					C140.9,59.7,140.9,68.1,140.9,76.5z"/>
				<path class="st1" d="M188.2,51.5c-1.6,1-2.9,1.8-4.4,2.7c-0.3-0.5-0.6-0.9-1-1.3c-1.5-1.9-4.2-2.6-6.5-1.8
					c-2.7,1-3.6,4.5-1.5,6.5c0.9,0.9,2,1.5,3.1,2.1c2.4,1.2,4.8,2.3,7.1,3.6c2.4,1.4,4.1,3.4,4.8,6.2c1.4,6.2-2.2,11.2-8.6,12
					c-2.8,0.4-5.6,0.2-8.2-0.8c-3.1-1.2-5.3-3.3-6.8-6.2c1.5-0.8,2.9-1.6,4.4-2.5c0.5,0.7,0.9,1.3,1.5,1.9c2.2,2.6,5.9,3.6,9.1,2.5
					c1.8-0.6,3-1.7,3.3-3.6c0.3-2-0.4-3.7-2.1-4.7c-1.8-1.1-3.7-2-5.6-2.9c-2.1-1-4.2-2-5.9-3.7c-2.7-2.8-3.2-6.1-2.1-9.6
					c1.1-3.5,3.8-5.3,7.3-5.8s6.9-0.1,9.6,2.5C186.7,49.5,187.3,50.5,188.2,51.5z"/>
				<path class="st1" d="M191.7,46.5c1.9,0,3.7,0,5.5,0c0.7,0,0.9,0.5,1.1,0.9c2.8,5.3,5.6,10.7,8.4,16.1c0.1-0.1,0.2-0.4,0.3-0.7
					c2.6-5.3,5.3-10.5,7.9-15.8c0.1-0.2,0.5-0.5,0.8-0.5c1.6,0,3.3,0,5.1,0c-0.2,0.4-0.3,0.7-0.4,0.9c-3.5,6.6-7.1,13.3-10.6,19.9
					c-0.3,0.6-0.5,1.3-0.5,2c0,3.6,0,7.2,0,10.8c0,0.4,0,0.7,0,1.2c-1.8,0-3.6,0-5.4,0c0-0.4,0-0.7,0-1.1c0-3.5,0-6.9,0-10.4
					c0-0.8-0.2-1.6-0.6-2.2c-3.6-6.7-7.3-13.4-11-20C192.1,47.2,191.9,46.9,191.7,46.5z"/>
			</g>
		</g>
		<g>
			<polygon class="st1" points="9.7,45.3 0,55 0,64.6 9.7,54.9 			"/>
			<polygon class="st2" points="19.2,54.7 9.7,45.3 9.7,54.9 19.2,64.4 			"/>
			<polygon class="st2" points="28.6,45.3 38.4,55 38.4,64.6 28.6,54.9 			"/>
			<polygon class="st1" points="19.2,54.7 28.6,45.3 28.6,54.9 19.2,64.4 			"/>
			<polygon class="st2" points="19.2,83.7 0,64.6 0,55 19.2,74.1 			"/>
			<polygon class="st1" points="19.2,83.7 38.4,64.6 38.4,55 19.2,74.1 			"/>
		</g>
	</g>
</g>
</svg>
