<svg id="Layer_1" xmlns="http://www.w3.org/2000/svg" viewBox="0 0 512 128"><style>.st0{fill:none}.st1{fill:#3e4f4e}</style><path class="st0" d="M0 0h512v128H0z" id="Container"/><g id="Logos"><path id="Hodinkee" class="st1" d="M22.7 64.9h-18v15.3H0V47.8h4.7v12.7h18.1V47.8h4.7v32.4h-4.7c-.1.1-.1-15.3-.1-15.3zm33.4-17.5c9.2 0 16.2 7.2 16.2 16.7s-7.1 16.7-16.2 16.7S39.9 73.5 39.9 64c.1-9.4 7.1-16.6 16.2-16.6zm0 28.9c6.6 0 11.6-5.3 11.6-12.3s-4.9-12.3-11.6-12.3S44.5 56.9 44.5 64c.1 7.1 5.1 12.3 11.6 12.3zm31.3 4V47.8h9.7c5.1 0 8.5 1.1 11.1 3.1 4 3 6.5 7.8 6.5 13.2s-2.5 10.2-6.5 13.2c-2.6 1.9-6 3.1-11.2 3.1l-9.6-.1zm18.8-25.4c-2.1-1.7-4.7-2.7-9.3-2.7H92v23.6h4.9c4.6 0 7.2-.9 9.3-2.7 2.5-2.2 3.9-5.5 3.9-9.1 0-3.6-1.4-6.9-3.9-9.1zm23.5-7.1h4.7v32.4h-4.7V47.8zm26.3 8.6v23.8h-4.7V47.8h3.3l19.5 23.8V47.8h4.7v32.4h-3.3L156 56.4zm39.9-8.6h4.7v13.7L214 47.8h6.2l-14.6 15L221 80.2h-5.9L200.6 64v16.2h-4.7V47.8zm53.9 12.7v4.4h-10.6v10.9h14.4v4.4h-19V47.8h18.6v4.4h-13.9v8.3h10.5zm34.2 0v4.4h-10.6v10.9h14.4v4.4h-19V47.8h18.6v4.4h-13.9v8.3H284z"/></g></svg>