<?xml version="1.0" encoding="utf-8"?>
<!-- Generator: Adobe Illustrator 19.2.1, SVG Export Plug-In . SVG Version: 6.00 Build 0)  -->
<svg version="1.1" id="Layer_1" xmlns="http://www.w3.org/2000/svg" xmlns:xlink="http://www.w3.org/1999/xlink" x="0px" y="0px"
	 viewBox="0 0 512 128" style="enable-background:new 0 0 512 128;" xml:space="preserve">
<style type="text/css">
	.st0{fill:none;}
	.st1{fill:#3E4F4E;}
	.st2{fill:#7E8A88;}
</style>
<path id="Container" class="st0" d="M0,0h512v128H0V0z"/>
<g>
	<g id="pHJjBt.tif">
		<g>
			<path class="st1" d="M0,36.8c0.1,0,0.3,0,0.4,0c15.3,0,30.5,0,45.8,0c0.1,0,0.3,0,0.4,0c0,0,0.1,0.1,0.1,0.1
				c-0.4,0.4-0.7,0.8-1.1,1.2c-0.7,0.6-1.4,1.2-2.2,1.9c-1,0.9-2.1,1.8-3.1,2.7c-0.7,0.6-1.3,1.1-2,1.7c-1,0.9-2.1,1.8-3.1,2.7
				c-0.4,0.4-0.9,0.8-1.3,1.2c-0.3,0.2-0.5,0.4-0.9,0.4c-10.4,0-20.9,0-31.3,0c-0.7,0-1.3-0.2-1.7-0.9C0,44,0,40.4,0,36.8z"/>
			<path class="st1" d="M227,36.2c0.7,0.1,1.4,0.2,2,0.3c1.4,0.3,2.6,0.8,3.7,1.7c1.6,1.3,2.3,3,2.5,5.1c0.1,1,0,2-0.3,3
				c-0.6,2.1-2,3.6-3.9,4.6c-0.1,0.1-0.3,0.1-0.5,0.2c1.8,2.6,3.6,5.3,5.4,8c-0.2,0-0.3,0-0.4,0c-2.2,0-4.4,0-6.6,0
				c-0.3,0-0.4-0.1-0.5-0.3c-1.4-2.1-2.8-4.2-4.2-6.3c-0.2-0.3-0.4-0.4-0.7-0.4c-0.8,0-1.5,0-2.3,0c0,2.3,0,4.6,0,6.9
				c-2.1,0-4.2,0-6.3,0c0-0.1,0-0.2,0-0.3c0-7.4,0-14.9,0-22.3c0-0.1,0-0.1,0-0.2C219,36.2,223,36.2,227,36.2z M221.4,47.2
				c0.1,0,0.2,0,0.2,0c1.3,0,2.6,0,4,0c0.7,0,1.3-0.2,1.9-0.4c1.1-0.5,1.5-1.4,1.4-2.5c-0.1-1.1-0.6-1.8-1.6-2.2
				c-0.5-0.2-1.1-0.3-1.6-0.3c-1.3,0-2.7,0-4,0c-0.1,0-0.2,0-0.3,0C221.4,43.6,221.4,45.4,221.4,47.2z"/>
			<path class="st1" d="M175,36.2c0,0.2,0,0.3,0,0.5c0,7.3,0,14.5,0,21.8c0,0.2,0,0.3,0,0.5c-2.1,0-4.2,0-6.3,0c0-2.9,0-5.7,0-8.6
				c-2.7,0-5.4,0-8.1,0c0,2.9,0,5.7,0,8.6c-2.1,0-4.2,0-6.3,0c0-0.1,0-0.2,0-0.3c0-7.4,0-14.8,0-22.3c0-0.1,0-0.2,0-0.2
				c2.1,0,4.2,0,6.3,0c0,0.2,0,0.3,0,0.5c0,2.5,0,5.1,0,7.6c0,0.2,0,0.3,0,0.4c2.7,0,5.4,0,8.1,0c0-2.9,0-5.7,0-8.5
				C170.7,36.2,172.8,36.2,175,36.2z"/>
			<path class="st1" d="M116.4,36.2c0,1.6,0,3.2,0,4.9c0,0.2,0,0.3,0,0.5c-4,0-8.1,0-12.1,0c0,0.2,0,0.3,0,0.4c0,0.9,0,1.8,0,2.7
				c0,0.3,0.1,0.4,0.4,0.4c3.3,0,6.7,0,10,0c0.2,0,0.3,0,0.5,0c0,1.7,0,3.3,0,5c-3.6,0-7.2,0-10.9,0c0,1.2,0,2.4,0,3.6
				c4.1,0,8.1,0,12.2,0c0,1.8,0,3.6,0,5.4c-6.2,0-12.3,0-18.5,0c0-0.2,0-0.3,0-0.5c0-7.3,0-14.5,0-21.8c0-0.2,0-0.4,0-0.5
				C104.1,36.2,110.2,36.2,116.4,36.2z"/>
			<path class="st1" d="M88.5,36.2c0,1.4,0,2.8,0,4.2c0,0.3-0.1,0.5-0.3,0.7c-3.6,4.1-7.3,8.2-10.9,12.2c-0.1,0.1-0.2,0.2-0.3,0.4
				c3.8,0,7.6,0,11.4,0c0,1.8,0,3.6,0,5.3c-6.7,0-13.4,0-20.2,0c0-0.1,0-0.2,0-0.4c0-1.3,0-2.6,0-3.9c0-0.2,0.1-0.4,0.2-0.6
				c3.6-4.1,7.2-8.1,10.8-12.2c0.1-0.1,0.2-0.3,0.4-0.4c-3.7,0-7.4,0-11,0c0-0.2,0-0.3,0-0.5c0-1.5,0-3,0-4.4c0-0.2,0-0.3,0-0.5
				C75.3,36.2,81.9,36.2,88.5,36.2z"/>
			<path class="st1" d="M136.9,36.2c0.8,0.1,1.5,0.2,2.3,0.4c2.4,0.6,4.3,1.8,5.4,4.1c1.2,2.6,1.1,6.8-1.5,9.2c-1.4,1.3-3.1,2-5,2.3
				c-0.9,0.2-1.9,0.2-2.9,0.2c-1,0-1.9,0-2.9,0c0,2.2,0,4.3,0,6.5c-2.1,0-4.2,0-6.3,0c0-0.1,0-0.2,0-0.3c0-7.5,0-15.1,0-22.6
				C129.6,36.2,133.2,36.2,136.9,36.2z M132.3,47.5c0.7,0.2,3.8,0.1,4.5-0.2c1-0.3,1.7-0.8,2-1.8c0.6-1.9-0.4-3.6-2.4-3.9
				c-1.3-0.2-2.7-0.1-4-0.1c0,0,0,0-0.1,0C132.3,43.6,132.3,45.6,132.3,47.5z"/>
			<path class="st1" d="M206.9,36.2c-2.8,4.6-5.7,9.3-8.5,14c-0.1,0.2-0.2,0.4-0.2,0.6c0,2.6,0,5.2,0,7.8c0,0.2,0,0.3,0,0.5
				c-2.1,0-4.2,0-6.4,0c0-0.1,0-0.3,0-0.5c0-2.6,0-5.1,0-7.7c0-0.2-0.1-0.5-0.2-0.7c-2.7-4.5-5.5-9-8.2-13.5
				c-0.1-0.1-0.1-0.3-0.2-0.4c2.4,0,4.8,0,7.2,0c0,0.1,0,0.1,0.1,0.2c1.5,2.6,3,5.3,4.5,7.9c0,0.1,0.1,0.1,0.1,0.2
				c0-0.1,0.1-0.1,0.1-0.2c1.5-2.6,3-5.2,4.5-7.9c0-0.1,0.1-0.2,0.1-0.2C202.1,36.2,204.5,36.2,206.9,36.2z"/>
			<path class="st1" d="M48,80.7c0,0.2,0,0.3,0,0.5c0,3.2,0,6.4,0,9.6c0,1.1-0.4,1.5-1.5,1.5c-4.5,0-9,0-13.5,0
				c-7.9,0-15.8,0-23.6,0c-2.5,0-5,0-7.6,0.1c-0.2,0-0.4,0-0.7,0c0.6-0.6,1.1-1.1,1.6-1.6c1.2-1.1,2.4-2.1,3.6-3.1
				c1.5-1.3,2.9-2.5,4.4-3.8c1.1-0.9,2.2-1.9,3.3-2.9c0.2-0.2,0.5-0.3,0.8-0.3c1.2,0,2.4,0.1,3.6,0.1c9.7,0,19.4,0,29,0
				C47.6,80.7,47.8,80.7,48,80.7z"/>
		</g>
	</g>
	<g id="lS1SLM.tif">
		<g>
			<path class="st2" d="M0.2,80.1c0-0.1,0.1-0.2,0.1-0.4c0-0.5,0-1,0-1.5c0-0.5,0.2-0.9,0.5-1.3c0.8-0.7,1.6-1.4,2.5-2.1
				C4,74,4.9,73.3,5.7,72.6c0.8-0.7,1.6-1.3,2.4-2c0.6-0.5,1.2-1.1,1.8-1.6c0.9-0.7,1.8-1.5,2.6-2.2c0.7-0.6,1.3-1.2,2-1.7
				c0.9-0.8,1.8-1.6,2.7-2.3c0.6-0.6,1.3-1.1,1.9-1.7c0.9-0.7,1.8-1.5,2.6-2.2c0.7-0.6,1.3-1.2,2-1.7c0.9-0.8,1.8-1.5,2.6-2.3
				c0.7-0.6,1.3-1.2,2-1.7c0.9-0.8,1.9-1.6,2.8-2.4c0.5-0.4,1-0.9,1.5-1.3c1-0.9,2-1.8,3-2.6c0.8-0.7,1.6-1.4,2.4-2.1
				c1.1-0.9,2.2-1.9,3.3-2.8c0.8-0.7,1.7-1.5,2.5-2.2c0.8-0.7,1.5-1.4,2.3-2.1c0.2-0.2,0.3-0.4,0.4-0.6c0.2,0,0.4,0,0.6,0
				c0.2,0.2,0.2,0.4,0.2,0.7c0,4.4,0,8.8,0.1,13.2c0,1-0.4,1.6-1.1,2.2c-0.6,0.5-1.3,1.1-1.9,1.6c-0.8,0.7-1.7,1.4-2.5,2.2
				c-0.6,0.5-1.2,1.1-1.8,1.6c-1,0.9-2,1.7-3,2.6c-0.6,0.5-1.2,1.1-1.9,1.6c-0.9,0.8-1.8,1.5-2.7,2.3c-0.6,0.6-1.3,1.1-1.9,1.7
				c-0.9,0.8-1.8,1.5-2.7,2.3c-0.6,0.6-1.3,1.1-1.9,1.7c-0.9,0.8-1.8,1.5-2.7,2.3c-0.6,0.5-1.3,1.1-1.9,1.7
				c-0.9,0.8-1.8,1.6-2.7,2.3c-0.7,0.6-1.3,1.2-2,1.8c-0.7,0.6-1.4,1.2-2.1,1.8c-0.6,0.6-1.3,1.1-1.9,1.7c-1.3,1.2-2.7,2.3-4,3.5
				c-1,0.9-2,1.8-3,2.6c-1,0.9-2.1,1.8-3.1,2.7c-0.6,0.5-1.1,1.1-1.6,1.6c-0.2,0-0.3,0-0.5,0c-0.3-0.2-0.4-0.4-0.4-0.8
				c0-1.3,0-2.7,0-4c0-0.1-0.1-0.3-0.1-0.4C0.2,84.9,0.2,82.5,0.2,80.1z"/>
			<path class="st2" d="M100.4,92.5c0-1.3,0-2.6,0-3.8c0-6.3,0-12.6,0-18.9c0-0.2,0-0.3,0-0.5c5.6,0,11.2,0,16.8,0
				c0,0.8,0,1.6,0,2.4c-4.7,0-9.4,0-14.2,0c0,2.7,0,5.3,0,7.9c4.2,0,8.4,0,12.7,0c0,0.8,0,1.6,0,2.4c-4.2,0-8.4,0-12.7,0
				c0,2.7,0,5.4,0,8.2c4.8,0,9.6,0,14.4,0c0,0.8,0,1.6,0,2.4C111.8,92.5,106.1,92.5,100.4,92.5z"/>
			<path class="st2" d="M67.8,92.5c0-0.2,0-0.3,0-0.5c0-7.4,0-14.8,0-22.2c0-0.2,0-0.3,0-0.5c0.9,0,1.7,0,2.6,0c0,3.4,0,6.8,0,10.3
				c4.5,0,8.9,0,13.4,0c0-3.4,0-6.8,0-10.3c0.9,0,1.7,0,2.7,0c0,0.2,0,0.3,0,0.5c0,7.4,0,14.8,0,22.2c0,0.2,0,0.4,0,0.5
				c-0.9,0-1.8,0-2.7,0c0-3.5,0-7,0-10.5c-4.5,0-8.9,0-13.4,0c0,3.5,0,7,0,10.5C69.6,92.5,68.7,92.5,67.8,92.5z"/>
			<path class="st2" d="M217.4,92.5c0-0.1,0-0.3,0-0.4c0-7.5,0-15,0-22.5c0-0.1,0-0.3,0-0.4c0.9,0,1.7,0,2.6,0c0,3.4,0,6.8,0,10.3
				c4.5,0,9,0,13.5,0c0-3.4,0-6.9,0-10.3c0.9,0,1.8,0,2.6,0c0,7.8,0,15.5,0,23.3c-0.9,0-1.8,0-2.7,0c0-0.1,0-0.2,0-0.3
				c0-3.2,0-6.5,0-9.7c0-0.1,0-0.2,0-0.4c-4.5,0-8.9,0-13.4,0c0,0.4,0,0.8,0,1.2c0,3.1,0,6.2,0,9.3
				C219.1,92.5,218.2,92.5,217.4,92.5z"/>
			<path class="st2" d="M128.2,92.5c0-0.1,0.1-0.2,0.1-0.4c3.4-7.6,6.8-15.1,10.2-22.7c0.2-0.3,0.3-0.5,0.7-0.4c0.5,0,1,0,1.6,0
				c0.3,0,0.5,0.1,0.6,0.4c2.5,5.5,4.9,10.9,7.4,16.4c1,2.1,1.9,4.2,2.9,6.3c0.1,0.1,0.1,0.2,0.1,0.4c-0.9,0-1.9,0-2.8,0
				c-0.9-2-1.7-4-2.6-5.9c0-0.1-0.2-0.2-0.4-0.2c-4,0-8.1,0-12.1,0c-0.1,0-0.3,0.1-0.4,0.2c-0.9,2-1.8,3.9-2.7,5.9
				C129.9,92.5,129.1,92.5,128.2,92.5z M139.9,72.1c-1.8,4-3.5,7.9-5.3,11.8c3.6,0,7,0,10.6,0C143.5,80,141.7,76.1,139.9,72.1z"/>
			<path class="st2" d="M194.6,92.5c0-0.2,0-0.3,0-0.5c0-6.6,0-13.2,0-19.8c0-0.2,0-0.3,0-0.6c-2.6,0-5.2,0-7.8,0c0-0.8,0-1.6,0-2.4
				c6.1,0,12.1,0,18.3,0c0,0.8,0,1.6,0,2.4c-2.6,0-5.2,0-7.7,0c0,0.2,0,0.3,0,0.4c0,6.7,0,13.5,0,20.2c0,0.1,0,0.2,0,0.3
				C196.4,92.5,195.5,92.5,194.6,92.5z"/>
			<path class="st2" d="M163.8,92.5c0-0.2,0-0.3,0-0.5c0-7.4,0-14.9,0-22.3c0-0.2,0-0.3,0-0.5c0.9,0,1.7,0,2.6,0
				c0,6.9,0,13.9,0,20.8c4.4,0,8.7,0,13.1,0c0,0.8,0,1.6,0,2.4C174.3,92.5,169.1,92.5,163.8,92.5z"/>
		</g>
	</g>
</g>
</svg>
