<?xml version="1.0" encoding="utf-8"?>
<!-- Generator: Adobe Illustrator 19.2.1, SVG Export Plug-In . SVG Version: 6.00 Build 0)  -->
<svg version="1.1" id="Layer_1" xmlns="http://www.w3.org/2000/svg" xmlns:xlink="http://www.w3.org/1999/xlink" x="0px" y="0px"
	 viewBox="0 0 512 128" style="enable-background:new 0 0 512 128;" xml:space="preserve">
<style type="text/css">
	.st0{fill:none;}
	.st1{fill:#3E4F4E;}
	.st2{fill:#7E8A88;}
</style>
<path id="Container" class="st0" d="M0,0h512v128H0V0z"/>
<g>
	<g>
		<path id="Remedy" class="st1" d="M63,65h-5.4v14.9h-5.1V43.5h13.6c1.7,0,3.2,0.3,4.6,0.8s2.5,1.3,3.5,2.3c1,1,1.7,2.1,2.2,3.4
			c0.5,1.3,0.8,2.7,0.8,4.2c0,2.6-0.8,4.9-2.3,6.7s-3.7,3.1-6.5,3.6l8.6,15.2h-5.8L63,65z M65.3,60.5c2,0,3.7-0.6,5-1.7
			c1.3-1.1,1.9-2.6,1.9-4.5c0-1.9-0.6-3.5-1.9-4.6c-1.3-1.1-2.9-1.7-5-1.7h-7.7v12.5H65.3z"/>
		<path id="Path" class="st1" d="M99.4,72.7c-0.3,1.1-0.8,2.1-1.5,3.1c-0.7,0.9-1.5,1.8-2.4,2.5c-0.9,0.7-2,1.3-3.2,1.7
			c-1.2,0.4-2.5,0.6-3.9,0.6c-1.6,0-3.2-0.3-4.7-0.9c-1.5-0.6-2.8-1.4-4-2.6c-1.1-1.1-2-2.5-2.7-4.2c-0.7-1.6-1-3.5-1-5.6
			c0-1.9,0.3-3.7,1-5.3s1.5-3,2.6-4.1s2.3-2,3.8-2.7s2.9-0.9,4.4-0.9c1.9,0,3.5,0.3,5,0.9c1.5,0.6,2.7,1.5,3.7,2.6s1.7,2.5,2.3,4.1
			s0.8,3.3,0.8,5.3c0,0.3,0,0.6,0,0.9c0,0.3,0,0.5-0.1,0.7H81c0,1.1,0.2,2.1,0.6,3s0.9,1.7,1.6,2.4s1.4,1.2,2.3,1.5
			c0.9,0.4,1.9,0.5,2.9,0.5c2,0,3.5-0.5,4.6-1.4c1.1-1,1.8-2.1,2.3-3.5L99.4,72.7z M94.6,64.8c-0.1-1.8-0.7-3.3-1.8-4.5
			c-1.1-1.2-2.8-1.8-5-1.8c-1,0-1.9,0.2-2.7,0.5c-0.8,0.4-1.5,0.8-2,1.4c-0.6,0.6-1,1.3-1.4,2c-0.3,0.8-0.5,1.5-0.6,2.3H94.6z"/>
		<path id="Path_1_" class="st1" d="M101.1,79.6V55h4.6v3.3c0.8-1.4,1.9-2.4,3.2-3c1.4-0.6,2.8-1,4.2-1c1.5,0,3,0.4,4.3,1.1
			c1.3,0.8,2.4,1.9,3,3.5c1-1.8,2.2-3,3.7-3.7s3-1,4.5-1c1.1,0,2.1,0.2,3.1,0.6c1,0.4,1.9,0.9,2.7,1.7s1.4,1.7,1.9,2.9
			c0.5,1.2,0.7,2.6,0.7,4.2v16h-4.7V64.1c0-1.6-0.4-2.9-1.3-4s-2.2-1.6-4-1.6c-1.7,0-3.1,0.6-4.1,1.8s-1.6,2.7-1.6,4.4v14.9h-4.8
			V64.1c0-1.6-0.4-2.9-1.2-4s-2.1-1.6-4-1.6c-1.7,0-3.1,0.6-4.2,1.7c-1,1.2-1.6,2.7-1.6,4.5v14.9H101.1z"/>
		<path id="Path_2_" class="st1" d="M162.3,72.7c-0.3,1.1-0.8,2.1-1.5,3.1c-0.7,0.9-1.5,1.8-2.4,2.5c-0.9,0.7-2,1.3-3.2,1.7
			s-2.5,0.6-3.9,0.6c-1.6,0-3.2-0.3-4.7-0.9c-1.5-0.6-2.8-1.4-4-2.6s-2-2.5-2.7-4.2c-0.7-1.6-1-3.5-1-5.6c0-1.9,0.3-3.7,1-5.3
			c0.6-1.6,1.5-3,2.6-4.1s2.3-2,3.8-2.7c1.4-0.6,2.9-0.9,4.4-0.9c1.9,0,3.5,0.3,5,0.9c1.5,0.6,2.7,1.5,3.7,2.6
			c1,1.1,1.7,2.5,2.3,4.1c0.5,1.6,0.8,3.3,0.8,5.3c0,0.3,0,0.6,0,0.9c0,0.3,0,0.5-0.1,0.7h-18.5c0,1.1,0.2,2.1,0.6,3
			c0.4,0.9,0.9,1.7,1.6,2.4s1.4,1.2,2.3,1.5c0.9,0.4,1.9,0.5,2.9,0.5c2,0,3.5-0.5,4.6-1.4c1.1-1,1.8-2.1,2.3-3.5L162.3,72.7z
			 M157.4,64.8c-0.1-1.8-0.7-3.3-1.8-4.5c-1.1-1.2-2.8-1.8-5-1.8c-1,0-1.9,0.2-2.7,0.5c-0.8,0.4-1.5,0.8-2,1.4c-0.6,0.6-1,1.3-1.4,2
			c-0.3,0.8-0.5,1.5-0.6,2.3H157.4z"/>
		<path id="Path_3_" class="st1" d="M183.1,75.8c-0.6,1.2-1.5,2.2-2.8,3.1s-2.9,1.3-4.8,1.3c-1.8,0-3.4-0.3-4.9-1
			c-1.4-0.7-2.6-1.6-3.7-2.8c-1-1.2-1.8-2.6-2.3-4.2c-0.5-1.6-0.8-3.3-0.8-5.2c0-1.7,0.3-3.4,0.8-4.9s1.4-2.9,2.4-4.1
			c1-1.2,2.2-2.1,3.7-2.8c1.4-0.7,3-1.1,4.7-1.1c1.1,0,2.1,0.1,2.9,0.4s1.6,0.6,2.2,0.9c0.6,0.4,1.1,0.8,1.5,1.3
			c0.4,0.5,0.7,1,0.9,1.5V42.5h4.7V75c0,1.2,0,2.2,0.1,3c0.1,0.8,0.1,1.3,0.2,1.5h-4.6c-0.1-0.3-0.1-0.7-0.2-1.3
			c-0.1-0.6-0.1-1.3-0.1-2V75.8z M168.8,67.2c0,1.3,0.2,2.4,0.5,3.5c0.3,1.1,0.8,2,1.4,2.8c0.6,0.8,1.4,1.4,2.2,1.8s1.9,0.7,3.1,0.7
			c1.1,0,2.1-0.2,3-0.7c0.9-0.5,1.6-1.1,2.2-1.9c0.6-0.8,1.1-1.7,1.4-2.8s0.5-2.3,0.5-3.5c0-2.6-0.6-4.6-1.9-6.2
			c-1.2-1.6-3-2.4-5.2-2.4c-1.1,0-2.1,0.2-3,0.6c-0.9,0.4-1.7,1-2.3,1.8s-1.1,1.7-1.5,2.7C169,64.7,168.8,65.9,168.8,67.2z"/>
		<path id="Path_4_" class="st1" d="M193.4,89.7l6.1-13l-10.6-21.9h5.5l7.7,17l7.4-17h5.2l-16,35H193.4z"/>
	</g>
	<path id="Combined-Shape" class="st2" d="M14,81.1l26.7-26.7c3.2-3.2,3.2-8.4,0-11.6c-3.2-3.2-8.4-3.2-11.6,0L2.4,69.5
		c-3.2,3.2-3.2,8.4,0,11.6C5.6,84.3,10.8,84.3,14,81.1z"/>
	<path id="Combined-Shape-Copy" class="st2" d="M40.8,69.5L14,42.7c-3.2-3.2-8.4-3.2-11.6,0c-3.2,3.2-3.2,8.4,0,11.6l26.7,26.7
		c3.2,3.2,8.4,3.2,11.6,0C44,77.9,44,72.7,40.8,69.5z"/>
	
		<rect x="13.4" y="53.7" transform="matrix(0.7071 -0.7071 0.7071 0.7071 -37.4578 33.4043)" class="st1" width="16.4" height="16.4"/>
</g>
</svg>
