<?xml version="1.0" encoding="utf-8"?>
<!-- Generator: Adobe Illustrator 19.2.1, SVG Export Plug-In . SVG Version: 6.00 Build 0)  -->
<svg version="1.1" id="Layer_1" xmlns="http://www.w3.org/2000/svg" xmlns:xlink="http://www.w3.org/1999/xlink" x="0px" y="0px"
	 viewBox="0 0 512 128" style="enable-background:new 0 0 512 128;" xml:space="preserve">
<style type="text/css">
	.st0{fill:none;}
	.st1{fill:#7E8A88;}
	.st2{fill:#3E4F4E;}
</style>
<path id="Container" class="st0" d="M0,0h512v128H0V0z"/>
<g>
	<path class="st1" d="M41.1,33.3c1.1,0.2,2.2,0.5,3.2,0.7c4.7,1.1,8.7,3.4,11.8,7.1c0.4,0.5,0.7,1,1,1.4c0.1,0.1,0.1,0.3,0.3,0.7
		c-0.6-0.6-1-0.9-1.3-1.2c-5.9-4.9-12.6-5.8-19.7-3.4c-5.6,1.8-10.2,5.2-14.5,9c-0.3,0.2-0.5,0.6-0.8,0.7c-0.5,0.1-1.2,0.2-1.7,0
		c-0.4-0.2-0.7-0.9-0.7-1.3c0.1-0.8,0.3-1.7,0.8-2.3c0.9-1.2,1.8-2.5,2.9-3.4c4.3-3.7,9-6.7,14.8-7.6c0.3-0.1,0.7-0.2,1-0.3
		C39.2,33.3,40.1,33.3,41.1,33.3z"/>
	<path class="st2" d="M242.8,56.9c0-0.7,0.1-1.3,0.1-2c1.4,0,2.7,0,4.2,0c0,0.5,0,0.9,0,1.3c0,6.6,0,13.1,0,19.7
		c0,4-1.3,7.2-5.2,8.9c-3.8,1.7-8.8,0.8-11.7-2.1c0.9-0.9,1.9-1.7,2.9-2.6c2.2,1.8,4.8,2.6,7.4,1c2.7-1.6,2.2-4.5,2.2-7.4
		c-1.7,1.8-3.6,2.5-5.8,2.4c-3.7-0.1-6.3-2.2-7-5.9c-0.6-3.2-0.6-6.4,0-9.7c0.5-2.7,1.8-4.8,4.5-5.6c2.9-0.9,5.6-0.7,7.9,1.6
		C242.4,56.6,242.5,56.7,242.8,56.9z M233.7,65.2c0,0,0.1,0,0.1,0c0.1,0.9,0.1,1.9,0.3,2.8c0.1,0.6,0.3,1.2,0.5,1.7
		c0.6,1.6,1.7,2.3,3.8,2.2c1.9,0,3.1-0.7,3.6-2.2c1-3,1-6.1,0-9.1c-0.5-1.6-1.7-2.2-3.6-2.2c-2,0-3.3,0.6-3.8,2.2
		C234.2,62.2,234,63.7,233.7,65.2z"/>
	<path class="st2" d="M268.8,76.5c-1.3,0-2.6,0-4.1,0c0-0.5-0.1-1-0.1-1.5c-0.1,0-0.3,0-0.3,0.1c-2.5,2.1-5.4,2.1-8.3,1.4
		c-3.2-0.8-4.9-3.5-4.6-6.9c0.3-3.1,2.5-5.3,6-5.5c2-0.2,4-0.1,5.9-0.1c0.4,0,0.8,0,1.3,0c0-2,0.2-4-1.8-5c-2.3-1.2-5.5-0.6-7.7,1.5
		c-0.9-0.9-1.9-1.7-2.8-2.6c1.6-2.1,3.8-3.1,6.2-3.1c2,0,4.1,0.1,6.1,0.6c2.7,0.7,4.3,2.7,4.4,5.5c0.2,5.2,0.1,10.4,0.1,15.5
		C268.9,76.3,268.9,76.4,268.8,76.5z M264.6,67c-1.9,0-3.8,0-5.6,0c-0.7,0-1.3,0.2-1.9,0.5c-1.1,0.5-1.5,1.5-1.5,2.7
		c0,1.2,0.5,2,1.6,2.5c4,1.8,7.4-0.4,7.4-4.6C264.6,67.8,264.6,67.5,264.6,67z"/>
	<path class="st2" d="M225.2,73.3c-2.7,3.2-7.4,4.4-11.8,2.9c-4.2-1.4-5.7-4.7-6-8.7c-0.1-1.9,0-4,0.4-5.9c1.1-4.8,4.6-7.4,9.3-7.2
		c4.6,0.3,7.9,3.4,8.5,8.3c0.2,1.3,0.2,2.7,0.2,4.2c-4.8,0-9.4,0-14.2,0c0.1,2.4,0.6,4.4,2.8,5.4c2.9,1.4,5.6,0.8,8.1-1.6
		C223.4,71.7,224.3,72.5,225.2,73.3z M221.4,63.8c-0.1-2.1-0.5-3.9-2.4-5c-1.7-1-3.5-0.9-5.2,0.2c-1.6,1.1-2.1,2.8-2.1,4.8
		C215,63.8,218.2,63.8,221.4,63.8z"/>
	<path class="st1" d="M53.3,87c0.8-1.4,1.6-2.6,2.1-3.9c2.8-6.1,2.5-12.1-1-17.8c-2.3-3.8-5.4-6.8-9.1-9.2c-2.5-1.6-5.1-2.9-7.7-4.4
		c-0.8-0.4-1.6-0.8-1.4-1.9c0.2-1.2,1.2-1.6,2.2-1.5c1.2,0,2.5,0.1,3.6,0.5c7.8,2.9,14,7.8,17.8,15.2c2.7,5.2,2.7,10.8,0.1,16.2
		C58.4,83.1,56.3,85.3,53.3,87z"/>
	<path class="st1" d="M17.7,91.2c2,0.3,4,0.7,6,0.8c5.8,0.3,10.6-1.9,14.4-6.2c3.9-4.4,5.9-9.6,7-15.2c0.4-1.9,0.7-3.7,1-5.6
		c0.1-0.8,0.3-1.6,1.3-1.8c1-0.2,1.8,0.4,2,1.2c0.4,1.3,0.9,2.8,0.8,4.1c-0.4,8.1-3,15.4-8.8,21.2c-5.3,5.4-11.9,7-19.2,4.4
		c-1.7-0.6-3.2-1.8-4.8-2.7C17.6,91.3,17.6,91.3,17.7,91.2z"/>
	<path class="st1" d="M60.5,52.2c-0.3-0.3-0.4-0.5-0.5-0.6c-5.9-7.5-14-9.7-22.9-6.2c-3.9,1.5-7.3,3.7-10.4,6.6
		c-1.6,1.5-3.2,3.1-4.8,4.5c-0.5,0.4-1.5,0.8-1.8,0.6c-0.5-0.3-0.8-1.2-1-1.9c-0.1-0.4,0.1-0.9,0.3-1.4c0.2-0.6,0.4-1.2,0.8-1.7
		c6.4-8.2,14.3-13.7,25.1-13.2C52.8,39.2,59.3,45,60.5,52.2z"/>
	<path class="st1" d="M29.4,34.3c-0.3,0.1-0.7,0.3-1,0.4C19.9,37.9,15.2,45.6,16,54.6c0.4,5.5,2.4,10.5,4.8,15.4
		c0.4,0.8,0.9,1.6,1.2,2.4c0.2,0.5,0.2,1.4-0.1,1.7c-0.4,0.4-1.4,0.7-1.9,0.5c-1.1-0.6-2.2-1.4-3.1-2.3c-2.2-2.5-3.5-5.5-4.4-8.6
		C11,59,10,54.2,10.9,49.1c1.3-7.7,7.1-13.7,14.3-15C26.1,34,27,34,27.9,34c0.5,0,1,0,1.5,0.1C29.4,34.2,29.4,34.2,29.4,34.3z"/>
	<path class="st1" d="M2.7,58.5c0.6,2.5,1,5.3,1.9,7.8c2.5,6.5,7.8,9.7,14.3,11.3c5.4,1.3,10.9,0.7,16.3-0.1
		c0.5-0.1,1.1-0.3,1.6-0.2c0.6,0.1,1.5,0.3,1.7,0.7c0.3,0.5,0.2,1.5-0.2,1.9c-0.5,0.7-1.4,1.4-2.2,1.7c-2.2,0.7-4.4,1.5-6.7,1.8
		c-5.4,0.6-10.8,0.3-15.9-1.8C6.9,78.8,2.7,74,1.5,66.9C1,63.9,1.4,61,2.7,58.5z"/>
	<path class="st2" d="M185.5,76.5c0-10.2,0-20.3,0-30.4c1.5,0,2.9,0,4.5,0c0,8.7,0,17.4,0,26.3c5,0,9.8,0,14.7,0c0,1.5,0,2.8,0,4.2
		C198.3,76.5,191.9,76.5,185.5,76.5z"/>
	<path class="st1" d="M25.4,96.5c9.3,0.9,16-3,20.7-10.7c2.7-4.3,4.2-9.1,5.2-14.1c0.1-0.3,0-0.6,0.2-0.8c0.4-0.4,0.9-1,1.5-1.1
		c0.4-0.1,1.2,0.4,1.3,0.8c0.4,1.4,0.8,2.8,0.7,4.1c-0.5,5.5-2.5,10.6-5.7,15c-3.5,4.7-8.4,7.1-14.1,7.9c-2.9,0.4-5.8,0.1-8.6-0.7
		C26.1,96.9,25.7,96.7,25.4,96.5z"/>
	<path class="st1" d="M61.1,81c0.6-2.1,1.2-4,1.6-5.9c0.9-5.1-0.5-9.8-3.3-14.1c-3.5-5.3-8.5-9-13.9-12.2c-0.3-0.2-0.6-0.3-0.9-0.6
		c-0.9-0.8-0.6-2.4,0.6-2.6c1-0.2,2.1-0.1,3,0.1c1.1,0.3,2.2,0.8,3.3,1.3c3.6,2,6.8,4.6,9.5,7.8c5.6,6.7,6.2,17.3,1.3,24.6
		C61.9,80,61.5,80.4,61.1,81z"/>
	<path class="st2" d="M118.7,76.5c-0.7,0-1.2,0-1.9,0c0-0.5,0-0.9,0-1.3c0-4,0.1-8,0-12c0-1.4-0.3-3-0.8-4.3
		c-1.3-3.1-4.9-3.8-7.5-1.5c-1.7,1.5-2.3,3.5-2.3,5.8c0,4,0,7.9,0,11.9c0,0.4,0,0.9,0,1.4c-0.6,0-1.2,0-1.8,0c0-7.1,0-14.2,0-21.4
		c0.5,0,1.1,0,1.8,0c0,0.8,0,1.6,0,2.8c1.8-2.3,3.8-3.7,6.5-3.4c2.7,0.3,4.5,1.9,5.4,4.7c0.3-0.6,0.5-1,0.7-1.3
		c1.4-2.3,3.5-3.7,6.3-3.5c2.7,0.2,4.6,1.7,5.6,4.2c0.5,1.3,0.9,2.8,0.9,4.3c0.1,4.4,0,8.7,0,13.1c0,0.2,0,0.3-0.1,0.5
		c-0.6,0-1.1,0-1.8,0c0-0.4,0-0.9,0-1.4c0-4.5-0.1-9.1-0.1-13.6c0-0.4-0.1-0.9-0.2-1.3c-0.6-2.1-1.7-3.6-3.9-4
		c-2.2-0.4-3.9,0.7-5.2,2.5c-1,1.4-1.4,3.1-1.4,4.8c0,3.9,0,7.8,0,11.8C118.8,75.7,118.8,76.1,118.7,76.5z"/>
	<path class="st1" d="M0.2,67.5c2.6,11.6,11.5,15.5,19.3,16.6c4,0.6,8,0.5,12.1,0.1c0.2,0,0.4,0,0.6-0.1c0.8-0.1,1.6,0.2,1.8,1
		c0.1,0.6-0.2,1.5-0.6,1.8c-1,0.7-2.2,1.3-3.4,1.7c-3.2,0.9-6.6,0.8-9.9,0.5c-9.9-0.8-17.2-6.9-19.5-16.3
		C0.1,71.1-0.2,69.3,0.2,67.5z"/>
	<path class="st1" d="M20,34.4c-2.7,1.6-5.1,3.6-6.9,6.1c-3.2,4.5-4.1,9.6-3.6,15c0.5,5,2,9.7,4.1,14.2c0.4,0.9,0.6,1.7-0.2,2.5
		c-0.9,0.7-1.7,0.2-2.4-0.3c-0.6-0.5-1.3-1-1.6-1.7c-4-6.6-6.1-13.8-3.9-21.4c2.1-7.2,6.9-12.1,14.2-14.4
		C19.8,34.4,19.9,34.4,20,34.4z"/>
	<path class="st2" d="M283.1,72.8c0,1.3,0,2.5,0,3.9c-1.7-0.1-3.3-0.1-4.8-0.4c-2.2-0.5-3.3-2.3-3.7-4.5c-0.1-0.5-0.1-1.1-0.1-1.7
		c0-7.6,0-15.2,0-22.8c0-0.4,0-0.8,0-1.3c1.5,0,2.9,0,4.4,0c0,0.5,0,0.9,0,1.3c0,7.4,0,14.7,0,22.1c0,0.5,0,1,0,1.4
		c0.2,1.3,0.8,1.9,2.1,1.9C281.7,72.8,282.4,72.8,283.1,72.8z"/>
	<path class="st2" d="M138.3,57.8c1.5-1.7,3.2-2.9,5.4-3.2c2.9-0.4,5.1,0.6,6.8,2.9c3.4,4.4,3.3,12.6-0.2,17
		c-2.7,3.3-7.4,3.6-10.4,0.5c-0.5-0.5-1-1.1-1.5-1.8c0,4,0,7.9,0,11.9c-0.6,0-1.2,0-1.8,0c0-10,0-19.9,0-29.9c0.6,0,1.1,0,1.8,0
		C138.3,56,138.3,56.9,138.3,57.8z M151.1,65.8c-0.1-2.6-0.5-5.1-2.1-7.3c-1.5-2-3.6-2.8-5.8-2.1c-2.3,0.7-4.7,3.8-4.7,6.2
		c0,1.6,0,3.2,0,4.8c-0.1,2.3,0.8,4.2,2.1,5.9c2.7,3.3,6.8,3,8.9-0.7C150.6,70.5,151,68.2,151.1,65.8z"/>
	<path class="st2" d="M92.5,50.8c-0.5,0.4-0.9,0.7-1.4,1.1c-1.7-2.5-3.8-4.2-6.8-4.4c-1.7-0.1-3.5,0.1-5.1,0.6
		c-2,0.6-3.1,2.1-3.3,4.2c-0.2,2.1,0.4,3.8,2.2,4.9c1.6,1,3.4,1.7,5.1,2.6c2,1,4.1,1.9,6,3c5.5,3.2,4.1,10.9-1,13.3
		c-5.8,2.7-12.2,0.5-14.8-5.4c0.4-0.3,0.9-0.6,1.4-1c0.2,0.4,0.3,0.7,0.5,1c2.2,4.6,8,6.3,12.4,3.7c3-1.8,4.7-7.1,0.7-9.8
		c-1.9-1.3-4.2-2.2-6.3-3.3c-1.7-0.8-3.5-1.5-5.1-2.5c-2.4-1.5-3.5-3.8-3.1-6.7c0.4-2.9,2.1-4.7,4.8-5.7c4.8-1.8,10.3-0.4,13.1,3.2
		C92,50,92.2,50.4,92.5,50.8z"/>
	<path class="st2" d="M180.5,66.2c-5.2,0-10.3,0-15.5,0c0,3,0.7,5.6,2.8,7.6c1.7,1.6,3.8,2.1,5.9,1.2c1.4-0.6,2.7-1.7,4-2.6
		c0-0.1-0.1-0.3-0.1-0.4c0.5,0.3,1,0.7,1.5,1c-2.7,4.8-9.8,5.5-13.4,1.3c-2.4-2.8-3.1-6.2-2.7-9.8c0.2-1.9,0.7-3.9,1.6-5.7
		c1.4-2.9,3.8-4.4,7.1-4.4c3.3,0,5.7,1.5,7.2,4.3C180.2,61.1,180.7,63.5,180.5,66.2z M178.4,64.6c0-4.9-3-8.5-6.8-8.4
		c-3.6,0.2-6.8,4.2-6.4,8.4C169.6,64.6,174,64.6,178.4,64.6z"/>
	<path class="st2" d="M158.9,76.5c-0.6,0-1.1,0-1.7,0c0-10,0-20,0-30.1c0.6,0,1.1,0,1.7,0C158.9,56.4,158.9,66.4,158.9,76.5z"/>
	<path class="st2" d="M98.7,76.5c-0.6,0-1.1,0-1.7,0c0-7.1,0-14.2,0-21.4c0.5,0,1.1,0,1.7,0C98.7,62.2,98.7,69.3,98.7,76.5z"/>
	<path class="st2" d="M97.9,45.9c0.9,0.1,1.5,0.6,1.5,1.5c0,0.9-0.6,1.5-1.5,1.5c-0.9,0.1-1.6-0.7-1.5-1.6
		C96.4,46.4,97,45.9,97.9,45.9z"/>
</g>
</svg>
