<?xml version="1.0" encoding="utf-8"?>
<!-- Generator: Adobe Illustrator 19.2.1, SVG Export Plug-In . SVG Version: 6.00 Build 0)  -->
<svg version="1.1" id="Layer_1" xmlns="http://www.w3.org/2000/svg" xmlns:xlink="http://www.w3.org/1999/xlink" x="0px" y="0px"
	 viewBox="0 0 512 128" style="enable-background:new 0 0 512 128;" xml:space="preserve">
<style type="text/css">
	.st0{fill:none;}
	.st1{fill:#FFFFFF;}
	.st2{fill:#7E8A88;}
	.st3{fill:#A9B1B0;}
	.st4{fill:#253E55;}
	.st5{fill:#3E4F4E;}
	.st6{fill:#354F5B;}
</style>
<path id="Container" class="st0" d="M0,0h512v128H0V0z"/>
<g>
	<polygon class="st1" points="1,52.9 2.6,53.5 4.8,53.9 7.3,53.8 12.1,52.9 11.5,49.9 4.1,52.5 2.9,52.8 	"/>
	<path class="st2" d="M24.7,88.4c-3,0.1-5.4,0.3-8.6,0.3c-3.5,0-6.6-0.5-9.5,0.2c-4.4,1-4.9,2.4-1.8,3.7s6,1.1,10.4,1.3
		c4.4,0.2,7.4,0.1,12,0s10.9-0.2,13.1-0.3s8-0.7,8-0.7l0.9-0.5h-2.7l-1.5-1.2c0,0-0.2,0.1-1.8,0c-1.6-0.1-4.6-0.4-4.2-0.9
		c0.4-0.5,1.2-1.3,1.9-1.4c0.8-0.1,2.7-0.8,2.7-0.8h-2.1h-2l-0.7-0.6l-8,0.2L24.7,88.4z"/>
	<polygon class="st3" points="18.4,36.9 17.4,36.2 16.8,35.4 16.6,33.9 15.7,34 14,35 10.3,37.3 6.3,40.5 4,43.6 3.1,46.4 2.6,48.4 
		3.2,50.7 4.1,52.5 5.9,52.2 10.2,51.1 11.3,51.7 11.1,52.4 9.4,53.5 7.3,53.8 9.9,54.5 10.8,55.1 13.8,56.8 15,58.7 15.6,61.9 
		15.8,64.8 16.8,69.9 17.9,72.9 15,76.5 13.9,78.9 13.4,83.8 13.5,85.9 14.4,86.4 16.7,86.5 19.1,86.2 19.5,85.6 19.3,83.9 
		19.2,81.3 19.7,80.1 21.5,78.7 22.6,80.6 23.6,83.1 24.5,86.1 24.5,90.3 24.8,91.3 26.2,92.3 28.5,92.7 30.6,92.3 32.1,91 
		31.5,88.9 30.5,84.4 30,77.6 29.9,74.1 31,72.8 32.1,73.3 36.5,74.8 40.6,75.3 42.3,75.2 41.9,77.9 40.7,81 39.4,84.2 39.1,87.6 
		40.5,88 43,87.8 45.1,87.1 44.9,90.8 46,91.8 48.3,92.4 51.2,91.4 51.2,90.1 51.2,88 51.9,85.1 53.2,81.8 54.8,78.4 54.8,75.7 
		55.5,73.1 56.8,69.8 57.4,66.1 57.8,62.2 60,62.9 60.9,64.6 62.1,67.1 63.7,69.1 65.7,70.6 66.6,71 67.9,72.3 69.3,72.7 72.7,71.7 
		70.9,70.6 68.9,69.9 67,69.7 64.8,68.5 63.1,66.3 61.8,63.2 60.3,60.8 57.4,59 56.7,57.4 54.6,54.5 51.2,51.3 48.7,48.7 47.5,48.1 
		44,48.5 38.5,49.4 30.7,50.9 29.8,50.2 29.1,49.1 27.8,47.5 25.7,46.6 22.8,45.9 20.3,44.9 19.6,43.9 17.8,43.7 15.5,44.7 12,46.2 
		9.8,46.4 7.7,48 6.6,47 6.7,46 7.7,44.1 9.2,42.2 10.8,40.8 12.6,39.5 14.3,38.8 17.2,37.8 18.5,37.2 	"/>
	<path class="st2" d="M32.1,71.3c1.2,0.4,6.5,2.5,11.5,2.2c0.1,0.9,0.2,1.6-0.2,1.6c-0.4,0-0.4,2.7,0.1,3.5c0.5,0.8,1.8,3.1,1.8,3.9
		c0,0.8-2,0.5-2.5,0c-0.6-0.5-1.8-1.9-1.8-1.9l0.9-3l0.3-2.4c0,0-2.8,0-4.1-0.3s-3.6-0.8-4.7-1.2c-1.1-0.4-2.2-1-2.2-1L32.1,71.3z"
		/>
	
		<rect x="28.9" y="18.1" transform="matrix(0.8884 -0.4591 0.4591 0.8884 -6.4861 19.4679)" class="st4" width="15.8" height="9.9"/>
	
		<rect x="28.9" y="18.1" transform="matrix(0.8884 -0.4591 0.4591 0.8884 -6.4861 19.4679)" class="st5" width="15.8" height="9.9"/>
	<path class="st0" d="M22.9,86.5c-0.1-0.5,0-1.5,0-1.8c0-0.2,0.3-0.8,0.4-1.1c-0.9-2.5-2.3-4.7-3.4-7.1c-0.1-0.2-0.5-0.4-0.8-0.7
		c0.1,0.4,0.3,1,0.3,1.1c0.9,3.1-1.3,3-1.4,6.8c0,0.8,0.7,2.9,1.4,3.2c0.3,0.1,1.7,0.9,2.8,1.6c0.1,0.1,0.2,0.1,0.3,0.2
		C22.9,88,23,87,22.9,86.5z"/>
	<path class="st0" d="M11.1,51.9c-0.5-0.7-1-0.4-1.5-0.3C7.3,52.2,5.2,53.1,2,53c-1,0,1,0.4,1.1,0.4c2.3,0.2,4.5,0.1,6.7-0.7
		C11.3,52.2,11.1,52.1,11.1,51.9z"/>
	<path class="st0" d="M23.5,86.1c0,0.4,0.1,1.2,0.1,1.5c0,0.2-0.1,0.9-0.1,1.5c0,0,0,0,0,0c0.3,0.2,0.5,0.3,0.7,0.3
		c0.3-1.4,0-3.4-0.3-4.5c0-0.1-0.1-0.3-0.1-0.4c-0.1,0.1-0.1,0.2-0.1,0.3C23.6,85,23.5,85.7,23.5,86.1z"/>
	<path class="st0" d="M42.9,75.8c0,0-0.1-0.1-0.3-0.1c-0.1,0.5-0.2,0.9-0.3,1.4c-0.2,0.8-0.3,1.6-0.6,2.4c-0.5,1.4-1.1,2.8-1.7,4.1
		c-0.6,1.2-0.6,2.5-0.5,3.9c1.2,0.3,2.3,0.4,3.4,0.1c0.9-0.2,1.5-0.8,1.9-1.7c0.6-1.4,0.1-2.7-0.5-3.9C43.5,80,42.5,78.1,42.9,75.8z
		"/>
	<path class="st0" d="M68.6,70.4c-0.4,0.1-1,0-1.4-0.2c-2-0.8-3.7-1.9-4.6-4c-0.4-0.9-0.7-1.8-1.1-2.7c-0.5-1.3-1.4-2.3-2.5-3.2
		c-0.2-0.2-0.4-0.3-0.7-0.3c-0.2,0-0.4,0.3-0.6,0.4c-0.2-0.3-0.4-0.5-0.5-0.8c-1.1-2.6-3-4.7-4.9-6.7c-1.2-1.3-2.5-2.4-3.8-3.7
		c-0.6-0.5-1.2-0.8-2-0.6c-1.6,0.2-3.2,0.3-4.7,0.7c-3.6,0.8-7.3,1.4-11.1,2.1c1,0.4,1.8,0.7,2.6,1.1c1.6,0.8,1.9,2.5,0.7,3.8
		c-0.3,0.4-0.8,0.7-1.2,0.9c-1.6,0.9-2.6,2.2-3.5,3.9c-0.8,1.5-1.8,3-2.8,4.5c-0.4,0.5-0.9,1-1.5,1.4c-1.1,0.8-2.4,0.5-3.1-0.7
		c-0.3-0.5-0.5-1-0.6-1.5c-0.3-1.9-0.9-3.7-1.6-5.6c-0.7-1.8-0.7-3.7-0.2-5.6c0.1-0.5,0.3-1,0.8-1.3c0.4,0.6,0.1,1.1-0.1,1.6
		c-0.5,1.5-0.4,2.9,0,4.4c0.6,2,1.5,4,1.7,6.2c0.1,0.8,0.4,1.6,1.3,1.9c0.8,0.3,1.4-0.4,1.9-0.9c1.4-1.4,2.4-3,3.2-4.8
		c0.8-1.7,1.9-3,3.5-4c0.5-0.3,0.9-0.6,1.3-1c0.8-0.8,0.7-1.8-0.3-2.4c-0.3-0.2-0.7-0.3-1-0.5c-1.1-0.5-2.3-0.9-3.4-1.5
		c-1.8-1.2-3-3.1-5.1-4c0.5,0,1,0,1.5,0.2c0.6,0.3,1.1,0.7,1.6,1.1c0.7,0.6,1.4,1.2,2.3,1.9c-0.5-1.5-0.7-1.8-1.5-2.5
		c-1.2-1-2.6-1.3-4-1.5c-1.2-0.1-2.1-0.6-3-1.3c-0.4-0.3-0.8-0.7-1.2-0.9c-0.5-0.2-1.1-0.3-1.6-0.1c-0.9,0.4-1.8,0.9-2.5,1.5
		c-0.8,0.6-1.6,0.9-2.5,1c-2.2,0.2-4,1.1-5.2,3c-0.2,0.2-0.4,0.4-0.7,0.6c-0.2,0-0.3,0-0.2-0.2c0.3-0.7,0.5-1.3,0.8-2
		c-0.5-0.5-1.4,0.7-2.3,0.9c-0.2,0.1-0.4,0.1-0.4-0.1c0.6-0.5,1.1-0.9,1.6-1.4c0.1-0.4-1.3-0.3-1.8-0.4c-0.2-0.1-0.2-0.2,0-0.3
		c0.7-0.1,1.3-0.2,2.1-0.1c0.1-2.1,1.2-3.7,2.7-5c2.2-1.9,4.7-3.2,7.5-4.1c0.4-0.1,0.8-0.3,1.2-0.4c-0.6-0.4-1.2-0.7-1.4-1.1
		c-0.3-0.5-0.2-1.1-0.2-1.8c-1.3,0.7-2.5,1.4-3.6,2.1c-2.7,1.5-5,3.4-7,5.7c-1.3,1.6-2.1,3.3-2.4,5.3c-0.3,1.9,0.2,3.7,1.1,5.1
		c1.8-0.2,2.7-0.7,4-1.1c0.6-0.2,1.2-0.4,1.9-0.5c0.7-0.2,1.3,0.2,1.5,0.7c0.2,0.6,0,1.2-0.6,1.5c-0.5,0.3-1,0.5-1.5,0.7
		c-0.2,0.1-1,0.2-1.6,0.3c1.7,0.2,4,0.3,5.6,0.3c0.7,0,1-0.6,1.2-1c0.9,0.4,0.9,0.6,1.1,1.3c-0.1,0.1-0.5-0.2-0.6-0.1
		c-1.2,0.9-2.7,0.3-4.1,0.6c0.3,0.2,0.7,0.5,1,0.6c1.7,0.5,2.8,1.7,3.3,3.3c0.2,0.6,0.3,1.3,0.4,1.9c0.1,1.1,0.2,2.2,0.3,3.3
		c0.2,2.7,0.8,5.3,2,7.7c0.2,0.5,0.5,1,0.7,1.4c0.1,0,0.1,0,0.2-0.1c0-0.5,0.1-1,0.1-1.5c0.3,0.1,0.4,0.3,0.4,0.4
		c0.5,2.9,1.8,5.4,3.2,8c1.7,3.3,3,6.7,2.3,10.5c-0.1,0.5,0.2,0.8,0.6,1.1c1.5,1,3,1.1,4.7,0.7c0.3-0.1,0.5-0.3,0.8-0.4
		c0.4-0.2,0.6-0.6,0.4-1.1c-0.2-0.8-0.4-1.6-0.6-2.4c-0.3-1.3-0.8-2.6-0.9-3.9c-0.3-1.8-0.4-3.7-0.5-5.5c-0.1-0.9,0.1-1.8,0.1-2.7
		c0-0.3,0-0.5,0-0.9c-0.5,0.2-0.8,0.3-1.2,0.5c-0.3,0.1-0.4,0-0.2-0.2c1.4-2,3.3-3.5,4.5-5.6c0.2-0.1,0.3,0,0.2,0.2
		c-0.4,0.8-0.8,1.6-1.3,2.6c3.8,1.6,7.5,2.5,11.6,1.9c0-0.9,0.1-1.7,0.1-2.6c0.1-0.2,0.2-0.2,0.3,0c0.3,1.1,0.6,2.2,0.3,3.4
		c-0.3,1.2-0.4,2.5,0.1,3.7c0.3,0.7,0.5,1.4,0.9,2c0.9,1.2,0.9,2.5,0.8,3.9c-0.2,1.7-0.3,3.3-0.5,5c-0.1,0.4-0.1,0.8,0.4,1.1
		c1.4,1.1,3.4,1.1,5,0.1c0-0.9-0.2-1.9,0-2.9c0.7-3.2,1.5-6.3,3.3-9.2c0.3-0.5,0.4-1.1,0.4-1.7c0-1.3,0-2.6,0.4-3.8
		c0.5-1.2,1-2.5,1.4-3.7c0.9-2.4,0.8-5,0.9-7.5c0-0.3,0-0.5,0-0.8c2.2,0.4,2.8,0.7,3.5,1.9c0.3,0.5,0.5,1,0.7,1.5
		c1,2.4,2.5,4.3,4.8,5.5c0.4,0.2,0.7,0.5,1,0.8c0.6,0.4,1.1,1,2,0.8c-0.4-0.4-1-0.5-1.2-1.3c1,0.5,1.9,0.8,3,0.6
		C70.3,70.8,69.7,70.1,68.6,70.4z"/>
	<path class="st6" d="M23.9,84.2l-0.4-0.8c0,0,0,0.1-0.1,0.2c0.1,0.3,0.2,0.5,0.3,0.8C23.8,84.3,23.9,84.2,23.9,84.2z"/>
	<path class="st0" d="M11.1,51.9c-0.5-0.7-1-0.4-1.5-0.3C7.3,52.2,5.2,53.1,2,53c-1,0,1,0.4,1.1,0.4c2.3,0.2,4.5,0.1,6.7-0.7
		C11.3,52.2,11.1,52.1,11.1,51.9z"/>
	<path class="st0" d="M42.9,75.8c0,0-0.1-0.1-0.3-0.1c-0.1,0.5-0.2,0.9-0.3,1.4c-0.2,0.8-0.3,1.6-0.6,2.4c-0.5,1.4-1.1,2.8-1.7,4.1
		c-0.6,1.2-0.6,2.5-0.5,3.9c1.2,0.3,2.3,0.4,3.4,0.1c0.9-0.2,1.5-0.8,1.9-1.7c0.6-1.4,0.1-2.7-0.5-3.9C43.5,80,42.5,78.1,42.9,75.8z
		"/>
	<path class="st0" d="M24.1,89.4c0-0.1,0-0.1,0-0.2C24.1,89.3,24.1,89.3,24.1,89.4C24.1,89.4,24.1,89.4,24.1,89.4z"/>
	<path class="st0" d="M68.6,70.4c-0.4,0.1-1,0-1.4-0.2c-2-0.8-3.7-1.9-4.6-4c-0.4-0.9-0.7-1.8-1.1-2.7c-0.5-1.3-1.4-2.3-2.5-3.2
		c-0.2-0.2-0.4-0.3-0.7-0.3c-0.2,0-0.4,0.3-0.6,0.4c-0.2-0.3-0.4-0.5-0.5-0.8c-1.1-2.6-3-4.7-4.9-6.7c-1.2-1.3-2.5-2.4-3.8-3.7
		c-0.6-0.5-1.2-0.8-2-0.6c-1.6,0.2-3.2,0.3-4.7,0.7c-3.6,0.8-7.3,1.4-11.1,2.1c1,0.4,1.8,0.7,2.6,1.1c1.6,0.8,1.9,2.5,0.7,3.8
		c-0.3,0.4-0.8,0.7-1.2,0.9c-1.6,0.9-2.6,2.2-3.5,3.9c-0.8,1.5-1.8,3-2.8,4.5c-0.4,0.5-0.9,1-1.5,1.4c-1.1,0.8-2.4,0.5-3.1-0.7
		c-0.3-0.5-0.5-1-0.6-1.5c-0.3-1.9-0.9-3.7-1.6-5.6c-0.7-1.8-0.7-3.7-0.2-5.6c0.1-0.5,0.3-1,0.8-1.3c0.4,0.6,0.1,1.1-0.1,1.6
		c-0.5,1.5-0.4,2.9,0,4.4c0.6,2,1.5,4,1.7,6.2c0.1,0.8,0.4,1.6,1.3,1.9c0.8,0.3,1.4-0.4,1.9-0.9c1.4-1.4,2.4-3,3.2-4.8
		c0.8-1.7,1.9-3,3.5-4c0.5-0.3,0.9-0.6,1.3-1c0.8-0.8,0.7-1.8-0.3-2.4c-0.3-0.2-0.7-0.3-1-0.5c-1.1-0.5-2.3-0.9-3.4-1.5
		c-1.8-1.2-3-3.1-5.1-4c0.5,0,1,0,1.5,0.2c0.6,0.3,1.1,0.7,1.6,1.1c0.7,0.6,1.4,1.2,2.3,1.9c-0.5-1.5-0.7-1.8-1.5-2.5
		c-1.2-1-2.6-1.3-4-1.5c-1.2-0.1-2.1-0.6-3-1.3c-0.4-0.3-0.8-0.7-1.2-0.9c-0.5-0.2-1.1-0.3-1.6-0.1c-0.9,0.4-1.8,0.9-2.5,1.5
		c-0.8,0.6-1.6,0.9-2.5,1c-2.2,0.2-4,1.1-5.2,3c-0.2,0.2-0.4,0.4-0.7,0.6c-0.2,0-0.3,0-0.2-0.2c0.3-0.7,0.5-1.3,0.8-2
		c-0.5-0.5-1.4,0.7-2.3,0.9c-0.2,0.1-0.4,0.1-0.4-0.1c0.6-0.5,1.1-0.9,1.6-1.4c0.1-0.4-1.3-0.3-1.8-0.4c-0.2-0.1-0.2-0.2,0-0.3
		c0.7-0.1,1.3-0.2,2.1-0.1c0.1-2.1,1.2-3.7,2.7-5c2.2-1.9,4.7-3.2,7.5-4.1c0.4-0.1,0.8-0.3,1.2-0.4c-0.6-0.4-1.2-0.7-1.4-1.1
		c-0.3-0.5-0.2-1.1-0.2-1.8c-1.3,0.7-2.5,1.4-3.6,2.1c-2.7,1.5-5,3.4-7,5.7c-1.3,1.6-2.1,3.3-2.4,5.3c-0.3,1.9,0.2,3.7,1.1,5.1
		c1.8-0.2,2.7-0.7,4-1.1c0.6-0.2,1.2-0.4,1.9-0.5c0.7-0.2,1.3,0.2,1.5,0.7c0.2,0.6,0,1.2-0.6,1.5c-0.5,0.3-1,0.5-1.5,0.7
		c-0.2,0.1-1,0.2-1.6,0.3c1.7,0.2,4,0.3,5.6,0.3c0.7,0,1-0.6,1.2-1c0.9,0.4,0.9,0.6,1.1,1.3c-0.1,0.1-0.5-0.2-0.6-0.1
		c-1.2,0.9-2.7,0.3-4.1,0.6c0.3,0.2,0.7,0.5,1,0.6c1.7,0.5,2.8,1.7,3.3,3.3c0.2,0.6,0.3,1.3,0.4,1.9c0.1,1.1,0.2,2.2,0.3,3.3
		c0.2,2.7,0.8,5.3,2,7.7c0.2,0.5,0.5,1,0.7,1.4c0.1,0,0.1,0,0.2-0.1c0-0.5,0.1-1,0.1-1.5c0.3,0.1,0.4,0.3,0.4,0.4
		c0.5,2.9,1.8,5.4,3.2,8c1.7,3.3,3,6.7,2.3,10.5c-0.1,0.5,0.2,0.8,0.6,1.1c1.5,1,3,1.1,4.7,0.7c0.3-0.1,0.5-0.3,0.8-0.4
		c0.4-0.2,0.6-0.6,0.4-1.1c-0.2-0.8-0.4-1.6-0.6-2.4c-0.3-1.3-0.8-2.6-0.9-3.9c-0.3-1.8-0.4-3.7-0.5-5.5c-0.1-0.9,0.1-1.8,0.1-2.7
		c0-0.3,0-0.5,0-0.9c-0.5,0.2-0.8,0.3-1.2,0.5c-0.3,0.1-0.4,0-0.2-0.2c1.4-2,3.3-3.5,4.5-5.6c0.2-0.1,0.3,0,0.2,0.2
		c-0.4,0.8-0.8,1.6-1.3,2.6c3.8,1.6,7.5,2.5,11.6,1.9c0-0.9,0.1-1.7,0.1-2.6c0.1-0.2,0.2-0.2,0.3,0c0.3,1.1,0.6,2.2,0.3,3.4
		c-0.3,1.2-0.4,2.5,0.1,3.7c0.3,0.7,0.5,1.4,0.9,2c0.9,1.2,0.9,2.5,0.8,3.9c-0.2,1.7-0.3,3.3-0.5,5c-0.1,0.4-0.1,0.8,0.4,1.1
		c1.4,1.1,3.4,1.1,5,0.1c0-0.9-0.2-1.9,0-2.9c0.7-3.2,1.5-6.3,3.3-9.2c0.3-0.5,0.4-1.1,0.4-1.7c0-1.3,0-2.6,0.4-3.8
		c0.5-1.2,1-2.5,1.4-3.7c0.9-2.4,0.8-5,0.9-7.5c0-0.3,0-0.5,0-0.8c2.2,0.4,2.8,0.7,3.5,1.9c0.3,0.5,0.5,1,0.7,1.5
		c1,2.4,2.5,4.3,4.8,5.5c0.4,0.2,0.7,0.5,1,0.8c0.6,0.4,1.1,1,2,0.8c-0.4-0.4-1-0.5-1.2-1.3c1,0.5,1.9,0.8,3,0.6
		C70.3,70.8,69.7,70.1,68.6,70.4z"/>
	<path class="st6" d="M24.2,89L24.2,89c0,0.1,0,0.2,0,0.2C24.2,89.1,24.2,89,24.2,89z"/>
	<path class="st0" d="M11.1,51.9c-0.5-0.7-1-0.4-1.5-0.3C7.3,52.2,5.2,53.1,2,53c-1,0,1,0.4,1.1,0.4c2.3,0.2,4.5,0.1,6.7-0.7
		C11.3,52.2,11.1,52.1,11.1,51.9z"/>
	<path class="st0" d="M23.5,83.4c0,0,0,0.1-0.1,0.2c0.1,0.3,0.2,0.5,0.3,0.8c0.1-0.1,0.2-0.3,0.2-0.3L23.5,83.4z"/>
	<path class="st0" d="M19.4,76.1c0.6,0.5,1,1.8,1,1.8l2.7,6.6c0.1-0.3,0.3-0.6,0.4-0.8c-0.9-2.5-2.3-4.7-3.4-7.1
		c-0.1-0.2-0.5-0.4-0.8-0.7c0,0,0,0,0,0C19.3,76,19.4,76.1,19.4,76.1z"/>
	<path class="st0" d="M42.9,75.8c0,0-0.1-0.1-0.3-0.1c-0.1,0.5-0.2,0.9-0.3,1.4c-0.2,0.8-0.3,1.6-0.6,2.4c-0.5,1.4-1.1,2.8-1.7,4.1
		c-0.6,1.2-0.6,2.5-0.5,3.9c1.2,0.3,2.3,0.4,3.4,0.1c0.9-0.2,1.5-0.8,1.9-1.7c0.6-1.4,0.1-2.7-0.5-3.9C43.5,80,42.5,78.1,42.9,75.8z
		"/>
	<path class="st0" d="M68.6,70.4c-0.4,0.1-1,0-1.4-0.2c-2-0.8-3.7-1.9-4.6-4c-0.4-0.9-0.7-1.8-1.1-2.7c-0.5-1.3-1.4-2.3-2.5-3.2
		c-0.2-0.2-0.4-0.3-0.7-0.3c-0.2,0-0.4,0.3-0.6,0.4c-0.2-0.3-0.4-0.5-0.5-0.8c-1.1-2.6-3-4.7-4.9-6.7c-1.2-1.3-2.5-2.4-3.8-3.7
		c-0.6-0.5-1.2-0.8-2-0.6c-1.6,0.2-3.2,0.3-4.7,0.7c-3.6,0.8-7.3,1.4-11.1,2.1c1,0.4,1.8,0.7,2.6,1.1c1.6,0.8,1.9,2.5,0.7,3.8
		c-0.3,0.4-0.8,0.7-1.2,0.9c-1.6,0.9-2.6,2.2-3.5,3.9c-0.8,1.5-1.8,3-2.8,4.5c-0.4,0.5-0.9,1-1.5,1.4c-1.1,0.8-2.4,0.5-3.1-0.7
		c-0.3-0.5-0.5-1-0.6-1.5c-0.3-1.9-0.9-3.7-1.6-5.6c-0.7-1.8-0.7-3.7-0.2-5.6c0.1-0.5,0.3-1,0.8-1.3c0.4,0.6,0.1,1.1-0.1,1.6
		c-0.5,1.5-0.4,2.9,0,4.4c0.6,2,1.5,4,1.7,6.2c0.1,0.8,0.4,1.6,1.3,1.9c0.8,0.3,1.4-0.4,1.9-0.9c1.4-1.4,2.4-3,3.2-4.8
		c0.8-1.7,1.9-3,3.5-4c0.5-0.3,0.9-0.6,1.3-1c0.8-0.8,0.7-1.8-0.3-2.4c-0.3-0.2-0.7-0.3-1-0.5c-1.1-0.5-2.3-0.9-3.4-1.5
		c-1.8-1.2-3-3.1-5.1-4c0.5,0,1,0,1.5,0.2c0.6,0.3,1.1,0.7,1.6,1.1c0.7,0.6,1.4,1.2,2.3,1.9c-0.5-1.5-0.7-1.8-1.5-2.5
		c-1.2-1-2.6-1.3-4-1.5c-1.2-0.1-2.1-0.6-3-1.3c-0.4-0.3-0.8-0.7-1.2-0.9c-0.5-0.2-1.1-0.3-1.6-0.1c-0.9,0.4-1.8,0.9-2.5,1.5
		c-0.8,0.6-1.6,0.9-2.5,1c-2.2,0.2-4,1.1-5.2,3c-0.2,0.2-0.4,0.4-0.7,0.6c-0.2,0-0.3,0-0.2-0.2c0.3-0.7,0.5-1.3,0.8-2
		c-0.5-0.5-1.4,0.7-2.3,0.9c-0.2,0.1-0.4,0.1-0.4-0.1c0.6-0.5,1.1-0.9,1.6-1.4c0.1-0.4-1.3-0.3-1.8-0.4c-0.2-0.1-0.2-0.2,0-0.3
		c0.7-0.1,1.3-0.2,2.1-0.1c0.1-2.1,1.2-3.7,2.7-5c2.2-1.9,4.7-3.2,7.5-4.1c0.4-0.1,0.8-0.3,1.2-0.4c-0.6-0.4-1.2-0.7-1.4-1.1
		c-0.3-0.5-0.2-1.1-0.2-1.8c-1.3,0.7-2.5,1.4-3.6,2.1c-2.7,1.5-5,3.4-7,5.7c-1.3,1.6-2.1,3.3-2.4,5.3c-0.3,1.9,0.2,3.7,1.1,5.1
		c1.8-0.2,2.7-0.7,4-1.1c0.6-0.2,1.2-0.4,1.9-0.5c0.7-0.2,1.3,0.2,1.5,0.7c0.2,0.6,0,1.2-0.6,1.5c-0.5,0.3-1,0.5-1.5,0.7
		c-0.2,0.1-1,0.2-1.6,0.3c1.7,0.2,4,0.3,5.6,0.3c0.7,0,1-0.6,1.2-1c0.9,0.4,0.9,0.6,1.1,1.3c-0.1,0.1-0.5-0.2-0.6-0.1
		c-1.2,0.9-2.7,0.3-4.1,0.6c0.3,0.2,0.7,0.5,1,0.6c1.7,0.5,2.8,1.7,3.3,3.3c0.2,0.6,0.3,1.3,0.4,1.9c0.1,1.1,0.2,2.2,0.3,3.3
		c0.2,2.7,0.8,5.3,2,7.7c0.2,0.5,0.5,1,0.7,1.4c0.1,0,0.1,0,0.2-0.1c0-0.5,0.1-1,0.1-1.5c0.3,0.1,0.4,0.3,0.4,0.4
		c0.5,2.9,1.8,5.4,3.2,8c1.7,3.3,3,6.7,2.3,10.5c-0.1,0.5,0.2,0.8,0.6,1.1c1.5,1,3,1.1,4.7,0.7c0.3-0.1,0.5-0.3,0.8-0.4
		c0.4-0.2,0.6-0.6,0.4-1.1c-0.2-0.8-0.4-1.6-0.6-2.4c-0.3-1.3-0.8-2.6-0.9-3.9c-0.3-1.8-0.4-3.7-0.5-5.5c-0.1-0.9,0.1-1.8,0.1-2.7
		c0-0.3,0-0.5,0-0.9c-0.5,0.2-0.8,0.3-1.2,0.5c-0.3,0.1-0.4,0-0.2-0.2c1.4-2,3.3-3.5,4.5-5.6c0.2-0.1,0.3,0,0.2,0.2
		c-0.4,0.8-0.8,1.6-1.3,2.6c3.8,1.6,7.5,2.5,11.6,1.9c0-0.9,0.1-1.7,0.1-2.6c0.1-0.2,0.2-0.2,0.3,0c0.3,1.1,0.6,2.2,0.3,3.4
		c-0.3,1.2-0.4,2.5,0.1,3.7c0.3,0.7,0.5,1.4,0.9,2c0.9,1.2,0.9,2.5,0.8,3.9c-0.2,1.7-0.3,3.3-0.5,5c-0.1,0.4-0.1,0.8,0.4,1.1
		c1.4,1.1,3.4,1.1,5,0.1c0-0.9-0.2-1.9,0-2.9c0.7-3.2,1.5-6.3,3.3-9.2c0.3-0.5,0.4-1.1,0.4-1.7c0-1.3,0-2.6,0.4-3.8
		c0.5-1.2,1-2.5,1.4-3.7c0.9-2.4,0.8-5,0.9-7.5c0-0.3,0-0.5,0-0.8c2.2,0.4,2.8,0.7,3.5,1.9c0.3,0.5,0.5,1,0.7,1.5
		c1,2.4,2.5,4.3,4.8,5.5c0.4,0.2,0.7,0.5,1,0.8c0.6,0.4,1.1,1,2,0.8c-0.4-0.4-1-0.5-1.2-1.3c1,0.5,1.9,0.8,3,0.6
		C70.3,70.8,69.7,70.1,68.6,70.4z"/>
	<path class="st5" d="M72.1,71.1c-1.4-0.9-2.8-1.4-4.4-1.6c-1.9-0.3-3.5-1.6-4.4-3.5c-0.4-0.9-0.7-1.9-1.2-2.8
		c-0.8-1.7-1.9-3.3-3.7-4.1c-0.4-0.2-0.7-0.6-1-0.9c-0.9-1.6-1.9-3.1-3.2-4.3c-1.7-1.8-3.5-3.5-5.2-5.3c-0.6-0.6-1.4-0.8-2.3-0.8
		c-1.8,0-3.6,0.4-5.3,0.8c-3.3,0.6-6.6,1.2-9.9,1.8c-1.2,0.2-1.4,0-2-1.1c-1-2-2.6-3.1-4.7-3.4c-1.7-0.2-3.2-0.6-4.4-1.8
		c-0.6-0.6-1.6-1-2.5-0.7c-1.1,0.4-2.2,0.8-3.1,1.4c-0.8,0.5-1.6,0.9-2.6,1c-1.3,0.1-2.5,0.5-3.6,1.3C8,47.5,7.6,47.4,7.1,47
		c0.1-2.1,1.2-3.7,2.8-4.9c1.8-1.5,3.9-2.7,6.1-3.5c0.8-0.3,1.7-0.6,2.5-0.9c0.4-0.1,0.8-0.3,0.7-0.8c-0.1-0.3-0.5-0.7-0.7-0.7
		c-1-0.2-1.5-0.5-1.2-1.6c0.1-0.4-0.1-0.9-0.6-1c-0.4,0-0.8,0.1-1.2,0.3c-0.5,0.3-1,0.8-1.6,1C11.4,36,9,37.4,7,39.3
		c-2.2,2.2-4,4.4-4.5,7.6c-0.1,0.3-0.2,0.7-0.2,1c-0.6-0.2-1.2-0.4-1.8-0.6c-0.4-0.1-0.5,0.2-0.2,0.4c0.2,0.2,0.3,0.3,0.6,0.6
		c0.4,0.3,1.5,1.1,1.5,1.1c0.1,0.5,0.7,2.4,1.3,3c-1,0.1-2.2,0.1-3.3-0.2c-0.4,0-0.4,0.3,0,0.6c0.2,0.2,0.4,0.3,0.7,0.5
		c0.8,0.4,1.8,0.8,2.8,0.8c1.8,0.1,3.6,0.1,5.3,0.6c0.2,0.1,0.5,0.1,0.7,0.2c0.9,0.5,1.8,1.1,2.8,1.6c1,0.4,1.5,1.2,1.9,2.1
		c0.6,1.6,0.7,3.3,0.7,4.9c0,1.9,0.3,3.7,0.9,5.4c0.6,1.7,1.2,3.5,1.8,5.2c0.6,0.8,0.8,1.1,1.3,1.7c0,0,0,0,0,0
		c0.3,0.3,0.7,0.5,0.8,0.7c1.2,2.3,2.5,4.6,3.4,7.1c0.1-0.1,0.1-0.2,0.1-0.2l0.4,0.8c0,0-0.1,0.1-0.2,0.3c0,0.1,0.1,0.3,0.1,0.4
		c0.3,1,0.5,2.8,0.4,4.1l0,0c0,0,0,0.1,0,0.2c0,0.1,0,0.1,0,0.2c0,0,0,0,0,0c0,0.2-0.1,0.5-0.1,0.8c0.2,1.1,0.4,1.5,1.4,2.1
		c1.6,1,3.3,1.2,5.1,0.7c1.8-0.5,2.3-1.4,1.8-3.2c-0.1-0.2-0.1-0.4-0.2-0.6c-0.3-1-0.7-2-0.9-3.1c-0.8-3.8-0.9-7.6-0.6-11.4
		c0-0.6,0.2-1.1,0.9-1.3c3.2,1.9,6.9,2.2,10.6,2.4c-0.4,2.3-1,4.3-2,6.2c-0.7,1.4-1.1,2.8-1.3,4.4c-0.1,1.4,0.1,1.7,1.5,2
		c1.5,0.3,3,0.1,4.5-0.6c-0.1,0.8-0.1,1.4-0.1,2c-0.2,1.5,0,1.8,1.3,2.4c0.3,0.1,0.5,0.3,0.8,0.4c1.4,0.4,2.9,0.5,4.2-0.3
		c0.5-0.3,0.7-0.6,0.7-1.3c-0.2-4,1.2-7.7,3.1-11.1c0.4-0.8,0.6-1.5,0.6-2.4c0-2.2,0.2-4.4,1.4-6.4c0.5-0.8,0.7-1.7,0.9-2.7
		c0.2-1.8,0.3-3.6,0.5-5.4c0-0.1,0.1-0.2,0.2-0.3c0.2,0,0.4,0,0.5,0.1c1.1,0.6,1.6,1.6,2.1,2.7c1,2.5,2.6,4.5,5.2,5.6
		c0.3,0.1,0.5,0.4,0.7,0.6c0.8,1,1.9,1.5,3.2,1.3c1.2-0.2,2.4-0.6,3.6-0.8c0,0,0.1-0.1,0.1-0.3C73.1,71.5,72.6,71.4,72.1,71.1z
		 M3.1,53.5C3,53.4,1,53,2,53c3.2,0.1,5.3-0.8,7.6-1.4c0.5-0.1,1-0.4,1.5,0.3c0,0.1,0.2,0.3-1.2,0.8C7.7,53.5,5.4,53.7,3.1,53.5z
		 M44.8,85.9c-0.4,0.9-1,1.4-1.9,1.7c-1.1,0.3-2.2,0.2-3.4-0.1c-0.1-1.4,0-2.7,0.5-3.9c0.6-1.4,1.2-2.7,1.7-4.1
		c0.3-0.8,0.4-1.6,0.6-2.4c0.1-0.4,0.2-0.9,0.3-1.4c0.2,0.1,0.3,0.1,0.3,0.1c-0.4,2.2,0.6,4.2,1.5,6.1
		C44.9,83.2,45.5,84.4,44.8,85.9z M68.1,70.9c0.1,0.8,0.8,0.9,1.2,1.3c-0.9,0.2-1.4-0.4-2-0.8c-0.3-0.2-0.6-0.6-1-0.8
		c-2.3-1.2-3.8-3.1-4.8-5.5c-0.2-0.5-0.4-1-0.7-1.5c-0.7-1.2-1.3-1.5-3.5-1.9c0,0.3,0,0.6,0,0.8c-0.1,2.5,0,5.1-0.9,7.5
		c-0.5,1.2-1,2.5-1.4,3.7c-0.5,1.2-0.4,2.5-0.4,3.8c0,0.6-0.2,1.2-0.4,1.7c-1.7,2.8-2.6,6-3.3,9.2c-0.2,0.9,0,2,0,2.9
		c-1.6,1.1-3.7,1-5-0.1c-0.4-0.3-0.4-0.7-0.4-1.1c0.2-1.7,0.4-3.3,0.5-5c0.1-1.4,0.1-2.7-0.8-3.9c-0.4-0.6-0.6-1.3-0.9-2
		c-0.5-1.2-0.4-2.4-0.1-3.7c0.3-1.2,0-2.3-0.3-3.4c-0.1-0.2-0.2-0.2-0.3,0c0,0.8-0.1,1.6-0.1,2.6c-4.1,0.6-7.9-0.2-11.6-1.9
		c0.5-0.9,0.9-1.8,1.3-2.6c0.1-0.2,0-0.2-0.2-0.2c-1.3,2.1-3.1,3.6-4.5,5.6c-0.2,0.2-0.1,0.3,0.2,0.2c0.4-0.1,0.7-0.3,1.2-0.5
		c0,0.3,0,0.6,0,0.9c0,0.9-0.2,1.8-0.1,2.7c0.1,1.8,0.2,3.7,0.5,5.5c0.2,1.3,0.6,2.6,0.9,3.9c0.2,0.8,0.4,1.6,0.6,2.4
		c0.1,0.5,0,0.8-0.4,1.1c-0.3,0.1-0.5,0.3-0.8,0.4c-1.6,0.4-3.2,0.3-4.7-0.7c-0.4-0.3-0.7-0.5-0.6-1.1c0.7-3.8-0.6-7.2-2.3-10.5
		c-1.3-2.6-2.6-5.1-3.2-8c0-0.1-0.1-0.3-0.4-0.4c0,0.5-0.1,1-0.1,1.5c-0.1,0-0.1,0-0.2,0.1c-0.2-0.5-0.5-1-0.7-1.4
		c-1.2-2.4-1.7-5-2-7.7c-0.1-1.1-0.1-2.2-0.3-3.3c-0.1-0.6-0.2-1.3-0.4-1.9c-0.5-1.7-1.6-2.8-3.3-3.3c-0.3-0.1-0.7-0.3-1-0.6
		c1.3-0.3,2.9,0.4,4.1-0.6c0.1-0.1,0.4,0.2,0.6,0.1c-0.2-0.7-0.2-0.9-1.1-1.3c-0.1,0.4-0.5,1-1.2,1c-1.6,0-3.9-0.2-5.6-0.3
		c0.6,0,1.4-0.2,1.6-0.3c0.5-0.2,1-0.4,1.5-0.7c0.6-0.4,0.8-0.9,0.6-1.5c-0.2-0.6-0.8-0.9-1.5-0.7c-0.6,0.1-1.2,0.3-1.9,0.5
		c-1.3,0.4-2.2,0.9-4,1.1c-0.9-1.4-1.5-3.2-1.1-5.1c0.3-2,1.1-3.7,2.4-5.3c2-2.3,4.3-4.2,7-5.7c1.2-0.6,2.4-1.3,3.6-2.1
		c0.1,0.7,0,1.3,0.2,1.8c0.2,0.4,0.8,0.7,1.4,1.1c-0.4,0.1-0.8,0.3-1.2,0.4c-2.8,0.9-5.3,2.2-7.5,4.1c-1.5,1.2-2.6,2.9-2.7,5
		c-0.8-0.1-1.4,0.1-2.1,0.1c-0.2,0.1-0.2,0.2,0,0.3c0.6,0.1,2,0,1.8,0.4c-0.6,0.5-1,0.9-1.6,1.4c0,0.1,0.1,0.1,0.4,0.1
		c0.9-0.2,1.9-1.4,2.3-0.9c-0.3,0.7-0.5,1.4-0.8,2c0,0.1,0,0.2,0.2,0.2c0.2-0.2,0.5-0.4,0.7-0.6c1.2-1.9,3-2.8,5.2-3
		c0.9-0.1,1.7-0.4,2.5-1c0.8-0.6,1.6-1.1,2.5-1.5c0.5-0.2,1.1-0.1,1.6,0.1c0.5,0.2,0.9,0.6,1.2,0.9c0.9,0.8,1.8,1.2,3,1.3
		c1.5,0.1,2.9,0.4,4,1.5c0.8,0.7,1,1.1,1.5,2.5c-0.9-0.8-1.6-1.4-2.3-1.9c-0.5-0.4-1-0.8-1.6-1.1c-0.4-0.2-0.9-0.2-1.5-0.2
		c2,1,3.3,2.9,5.1,4c1,0.7,2.2,1,3.4,1.5c0.4,0.2,0.7,0.3,1,0.5c0.9,0.6,1,1.6,0.3,2.4c-0.4,0.4-0.8,0.7-1.3,1c-1.6,1-2.7,2.3-3.5,4
		c-0.8,1.8-1.8,3.4-3.2,4.8c-0.5,0.5-1.1,1.1-1.9,0.9c-0.9-0.3-1.2-1.1-1.3-1.9c-0.2-2.2-1.1-4.1-1.7-6.2c-0.5-1.5-0.5-3,0-4.4
		c0.2-0.5,0.4-1,0.1-1.6c-0.6,0.3-0.7,0.8-0.8,1.3c-0.6,1.9-0.5,3.7,0.2,5.6c0.6,1.8,1.3,3.6,1.6,5.6c0.1,0.5,0.3,1.1,0.6,1.5
		c0.7,1.2,2,1.5,3.1,0.7c0.6-0.4,1.1-0.8,1.5-1.4c1-1.4,2-2.9,2.8-4.5c0.8-1.6,1.9-3,3.5-3.9c0.4-0.2,0.9-0.6,1.2-0.9
		c1.2-1.3,0.9-3-0.7-3.8c-0.8-0.4-1.6-0.7-2.6-1.1c3.8-0.6,7.5-1.2,11.1-2.1c1.5-0.4,3.1-0.4,4.7-0.7c0.8-0.1,1.4,0.1,2,0.6
		c1.3,1.2,2.6,2.4,3.8,3.7c1.9,2,3.8,4.1,4.9,6.7c0.1,0.3,0.3,0.5,0.5,0.8c0.2-0.2,0.4-0.4,0.6-0.4c0.2,0,0.5,0.2,0.7,0.3
		c1.1,0.9,1.9,2,2.5,3.2c0.4,0.9,0.7,1.8,1.1,2.7c0.9,2.1,2.6,3.2,4.6,4c0.4,0.2,1,0.3,1.4,0.2c1.1-0.3,1.7,0.4,2.5,1.1
		C70,71.7,69.1,71.4,68.1,70.9z"/>
	<path class="st5" d="M13.8,49.1c0.9-0.7,1.6-0.4,1.8,0.8C15.1,49.5,14.9,49.3,13.8,49.1"/>
	<path class="st5" d="M17.4,72.9c-1.7,1.9-3.5,3.2-4,6.1c-0.5,2.9-0.5,5.2-0.5,6.7c0,1.4,2.2,1.1,3.2,1.2c1,0.1,3.4-0.1,3.5-0.9
		c0.1-0.8-0.4-3.2-0.3-4.3c0.1-1.1,1.9-2.5,1.9-2.5l-0.1-0.7c0,0-1.7,0.6-2.1,1.8c-0.4,1.1-0.3,2.3-0.3,3.2c0,0.8,0.4,1.7,0.1,2.2
		c-0.3,0.5-3.9,1.1-4.9,0.3c-1.1-0.7,0-4.8,0-5.9c0-1.1,0.3-1.9,0.6-2.5c0.6-1,2.3-3.2,3.2-3.9c0.6-0.5,0-0.6,0-0.6L17.4,72.9z"/>
	<g id="MqgkxU.tif">
		<g>
			<path class="st5" d="M314,79.6c-1.9,0-3.6,0-5.5,0c0-0.5,0-1,0-1.4c0-3.8,0-7.7,0-11.5c0-3.1-1.9-4.5-4.8-3.4
				c-2,0.8-3,1.6-2.9,3.9c0.2,3.7,0,7.4,0,11c0,0.5,0,0.9,0,1.4c-1.9,0-3.7,0-5.6,0c0-0.5,0-1,0-1.5c0-3.9,0-7.9,0-11.8
				c0-2.6-1.6-3.8-4.1-3.3c-2.4,0.5-3.5,1.9-3.5,4.3c0,3.6,0,7.2,0,10.8c0,0.5,0,0.9,0,1.5c-1.9,0-3.6,0-5.5,0c0-7,0-13.9,0-21
				c1.8,0,3.5,0,5.4,0c0.1,0.8,0.1,1.5,0.2,2.3c4.8-4.2,10.7-3.8,12.8,0.7c2.1-2.5,4.8-3.8,8.1-3.6c2.9,0.2,5.1,2,5.2,5
				c0.2,5,0.1,10,0.1,15C314,78.5,314,79,314,79.6z"/>
			<path class="st5" d="M102.2,79.6c-1.9,0-3.7,0-5.4,0c-0.3,0-0.5-0.5-0.8-0.7c-0.1-0.1,0-0.3,0-0.5c0-8.9,0-17.8,0-26.7
				c0-0.3,0-0.7,0.1-1.1c0.3,0,0.5-0.1,0.8-0.1c4.5,0,9-0.1,13.5,0c5.4,0.1,9.1,3.9,9.1,9.2c0,5.4-3.6,9.3-9,9.5
				c-2.4,0.1-4.8,0.1-7.1,0c-0.9,0-1.2,0.3-1.2,1.2C102.3,73.4,102.2,76.4,102.2,79.6z M102.3,63.7c2.5,0,4.9,0.1,7.3,0
				c2.1-0.1,3.6-1.8,3.7-3.8c0-2-1.3-3.8-3.4-3.9c-2.5-0.2-5,0-7.6,0C102.3,58.5,102.3,61.1,102.3,63.7z"/>
			<path class="st5" d="M236.3,79.6c-1.8,0-3.5,0-5.3,0c0-0.7-0.1-1.4-0.2-2.3c-0.4,0.3-0.6,0.5-0.9,0.7c-4.3,3.7-10.5,2.7-13.4-2.2
				c-2.4-4-2.1-10.6,0.6-14.3c3-4.1,8.9-4.7,12.7-1.4c0.3,0.2,0.6,0.5,1,0.9c0-3.6,0-7,0-10.5c1.9,0,3.6,0,5.5,0
				C236.3,60.2,236.3,69.8,236.3,79.6z M230.9,69.2c0-1,0-2.1,0-3.1c0-0.4-0.1-0.8-0.3-1.1c-1.7-2.6-6.6-2.8-8.5-0.4
				c-1.6,2.1-2,4.5-1.1,7c1.3,3.4,4.7,4.7,7.9,2.9c1.3-0.7,2.2-1.6,2-3.3C230.8,70.6,230.9,69.9,230.9,69.2z"/>
			<path class="st5" d="M188,79.6c-1.7,0-3.5,0-5.4,0c0-0.5,0-1,0-1.4c0-3.7,0-7.3,0-11c0-3.4-1.8-4.9-5.1-4.1
				c-1,0.2-2.1,0.9-2.9,1.5c-0.5,0.3-0.8,1.1-0.8,1.7c-0.1,3.9,0,7.9,0,11.8c0,0.5,0,0.9,0,1.5c-1.9,0-3.6,0-5.4,0
				c0-9.7,0-19.3,0-29.1c1.8,0,3.5,0,5.4,0c0,3.4,0,6.9,0,10.7c2.5-2.5,5.3-3.4,8.5-3.2c3.4,0.2,5.8,2.3,5.8,5.7
				c0.1,5.1,0,10.2,0,15.3C188.1,79.2,188.1,79.4,188,79.6z"/>
			<path class="st5" d="M190.8,58.5c1.8,0,3.5-0.1,5.1,0c0.4,0,0.9,0.5,1.1,0.9c1.6,4,3.1,8.1,4.6,12.1c0.2,0.4,0.3,0.9,0.6,1.5
				c0.3-0.6,0.5-1.1,0.7-1.5c1.5-4,3-7.9,4.4-11.9c0.3-0.9,0.7-1.3,1.7-1.3c1.5,0.1,3,0,4.7,0c-0.4,1-0.7,1.9-1.1,2.8
				c-2.9,7.1-5.8,14.2-8.6,21.4c-1.8,4.4-4.5,6-9.2,5.5c-0.5-0.1-1-0.1-1.7-0.2c0.3-1.6,0.5-3.2,0.8-4.7c0.9,0,1.8,0.1,2.6,0
				c2-0.3,3.3-2.5,2.5-4.4c-2.5-6.3-5.1-12.7-7.6-19C191.1,59.5,191,59.1,190.8,58.5z"/>
			<path class="st5" d="M135.3,79.7c0-0.7-0.1-1.2-0.1-1.9c-0.4,0.3-0.8,0.5-1.1,0.7c-3.7,2.5-8.6,2.2-11.3-0.8
				c-1.9-2.1-2.1-4.6-1.2-7.2c0.9-2.4,2.8-3.6,5.3-4c3-0.5,5.7,0.1,8,2c1.2-3.8-0.9-6.4-4.8-6.1c-2.1,0.2-4,1-5.8,2.4
				c-0.6-1.1-1.3-2.1-1.7-3.2c-0.1-0.3,0.3-0.9,0.6-1.2c2.1-1.5,4.5-2.4,7.1-2.5c1.5-0.1,3,0,4.5,0.3c3.8,0.7,5.9,3.4,6,7.4
				c0.1,4.3,0,8.6,0,12.8c0,0.9-0.3,1.1-1.1,1.1C138.3,79.6,136.8,79.7,135.3,79.7z M135.1,73.3c0.4-1.4-0.4-2.3-1.6-2.5
				c-1.4-0.3-2.9-0.5-4.3-0.4c-1.6,0.2-2.6,1.6-2.6,3c0,1.4,1,2.7,2.6,2.9c1.4,0.2,2.8,0,4.2-0.3C134.7,75.6,135.6,74.8,135.1,73.3z
				"/>
			<path class="st5" d="M262.3,70.8c-5.3,0-10.5,0-15.8,0c0.3,1.9,1.2,3.3,2.7,4.1c3.2,1.8,6.3,0.9,9.2-1.1c0.8,1.1,1.5,2.3,2.4,3.5
				c-1.7,1.5-3.7,2.3-5.8,2.6c-2.9,0.5-5.8,0.4-8.5-1c-4.1-2.1-5.8-5.6-5.7-10.1c0.1-4.5,2.1-8,6.3-9.9c4-1.7,8-1.4,11.5,1.5
				C261.6,63.1,262.4,66.7,262.3,70.8z M256.8,67c0-2.7-2.4-5-5.8-4.6c-2.5,0.2-4.6,2.5-4.3,4.6C250,67,253.4,67,256.8,67z"/>
			<path class="st5" d="M164.5,61.8c-1.1,1.1-2.3,2.2-3.4,3.2c-2.9-2.6-6.5-2.8-8.7-0.6c-2.4,2.5-2.3,6.9,0.1,9.3
				c2.2,2.2,5.7,1.9,8.5-0.7c1.2,1.1,2.3,2.1,3.5,3.2c-2.1,3.3-7.1,4.7-11.7,3.4c-4.7-1.3-7.7-5.4-7.8-10.4c0-5.3,2.8-9.4,7.5-10.8
				C157.1,57.1,162.3,58.5,164.5,61.8z"/>
			<path class="st5" d="M271.9,79.6c-1.7,0-3.3,0.1-4.8,0c-0.3,0-0.7-0.7-0.7-1c-0.1-2.5,0-5.1,0-7.6c0-3.6,0-7.3,0-10.9
				c0-0.5,0-0.9,0-1.5c1.9,0,3.7,0,5.5,0c0,0.8,0,1.6,0,2.6c2.1-1.8,4-3.2,6.7-3.2c0,1.8,0,3.5,0,4.8c-1.9,0.6-3.6,1-5.3,1.6
				c-1,0.4-1.4,1.2-1.4,2.4C272,71,271.9,75.2,271.9,79.6z"/>
		</g>
	</g>
</g>
</svg>
