<?xml version="1.0" encoding="utf-8"?>
<!-- Generator: Adobe Illustrator 19.2.1, SVG Export Plug-In . SVG Version: 6.00 Build 0)  -->
<svg version="1.1" id="Layer_1" xmlns="http://www.w3.org/2000/svg" xmlns:xlink="http://www.w3.org/1999/xlink" x="0px" y="0px"
	 viewBox="0 0 512 128" style="enable-background:new 0 0 512 128;" xml:space="preserve">
<style type="text/css">
	.st0{fill:none;}
	.st1{fill:#3E4F4E;}
</style>
<g id="Container">
	<rect class="st0" width="512" height="128"/>
</g>
<g id="Logos">
	<g id="Periscope">
		<g>
			<path class="st1" d="M14.2,90c-1.8-1.9-3.6-3.8-5.5-5.8c-0.9,0.9-1.7,1.6-2.8,2.6C5.4,86,5,85.3,4.5,84.4C5.9,84.2,7,84.1,8,84
				c0.2-0.2,0.3-0.5,0.5-0.7c-1.9-1.7-3.8-3.4-5.7-5c3.9,0,7.7,0,11.6,0c-1.7,1.9-3.5,3.7-5.3,5.7c3.7,0,7.1,0,11.2,0
				c-2.3-2.2-4.1-3.9-6-5.7c-1.9-1.9-3.7-3.8-5.8-5.9c-2.1,2.2-3.9,4.1-5.7,6c-0.8-1.8-1.7-3.6-2.7-5.8c3.1,0,5.4,0,8.3,0
				c-2-2.1-3.7-3.9-5.3-5.6H3c3.7,0,7.5,0,11.2,0l-0.1-0.1c-1.7,1.8-3.3,3.5-5.1,5.4c3.7,0,7.2,0,11.3,0c-1.3-1.1-2.1-1.9-3-2.7
				c-0.8-0.8-1.6-1.6-2.6-2.7c5.1-0.4,5.1-0.4,5.9,4c0.1,0.6,0.2,1.3,0.2,1.4c-1.9,2.3-3.5,4.3-4.9,6.1c1,0,2.7-0.2,4.3,0
				c1.5,0.2,3.5-1,4.9,1.7c-1.4,1.3-2.8,2.6-4.3,3.9c3.3,0.6,6.7-0.5,10.2,0.8c-1.8,1.9-3.4,3.6-4.9,5.3c-0.2,0-0.3,0-0.5-0.1
				l0.1,0.1c-1.8-1.9-3.6-3.9-5.2-5.6c-2.2,2-4.1,3.8-6,5.6l0,0C14.5,90,14.3,90,14.2,90L14.2,90z"/>
			<path class="st1" d="M66.3,96c-1.6,1.7-3.3,3.5-5.1,5.5c1.8,0,3.4,0,5,0c0,0.1,0.1,0.3,0.1,0.4c-1,0.6-2.1,1.2-3.2,1.9
				c-0.8-0.7-1.4-1.3-2.6-2.3c-1.3,1.5-2.6,3-3.9,4.5c-1,1.2-2.1,1.3-3.2,0c-1.2-1.4-2.6-2.8-4.1-4.5c-2.1,2.3-4,4.3-5.8,6.3
				l0.1-0.1c-0.1-0.1-0.2-0.1-0.2-0.1l0.1,0.1c-1.8-2-3.6-3.9-5.7-6.2c-1.5,1.6-2.8,2.9-4.1,4.4c-1.2,1.4-2.2,1.2-3.4,0
				c-1.2-1.4-2.5-2.9-3.8-4.4c-1.2,1-1.9,1.6-2.6,2.3c-1-0.6-2.1-1.2-3.6-2.1c2.1,0,3.7,0,5.7,0c-2-2.2-3.6-3.9-5.2-5.7h-0.1
				c3.5,0,7.1,0,10.6,0c0.2,0.3,0.4,0.6,0.6,0.9c-1.8,1.4-3.6,2.8-5.7,4.4c4.1,0,7.5,0,11,0c0.1-0.2,0.2-0.3,0.3-0.5
				c-1.8-1.6-3.6-3.3-5.3-4.9c3.7,0,7.5,0,11.2,0c-1.8,1.7-3.6,3.4-5.4,5c0.1,0.2,0.2,0.3,0.4,0.5c3.4,0,6.8,0,10.2,0
				c0.1-0.2,0.2-0.3,0.4-0.5c-1.8-1.7-3.6-3.3-5.4-5c3.7,0,7.5,0,11.2,0c-1.7,1.7-3.4,3.5-5.2,5.4c3.8,0,7.3,0,10.8,0
				c0.2-0.3,0.5-0.6,0.7-0.9c-1.8-1.4-3.6-2.8-5.7-4.4C59.4,96,62.9,96,66.3,96L66.3,96z"/>
			<path class="st1" d="M25.8,31.8c-1.4-1.5-2.7-3.1-4.2-4.7c3-2.2,6.6-0.5,9.9-1.4c-0.6-0.8-1.2-1.4-1.9-2.4c2-0.5,3.9-1,5.7-1.5
				c0.1,0.2,0.2,0.3,0.3,0.5c-1.3,0.9-2.5,1.8-3.8,2.7c0.2,0.2,0.3,0.5,0.5,0.7c3.4,0,6.9,0,10.8,0c-1.4-1.5-2.6-2.7-4.1-4.4
				c3.1,0,5.8,0,8.9,0c-1.5,1.6-2.7,2.9-4.2,4.4c3.8,0,7.2,0,11.2,0c-1.5-1.2-2.7-2.1-3.9-3c0.2-0.3,0.4-0.6,0.6-0.8
				c1.8,0.5,3.7,0.9,5.7,1.4c-0.7,0.8-1.2,1.5-1.8,2.4c3.3,0.9,6.8-0.8,9.8,1.4c-1.5,1.7-2.8,3.2-4.2,4.7l0.1-0.1
				c-0.1,0-0.3,0-0.4,0.1c-1.8-1.9-3.7-3.9-5.7-6c-1.9,2.1-3.6,4.1-5.4,6c-2,2-4,4-6,6c-2.1-2-4.3-4-6.4-6c-1.8-2-3.6-3.9-5.4-6
				c-2.1,2.2-3.9,4.1-5.7,6C26,31.8,25.9,31.8,25.8,31.8C25.7,31.8,25.8,31.8,25.8,31.8z M38.3,31.7c3.5,0,7,0,10.3,0
				c-1.8-1.7-3.6-3.5-5.2-5.1C41.8,28.1,40.1,29.8,38.3,31.7z"/>
			<path class="st1" d="M83.9,66.9c-1.8,1.6-3.6,3.2-5.4,4.8c0.1,0.2,0.3,0.5,0.4,0.7c2.4,0,4.8,0,7.7,0c-0.7,2.1-1.3,3.9-2,5.7
				c-0.1,0.2-0.5,0.3-0.8,0.4v0.1c-1.8-1.9-3.6-3.9-5.6-6c-2,2.2-3.8,4.1-5.6,6v-0.1c-3.9,3.9-7.7,7.7-11.6,11.6l0.1-0.1
				c-0.2,0-0.3,0-0.5,0.1c-1.5-1.7-3.1-3.3-4.6-5c0-0.2,0-0.4,0-0.6c3.3,0,6.6,0,9.9,0c0.1-0.3,0.2-0.6,0.3-0.9
				c-1.5-1.3-3-2.5-4.9-4.1c3.7-1.9,7.2-0.4,9.9-1.2c-1.7-1.9-3.4-3.8-5.2-5.9c0.4-1.7,0.7-3.6,1.1-5.3c1.7,0,3.1,0,4.5,0
				c0.1,0.2,0.3,0.4,0.4,0.6c-1.7,1.5-3.3,3-5.2,4.6c3.7,0,7.2,0,10.7,0c0.2-0.2,0.3-0.4,0.5-0.7c-1.8-1.6-3.6-3.2-5.4-4.8l-0.1,0.1
				C76.5,66.9,80.2,66.9,83.9,66.9C84,66.9,83.9,66.9,83.9,66.9z"/>
			<path class="st1" d="M8.2,60.9C6.5,59,4.8,57,3.1,55.1c-0.8,0.7-1.3,1.1-1.8,1.5c-0.1-0.1-0.3-0.2-0.4-0.3
				c0.4-0.6,0.7-1.1,1.2-1.9c-1.3-1.5,0.2-3.1,0.7-4.8c0.1-0.2,0.7-0.4,1.1-0.4c1.5,0,3,0.1,4.5,0.1l-0.1-0.1
				C6.6,51.1,5,53,3.4,54.9c3.6,0,7,0,10.7,0c-1.8-2-3.4-3.8-5-5.5L9,49.5c3.6,0,7.2,0,10.8-0.1c-1.6,1.8-3.2,3.6-5.1,5.8
				c2.6,0,4.7,0,6.7,0c-0.1,5.5-3.6,8.7-7.2,11.8l0.1,0.1c-0.5-0.7-1-1.3-1.5-2c-1.2-1.3-2.4-2.6-3.6-4c3.5,0,7,0,10.8,0
				c-2.1-2.1-3.8-3.8-5.8-5.7c-1,1.1-2.2,2.2-3.3,3.4c-0.6,0.7-1.1,1.6-1.7,2.4C8.9,61,8.5,60.9,8.2,60.9L8.2,60.9z"/>
			<path class="st1" d="M78.8,49.4c0.9,0,1.8-0.1,2.8-0.1c2.7,0,3.8,1,3.9,3.8c0,0.5-0.4,1.1-0.6,1.5c0.5,0.5,1,1.1,1.5,1.6
				c-0.1,0.1-0.3,0.3-0.4,0.4c-0.6-0.4-1.2-0.9-2-1.5c-1.7,1.9-3.4,3.9-5.1,5.8l0,0c-0.3,0.1-0.7,0.1-1,0.2c-1.6-2-3.3-4-4.6-5.6
				c-2,2-3.7,3.8-5.5,5.6c3.2,0,6.7,0,10.1,0c-0.5,0.6-0.9,1.2-1.4,1.7c-1.2,1.4-2.5,2.8-3.7,4.2l0.1-0.1c-3.7-3-6.9-6.4-7.1-11.9
				c2.1,0,4.2,0,6.6,0c-1.9-2.1-3.5-3.9-5.1-5.6c3.6,0,7.2,0,10.8,0.1L78,49.4c-1.6,1.8-3.2,3.6-5,5.5c3.7,0,7.2,0,10.8,0
				C81.9,52.9,80.4,51.1,78.8,49.4L78.8,49.4z"/>
			<path class="st1" d="M67.1,96.1c-0.3,0-0.5-0.1-0.8-0.1l0.1,0.1c-0.4-0.6-0.8-1.3-1.3-1.9c-1.3-1.4-2.6-2.8-3.8-4.2l-0.1,0.1
				c3.6,0,7.1,0,10.7,0c0.2-0.4,0.4-0.7,0.6-1.1c-1.8-1.4-3.6-2.8-5.4-4.2c0.1-0.2,0.3-0.4,0.4-0.6c3.4,0,6.8,0,10.7,0
				c-2-2.1-3.7-3.9-5.3-5.7v0.1c3.7,0,7.5,0,11.2,0v-0.1c-1.7,1.8-3.3,3.6-5.2,5.6c1.3,0.1,2.3,0.2,3.7,0.3
				c-0.4,0.9-0.8,1.6-1.3,2.6c-1-0.9-1.8-1.7-2.8-2.7c-1.9,2-3.6,3.9-5.4,5.8L72.7,90C70.9,92.1,69,94.1,67.1,96.1L67.1,96.1z"/>
			<path class="st1" d="M20.6,96c-0.2,0.1-0.5,0.1-0.7,0.2l0,0c-1.2-1.4-2.4-2.8-3.5-4.2c-0.6-0.7-1.2-1.3-1.8-2l0,0
				c3.7,0,7.5,0,11.2,0l-0.1-0.1c-0.6,0.7-1.2,1.4-1.8,2.1C22.8,93.3,21.7,94.7,20.6,96L20.6,96z"/>
			<path class="st1" d="M61.2,31.8c3.6,0,7.1,0,11.2,0c-1.5,1.5-2.7,2.7-3.8,4c-0.5,0.6-0.9,1.3-1.4,2v-0.1c-0.3,0-0.6,0-0.9,0.1
				c-0.4-0.6-0.6-1.2-1.1-1.7C64,34.6,62.6,33.2,61.2,31.8L61.2,31.8z"/>
			<path class="st1" d="M19.8,37.8c-1-1.2-1.9-2.5-3-3.7c-0.6-0.6-1.5-1.1-2.2-1.6c0.2-0.3,0.3-0.5,0.5-0.8c3.6,0,7.2,0,10.7,0l0,0
				c-0.7,0.8-1.4,1.6-2.1,2.4c-1,1.2-2,2.5-3,3.7C20.3,37.8,20,37.8,19.8,37.8C19.7,37.8,19.8,37.8,19.8,37.8z"/>
			<path class="st1" d="M72.8,43.4c2.5,0,5-0.1,7.5,0c0.6,0,1.5,0.5,1.8,1c0.2,0.3-0.3,1.2-0.7,1.7c-0.8,1.1-1.7,2.2-2.6,3.2
				l0.1-0.1c-0.3,0-0.6,0-0.9,0l0.1,0.1c-0.4-0.6-0.8-1.3-1.2-1.8C75.4,46.1,74.1,44.7,72.8,43.4L72.8,43.4z"/>
			<path class="st1" d="M8.2,49.4c-0.9-1.1-1.9-2.2-2.7-3.4c-0.3-0.4-0.7-1.2-0.5-1.6c0.3-0.5,1-1,1.6-1c2.5-0.1,5.1,0,7.6-0.1l0,0
				c-0.6,0.7-1.1,1.3-1.7,2c-1.1,1.3-2.3,2.7-3.4,4.1l0.1-0.1C8.8,49.3,8.5,49.3,8.2,49.4L8.2,49.4z"/>
			<path class="st1" d="M14.2,43.4c-1.7-1.8-3.3-3.5-5.3-5.5c3.8,0,7.3,0,10.8,0l-0.1-0.1c-1.7,1.9-3.4,3.8-5.1,5.6
				C14.5,43.4,14.3,43.4,14.2,43.4L14.2,43.4z"/>
			<path class="st1" d="M67.2,37.8c3.5,0,6.9,0,10.8,0c-1.9,2-3.5,3.8-5.2,5.5h0.1c-0.1,0-0.3,0-0.4,0.1
				C70.7,41.5,69,39.6,67.2,37.8C67.3,37.8,67.2,37.8,67.2,37.8z"/>
			<path class="st1" d="M78.8,60.9c2.7,0,5.3,0,7.9,0c1.2,3.1-1,4.5-2.8,6H84c-0.6-0.7-1.1-1.5-1.7-2.1C81.1,63.5,80,62.2,78.8,60.9
				L78.8,60.9z"/>
			<path class="st1" d="M3.1,66.9c-1.8-1.5-3.9-2.9-2.8-6c2.6,0,5.2,0,7.9,0l0,0c-0.5,0.6-1,1.3-1.5,1.9C5.5,64.2,4.3,65.5,3.1,66.9
				C3,66.9,3.1,66.9,3.1,66.9z"/>
			<path class="st1" d="M14.2,90c-1.1,1.2-2.1,2.4-3.3,3.7C9.9,92.4,9,91.4,8,90C10.3,90,12.3,90,14.2,90L14.2,90z"/>
			<path class="st1" d="M72.8,89.9c1.9,0,3.8,0,6.2,0c-1,1.4-1.8,2.5-2.8,3.8c-1.3-1.3-2.4-2.5-3.5-3.7C72.7,90,72.8,89.9,72.8,89.9
				z"/>
			<path class="st1" d="M19.9,96.1c-0.9,1.1-1.8,2.1-2.9,3.3c-1.5-1.3-2.5-2.2-3.6-3.1c0.1-0.2,0.1-0.4,0.2-0.5
				C15.7,95.9,17.8,96,19.9,96.1C20,96.2,19.9,96.1,19.9,96.1z"/>
			<path class="st1" d="M67.1,96.1c2.1-0.1,4.2-0.2,6.3-0.3c0.1,0.2,0.1,0.3,0.2,0.5c-1.1,0.9-2.1,1.9-3.4,3
				C69.1,98.1,68.1,97.1,67.1,96.1L67.1,96.1z"/>
			<path class="st1" d="M43.3,107.6c-0.7,0.3-1.3,0.8-2,0.8c-1.6,0-3.2-0.3-4.7-0.7C38.9,107.6,41.1,107.6,43.3,107.6
				C43.4,107.6,43.3,107.6,43.3,107.6z"/>
			<path class="st1" d="M43.5,107.7c2.3,0,4.6,0,6.9,0c0,0.2,0,0.4,0,0.6C48.1,108.1,45.9,107.8,43.5,107.7
				C43.6,107.6,43.5,107.7,43.5,107.7z"/>
			<path class="st1" d="M24.2,64.8c12.9,0,25.7,0,38.6,0C62.5,75.8,54.3,84,43.5,84C32.7,84.1,24.4,75.8,24.2,64.8z"/>
			<path class="st1" d="M14.6,43.3c3.6,0,7.2,0,11.2,0c-1.9-2-3.6-3.8-5.2-5.5c3.5,0,7,0,10.5,0c0.1-0.2,0.1-0.4,0.2-0.6
				c-1.7-1.8-3.5-3.6-5.2-5.4c3.7,0,7.5,0,11.2,0c-1.3,1.4-2.5,2.7-3.7,4.1C33,36.6,32.5,37.3,32,38l0,0c-1.8,1.6-3.7,3.2-6,5.2
				c2.6,0,4.5,0,7.1,0c-1.7,1.2-2.9,2-4.3,2.9c-0.9-0.8-1.8-1.6-2.9-2.7c-1.8,2.1-3.6,4-5.4,6v-0.1c-0.3,0-0.6,0-0.9,0
				c-1.1-1.4-2.3-2.7-3.4-4.1C15.7,44.6,15.2,44,14.6,43.3z"/>
			<path class="st1" d="M66.4,37.8c-1.8,1.6-3.6,3.2-5.4,4.8c0.1,0.3,0.3,0.5,0.4,0.8c3.7,0,7.3,0,11,0c-1.3,1.4-2.7,2.9-4,4.3
				c-0.4,0.5-0.7,1.1-1.1,1.7c-0.3,0-0.6,0-0.8,0v0.1c-1.7-1.9-3.5-3.9-5.3-6c-1,1-1.9,1.7-2.8,2.6c-1.2-0.8-2.4-1.5-4-2.6
				c2.3,0,4.1,0,6.4,0c-2.1-2.2-3.8-3.9-5.5-5.7C58.9,37.8,62.7,37.8,66.4,37.8z"/>
			<path class="st1" d="M43.7,96c-0.2,0-0.3,0-0.5,0c-2-2-4-4-6-6c-0.7-0.9-1.5-1.9-2.4-3c1.5,0.4,2.8,0.8,4.3,1.2
				c-0.3,0.6-0.6,1-1,1.7c3.6,0,7,0,10.5,0c-0.2-0.5-0.5-1-0.8-1.6c1.3-0.4,2.5-0.8,4.1-1.3c-0.9,1.2-1.6,2.1-2.3,3
				C47.7,92,45.7,94,43.7,96z"/>
			<path class="st1" d="M54.8,96c-1.2-1.4-2.4-2.7-3.6-4.1c-0.5-0.6-1-1.3-1.6-1.9c3.7,0,7.5,0,11.2,0C58.9,92,56.8,94,54.8,96z"/>
			<path class="st1" d="M37.3,89.9c-1.2,1.4-2.5,2.7-3.6,4.1c-0.5,0.6-1,1.3-1.5,2c-2-2-4-4-6.1-6C29.9,89.9,33.6,89.9,37.3,89.9z"
				/>
			<path class="st1" d="M49.7,31.8c3.7,0,7.5,0,11.2,0c-1.9,2-3.7,4-5.6,6c-0.2,0-0.3,0-0.5,0c-1.2-1.4-2.4-2.7-3.6-4.1
				C50.7,33.1,50.2,32.4,49.7,31.8z"/>
			<path class="st1" d="M43.7,37.8c3.7,0,7.5,0,11.2,0c-0.7,0.7-1.4,1.4-2.1,2.1c-2.4,2.4-4.6,2.4-7.1,0
				C45,39.2,44.4,38.5,43.7,37.8z"/>
			<path class="st1" d="M31.9,38c3.6,0,7.1,0,11.3,0C42,39.1,41,40.1,40,40.9c-1.7,1.3-3.8,1.2-5.4-0.3C33.8,39.7,32.9,38.9,31.9,38
				L31.9,38z"/>
			<path class="st1" d="M20.5,49.4c1.5-0.1,3-0.1,4.9-0.2c-0.8,1.2-1.5,2.1-2.2,3.2C22.4,51.3,21.5,50.3,20.5,49.4
				C20.6,49.4,20.5,49.4,20.5,49.4z"/>
			<path class="st1" d="M66.4,49.4c-0.8,0.9-1.7,1.8-2.6,2.9c-0.8-1-1.4-1.8-2.3-3C63.4,49.3,65,49.4,66.4,49.4
				C66.5,49.4,66.4,49.4,66.4,49.4z"/>
		</g>
	</g>
</g>
</svg>
