<?xml version="1.0" encoding="utf-8"?>
<!-- Generator: Adobe Illustrator 19.2.1, SVG Export Plug-In . SVG Version: 6.00 Build 0)  -->
<svg version="1.1" id="Layer_1" xmlns="http://www.w3.org/2000/svg" xmlns:xlink="http://www.w3.org/1999/xlink" x="0px" y="0px"
	 viewBox="0 0 512 128" style="enable-background:new 0 0 512 128;" xml:space="preserve">
<style type="text/css">
	.st0{fill:none;}
	.st1{fill:#3E4F4E;}
</style>
<g id="Container">
	<rect class="st0" width="512" height="128"/>
</g>
<g id="Logos">
	<g id="Rigetti">
		<g>
			<path class="st1" d="M69.9,49.8c0,0.4,0,0.8,0,1.2c0,11.1-0.1,22.2,0,33.3c0,4.2-3.5,7.5-7.4,7.4c-5.9-0.2-11.8,0-17.8,0
				c-0.4,0-0.8,0-1.3,0c0-1.3-0.1-2.5,0-3.6c0.1-1.2,1.1-1.9,2.5-1.9c3.5,0,7,0,10.5,0c2.5,0,3.8-1.4,3.8-3.8c0-0.8,0-1.5,0-2.4
				c-1.3,0-2.4,0-3.6,0c-2.4,0-4.7,0-7.1,0c-4.1,0-7.2-3-7.3-7c-0.1-5.5-0.1-10.9,0-16.4c0.1-4,3-6.9,7.1-7c6.7-0.1,13.4,0,20,0
				C69.6,49.6,69.6,49.7,69.9,49.8z M60.2,55.5c-1.6,0-3,0-4.5,0c-0.2,0-0.5,0-0.7,0c-1.7,0.1-3,1.5-3,3.4c0,4.1,0,8.2,0,12.2
				c0,1.9,1.3,3.3,3.2,3.4c1.7,0.1,3.3,0,5.1,0C60.2,68.2,60.2,61.9,60.2,55.5z"/>
			<path class="st1" d="M99.6,68.4c-5.4,0-10.7,0-16,0c0,1.2-0.1,2.3,0,3.4c0.3,1.7,1.7,2.7,3.6,2.8c2.7,0,5.4,0,8.1,0
				c1.7,0,2.5,0.8,2.5,2.4c0,0.8,0,1.7,0,2.5c0,0.1,0,0.2-0.1,0.5c-0.3,0-0.7,0-1.1,0c-5.1,0-10.2,0-15.2,0c-4,0-7.1-3.1-7.1-7.1
				c0-5.3,0-10.5,0-15.8c0-4.2,2.4-7.2,6.5-7.4c4.3-0.3,8.6-0.2,12.9,0.1c3,0.2,5.7,2.8,5.8,5.9C99.8,59.9,99.6,64.1,99.6,68.4z
				 M91.8,55.5c-1.8,0-3.6-0.1-5.4,0c-1.4,0.1-2.6,1.1-2.8,2.5c-0.2,2-0.1,4.1-0.1,6.1c2.8,0,5.4,0,8.2,0
				C91.8,61.3,91.8,58.5,91.8,55.5z"/>
			<path class="st1" d="M140.9,80c-3.4,0-6.7,0.2-9.9,0c-3.7-0.2-6.2-3.1-6.3-7c-0.1-9.1,0-18.2,0-27.4c0-2.8,1.6-4.2,4.3-4.2
				c1.7,0,3.4,0,5.2,0c0,2.8,0,5.4,0,8.3c1.4,0,2.6,0,3.9,0c2,0,2.7,0.8,2.7,2.8c0,1,0,2,0,3.1c-2.2,0-4.3,0-6.5,0
				c-0.1,0.3-0.1,0.5-0.1,0.8c0,5,0,10,0.1,15c0,1.8,1.4,3.2,3.3,3.3c0.4,0,0.8,0,1.3,0c1.1,0.1,1.9,0.9,1.9,1.9
				C140.9,77.6,140.9,78.7,140.9,80z"/>
			<path class="st1" d="M113.6,41.4c0,2.8,0,5.4,0,8.3c1.3,0,2.6,0,3.8,0c2,0,2.8,0.8,2.8,2.9c0,1,0,2,0,3c-2.3,0-4.4,0-6.6,0
				c0,0.4-0.1,0.8-0.1,1.1c0,4.5,0,9.1,0,13.6c0,3,1.2,4.3,4.2,4.3c1.6,0,2.4,0.8,2.4,2.4c0,1,0,2,0,3.1c-3.1,0-6.1,0-9,0
				c-0.6,0-1.2-0.1-1.8-0.2c-3.2-0.7-5.4-3.2-5.4-6.5c0-9.3,0-18.6,0-27.9c0-2.4,1.6-4,4.1-4C109.8,41.3,111.6,41.4,113.6,41.4z"/>
			<path class="st1" d="M24.1,49.6c0,2.2,0.1,4.3,0,6.4c-0.2,1.9-1.7,3.1-3.6,3.1c-2.2,0-4.4,0-6.6,0c-2.7,0-4.2,1.5-4.2,4.2
				c0,4.3,0,8.6,0,12.9c0,1.9-1.4,3.5-3.2,3.7c-2,0.1-4.1,0-6.3,0C0,79.6,0,79.2,0,78.8c0-5,0-10,0-15c0-3.3,1.4-4.7,4.8-4.7
				c2.9,0,4.6-1.2,4.7-3.5c0-0.6,0-1.2,0-1.8c0.1-2.4,1.3-4,3.7-4.1C16.8,49.5,20.4,49.6,24.1,49.6z"/>
			<path class="st1" d="M28.4,80c0-0.5,0-0.9,0-1.3c0-9.3,0-18.6,0-27.8c0-1.1,0.3-1.3,1.4-1.3c2.7,0.1,5.4,0,8.2,0
				c0,0.5,0.1,0.9,0.1,1.3c0,8.2,0,16.5,0,24.7c0,2.9-1.5,4.3-4.4,4.3C32,80,30.3,80,28.4,80z"/>
			<path class="st1" d="M145.3,49.6c3,0,6,0,9,0c0.2,0,0.4,0.3,0.5,0.6s0,0.6,0,0.9c0,8.2,0,16.3,0,24.5c0,3-1.4,4.4-4.4,4.4
				c-1.7,0-3.3,0-5.1,0C145.3,69.8,145.3,59.8,145.3,49.6z"/>
			<path class="st1" d="M28.4,46.1c0-3,0-5.9,0-8.8c0-0.2,0.4-0.7,0.6-0.7c2.9,0,5.9,0,8.8,0c0,2.3,0.2,4.4,0,6.6
				c-0.2,1.7-1.6,2.9-3.3,2.9C32.5,46.1,30.6,46.1,28.4,46.1z"/>
			<path class="st1" d="M145.3,36.6c3.1,0,6.2,0,9.6,0c-0.1,2.3-0.1,4.7-0.4,7c-0.2,1.5-1.6,2.3-3.1,2.4c-2,0.1-4,0-6,0
				C145.3,42.9,145.3,39.8,145.3,36.6z"/>
		</g>
	</g>
</g>
</svg>
