<?xml version="1.0" encoding="utf-8"?>
<!-- Generator: Adobe Illustrator 19.2.1, SVG Export Plug-In . SVG Version: 6.00 Build 0)  -->
<svg version="1.1" id="Layer_1" xmlns="http://www.w3.org/2000/svg" xmlns:xlink="http://www.w3.org/1999/xlink" x="0px" y="0px"
	 viewBox="0 0 512 128" style="enable-background:new 0 0 512 128;" xml:space="preserve">
<style type="text/css">
	.st0{fill:none;}
	.st1{fill:#3E4F4E;}
</style>
<path id="Container" class="st0" d="M0,0h512v128H0V0z"/>
<g>
	<path class="st1" d="M14.9,55.3V79H8.3V55.3H0v-5.7h23.2v5.7H14.9z"/>
	<path class="st1" d="M49.3,59.4c0,4.7-1.9,7.7-5.6,9.1L51.1,79h-8l-6.5-9.4h-4.5V79h-6.6V49.6h11.1c4.6,0,7.8,0.8,9.8,2.3
		C48.3,53.5,49.3,56,49.3,59.4z M41.4,62.9c0.8-0.7,1.2-1.9,1.2-3.5s-0.4-2.7-1.3-3.3c-0.8-0.6-2.3-0.9-4.4-0.9H32v8.7h4.8
		C39.1,64,40.6,63.6,41.4,62.9z"/>
	<path class="st1" d="M74.7,49.7v5.8H60.1v6h13.1v5.6H60.1v6.1h15V79H53.5V49.6h21.2V49.7z"/>
	<path class="st1" d="M99,49.7h6.6v29.4H99L85,60.7v18.4h-6.6V49.7h6.1l14.4,18.9V49.7H99z"/>
	<path class="st1" d="M132.7,53.5c2.8,2.6,4.2,6.1,4.2,10.7s-1.4,8.2-4.1,10.8c-2.7,2.7-6.9,4-12.5,4h-10V49.6h10.4
		C125.8,49.7,129.9,50.9,132.7,53.5z M127.9,71c1.6-1.5,2.4-3.7,2.4-6.6s-0.8-5.1-2.4-6.7s-4.1-2.3-7.4-2.3h-3.7v17.9h4.2
		C123.9,73.2,126.2,72.5,127.9,71z"/>
</g>
<path class="st1" d="M203.5,55.4h-3.7v17.9h4.2c2.9-0.1,5.2-0.8,6.9-2.3c1.6-1.5,2.4-3.7,2.4-6.6c0-2.9-0.8-5.1-2.4-6.7
	C209.3,56.1,206.8,55.4,203.5,55.4z M226.8,36.3h-78c-3,0-6,3.1-6,6v44c0,2.9,3,6,6,6h78c2.9,0,6-3,6-6v-44
	C232.8,39.4,229.8,36.3,226.8,36.3z M188.5,79h-6.6V60.7l-7.8,15.8h-4l-7.9-16V79h-6.6V49.6h8.9l7.6,16.1l7.6-16.1h8.8V79z
	 M215.8,75c-2.7,2.7-6.9,4-12.5,4h-10V49.6h10.4c5.1,0.1,9.2,1.3,12,3.9c2.8,2.6,4.2,6.1,4.2,10.7C219.9,68.8,218.5,72.4,215.8,75z"
	/>
</svg>
