<?xml version="1.0" encoding="utf-8"?>
<!-- Generator: Adobe Illustrator 19.2.1, SVG Export Plug-In . SVG Version: 6.00 Build 0)  -->
<svg version="1.1" id="Layer_1" xmlns="http://www.w3.org/2000/svg" xmlns:xlink="http://www.w3.org/1999/xlink" x="0px" y="0px"
	 viewBox="0 0 512 128" style="enable-background:new 0 0 512 128;" xml:space="preserve">
<style type="text/css">
	.st0{fill:none;}
	.st1{fill:#3E4F4E;}
</style>
<g id="Container">
	<rect class="st0" width="512" height="128"/>
</g>
<g id="Logos">
	<g id="LendUp">
		<g>
			<path class="st1" d="M107.3,42c2.8,0,5.5,0,8.4,0c0,0.3,0,0.6,0,0.9c0,11.9,0,23.8,0,35.7c0,0.7,0.1,1.5,0.2,2.2
				c0.5,2.3,2,3.2,4.6,3.1c2.1-0.1,3.5-1.4,3.8-3.5c0.1-0.7,0.2-1.4,0.2-2.1c0-11.8,0-23.7,0-35.5c0-0.2,0-0.5,0-0.8
				c-1.5,0-2.9,0-4.5,0c2.9-5.1,5.8-10,8.7-15.1c2.9,5,5.8,10,8.7,15.1c-1.6,0-3,0-4.6,0c0,0.4,0,0.8,0,1.1c0,11.8,0,23.6,0,35.4
				c0,2.3-0.3,4.6-1.4,6.6c-1.4,2.8-3.6,4.6-6.5,5.5c-3.4,1-6.8,1-10.1-0.1c-4.5-1.5-6.7-4.8-7.4-9.4c-0.2-1.2-0.2-2.4-0.2-3.7
				c0-11.4,0-22.9,0-34.3C107.3,42.7,107.3,42.3,107.3,42z"/>
			<path class="st1" d="M137.5,54.3c2.4,0,4.7,0,7.1,0c0,1.2,0,2.4,0,3.6c0.1,0,0.1,0.1,0.2,0.1c0.3-0.3,0.6-0.6,0.8-1
				c1.7-2.1,3.9-3.4,6.7-3.4c4-0.1,6.7,1.9,7.7,5.8c0.3,1.1,0.5,2.3,0.5,3.5c0,6.4,0,12.8,0,19.2c0,1.7-0.4,3.4-1.1,4.9
				c-2,4.5-7,4.9-10,3.4c-1.2-0.6-2.3-1.5-3.5-2.3c-0.2-0.2-0.5-0.4-0.8-0.6c0,4.9,0,9.6,0,14.5c-0.7,0-1.3,0-1.9,0
				c-1.6,0-3.2,0-4.8,0c-0.7,0-0.9-0.2-0.9-0.9c0-9.6,0-19.3,0-28.9c0-5.6,0-11.3,0-16.9C137.5,55,137.5,54.7,137.5,54.3z
				 M145.1,72.3c0,3.4,0,6.7,0,10.1c0,0.3,0.1,0.7,0.3,0.9c0.8,0.5,1.7,1.1,2.6,1.4c2.4,0.9,4.2-0.2,4.7-2.7
				c0.2-1.1,0.3-2.3,0.3-3.4c0-4.1,0.1-8.3,0-12.4c0-1.4-0.2-2.8-0.5-4.1c-0.4-1.6-1.6-2.3-3.3-2.2c-1.4,0.1-2.5,0.8-3.6,1.4
				c-0.4,0.3-0.6,0.6-0.6,1.1C145.1,65.7,145.1,69,145.1,72.3z"/>
			<path class="st1" d="M94.1,57.3c0-5.1,0-10.2,0-15.3c2.5,0,4.9,0,7.4,0c0,16.1,0,32.2,0,48.4c-2.3,0-4.6,0-7,0c0-1.2,0-2.4,0-3.5
				c-0.1,0-0.1-0.1-0.2-0.1c-0.3,0.3-0.5,0.6-0.8,0.9c-2,2.5-4.5,3.7-7.7,3.5C82.4,91,80,89,79.1,85.5c-0.4-1.5-0.5-3-0.6-4.6
				c-0.1-5.8-0.1-11.5,0-17.3c0-1.6,0.2-3.2,0.7-4.7c1.5-4.8,6.5-6.8,10.9-4.3C91.6,55.4,92.7,56.3,94.1,57.3z M94.1,72.4
				c0-3.3,0-6.7,0-10c0-0.3-0.1-0.7-0.3-0.8c-1.1-0.6-2.1-1.3-3.2-1.6c-1.9-0.6-3.4,0.4-4,2.3c-0.3,0.9-0.4,1.8-0.4,2.7
				c-0.1,4.6-0.1,9.2,0,13.8c0,1.3,0.2,2.7,0.5,3.9c0.5,1.8,2,2.7,3.9,2.2c1-0.3,2-0.9,2.9-1.3c0.5-0.2,0.7-0.6,0.7-1.2
				C94.1,79,94.1,75.7,94.1,72.4z"/>
			<path class="st1" d="M39.3,78.4c2.5,0,5,0,7.4,0c0.2,6.7-2.8,12.4-10.3,12.7c-1.6,0.1-3.3,0-4.8-0.3c-4-0.8-6.5-3.4-7.5-7.3
				c-0.4-1.7-0.7-3.6-0.7-5.3c-0.1-4.2-0.1-8.4,0.1-12.7c0.1-1.6,0.4-3.3,0.8-4.8c1.3-4,4.1-6.2,8.3-6.9c2.2-0.3,4.5-0.3,6.6,0.3
				c3.7,1,5.9,3.5,6.8,7.2c0.4,1.7,0.6,3.4,0.7,5.2c0.1,2.1,0,4.3,0,6.5c0,0.3,0,0.5,0,0.8c-5.3,0-10.5,0-15.8,0
				c0,1.9-0.1,3.8,0,5.6c0,1,0.2,2.1,0.5,3c0.5,1.7,1.8,2.5,3.6,2.6c1.8,0,3.1-0.8,3.7-2.5c0.3-1,0.4-2.1,0.5-3.2
				C39.4,79.1,39.3,78.8,39.3,78.4z M39.3,67.6c0-1,0-2,0-2.9c0-0.5-0.1-1-0.2-1.4c-0.4-2.1-1.7-3.3-3.5-3.4
				c-2.2-0.1-3.7,0.7-4.2,2.8c-0.4,1.6-0.4,3.3-0.6,5C33.8,67.6,36.5,67.6,39.3,67.6z"/>
			<path class="st1" d="M51.1,90.5c0-12.1,0-24.1,0-36.1c2.3,0,4.6,0,7,0c0,1.2,0,2.3,0,3.6c0.8-0.6,1.4-1.1,2-1.7
				c1.9-1.7,4.2-2.6,6.7-2.7c3.4-0.1,5.8,1.7,6.5,5.1c0.2,0.9,0.3,1.8,0.3,2.8c0,9.4,0,18.7,0,28.1c0,0.8-0.2,0.9-0.9,0.9
				c-2.1,0-4.3,0-6.5,0c0-0.4,0-0.8,0-1.1c0-8.6,0-17.2,0-25.8c0-0.4,0-0.7,0-1.1c0-2.2-1.6-2.8-3.3-2.6c-1.6,0.2-2.8,1.2-4,2.1
				c-0.2,0.1-0.2,0.6-0.2,0.9c0,8.9,0,17.7,0,26.6c0,0.3,0,0.6,0,1C56.1,90.5,53.6,90.5,51.1,90.5z"/>
			<path class="st1" d="M0,42c2.7,0,5.4,0,8.3,0c0,13.7,0,27.5,0,41.3c4.1,0,8.1,0,12.2,0c0,2.4,0,4.8,0,7.2c-6.8,0-13.6,0-20.4,0
				C0,74.3,0,58.2,0,42z"/>
		</g>
	</g>
</g>
</svg>
