<?xml version="1.0" encoding="utf-8"?>
<!-- Generator: Adobe Illustrator 19.2.1, SVG Export Plug-In . SVG Version: 6.00 Build 0)  -->
<svg version="1.1" id="Layer_1" xmlns="http://www.w3.org/2000/svg" xmlns:xlink="http://www.w3.org/1999/xlink" x="0px" y="0px"
	 viewBox="0 0 512 128" style="enable-background:new 0 0 512 128;" xml:space="preserve">
<style type="text/css">
	.st0{fill:none;}
	.st1{fill:#3E4F4E;}
</style>
<path id="Container" class="st0" d="M0,0h512v128H0V0z"/>
<g>
	<g>
		<path class="st1" d="M0,52.7h2l0.2,3.1c1.9-1.6,4.9-3.5,8.9-3.5c5,0,8.7,3.1,8.7,11.8c0,9.3-4.6,13.1-10.1,13.1
			c-3,0-5.6-1.4-7.5-2.6v12.1H0V52.7z M2.3,72.3c1.3,1,3.9,2.9,7.4,2.9c5.5,0,7.7-4.6,7.7-11.3c0-7-2.1-9.7-6.7-9.7
			c-3.3,0-6.7,2.1-8.3,3.9V72.3z"/>
		<path class="st1" d="M24,64.8c0-7.8,4-12.5,11.2-12.5c7.1,0,10.1,4.8,10.1,11.9c0,7.9-3.1,13-10.7,13C26.6,77.2,24,71.8,24,64.8z
			 M42.8,64.5c0-7.5-2.9-10.1-7.9-10.1c-5.1,0-8.7,3.2-8.7,10.2c0,7,2.8,10.5,8.4,10.5C39.7,75.1,42.8,72.1,42.8,64.5z"/>
		<path class="st1" d="M53.4,77.2h-2.3V41.6h2.3V77.2z"/>
		<path class="st1" d="M62.4,47.3c-1.4,0-2.2-0.7-2.2-2c0-1.3,0.8-2,2.2-2c1.4,0,2.2,0.7,2.2,2C64.6,46.5,63.8,47.3,62.4,47.3z
			 M63.5,77.2h-2.3V53.2h2.3V77.2z"/>
		<path class="st1" d="M69.7,65.3c0-8.4,4.1-12.5,11.1-12.5c4.5,0,8.2,2.6,8.5,7.8l-2.5,0.3c-0.4-4.1-2.4-6-6.3-6
			c-4,0-8.4,2.3-8.4,10.2c0,8.5,4.1,10.6,8.1,10.6c3.7,0,6.2-1.7,6.9-5.5l2.4,0.5c-0.9,5.1-5,7.2-9.2,7.2
			C72.5,77.7,69.7,72.5,69.7,65.3z"/>
		<path class="st1" d="M92.8,53.2h2.4l7.5,20.8h0l7.7-20.8h2.4c-3.3,8.7-7.5,19.7-10.9,28.4c-1.8,4.6-4,6-7.1,6
			c-1.7,0-3.2-0.5-4.1-0.9l0.5-1.9c0.7,0.3,2.3,0.8,3.8,0.8c2,0,3.6-0.9,5.1-4.9l1.4-3.6L92.8,53.2z"/>
	</g>
	<g>
		<path class="st1" d="M135.7,56.1c0.9,1.2,1.8,2.7,1.8,4.8c0,5.5-4.3,8.5-9.8,8.5c-1.6,0-3.1-0.1-4-0.4l-2.2,3.6l5.8,0.3
			c8.4,0.4,12.4,0.8,12.4,6.5c0,5-4.3,7.9-12.5,7.9c-8.3,0-11.3-2.2-11.3-5.8c0-2.3,1.3-3.6,2.9-5.1c-1.6-0.7-2.2-1.8-2.2-2.9
			c0-1,0.4-1.8,1.2-2.7c0.8-0.8,1.7-2,2.6-2.9c-2.2-1.2-3.7-3.6-3.7-6.9c0-5.2,3.7-9,10.4-9c1.7,0,3.4,0.2,4.4,0.5h8.6v3.4
			L135.7,56.1z M122.5,77.4c-0.8,0.9-1.8,2.1-1.8,3.3c0,2.2,2.5,2.9,6.6,2.9c2.4,0,7-0.4,7-3.4c0-2.1-1.8-2.2-4.5-2.4L122.5,77.4z
			 M127.4,55.7c-3.2,0-5.5,1.6-5.5,5.1c0,2.7,1.5,4.7,5.3,4.7c3.2,0,5.4-1.9,5.4-4.8C132.7,57.5,130.7,55.7,127.4,55.7z"/>
		<path class="st1" d="M162.8,75.1c-2.6,1.3-5.6,2.2-9,2.2c-8.8,0-11.6-5.6-11.6-12.9c0-8.5,4.9-12.5,11.1-12.5
			c5.9,0,10,3.2,10,11.3c0,0.6,0,1.8-0.1,2.7h-15.2c0.2,4.4,1.9,7,6.5,7c2.3,0,4.1-0.5,6.9-1.6L162.8,75.1z M157.8,62.1
			c0-4.6-2.1-6.1-4.7-6.1c-2.7,0-5,1.8-5.2,6.1H157.8z"/>
		<path class="st1" d="M181.8,76.7v-3l2.4-0.3c0.7-0.1,0.8-0.4,0.8-0.9V61.6c0-2.8-0.3-5.2-3.3-5.2c-2.4,0-4.9,1.3-6.5,2.4v13.6
			c0,0.8,0,0.8,0.8,0.9l2.5,0.3v3h-11.7v-3.1l2.3-0.3c0.7-0.1,0.8-0.2,0.8-0.9V57.3c0-0.5-0.1-0.8-0.6-1l-2.6-0.9l0.5-3h7l0.4,2.6
			l0.2,0.1c2.6-1.8,5.4-3.1,8.8-3.1c5.1,0,7,3.2,7,8.6v11.9c0,0.8,0,0.8,0.7,0.9l2.6,0.3v3H181.8z"/>
		<path class="st1" d="M196.6,76.7v-3l2.8-0.4c0.7-0.1,0.8-0.2,0.8-0.9V57.3c0-0.5-0.1-0.8-0.6-1l-2.6-0.9l0.5-3h8.1v20.1
			c0,0.8,0,0.8,0.8,0.9l2.8,0.3v3H196.6z M202.3,47.8c-2.3,0-3.5-1.3-3.5-3.5c0-2.2,1.3-3.4,3.5-3.4c2.2,0,3.5,1.2,3.5,3.4
			C205.9,46.5,204.5,47.8,202.3,47.8z"/>
		<path class="st1" d="M230.2,76.7l-0.4-2.9l-0.1,0c-2.1,1.6-4.7,3.5-8.8,3.5c-5.1,0-6.8-2.6-6.8-8V57.1c0-0.8,0-0.9-0.8-1l-2.4-0.6
			l0.4-3.1h8.1v15.7c0,3.2,0.5,4.8,3.2,4.8c2.7,0,5.1-1.8,6.5-3.3V57.1c0-0.8,0-0.9-0.8-1l-2.3-0.6l0.4-3.1h8v20.1
			c0,0.6,0.1,0.8,0.6,0.9l2.4,0.3v3H230.2z"/>
		<path class="st1" d="M255.4,59.4l-0.5-2.7c0-0.3-0.1-0.5-0.5-0.7c-0.6-0.2-1.9-0.5-3.4-0.5c-3,0-4.5,1.1-4.5,3
			c0,2.5,2.6,3.1,5.6,3.8c3.7,0.9,7.9,2,7.9,7.4c0,5.6-4.6,7.6-10,7.6c-4,0-8-1.1-8.8-1.6v-6.4l3.9,0.2l0.5,2.9
			c0.1,0.4,0.1,0.5,0.6,0.7c0.6,0.2,2.1,0.7,4.2,0.7c2.9,0,4.7-0.8,4.7-3.3c0-2.6-3-3.1-6.2-3.8c-3.6-0.8-7.3-1.9-7.3-6.9
			c0-5.7,4.8-7.8,9.8-7.8c3.5,0,6.8,0.9,7.9,1.4v6.4L255.4,59.4z"/>
	</g>
</g>
</svg>
