<?xml version="1.0" encoding="utf-8"?>
<!-- Generator: Adobe Illustrator 19.2.1, SVG Export Plug-In . SVG Version: 6.00 Build 0)  -->
<svg version="1.1" id="Layer_1" xmlns="http://www.w3.org/2000/svg" xmlns:xlink="http://www.w3.org/1999/xlink" x="0px" y="0px"
	 viewBox="0 0 512 128" style="enable-background:new 0 0 512 128;" xml:space="preserve">
<style type="text/css">
	.st0{fill:none;}
	.st1{fill:#3E4F4E;}
	.st2{fill:#A9B1B0;}
</style>
<path id="Container" class="st0" d="M0,0h512v128H0V0z"/>
<g>
	<g>
		<path class="st1" d="M119,57.4c-0.6-1-1.5-1.8-2.7-2.5c-1.1-0.7-2.4-1-3.9-1c-1.5,0-2.9,0.2-4.1,0.7c-1.2,0.5-2.3,1.3-3.1,2.2
			c-0.9,0.9-1.5,2-2,3.3c-0.4,1.3-0.7,2.7-0.7,4.2c0,1.5,0.2,2.9,0.7,4.2c0.4,1.3,1.1,2.4,2,3.3c0.9,0.9,1.9,1.7,3.1,2.2
			c1.2,0.5,2.6,0.8,4.1,0.7c1.5,0,2.8-0.3,3.9-1c1.1-0.7,2-1.5,2.7-2.5l3,2.3c-1.3,1.5-2.8,2.7-4.4,3.4c-1.6,0.7-3.4,1.1-5.2,1.2
			c-2.1,0-4.1-0.3-5.8-1c-1.7-0.7-3.2-1.7-4.4-2.9c-1.2-1.2-2.1-2.7-2.8-4.4c-0.6-1.7-1-3.5-1-5.5c0-2,0.3-3.8,1-5.5
			c0.6-1.7,1.6-3.2,2.8-4.4c1.2-1.2,2.7-2.2,4.4-2.9c1.7-0.7,3.6-1,5.8-1c1.8,0,3.5,0.4,5.2,1.2c1.6,0.7,3.1,1.9,4.4,3.4L119,57.4z"
			/>
		<path class="st1" d="M144.4,61.4v-0.7c0-4.5-2.2-6.8-6.7-6.8c-3.1,0-5.7,1-8,3.1l-2.2-2.6c2.5-2.5,6.2-3.8,11.1-3.8
			c1.3,0,2.5,0.2,3.7,0.6c1.2,0.4,2.2,0.9,3.1,1.7c0.9,0.8,1.6,1.7,2.1,2.9c0.5,1.2,0.8,2.5,0.8,4.2v11.7c0,1,0,2.1,0.1,3.2
			c0.1,1.1,0.2,2,0.3,2.7H145c-0.1-0.6-0.2-1.3-0.3-2.1c-0.1-0.7-0.1-1.5-0.1-2.2h-0.1c-1.1,1.8-2.4,3-3.8,3.8
			c-1.5,0.8-3.3,1.2-5.4,1.2c-1.2,0-2.3-0.2-3.4-0.5c-1.1-0.3-2-0.8-2.9-1.5c-0.8-0.7-1.5-1.5-2-2.4c-0.5-1-0.8-2.1-0.8-3.3
			c0-2.1,0.6-3.8,1.7-5c1.1-1.2,2.5-2.1,4.2-2.7c1.7-0.6,3.4-1,5.3-1.1c1.9-0.1,3.6-0.2,5.2-0.2H144.4z M142.5,64.5
			c-0.9,0-2.1,0-3.5,0.1c-1.4,0.1-2.8,0.3-4,0.7c-1.3,0.4-2.4,0.9-3.3,1.7c-0.9,0.7-1.4,1.8-1.4,3.1c0,0.9,0.2,1.6,0.5,2.2
			c0.4,0.6,0.8,1.1,1.4,1.5c0.6,0.4,1.3,0.7,2,0.8c0.7,0.2,1.5,0.3,2.2,0.3c1.3,0,2.5-0.2,3.5-0.7c1-0.4,1.8-1.1,2.5-1.8
			c0.7-0.8,1.2-1.7,1.5-2.7c0.3-1,0.5-2.1,0.5-3.3v-1.9H142.5z"/>
		<path class="st1" d="M169.5,57.5c-0.6-1.1-1.3-1.9-2.2-2.6c-0.9-0.6-2.1-1-3.4-1c-0.6,0-1.3,0.1-1.9,0.2c-0.7,0.1-1.2,0.4-1.8,0.7
			c-0.5,0.3-0.9,0.7-1.3,1.2c-0.3,0.5-0.5,1.1-0.5,1.8c0,1.2,0.4,2.1,1.3,2.7c0.9,0.6,2.2,1,3.9,1.5l3.8,0.9
			c1.8,0.4,3.4,1.2,4.6,2.5c1.2,1.3,1.8,2.8,1.8,4.7c0,1.4-0.3,2.6-0.9,3.7c-0.6,1-1.3,1.9-2.3,2.5c-1,0.7-2,1.1-3.3,1.4
			c-1.2,0.3-2.5,0.4-3.8,0.4c-2,0-3.9-0.4-5.6-1.2c-1.7-0.8-3.2-2.1-4.5-4l3.2-2.2c0.7,1.2,1.7,2.2,2.8,2.9c1.1,0.7,2.5,1.1,4.1,1.1
			c0.7,0,1.5-0.1,2.2-0.3c0.7-0.2,1.4-0.4,2-0.8c0.6-0.4,1-0.8,1.4-1.4c0.4-0.6,0.5-1.2,0.5-2c0-1.3-0.5-2.3-1.5-2.8
			c-1-0.6-2.2-1-3.5-1.4l-3.6-0.8c-0.4-0.1-1.1-0.3-1.8-0.6c-0.8-0.3-1.5-0.7-2.2-1.2c-0.7-0.5-1.4-1.2-1.9-2
			c-0.5-0.8-0.8-1.9-0.8-3.1c0-1.3,0.3-2.5,0.8-3.5c0.5-1,1.3-1.8,2.2-2.5c0.9-0.6,2-1.1,3.1-1.4c1.2-0.3,2.4-0.5,3.6-0.5
			c1.8,0,3.5,0.4,5.1,1.1c1.6,0.7,2.8,1.9,3.7,3.6L169.5,57.5z"/>
		<path class="st1" d="M182.1,65.4c0.1,1.3,0.4,2.5,1,3.7c0.5,1.2,1.2,2.2,2.1,3c0.9,0.8,1.9,1.5,3,2c1.1,0.5,2.3,0.7,3.6,0.7
			c2,0,3.7-0.5,5.1-1.4c1.4-0.9,2.5-2,3.3-3.2l2.9,2.4c-1.6,2-3.3,3.4-5.2,4.3c-1.9,0.9-3.9,1.3-6.1,1.3c-1.9,0-3.8-0.3-5.4-1
			c-1.7-0.7-3.1-1.7-4.3-2.9c-1.2-1.2-2.1-2.7-2.8-4.4c-0.7-1.7-1-3.5-1-5.5c0-2,0.3-3.8,1-5.5c0.7-1.7,1.6-3.1,2.8-4.4
			c1.2-1.2,2.6-2.2,4.2-2.9c1.6-0.7,3.4-1,5.2-1c2,0,3.8,0.4,5.3,1.1c1.6,0.7,2.9,1.7,4,2.8c1.1,1.2,1.9,2.6,2.4,4.2
			c0.6,1.6,0.8,3.3,0.8,5.1v1.7H182.1z M199.9,62.4c0-2.5-0.7-4.5-2.2-6.1c-1.5-1.6-3.6-2.3-6.3-2.3c-1.2,0-2.4,0.2-3.5,0.7
			c-1.1,0.5-2.1,1.1-2.9,1.9c-0.8,0.8-1.5,1.7-2,2.7c-0.5,1-0.8,2.1-0.8,3.1H199.9z"/>
		<path class="st1" d="M223.8,54.6h-7.6v15.5c0,1,0.1,1.8,0.3,2.4c0.2,0.6,0.4,1.1,0.8,1.4c0.3,0.3,0.7,0.6,1.2,0.7
			c0.5,0.1,1,0.2,1.5,0.2c0.6,0,1.3-0.1,2-0.3c0.7-0.2,1.3-0.4,1.9-0.7l0.2,3.4c-1.4,0.6-3.1,1-5,1c-0.7,0-1.5-0.1-2.2-0.3
			c-0.8-0.2-1.5-0.5-2.1-1.1c-0.6-0.5-1.2-1.2-1.6-2.1c-0.4-0.9-0.6-2.1-0.6-3.5V54.6H207v-3.4h5.6v-7.4h3.7v7.4h7.6V54.6z"/>
		<path class="st1" d="M230.8,65.4c0.1,1.3,0.4,2.5,1,3.7c0.5,1.2,1.2,2.2,2.1,3c0.9,0.8,1.9,1.5,3,2c1.1,0.5,2.3,0.7,3.6,0.7
			c2,0,3.7-0.5,5.1-1.4c1.4-0.9,2.5-2,3.3-3.2l2.9,2.4c-1.6,2-3.3,3.4-5.2,4.3c-1.9,0.9-3.9,1.3-6.1,1.3c-1.9,0-3.8-0.3-5.4-1
			c-1.7-0.7-3.1-1.7-4.3-2.9c-1.2-1.2-2.1-2.7-2.8-4.4c-0.7-1.7-1-3.5-1-5.5c0-2,0.3-3.8,1-5.5c0.7-1.7,1.6-3.1,2.8-4.4
			c1.2-1.2,2.6-2.2,4.2-2.9c1.6-0.7,3.4-1,5.2-1c2,0,3.8,0.4,5.3,1.1c1.6,0.7,2.9,1.7,4,2.8c1.1,1.2,1.9,2.6,2.4,4.2
			c0.6,1.6,0.8,3.3,0.8,5.1v1.7H230.8z M248.7,62.4c0-2.5-0.7-4.5-2.2-6.1c-1.5-1.6-3.6-2.3-6.3-2.3c-1.2,0-2.4,0.2-3.5,0.7
			c-1.1,0.5-2.1,1.1-2.9,1.9c-0.8,0.8-1.5,1.7-2,2.7c-0.5,1-0.8,2.1-0.8,3.1H248.7z"/>
		<path class="st1" d="M264.8,63.5l-9.5-12.2h5.1l7.3,9.8l7-9.8h4.6L270,63.5l11,14H276L267.2,66l-8.5,11.5H254L264.8,63.5z"/>
		<path class="st1" d="M299.8,54.6h-7.6v15.5c0,1,0.1,1.8,0.3,2.4c0.2,0.6,0.4,1.1,0.8,1.4c0.3,0.3,0.7,0.6,1.2,0.7
			c0.5,0.1,1,0.2,1.5,0.2c0.6,0,1.3-0.1,2-0.3c0.7-0.2,1.3-0.4,1.9-0.7l0.2,3.4c-1.4,0.6-3.1,1-5,1c-0.7,0-1.5-0.1-2.2-0.3
			c-0.8-0.2-1.5-0.5-2.1-1.1c-0.6-0.5-1.2-1.2-1.6-2.1c-0.4-0.9-0.6-2.1-0.6-3.5V54.6h-5.6v-3.4h5.6v-7.4h3.7v7.4h7.6V54.6z"/>
	</g>
	<g>
		<polygon class="st2" points="39.9,93.4 1.1,71.1 40.5,48.2 79.3,70.5 		"/>
		<g>
			<polygon class="st2" points="39.9,84.2 1.1,61.9 40.5,39 79.3,61.3 			"/>
		</g>
		<polygon class="st2" points="39.9,74.9 1.1,52.6 40.2,29.7 79.3,52.1 		"/>
		<path class="st1" d="M39.1,74.5l-38-21.9c0,0-2.5,2.8,0,5.6l38,21.9c0,0,0.7,0.4,1.4,0s38.8-22.4,38.8-22.4l0-5.6L40.6,74.4
			C40.6,74.4,39.9,74.9,39.1,74.5z"/>
		<path class="st1" d="M39.1,83.7l-38-21.9c0,0-2.5,2.8,0,5.6l38,21.9c0,0,0.7,0.4,1.4,0c0.7-0.4,38.8-22.4,38.8-22.4l0-5.6
			L40.6,83.7C40.6,83.7,39.9,84.1,39.1,83.7z"/>
		<path class="st1" d="M39.1,93l-38-21.9c0,0-2.5,2.8,0,5.6l38,21.9c0,0,0.7,0.4,1.4,0c0.7-0.4,38.8-22.4,38.8-22.4l0-5.6L40.6,92.9
			C40.6,92.9,39.9,93.4,39.1,93z"/>
		<g>
			<g>
				<polygon class="st1" points="19.7,57.8 18,56.9 48.6,39 50.4,40.1 				"/>
			</g>
			<g>
				<polygon class="st1" points="12.7,54.2 11,53.3 41.6,35.4 43.5,36.5 				"/>
			</g>
			<g>
				<polygon class="st1" points="25.7,61.5 24,60.5 54.6,42.7 56.5,43.7 				"/>
			</g>
			<g>
				<polygon class="st1" points="31.9,65.2 30.2,64.3 60.8,46.4 62.7,47.5 				"/>
			</g>
			<g>
				<polygon class="st1" points="38.3,69 36.5,68 62.3,53 64.2,54.1 				"/>
			</g>
		</g>
	</g>
</g>
</svg>
