<?xml version="1.0" encoding="utf-8"?>
<!-- Generator: Adobe Illustrator 19.2.1, SVG Export Plug-In . SVG Version: 6.00 Build 0)  -->
<svg version="1.1" id="Layer_1" xmlns="http://www.w3.org/2000/svg" xmlns:xlink="http://www.w3.org/1999/xlink" x="0px" y="0px"
	 viewBox="0 0 512 128" style="enable-background:new 0 0 512 128;" xml:space="preserve">
<style type="text/css">
	.st0{fill:none;}
	.st1{fill:#3E4F4E;}
</style>
<path id="Container" class="st0" d="M0,0h512v128H0V0z"/>
<g>
	<g>
		<path class="st1" d="M32.8,47.1H2.5c-1.7,0-2.5,0.8-2.5,2.5v30.4c0,1.7,0.8,2.5,2.5,2.5h30.3c1.7,0,2.6-0.8,2.6-2.5V49.6
			C35.4,47.9,34.5,47.1,32.8,47.1z M17.7,78.9c-7.8,0-14.2-6.3-14.2-14.2c0-7.8,6.3-14.2,14.2-14.2c7.8,0,14.2,6.3,14.2,14.2
			C31.9,72.6,25.5,78.9,17.7,78.9z"/>
		<path class="st1" d="M25.6,64.6c1-0.6,1.9-1.5,1.9-3.1v0c0-1-0.3-1.8-1-2.4c-0.8-0.8-2.1-1.5-3.7-1.5h-3.5h-3.1h-3.4
			c-1.8,0-3.3,0.2-4.2,1.1c-0.8,0.8-1.1,1.7-1.1,3.4c0,1.6,1.2,3.1,3,3.8l-3.5,5.9h3.6l3-5.3h1.6c0.2,0.3,0.5,0.6,0.9,0.8v4.5h0.1
			h3.1H23c3.2,0,5.3-1.3,5.3-3.9v0C28.3,65.9,27.3,65.2,25.6,64.6z M16.2,62.4c-0.5,0.3-0.8,0.7-1.1,1.2h-2.1
			c-1.5,0-2.4-0.4-2.4-1.6c0-1.2,0.9-1.6,2.4-1.6h3.1V62.4z M17.7,65.5c-0.4,0-0.7-0.3-0.7-0.7c0-0.4,0.3-0.7,0.7-0.7
			c0.4,0,0.7,0.3,0.7,0.7C18.4,65.2,18.1,65.5,17.7,65.5z M19.3,60.3h3c1.3,0,2,0.7,2,1.6s-0.9,1.7-2.2,1.7h-1.9
			c-0.2-0.4-0.5-0.8-0.9-1.1V60.3z M25.2,67.4c0,1.1-0.8,1.5-2.2,1.5h-3.7v-1.9c0.4-0.3,0.8-0.7,1-1.2h2.6
			C24.5,65.8,25.2,66.4,25.2,67.4L25.2,67.4z"/>
	</g>
	<path class="st1" d="M46.4,50.9h12.9c3.6,0,6.4,1,8.2,2.9c1.6,1.6,2.4,3.8,2.4,6.4v0.1c0,4.5-2.5,7.4-6,8.7l6.9,10.1h-7.2l-6-9
		h-4.9v9h-6.2V50.9z M58.9,64.6c3,0,4.7-1.6,4.7-4v-0.1c0-2.7-1.9-4-4.9-4h-6.2v8.1H58.9z"/>
	<path class="st1" d="M76,65.1L76,65.1c0-8.1,6.3-14.7,15-14.7c8.7,0,14.9,6.5,14.9,14.5V65c0,8-6.3,14.6-15,14.6S76,73.1,76,65.1z
		 M99.5,65.1L99.5,65.1c0-4.9-3.5-8.9-8.5-8.9c-5,0-8.5,3.9-8.5,8.8V65c0,4.8,3.5,8.9,8.5,8.9C96,73.9,99.5,69.9,99.5,65.1z"/>
	<path class="st1" d="M112,65.1L112,65.1c0-8.1,6-14.7,14.7-14.7c5.3,0,8.5,1.8,11.1,4.3l-3.9,4.5c-2.2-2-4.4-3.2-7.2-3.2
		c-4.8,0-8.2,3.9-8.2,8.8V65c0,4.8,3.3,8.9,8.2,8.9c3.2,0,5.2-1.3,7.4-3.3l3.9,4c-2.9,3.1-6.1,5-11.6,5
		C118.1,79.6,112,73.2,112,65.1z"/>
	<path class="st1" d="M145.1,50.9h6.2v12.3l11.4-12.3h7.5l-11.5,12l12,16.2h-7.4l-8.7-12l-3.3,3.4v8.6h-6.2V50.9z"/>
	<path class="st1" d="M177.3,50.9h13.1c3.2,0,5.8,0.9,7.4,2.5c1.3,1.3,1.9,2.9,1.9,4.8v0.1c0,3.2-1.7,5-3.7,6.1
		c3.3,1.2,5.3,3.1,5.3,6.9v0.1c0,5.2-4.2,7.7-10.5,7.7h-13.4V50.9z M193.6,59.3c0-1.9-1.4-2.9-4.1-2.9h-6.1v6h5.7
		C191.8,62.3,193.6,61.4,193.6,59.3L193.6,59.3z M190.5,67.5h-7.2v6.2h7.4c2.7,0,4.4-1,4.4-3.1v-0.1
		C195.1,68.6,193.7,67.5,190.5,67.5z"/>
	<path class="st1" d="M206.5,65.1L206.5,65.1c0-8.1,6.3-14.7,15-14.7c8.7,0,14.9,6.5,14.9,14.5V65c0,8-6.3,14.6-15,14.6
		C212.8,79.6,206.5,73.1,206.5,65.1z M230,65.1L230,65.1c0-4.9-3.5-8.9-8.5-8.9c-5,0-8.5,3.9-8.5,8.8V65c0,4.8,3.5,8.9,8.5,8.9
		C226.5,73.9,230,69.9,230,65.1z"/>
	<path class="st1" d="M250.2,56.6h-8.6v-5.7H265v5.7h-8.6v22.5h-6.2V56.6z"/>
</g>
</svg>
