<?xml version="1.0" encoding="utf-8"?>
<!-- Generator: Adobe Illustrator 19.2.1, SVG Export Plug-In . SVG Version: 6.00 Build 0)  -->
<svg version="1.1" id="Layer_1" xmlns="http://www.w3.org/2000/svg" xmlns:xlink="http://www.w3.org/1999/xlink" x="0px" y="0px"
	 viewBox="0 0 512 128" style="enable-background:new 0 0 512 128;" xml:space="preserve">
<style type="text/css">
	.st0{fill:none;}
	.st1{fill:#3E4F4E;}
	.st2{fill:#A9B1B0;}
</style>
<path id="Container" class="st0" d="M0,0h512v128H0V0z"/>
<g>
	<g id="_x34_OFJNM.tif">
		<g>
			<path class="st1" d="M22.4,43.3c0.7,0.1,1.3,0.1,2,0.3c8.8,1.6,14.7,6.6,17.3,15.1c3.5,11.5-3.5,23.5-15.1,26.4
				c-1.2,0.3-2.4,0.4-3.7,0.6c-0.1,0-0.3,0.1-0.4,0.1c-0.8,0-1.5,0-2.3,0c-0.1,0-0.3-0.1-0.4-0.1c-1.4-0.2-2.9-0.3-4.2-0.8
				C7,82.3,1.9,76.5,0.3,67.7c-0.1-0.6-0.2-1.3-0.3-2c0-0.8,0-1.5,0-2.3c0-0.1,0.1-0.3,0.1-0.4c0.2-1.4,0.3-2.9,0.8-4.3
				c2.7-8.5,8.5-13.6,17.3-15.2c0.6-0.1,1.3-0.2,2-0.3C20.9,43.3,21.6,43.3,22.4,43.3z"/>
			<path class="st1" d="M83.9,84.1c-3,0-5.9,0-8.8,0c0-0.2,0-0.4,0-0.6c0-9.6,0-19.2,0-28.7c0-0.2,0-0.4,0-0.5
				c-0.1-0.2-0.3-0.3-0.4-0.4c-0.1-0.1-0.3,0-0.4,0c-4.7,0-9.3,0-14,0c-0.8,0-0.9,0.1-0.9,0.9c0,9.5,0,19.1,0,28.6
				c0,0.2,0,0.4,0,0.7c-2.9,0-5.8,0-8.8,0c0-13,0-26,0-39c0.2,0,0.3,0,0.5,0c15.9,0,31.7,0,47.6,0c4.7,0,8.5,3.1,9.4,7.6
				c0.1,0.6,0.2,1.3,0.2,1.9c0,9.7,0,19.3,0,29c0,0.1,0,0.3,0,0.5c-2.9,0-5.8,0-8.7,0c0-0.2,0-0.4,0-0.6c0-9.5,0-19.1,0-28.6
				c0-0.2,0-0.3,0-0.5c0-0.3-0.2-0.5-0.5-0.5c-0.1,0-0.3,0-0.4,0c-4.7,0-9.3,0-14,0c-0.7,0-0.8,0-0.8,0.8c0,9.6,0,19.2,0,28.8
				C83.9,83.6,83.9,83.8,83.9,84.1z"/>
			<path class="st1" d="M117.6,45.1c3,0,5.9,0,8.8,0c0,0.2,0,0.4,0,0.6c0,9.6,0,19.2,0,28.7c0,0.8,0.1,0.9,0.9,0.9
				c6.7,0,13.5,0,20.2,0c0.8,0,0.9-0.1,0.9-0.9c0-9.6,0-19.1,0-28.7c0-0.2,0-0.4,0-0.6c2.9,0,5.8,0,8.8,0c0,0.2,0,0.3,0,0.5
				c0,9.7,0,19.3,0,29c0,4.3-2.3,7.6-6.4,9c-1,0.3-2,0.5-3,0.5c-6.9,0-13.9,0-20.8,0c-4.1,0-7.6-2.5-8.9-6.3c-0.4-1-0.5-2.1-0.5-3.2
				c0-9.7,0-19.3,0-29C117.6,45.4,117.6,45.3,117.6,45.1z"/>
			<path class="st1" d="M184.1,57.4c2.4-2.8,4.9-5.6,7.2-8.4c1-1.2,2.1-2.5,3.1-3.7c0.1-0.1,0.4-0.3,0.5-0.3c3,0,6,0,9,0
				c0.1,0,0.1,0,0.3,0c0,0.7,0,1.4,0,2.2c0,0.1-0.2,0.2-0.2,0.4c-4.6,5.4-9.1,10.7-13.7,16.1c-0.2,0.2-0.3,0.4-0.5,0.6
				c0.1,0.2,0.3,0.4,0.4,0.5c4.6,5.6,9.2,11.2,13.8,16.8c0.2,0.2,0.2,0.5,0.3,0.7c0,0.6,0,1.1,0,1.8c-0.2,0-0.3,0-0.5,0
				c-2.9,0-5.8,0-8.8,0c-0.3,0-0.5-0.1-0.6-0.3c-3.3-4-6.6-8-9.9-12.1c-0.1-0.2-0.3-0.3-0.5-0.6c-0.1,0.1-0.2,0.2-0.3,0.4
				c-3.3,4.1-6.6,8.2-10,12.3c-0.1,0.1-0.3,0.3-0.5,0.3c-3,0-6.1,0-9.1,0c-0.1,0-0.1,0-0.3,0c0-0.7,0-1.4,0-2c0-0.1,0.1-0.3,0.2-0.4
				c4.6-5.7,9.2-11.3,13.8-16.9c0.1-0.1,0.2-0.3,0.3-0.4c-0.9-1-1.8-2.1-2.6-3.1c-3.8-4.5-7.7-9-11.5-13.6c-0.2-0.2-0.2-0.5-0.3-0.7
				c0-0.6,0-1.2,0-1.8c0.2,0,0.3,0,0.5,0c2.9,0,5.8,0,8.7,0c0.3,0,0.5,0.1,0.7,0.3c3.2,3.8,6.5,7.7,9.8,11.5
				C183.8,57.1,183.9,57.2,184.1,57.4z"/>
		</g>
	</g>
	<g id="rU5I8x_1_">
		<g>
			<path class="st2" d="M18.1,70.3c0.1-1.9,0.2-3.7,0.4-5.6c0.2-2.1,0.3-4.3,0.5-6.4c0.1-1.3,0.2-2.6,0.3-3.9c0-0.4,0.1-0.7,0.6-0.7
				c0.4,0,0.5,0.3,0.6,0.7c0.2,2,0.3,4,0.5,6c0.2,2.9,0.5,5.8,0.8,8.7c0.1-0.9,0.2-1.8,0.3-2.7c0.3-2.8,0.6-5.5,0.8-8.3
				c0-0.1,0-0.2,0.1-0.3c0.1-0.3,0.2-0.5,0.6-0.5c0.3,0,0.5,0.2,0.5,0.5c0.1,0.8,0.2,1.7,0.3,2.5c0.2,1.5,0.4,3,0.6,4.5
				c0.1,0.9,0.2,1.9,0.4,2.9c0-0.1,0.1-0.2,0.1-0.2c0.3-2,0.7-3.9,1-5.9c0-0.1,0-0.2,0.1-0.3c0.2-0.2,0.3-0.4,0.5-0.4
				c0.2,0,0.5,0.2,0.6,0.4c0.1,0.2,0.2,0.5,0.2,0.8c0.3,1.2,0.6,2.4,0.9,3.6c0,0.1,0.1,0.2,0.1,0.4c0.1-0.4,0.2-0.7,0.2-1
				c0.2-0.6,0.6-1,1.2-1c1.2,0,2.4,0.1,3.6,0.1c0.5,0,0.5,0.3,0.5,0.6c0,0.4-0.3,0.3-0.5,0.3c-1.1,0-2.1,0.1-3.2,0
				c-0.5,0-0.6,0.2-0.7,0.6c-0.1,0.6-0.3,1.3-0.5,1.9c0,0.1,0,0.3-0.1,0.3c-0.2,0.2-0.4,0.4-0.6,0.4c-0.2,0-0.5-0.2-0.6-0.4
				c-0.2-0.3-0.2-0.7-0.3-1.1c-0.3-1-0.5-2-0.8-3.1c-0.2,0.9-0.3,1.8-0.5,2.6c-0.3,1.6-0.5,3.3-0.8,4.9c-0.1,0.3-0.2,0.7-0.6,0.7
				c-0.4,0-0.5-0.4-0.6-0.7c0,0,0,0,0,0c-0.2-1.2-0.3-2.5-0.5-3.7c-0.2-1.5-0.4-3-0.6-4.5c0-0.1,0-0.2-0.1-0.3
				c-0.1,0.7-0.1,1.3-0.2,2c-0.3,2.8-0.6,5.6-0.9,8.5c-0.1,0.6-0.1,1.2-0.2,1.8c0,0.4-0.2,0.6-0.6,0.6c-0.4,0-0.5-0.3-0.5-0.6
				c-0.1-1.2-0.2-2.5-0.3-3.7c-0.2-2.3-0.4-4.5-0.6-6.8c-0.1-1-0.2-2.1-0.3-3.1c-0.1,0.8-0.1,1.6-0.2,2.4c-0.2,3.2-0.5,6.4-0.7,9.6
				c-0.1,1.7-0.2,3.4-0.4,5.1c0,0.2-0.2,0.5-0.4,0.6c-0.3,0.2-0.6-0.1-0.7-0.6c-0.1-1.3-0.2-2.6-0.3-3.9c-0.2-3-0.4-6-0.6-9.1
				c-0.1-1.9-0.2-3.8-0.4-5.7c0,0.7-0.1,1.4-0.1,2.1c0,0.8-0.1,1.5-0.1,2.3c0,0.6-0.4,1-1,1c-1.4,0-2.8,0-4.3,0
				c-0.4,0-0.4-0.2-0.3-0.9c1.5,0,2.9,0,4.4,0c0.1-1.1,0.1-2.1,0.2-3.1c0.2-3.4,0.4-6.8,0.6-10.3c0-0.4,0.1-0.7,0.5-0.7
				c0.4,0,0.5,0.3,0.6,0.7c0.2,3.2,0.4,6.5,0.6,9.7C17.6,63.8,17.8,67.1,18.1,70.3C18,70.3,18.1,70.3,18.1,70.3z"/>
		</g>
	</g>
</g>
</svg>
