<?xml version="1.0" encoding="utf-8"?>
<!-- Generator: Adobe Illustrator 19.2.1, SVG Export Plug-In . SVG Version: 6.00 Build 0)  -->
<svg version="1.1" id="Layer_1" xmlns="http://www.w3.org/2000/svg" xmlns:xlink="http://www.w3.org/1999/xlink" x="0px" y="0px"
	 viewBox="0 0 512 128" style="enable-background:new 0 0 512 128;" xml:space="preserve">
<style type="text/css">
	.st0{fill:none;}
	.st1{fill:#3E4F4E;}
</style>
<g id="Container">
	<rect class="st0" width="512" height="128"/>
</g>
<g id="Logos">
	<g id="Vurb">
		<g>
			<path class="st1" d="M0,46c2.4-0.6,4.9-1.1,7.4-1.7c0.9,4.4,1.9,8.6,2.7,12.8c1.4,6.5,2.7,12.9,4.1,19.4c0.2,0.9,0.6,1.9,1,2.7
				c0.7,1.3,2,1.4,2.7,0c0.7-1.5,1.2-3.1,1.5-4.6c1.4-6.5,2.7-13.1,4.1-19.6c1.2-5.5,4.2-9.5,10.2-10.5c3.3-0.5,6.5,0.3,9.8,1.2
				c-0.9,2.5-1.7,4.9-2.5,7.3c-1.5-0.2-2.9-0.4-4.3-0.6c-3.3-0.3-4.9,0.9-5.6,4.1c-1.2,5.5-2.3,11-3.5,16.5c-0.5,2.5-1.1,5-1.8,7.4
				c-1,3.5-3.3,6-6.9,7.1c-1.5,0-3.1,0-4.6,0c-4.6-1.5-6.5-5.1-7.5-9.4c-1.6-7.3-3.1-14.7-4.7-22c-0.6-3-1.4-6-2-8.9
				C0,46.8,0,46.4,0,46z"/>
			<path class="st1" d="M101.3,87.5c-1.3-0.3-2.5-0.5-3.8-0.9c-1.2-0.3-2.3-0.8-3.4-1.1c-2.8-0.9-4-2.7-3.9-5.9
				c0.2-12.9,0.1-25.7,0.1-38.6c2.4,0,4.8,0,7.3,0c0,0.6,0.1,1.2,0.1,1.7c0,11.5,0,23,0,34.5c0,1.2,0.4,1.7,1.5,2
				c2.5,0.7,5,0.9,7.6,0.3c2.9-0.7,5.1-2.3,6-5.3c0.9-3.1,0.1-5.9-2.4-8c-1.6-1.3-3.5-2.3-5.4-3.2c-1.4-0.7-3-1.1-4.7-1.7
				c0.8-2.3,1.5-4.5,2.4-7.1c3,1.2,6,2.2,8.8,3.5c3.3,1.5,6,3.8,7.6,7.1c0.7,1.4,1.1,2.8,1.6,4.3c0,1.8,0,3.7,0,5.5
				c-0.1,0.1-0.2,0.2-0.2,0.4c-1.3,6.2-5.1,9.9-11.1,11.6c-1.2,0.3-2.5,0.6-3.8,0.8C104,87.5,102.6,87.5,101.3,87.5z"/>
			<path class="st1" d="M47.6,87.5c-1.1-0.2-2.2-0.4-3.2-0.7c-5.6-1.6-8.8-5.5-9.1-11.2c-0.3-5.7-0.1-11.5-0.1-17.3
				c2.5,0,4.9,0,7.4,0c0,1.1,0,2.1,0,3.2c0,4.2,0,8.4,0,12.6c0.1,3.5,2.3,5.8,5.8,5.9c1.1,0,2.2,0,3.3-0.3c2.7-0.6,4.2-2.4,4.3-5.1
				c0.1-7.4,0.1-14.8,0.1-22.2c0-0.6,0-1.2,0-1.9c2.5,0,4.9,0,7.4,0c0,0.5,0,1.1,0,1.6c0,7.2,0,14.4,0,21.6c0,7.8-4,12.4-11.7,13.6
				c-0.2,0-0.3,0.2-0.5,0.2C50.1,87.5,48.9,87.5,47.6,87.5z"/>
			<path class="st1" d="M87.8,51.3c-0.8,2.3-1.5,4.5-2.3,6.7c-1.7-0.2-3.4-0.4-5-0.4c-2.2,0-3.8,1.4-4.2,3.6
				C76.1,62.1,76,63,76,63.9c0,7.6,0,15.2,0,22.9c-2.4,0-4.8,0-7.2,0c0-0.3-0.1-0.5-0.1-0.7c0-8.4-0.1-16.7,0-25.1
				c0.1-6.4,4.1-10.4,10.4-10.9C82.1,49.9,84.9,50.3,87.8,51.3z"/>
		</g>
	</g>
</g>
</svg>
