<?xml version="1.0" encoding="utf-8"?>
<!-- Generator: Adobe Illustrator 19.2.1, SVG Export Plug-In . SVG Version: 6.00 Build 0)  -->
<svg version="1.1" id="Layer_1" xmlns="http://www.w3.org/2000/svg" xmlns:xlink="http://www.w3.org/1999/xlink" x="0px" y="0px"
	 viewBox="0 0 512 128" style="enable-background:new 0 0 512 128;" xml:space="preserve">
<style type="text/css">
	.st0{fill:none;}
	.st1{fill:#3E4F4E;}
</style>
<g id="Container">
	<rect class="st0" width="512" height="128"/>
</g>
<g id="Logos">
	<g id="Pipeline">
		<g>
			<path class="st1" d="M33.3,34.9c4.6,0,9.2,0.1,13.9,0c2.3-0.1,3.7,1,4.7,2.8c0.9,1.7,2,3.4,2.9,5.2c1.7,3,3.4,6.1,5.2,9.1
				c1.4,2.5,2.9,4.9,4.4,7.4c0.8,1.3,1.4,2.7,2.1,4.1c0.4,0.7,0,0.9-0.6,1c-0.3,0.1-0.6,0-0.9,0c-5.2,0-10.4,0-15.5,0
				c-1.8,0-3.3-0.6-4.6-2c-1.8-2-3.8-3.8-5.7-5.7c-1.2-1.2-2.3-2.4-3.6-3.5c-2.5-2.2-5.4-3.6-8.7-4.3c-3.5-0.8-7-0.4-10.5-0.4
				c-1.9,0-3.3-0.7-4.5-2.1c-0.4-0.5-1.1-0.9-1.2-1.4c-0.1-0.5,0.5-1.1,0.8-1.7c1.2-2.2,2.4-4.5,3.7-6.6c0.7-1.1,1.8-1.9,3.3-1.9
				C23.4,35,28.4,34.9,33.3,34.9z"/>
			<path class="st1" d="M33.2,93.2c-5,0-10-0.1-15,0c-1.5,0-2.3-0.7-3-1.8c-0.9-1.4-1.7-3-2.5-4.5c-0.3-0.5-0.2-1,0.3-1.5
				c0.9-1.1,2.1-1.3,3.4-1.3c1.6,0,3.2,0,4.8-0.1c3.9-0.3,7.1-1.9,9.7-4.8c1.3-1.5,2.8-2.9,4.4-4.2c0.5-0.4,1.3-0.7,2-0.7
				c7.6-0.1,15.1,0,22.7,0c1,0,1.1,0.1,0.6,1c-1.2,2.1-2.4,4.2-3.6,6.3c-0.9,1.6-1.8,3.3-2.8,4.9c-1.1,1.9-2.3,3.8-3.5,5.7
				c-0.4,0.7-1.1,0.9-2,0.9C43.5,93.2,38.3,93.2,33.2,93.2z"/>
			<path class="st1" d="M296.8,63.6c0.7,0.5,1.2,0.8,1.7,1.2c2.2,1.6,2.9,3.9,2.5,6.5c-0.5,3.5-3.6,5.6-6.6,5.6
				c-4.6,0-9.2,0-13.9,0.1c-0.7,0-0.8-0.3-0.8-0.9c0-7.9,0-15.8,0-23.7c0-0.7,0.2-1,1-1c4.2,0,8.4,0,12.5,0c1.8,0,3.6,0.4,5.1,1.6
				c1.7,1.3,2.8,4.6,2.1,6.7C299.7,61.6,298.3,62.9,296.8,63.6z M289.5,66.4L289.5,66.4c-1.1-0.1-2.2,0-3.4-0.1
				c-0.7,0-0.9,0.3-0.9,0.9c0,1.4,0,2.7,0,4.1c0,0.6,0.2,0.9,0.8,0.9c2.4,0,4.8,0,7.1-0.1c1.5-0.1,2.4-1.3,2.4-2.8
				c0-1.6-0.9-2.7-2.4-2.9C291.9,66.4,290.7,66.4,289.5,66.4z M289.3,61.7L289.3,61.7c1.2,0,2.3,0,3.5-0.1c0.3,0,0.5-0.3,0.7-0.4
				c1.3-0.7,1.7-1.6,1.4-3.2c-0.2-1-1.3-1.9-2.4-2c-2.1-0.1-4.3,0-6.4,0c-0.6,0-0.8,0.3-0.8,0.9c0,1.3,0,2.6,0,3.9
				c0,0.6,0.3,1,1,0.9C287.2,61.6,288.2,61.7,289.3,61.7z"/>
			<path class="st1" d="M250.3,64.1c0-3.8,0-7.7,0-11.5c0-1.3,0.1-1.4,1.4-1.4c3.1,0,6.2-0.1,9.3,0c4.1,0.2,7.8,1.5,10.5,4.8
				c0.9,1.2,1.5,2.5,2,3.8c0.8,2,0.8,4.1,0.5,6.2c-0.4,3-1.7,5.6-4,7.6c-2.8,2.4-6.1,3.2-9.7,3.2c-2.9,0-5.8,0-8.7,0
				c-1.2,0-1.2,0-1.3-1.2C250.3,71.8,250.3,68,250.3,64.1z M255.7,64.2c0,2.3,0,4.6,0,7c0,0.5,0,1,0.6,0.9c2.4-0.1,4.8,0.4,7.2-0.5
				c1.9-0.7,3.4-2,4.2-3.9c0.8-2,1-4,0.4-6.2c-0.6-2.6-3.3-5-5.7-5.2c-1.8-0.1-3.6-0.2-5.5-0.2c-1.1,0-1.3,0.2-1.3,1.3
				C255.7,59.7,255.7,62,255.7,64.2z"/>
			<path class="st1" d="M29,65.2c-0.6,0.6-1.3,1.2-1.9,1.8c-1.5,1.5-3.1,3.1-4.6,4.6c-0.7,0.7-1.5,1.2-2.6,1.2c-2,0-4.1-0.1-6.1,0.1
				c-2.5,0.2-4.7,1.1-6.7,2.6c-0.8,0.6-1.1,0.2-1.4-0.3c-0.6-1-1.2-2.1-1.8-3.2c-1-1.8-2.2-3.6-3.1-5.4c-0.4-0.8-0.9-1.7-0.8-2.5
				c0.1-1,0.7-2,1.2-2.9C1.9,60,2,60,3.2,60.9c1.9,1.4,3.9,2.6,6.2,3.3c1.8,0.5,3.6,1,5.5,0.9c4.3-0.1,8.5,0,12.8,0
				C28.1,65.1,28.5,65.1,29,65.2C28.9,65.1,29,65.2,29,65.2z"/>
			<path class="st1" d="M55.3,71.1c-2.6,0-5.1,0.1-7.7,0c-2.6-0.2-4.8-1.2-6.7-3.1c-3.2-3.2-6.3-6.4-9.6-9.5c-1.8-1.7-4-2.8-6.6-3
				c-2.3-0.1-4.6-0.2-7-0.2c-2.5,0-5,0-7.2-1.3c-1.2-0.7-2.2-1.8-3.3-2.7c-0.1-0.1,0-0.6,0.1-0.9c0.2-0.5,0.6-0.8,0.9-1.3
				C8.6,48.3,9,48.5,9.4,49c0.5,0.5,1,0.9,1.5,1.3c1.3,1.2,3,1.6,4.7,1.6c1.9,0,3.8,0,5.6,0c2.7,0,5.4,0.4,7.9,1.4
				c2,0.8,3.7,2.1,5.2,3.5c3.2,3.1,6.3,6.2,9.4,9.3c1.2,1.2,2.8,1.6,4.4,1.6c5,0,10.1,0,15.1,0c0.4,0,0.8,0.2,1.1,0.3
				c-0.1,0.4-0.2,0.7-0.3,1.1c-0.6,1.8-1.8,2.3-3.6,2.1C58.9,71,57.1,71.1,55.3,71.1L55.3,71.1z"/>
			<path class="st1" d="M215.9,72.7c0-0.6,0.1-1,0.1-1.4c0-6.3,0-12.5,0-18.8c0-0.8,0.1-1.3,1.1-1.2c1.1,0.1,1.1,0.1,1.1,1.2
				c0,7.7,0,15.5,0,23.2c0,0.4-0.2,1.2-0.3,1.2c-0.7,0.1-1.6,0.4-2.2-0.4c-0.9-1.2-1.8-2.4-2.7-3.6c-1.3-1.8-2.6-3.6-3.9-5.4
				c-1.7-2.3-3.4-4.6-5-6.9c-1.2-1.6-2.4-3.2-3.6-4.8c-0.1-0.1-0.2-0.2-0.5-0.5c-0.1,0.6-0.1,1-0.1,1.4c0,6.4,0,12.8,0,19.2
				c0,0.8-0.1,1.2-1,1.2c-0.8,0-1-0.3-1-1.1c0-7.7,0-15.5,0-23.2c0-0.4,0.1-1.1,0.4-1.3c0.6-0.4,1.7,0,2.1,0.6
				c1,1.4,2.1,2.8,3.1,4.1c2.8,3.8,5.6,7.5,8.4,11.3c1.1,1.5,2.2,3,3.3,4.5C215.2,72.1,215.5,72.3,215.9,72.7z"/>
			<path class="st1" d="M226.9,64.2c0-3.8,0-7.7,0-11.5c0-1.3,0.1-1.4,1.4-1.4c4.6,0,9.2,0,13.8,0c0.5,0,1.1-0.1,1.3,0.6
				c0.2,1,0,1.3-1.1,1.3c-4,0-8,0-12,0c-0.8,0-1.1,0.2-1.1,1.1c0,2.5,0,5,0,7.5c0,0.7,0.3,1,1,1c3.9,0,7.8,0,11.7,0
				c0.3,0,0.9,0.1,0.9,0.3c0.1,0.5,0.1,1,0.1,1.5c0,0.1-0.5,0.2-0.8,0.2c-3.9,0-7.8,0-11.7,0c-1.2,0-1.2,0-1.2,1.2
				c0,2.6,0,5.2,0,7.9c0,0.8,0.3,1.1,1.1,1.1c4,0,7.9,0,11.9,0c0.7,0,1.2,0.1,1.2,1c0,0.7-0.2,1-1,1c-4.9,0-9.7,0-14.6,0
				c-0.8,0-0.9-0.3-0.9-1C226.9,72,226.9,68.1,226.9,64.2z"/>
			<path class="st1" d="M140.9,64.1c0-3.9,0-7.7,0-11.6c0-1.2,0-1.3,1.2-1.3c4.6,0,9.2,0,13.9,0c1.1,0,1.2,0.1,1.2,1.1
				c0,0.7-0.3,0.8-0.9,0.8c-3,0-6.1,0-9.1,0c-1.1,0-2.2,0-3.4,0c-0.6,0-0.8,0.2-0.8,0.8c0,2.6,0,5.2,0,7.9c0,0.8,0.4,0.9,1,0.9
				c3.9,0,7.9,0,11.8,0c0.8,0,1,0.3,1.1,1c0.1,0.8-0.1,1.1-1,1.1c-3.9,0-7.9,0-11.8,0c-0.9,0-1.1,0.3-1.1,1.1c0,2.6,0,5.2,0,7.8
				c0,1.2,0,1.2,1.2,1.2c3.9,0,7.9,0,11.8,0c1.1,0,1.5,0.6,1.1,1.6c-0.1,0.2-0.6,0.4-0.9,0.4c-3.6,0-7.2,0-10.9,0
				c-1.2,0-2.4,0-3.5,0c-0.7,0-0.9-0.2-0.9-0.9C140.9,72.1,140.9,68.1,140.9,64.1z"/>
			<path class="st1" d="M116.4,64.1c0-3.8,0-7.7,0-11.5c0-1.3,0.1-1.3,1.4-1.3c2.6,0,5.2,0,7.8,0c2.9,0,5.6,0.9,7.2,3.5
				c1,1.6,1.3,3.4,1,5.2c-0.4,3-2.7,5.3-5.5,6c-2.4,0.5-4.7,0.3-7,0.4c-2.5,0.1-2.5,0-2.5,2.5c0,2.4,0,4.7,0,7.1c0,1-0.5,1-1.2,1
				c-0.8,0-1-0.2-1-1C116.5,72,116.4,68.1,116.4,64.1z M118.7,58.7c0,1.5,0,3.1,0,4.6c0,0.8,0.2,1,1,1c2.1,0,4.2,0,6.4,0
				s3.9-0.8,4.9-3c0.9-1.9,0.7-4.3-0.5-5.9c-1.2-1.5-2.8-2-4.5-2.1c-2.1-0.1-4.2,0-6.3,0c-0.7,0-0.9,0.3-0.9,0.9
				C118.7,55.7,118.7,57.2,118.7,58.7z"/>
			<path class="st1" d="M81.2,64.2c0-3.9,0-7.7,0-11.6c0-1.2,0.2-1.4,1.4-1.4c2.7,0,5.4-0.1,8.1,0s5.2,0.9,6.7,3.3
				c2.3,3.6,1.3,9.1-3.1,11c-1.1,0.4-2.3,0.7-3.4,0.7c-2,0.1-4.1,0-6.1,0c-1.3,0-1.3,0-1.3,1.2c0,2.8,0,5.5,0,8.3c0,0.9-0.4,1-1.1,1
				c-0.8,0-1.2-0.1-1.2-1.1C81.2,72,81.2,68.1,81.2,64.2z M83.4,58.7c0,1.5,0,3.1,0,4.6c0,0.8,0.3,1,1,1c2.1,0,4.1-0.1,6.2,0
				c3.1,0.1,5.8-2.1,5.6-5.8c-0.2-3.2-2.5-5.1-5.4-5.2c-2.1-0.1-4.3,0-6.4,0c-0.8,0-1,0.3-0.9,1C83.5,55.7,83.4,57.2,83.4,58.7z"/>
			<path class="st1" d="M5.4,54c1.2,0.9,2.2,1.8,3.3,2.5c1.1,0.6,2.3,1.1,3.5,1.5c2.2,0.8,4.6,0.5,6.9,0.5c1.6,0,3.2,0,4.9,0.1
				c2.3,0.2,4.2,1.3,6,3c-0.4,0.1-0.6,0.2-0.9,0.2c-5,0-10.1,0.2-15.1-0.1c-3.7-0.2-7-1.7-9.7-4.3C4,57.1,3.9,56.5,4,56.2
				C4.4,55.5,4.9,54.8,5.4,54z"/>
			<path class="st1" d="M165,64.2c0-3.9,0-7.8,0-11.7c0-0.7,0.1-1.2,0.9-1.1c1.1,0,1.2,0,1.2,1.2c0,7.1,0,14.1,0,21.2
				c0,1.3,0,1.3,1.2,1.3c3.3,0,6.6,0,10,0c0.7,0,1.2,0.2,1.2,1s-0.4,1-1.1,1c-4.1,0-8.3,0-12.4,0c-0.8,0-1-0.3-1-1
				C165,72,165,68.1,165,64.2z"/>
			<path class="st1" d="M40,72.1c-0.9,0-1.8,0-2.6,0c-1.7-0.1-3.1,0.7-4.3,1.9c-1.9,1.9-3.7,3.9-5.7,5.6c-1.9,1.6-4.3,2.3-6.8,2.3
				c-1.5,0-2.9,0-4.4,0c-1.7,0.1-3.4,0.4-4.6,1.8c-0.1,0.1-0.4,0.3-0.4,0.2c-0.4-0.4-0.8-0.9-1.1-1.4c-0.1-0.2,0.2-0.7,0.4-0.9
				c1.7-1.6,3.7-2,5.9-1.9c1.5,0,2.9,0,4.4-0.1c2.3-0.1,4.2-0.9,5.8-2.4c1.9-1.8,3.7-3.7,5.6-5.5c1.5-1.5,3.4-2.1,5.4-1.9
				c0.4,0,0.9,0.5,1.3,0.8c0.4,0.4,0.8,0.8,1.2,1.3C40.1,71.9,40.1,72,40,72.1z"/>
			<path class="st1" d="M35.5,67.2c-1.1,0.5-2.3,0.9-3.3,1.5c-0.9,0.6-1.7,1.3-2.5,2.1c-1.7,1.6-3.3,3.2-5,4.8
				c-1.3,1.2-2.9,1.5-4.5,1.7c-1.8,0.1-3.7,0.1-5.6,0.1s-3.6,0.7-5.1,2C9.3,79.6,9,79.7,8.6,80c-0.1-0.2-0.2-0.4-0.3-0.5
				C7.5,78,7.6,77.7,9,76.9c1.9-1.2,4-1.8,6.2-1.8c1.9,0,3.9,0,5.8-0.2c0.8-0.1,1.8-0.5,2.4-1.1c1.9-1.7,3.7-3.6,5.5-5.4
				c1.2-1.2,2.6-2.1,4.2-2.6C34,65.4,34.3,65.7,35.5,67.2z"/>
			<path class="st1" d="M107.7,64.3c0,3.9,0,7.8,0,11.6c0,0.9-0.4,1.1-1.2,1.1c-0.8,0-1.1-0.2-1.1-1c0-7.8,0-15.6,0-23.5
				c0-1.1,0.9-1.6,1.8-1.1c0.3,0.1,0.4,0.7,0.4,1.1C107.8,56.4,107.7,60.3,107.7,64.3z"/>
			<path class="st1" d="M186.6,64.1c0-3.9,0-7.8,0-11.6c0-1.1,0.6-1.6,1.6-1.1c0.3,0.1,0.5,0.7,0.5,1.1c0,2.4,0,4.7,0,7.1
				c0,5.4,0,10.8,0,16.1c0,1.3-0.4,1.6-1.7,1.3c-0.2-0.1-0.4-0.6-0.4-0.9c0-3.9,0-7.8,0-11.6C186.6,64.3,186.6,64.2,186.6,64.1z"/>
		</g>
	</g>
</g>
</svg>
