<?xml version="1.0" encoding="utf-8"?>
<!-- Generator: Adobe Illustrator 19.2.1, SVG Export Plug-In . SVG Version: 6.00 Build 0)  -->
<svg version="1.1" id="Layer_1" xmlns="http://www.w3.org/2000/svg" xmlns:xlink="http://www.w3.org/1999/xlink" x="0px" y="0px"
	 viewBox="0 0 512 128" style="enable-background:new 0 0 512 128;" xml:space="preserve">
<style type="text/css">
	.st0{fill:none;}
	.st1{fill:#3E4F4E;}
</style>
<g id="Container">
	<rect class="st0" width="512" height="128"/>
</g>
<g id="Logos">
	<g id="Andela">
		<g>
			<path class="st1" d="M249,84.3c-0.1,0-0.2,0-0.3,0c-1.4,0-2.8,0-4.2-0.1c-0.5,0-0.9-0.1-1.3-0.3c-0.9-0.3-1.3-1-1.4-1.9
				c0-0.3-0.1-0.5-0.1-0.8c-0.1,0-0.1,0.1-0.2,0.1c-1.4,1.7-3.2,2.6-5.3,3c-2.4,0.5-4.7,0.5-7-0.2c-3.4-1-5.4-3.3-6-6.9
				c-0.3-2-0.1-4,0.8-5.8c1-2.2,2.9-3.4,5.1-4.1c1.4-0.5,2.8-0.7,4.3-0.7c2.6,0,5.2-0.1,7.8-0.1c0.3,0,0.5-0.1,0.5-0.4
				c-0.1-0.8-0.2-1.7-0.4-2.5c-0.5-1.5-1.6-2.4-3.1-2.7c-3.7-0.8-7.2-0.5-10.4,1.8c-0.6,0.4-0.9,0.4-1.2-0.3
				c-0.5-0.8-0.9-1.6-1.4-2.4c-0.4-0.6-0.3-0.9,0.3-1.3c1.9-1.4,4.1-2.2,6.5-2.6c1-0.2,2.1-0.3,3.2-0.3c2.3,0,4.7,0.1,6.9,1
				c2.6,1.1,4.1,3.1,4.6,5.8c0.2,1,0.3,2.1,0.3,3.2c0,4.1,0,8.3,0,12.4c0,0.3,0,0.6,0.1,0.9c0.1,0.6,0.5,1,1.1,1
				c0.4,0,0.7,0.1,0.9,0.4C249,81.7,249,83,249,84.3z M237.7,70.8C237.7,70.7,237.7,70.7,237.7,70.8c-1.6,0-3.3,0-4.9,0.2
				c-1,0.1-2,0.4-2.9,1c-1.5,1-1.9,2.8-1.5,4.5c0.3,1.7,1.4,2.6,3,3.1c1.4,0.4,2.8,0.5,4.2,0.3c1.2-0.1,2.3-0.4,3.4-1
				c1.5-0.8,2.5-2.1,2.6-3.9c0.1-1.3,0.1-2.6,0.1-3.8c0-0.3-0.1-0.5-0.5-0.5C240,70.8,238.8,70.8,237.7,70.8z"/>
			<path class="st1" d="M35.8,100.6c-1.5-0.7-2.3-2.1-3.3-3.3c-2.2-2.5-4.3-5-6.4-7.6c0-0.1-0.1-0.1-0.2-0.2
				c0.1-0.1,0.2-0.1,0.3-0.2c1.7-0.9,3.5-1.9,5.2-2.8c0.3-0.2,0.5-0.1,0.7,0.1c1.3,1.6,2.6,3.2,3.9,4.8c0.1,0.1,0.2,0.2,0.3,0.4
				c0.4-0.4,0.7-0.9,1-1.3c1.1-1.3,2.1-2.6,3.2-3.9c0.1-0.2,0.2-0.2,0.5-0.1c1.8,1,3.7,2,5.6,3c0,0,0,0,0.1,0.1
				c-0.3,0.4-0.7,0.8-1,1.2c-2.3,2.8-4.7,5.5-7,8.3c-0.5,0.6-1.1,1.2-1.9,1.5C36.4,100.6,36.1,100.6,35.8,100.6z"/>
			<path class="st1" d="M172.2,58.3c0-0.3,0-0.4,0-0.6c0-4.2,0-8.5,0-12.7c0-0.7,0.2-1,1-1c1.3,0,2.7,0,4,0c0.3,0,0.4,0.1,0.4,0.4
				c0,12.8,0,25.7,0,38.5c0,0.6-0.3,0.9-0.9,0.9c-1.2,0-2.4,0-3.6,0c-0.7,0-0.9-0.3-0.9-0.9c0-0.4,0-0.7,0-1.1c-0.1,0-0.2,0-0.2,0.1
				c-1.1,1.2-2.4,1.8-3.9,2.1c-2.8,0.6-5.6,0.7-8.3-0.2c-3-1-4.9-3.1-6.1-5.9c-0.6-1.5-1-3-1.1-4.6c-0.1-1.7-0.3-3.4-0.2-5.1
				c0.1-3,0.8-5.8,2.6-8.3c1.6-2.1,3.7-3.3,6.2-3.9c2.8-0.6,5.6-0.4,8.4,0.5c0.9,0.3,1.7,0.8,2.4,1.5C172,58.2,172,58.2,172.2,58.3z
				 M172.2,70.2c0-0.4,0-0.7,0-1.1c0-1.1,0-2.1-0.2-3.2c-1-3.8-4.8-6.2-8.6-5.4c-3.5,0.7-5.5,3.8-5.8,7.2c-0.1,1.4-0.1,2.8-0.1,4.1
				c0,0.9,0.1,1.8,0.3,2.6c1,4.2,4.5,6.1,8.1,5.5c3.6-0.5,6.2-3.7,6.2-7.3C172.2,71.8,172.2,71,172.2,70.2z"/>
			<path class="st1" d="M118.9,84c-0.6,0-1.3,0-1.9,0c-0.7,0-0.9-0.2-1.2-0.8c-1.1-2.6-2.2-5.3-3.3-7.9c-0.1-0.3-0.3-0.4-0.6-0.4
				c-5.1,0-10.2,0-15.3,0c-0.4,0-0.5,0.1-0.7,0.5c-1.1,2.6-2.1,5.2-3.2,7.8c-0.3,0.7-0.5,0.9-1.3,0.9c-1.2,0-2.4,0-3.7,0
				c-0.1,0-0.1,0-0.2,0c-0.5,0-0.7-0.2-0.5-0.7c0.5-1.2,0.9-2.3,1.4-3.5c3.9-9.6,7.8-19.3,11.7-28.9c0.4-1.1,0.9-2.2,1.4-3.3
				c0.2-0.5,0.6-1.1,1-1.5c1-1,2.6-0.9,3.5,0.2c0.3,0.4,0.6,0.9,0.8,1.4c3.5,8.7,7.1,17.5,10.6,26.2c1.2,3,2.4,6,3.7,9.1
				c0.1,0.1,0.1,0.3,0.2,0.4c0.2,0.5,0.1,0.6-0.4,0.6C120.3,84,119.6,84,118.9,84z M98.2,69.6c4.1,0,8.1,0,12.2,0
				c-2-4.9-4-9.8-6-14.6h-0.1C102.2,59.9,100.3,64.7,98.2,69.6z"/>
			<path class="st1" d="M196.5,73c-3.1,0-6.1,0-9.2,0c-0.5,0-0.5,0.1-0.5,0.5c0.4,3.1,2.6,5.4,5.7,5.9c2.4,0.4,4.7,0.2,7-0.9
				c1-0.5,1.8-1.2,2.6-2c0.5-0.5,0.8-0.6,1.4-0.1c0.7,0.7,1.5,1.3,2.2,2c0.5,0.5,0.5,0.7,0.1,1.2c-1.9,2.3-4.4,3.7-7.3,4.4
				c-1.8,0.5-3.6,0.6-5.4,0.5c-3.2-0.2-6-1.3-8.2-3.6c-1.6-1.6-2.5-3.5-3-5.7c-0.4-1.6-0.6-3.2-0.5-4.9c0.1-2.7,0.4-5.3,1.5-7.8
				c1.6-3.6,4.5-5.8,8.4-6.5c3-0.6,6-0.3,8.8,1c3.1,1.5,4.9,4.1,5.9,7.4c0.4,1.5,0.6,3,0.6,4.5c0,1,0.1,2,0.1,3.1
				c0,0.7-0.2,0.9-0.9,0.9C202.6,73,199.6,73,196.5,73z M193.9,68.7c2.2,0,4.3,0,6.5,0c0.2,0,0.3,0,0.5,0c0.3,0,0.4-0.2,0.4-0.5
				c-0.1-0.7,0-1.5-0.2-2.2c-0.5-2.5-2-4.3-4.5-5.1c-1.8-0.5-3.5-0.5-5.2,0.1c-1.4,0.5-2.6,1.3-3.4,2.6c-0.8,1.2-1.1,2.6-1.2,4.1
				c0,0.9-0.2,0.9,0.9,0.9C189.7,68.7,191.8,68.7,193.9,68.7z"/>
			<path class="st1" d="M130.1,59.6c0.1-0.1,0.2-0.1,0.2-0.2c1.4-1.8,3.2-2.8,5.4-3.3c2.2-0.4,4.3-0.4,6.4,0.4
				c3.1,1.1,5,3.4,5.9,6.6c0.4,1.3,0.5,2.6,0.5,4c0,5.3,0,10.6,0,15.9c0,0.8-0.2,1-1,1c-1.1,0-2.2,0-3.3,0c-0.8,0-1-0.2-1-1
				c0-4.9,0-9.9,0-14.8c0-1.2-0.2-2.4-0.6-3.6c-0.7-1.8-1.9-3-3.8-3.4c-1.6-0.4-3.2-0.4-4.7,0.2c-2.3,0.9-3.5,2.7-3.9,5.1
				c-0.1,0.7-0.1,1.5-0.2,2.3c0,4.7,0,9.5,0,14.2c0,0.8-0.2,1-1,1c-1.1,0-2.2,0-3.3,0c-0.9,0-1-0.3-1-1c0-8.5,0-17,0-25.4
				c0-0.8,0.2-1,1-1c1.2,0,2.4,0,3.5,0c0.6,0,0.8,0.2,0.8,0.8s0,1.2,0,1.8C130.1,59.3,130.1,59.4,130.1,59.6z"/>
			<path class="st1" d="M215.8,60.6c0,5.2,0,10.3,0,15.5c0,0.5,0.1,1,0.2,1.5c0.2,1,0.9,1.5,1.9,1.6c0.6,0,1.2,0.1,1.8,0.1
				s0.8,0.2,0.8,0.8c0,1.1,0,2.2,0,3.3c0,0.5-0.2,0.8-0.7,0.8c-1.7,0-3.3,0.1-5-0.3c-2.3-0.6-3.6-2.2-4.1-4.4
				c-0.2-1-0.3-2.1-0.3-3.1c0-10.4,0-20.7,0-31.1c0-0.9,0.2-1.1,1.1-1.1c1.2,0,2.5,0,3.7,0c0.4,0,0.5,0.1,0.5,0.5
				C215.8,50,215.8,55.3,215.8,60.6z"/>
			<path class="st1" d="M61.5,53.8c-2.2-0.6-4.3-1.3-6.4-1.9c0.2-2.3,0.5-4.7,0.7-7c-0.7,0.1-1.3,0.1-1.9,0.2
				c-1.1,0.1-2.3,0.2-3.4,0.4c-0.4,0-0.9,0.1-1.3,0.1c-0.3,0-0.5,0-0.6-0.4c-0.5-1.9-1.1-3.8-1.7-5.7c0-0.1,0-0.2-0.1-0.3
				c0.4,0,0.8-0.1,1.2-0.1c1.7-0.1,3.5-0.3,5.2-0.4c2.2-0.2,4.4-0.4,6.6-0.5c0.3,0,0.7,0,1,0c1.1,0.2,1.7,1,1.7,2.1
				c0,0.9-0.1,1.8-0.2,2.7c-0.1,0.8-0.1,1.5-0.2,2.3c-0.1,1.5-0.3,2.9-0.4,4.4c-0.1,1.1-0.2,2.2-0.3,3.3
				C61.5,53.2,61.5,53.5,61.5,53.8z"/>
			<path class="st1" d="M11.1,74.8c0.8,0.2,1.4,0.4,2.1,0.6c1.3,0.4,2.6,0.8,4,1.2c0.3,0.1,0.4,0.2,0.4,0.5
				c-0.2,1.8-0.4,3.5-0.6,5.3c0,0.4-0.1,0.8-0.2,1.3c2.4-0.2,4.7-0.5,7-0.7c0.6,2.1,1.3,4.3,1.9,6.4c-0.9,0.1-1.8,0.2-2.7,0.2
				c-1.5,0.1-2.9,0.3-4.4,0.4c-0.9,0.1-1.9,0.2-2.8,0.2c-1.1,0.1-2.3,0.2-3.4,0.2c-1.5,0-2.4-0.8-2.3-2.3c0-1.1,0.1-2.1,0.2-3.2
				c0.1-1.1,0.2-2.1,0.3-3.2c0.1-1.5,0.2-2.9,0.4-4.4c0.1-0.7,0.1-1.5,0.2-2.2C11.1,75.2,11.1,75,11.1,74.8z"/>
			<path class="st1" d="M46.8,89.5c0.6-2.2,1.3-4.3,1.9-6.4c2.3,0.2,4.6,0.5,7,0.7c-0.2-2.4-0.5-4.7-0.7-7c2.1-0.6,4.2-1.3,6.4-1.9
				c0.1,0.6,0.1,1.1,0.2,1.7c0.2,1.8,0.3,3.7,0.5,5.5c0.1,1.4,0.2,2.8,0.3,4.2c0.1,0.7,0.1,1.3,0.1,2c0,1.6-0.8,2.4-2.4,2.4
				c-1.2,0-2.4-0.2-3.6-0.3c-1.1-0.1-2.1-0.2-3.2-0.3c-1.5-0.1-2.9-0.3-4.4-0.4C48.3,89.6,47.6,89.6,46.8,89.5z"/>
			<path class="st1" d="M10,40.5c0-0.2,0-0.6,0.1-1c0.2-0.8,0.9-1.4,1.8-1.4c1.2,0,2.4,0.1,3.6,0.2c1.1,0.1,2.1,0.2,3.2,0.3
				c1.5,0.1,2.9,0.3,4.4,0.4c0.8,0.1,1.5,0.1,2.3,0.2c0.3,0,0.4,0.1,0.3,0.4c-0.6,1.9-1.1,3.9-1.7,5.8c-0.1,0.3-0.2,0.3-0.5,0.3
				c-1.4-0.2-2.7-0.3-4.1-0.4c-0.8-0.1-1.5-0.2-2.3-0.2c-0.2,0-0.3,0.1-0.3,0.3c0.2,1.8,0.4,3.7,0.6,5.5c0,0.1,0,0.3,0,0.4
				c0.1,0.8,0.1,0.8-0.7,1c-1.7,0.5-3.5,1-5.2,1.6C11,54,11,54,11,53.5c-0.1-1.4-0.2-2.9-0.4-4.3c-0.1-1-0.2-2.1-0.3-3.1
				c-0.1-1.2-0.2-2.3-0.3-3.5C10.1,41.9,10.1,41.3,10,40.5z"/>
			<path class="st1" d="M46.7,39.1c-0.7,0.4-1.3,0.7-2,1.1c-1.2,0.7-2.4,1.3-3.6,2c-0.3,0.1-0.4,0.1-0.6-0.1
				c-1.3-1.6-2.6-3.2-3.9-4.9c-0.1-0.1-0.2-0.2-0.3-0.3c-0.5,0.6-1,1.2-1.4,1.8C34,39.8,33,41,32.1,42.2c-0.1,0.1-0.2,0.2-0.4,0.1
				c-1.9-1-3.7-2-5.6-3c0,0,0,0-0.1-0.1c0.2-0.2,0.4-0.5,0.6-0.7c2.6-3.1,5.3-6.2,7.9-9.3c0.4-0.5,0.8-0.8,1.5-1
				c0.6-0.2,1.2,0,1.6,0.4c0.6,0.6,1.2,1.2,1.7,1.9c2.4,2.8,4.7,5.6,7.1,8.4C46.4,38.8,46.5,38.9,46.7,39.1z"/>
			<path class="st1" d="M11.1,54c0.6,1.2,1.2,2.3,1.9,3.4c0.4,0.7,0.8,1.5,1.2,2.2c0.1,0.2,0.1,0.4-0.1,0.6
				c-1.6,1.3-3.2,2.6-4.8,3.9c-0.4,0.3-0.4,0.3,0,0.6c1.6,1.3,3.1,2.6,4.7,3.8c0.3,0.2,0.3,0.4,0.1,0.7c-0.9,1.7-1.8,3.4-2.7,5
				c-0.1,0.1-0.1,0.2-0.2,0.4c-0.4-0.3-0.8-0.6-1.1-0.9c-2.9-2.4-5.7-4.8-8.6-7.3c-0.6-0.5-1.2-1-1.3-1.9C-0.1,64,0.1,63.4,0.5,63
				c0.6-0.7,1.3-1.3,2-1.9c2.7-2.3,5.4-4.6,8.1-6.9C10.8,54.2,10.9,54.1,11.1,54z"/>
			<path class="st1" d="M61.5,74.7c-0.8-1.5-1.6-2.9-2.4-4.4c-0.2-0.4-0.4-0.8-0.6-1.2c-0.2-0.3-0.1-0.4,0.1-0.6
				c1.6-1.3,3.2-2.6,4.7-3.8c0.1-0.1,0.3-0.2,0.4-0.4c-0.7-0.5-1.3-1.1-1.9-1.6c-1.1-0.9-2.1-1.7-3.2-2.6c-0.2-0.1-0.3-0.3-0.2-0.5
				c1-1.8,2-3.6,3-5.5c0,0,0.1-0.1,0.1-0.2c0.5,0.5,1.1,0.9,1.6,1.3c2.7,2.3,5.3,4.5,8,6.8c0.3,0.3,0.7,0.6,1,1
				c0.7,0.9,0.7,1.8-0.1,2.6c-0.6,0.6-1.2,1.2-1.9,1.7c-2.8,2.4-5.6,4.7-8.3,7.1C61.8,74.5,61.7,74.6,61.5,74.7z"/>
		</g>
	</g>
</g>
</svg>
