<?xml version="1.0" encoding="utf-8"?>
<!-- Generator: Adobe Illustrator 19.2.1, SVG Export Plug-In . SVG Version: 6.00 Build 0)  -->
<svg version="1.1" id="Layer_1" xmlns="http://www.w3.org/2000/svg" xmlns:xlink="http://www.w3.org/1999/xlink" x="0px" y="0px"
	 viewBox="0 0 512 128" style="enable-background:new 0 0 512 128;" xml:space="preserve">
<style type="text/css">
	.st0{fill:none;}
	.st1{fill:#A9B1B0;}
	.st2{fill:#3E4F4E;}
</style>
<path id="Container" class="st0" d="M0,0h512v128H0V0z"/>
<g>
	<circle class="st1" cx="26" cy="61.6" r="26"/>
	<g id="GQiJpE_1_">
		<g>
			<path class="st2" d="M27.2,35.6c0.4,0,0.7,0.1,1.1,0.1c2.3,0.2,4.6,0.7,6.8,1.5c4.8,1.8,8.7,4.8,11.8,8.8c1,1.3,1.9,2.7,2.6,4.2
				c0,0.1,0.1,0.1,0.1,0.2c-15.7,0-31.4,0-47.2,0c0.4-0.7,0.7-1.4,1.1-2.1C6,44.2,9.4,41,13.7,38.7c2.5-1.4,5.2-2.3,8.1-2.7
				c0.9-0.1,1.9-0.2,2.8-0.3c0.1,0,0.2,0,0.2-0.1C25.6,35.6,26.4,35.6,27.2,35.6z M36.4,45.3c1.1,0,1.9-0.6,2-1.5
				c0.2-0.9-0.3-1.8-1.1-2.1c-0.8-0.3-1.8,0-2.3,0.7c-0.1,0.2-0.2,0.3-0.4,0.3c-5.7,0-11.4,0-17.2,0c-0.2,0-0.3-0.1-0.5-0.2
				c-0.4-0.6-1-0.9-1.7-0.9c-0.9,0-1.6,0.7-1.7,1.6c-0.1,0.9,0.4,1.7,1.2,2c0.8,0.3,1.7,0,2.2-0.8c0.1-0.2,0.2-0.2,0.4-0.2
				c5.7,0,11.5,0,17.2,0c0.2,0,0.3,0.1,0.4,0.2C35.4,45,35.9,45.3,36.4,45.3z"/>
			<path class="st2" d="M172.8,83.8c-1.4,0-2.8,0-4.2,0c0-0.1,0-0.3,0-0.4c0-5.3,0-10.6,0-15.9c0-1.8-0.2-3.6-0.8-5.3
				c-1-2.7-3-4.1-5.9-4.4c-1.7-0.2-3.4,0.1-4.9,0.9c-2,1-3.2,2.7-4,4.7c-0.7,1.8-0.9,3.6-1,5.5c0,4.8,0,9.6,0,14.5
				c0,0.1,0,0.3,0,0.4c-1.4,0-2.8,0-4.2,0c-0.1-9.6,0.2-19.2-0.2-28.7c1.3,0,2.6,0,4,0c0.1,1.6,0.2,3.3,0.2,4.9
				c0.1-0.1,0.1-0.1,0.2-0.2c1.1-2.1,2.9-3.5,5.1-4.5c2.1-0.9,4.3-1.2,6.6-0.9c1.2,0.1,2.5,0.4,3.6,1c2.3,1.1,3.7,3,4.6,5.3
				c0.5,1.3,0.8,2.6,0.9,4c0,0.1,0,0.3,0.1,0.4C172.8,71.3,172.8,77.6,172.8,83.8z"/>
			<path class="st2" d="M64.2,83.8c0-14.5,0-29,0-43.5c0.1,0,0.2,0,0.3,0c4.2,0,8.5,0,12.7,0c2.7,0,5.3,0.4,7.8,1.6
				c3.2,1.5,5.3,3.9,5.9,7.4c0.5,2.8,0.3,5.5-1,8c-1.2,2.4-3.2,3.9-5.7,4.9c-1.9,0.8-4,1.2-6,1.3c-3.1,0.1-6.1,0.1-9.2,0.1
				c-0.1,0-0.2,0-0.4,0c0,6.7,0,13.4,0,20.2C67.2,83.8,65.7,83.8,64.2,83.8z M68.7,44c0,5.3,0,10.5,0,15.8c0.1,0,0.1,0,0.2,0
				c2.6,0,5.3,0,7.9,0c1.7,0,3.5-0.2,5.1-0.8c1.9-0.7,3.5-1.9,4.3-3.8c0.6-1.3,0.7-2.6,0.6-4c-0.2-2.8-1.5-4.8-4.1-6
				c-1.9-0.8-3.9-1.1-6-1.1c-2.6,0-5.2,0-7.7,0C68.8,44,68.8,44,68.7,44z"/>
			<path class="st2" d="M137.7,83.8c-1.3,0-2.5,0-3.8,0c-0.1-1.6-0.3-3.1-0.4-4.7c-0.1,0.1-0.2,0.2-0.2,0.3c-1.2,1.7-2.6,3.1-4.5,4
				c-1.7,0.8-3.5,1.1-5.4,1.1c-2,0-4-0.3-5.8-1.3c-2.2-1.2-3.7-3-4.2-5.5c-0.4-2.2-0.3-4.3,0.8-6.3c0.8-1.4,2-2.3,3.3-3
				c1.5-0.8,3.2-1.3,4.9-1.6c2.4-0.5,4.9-0.6,7.4-0.7c1.2,0,2.4,0,3.7,0c0-0.6,0-1.2,0-1.8c-0.1-1-0.2-2-0.7-3
				c-0.8-1.9-2.3-2.9-4.3-3.4c-4.2-0.9-7.9,0-11.1,2.9c0,0-0.1,0.1-0.1,0.1c-0.8-0.9-1.5-1.8-2.3-2.8c0.4-0.3,0.7-0.6,1-0.9
				c2.1-1.6,4.5-2.5,7.1-2.9c1.9-0.3,3.7-0.4,5.6-0.1c2.3,0.4,4.3,1.2,6,2.8c1.5,1.5,2.3,3.2,2.6,5.3c0.1,0.8,0.2,1.7,0.2,2.6
				c0,4.5,0,9.1,0,13.6c0,1.6,0.3,3.2,0.4,4.8C137.6,83.6,137.7,83.7,137.7,83.8z M133.2,69.4c-0.1,0-0.2,0-0.4,0
				c-1.2,0-2.5,0-3.7,0.1c-1.8,0.1-3.7,0.2-5.5,0.6c-1.5,0.3-3,0.8-4.3,1.7c-1.8,1.2-2.4,2.9-2,5c0.3,1.9,1.5,3.1,3.2,3.8
				c1.6,0.6,3.3,0.8,5,0.5c3.2-0.5,5.5-2.2,6.8-5.2C133.3,73.8,133.3,71.6,133.2,69.4z"/>
			<path class="st2" d="M99.8,37.3c1.4,0,2.8,0,4.1,0c0,15.5,0,30.9,0,46.4c-1.4,0-2.7,0-4.1,0C99.8,68.3,99.8,52.8,99.8,37.3z"/>
			<path class="st2" d="M22.5,69.1c0.9-0.9,1.7-1.7,2.5-2.5c2.7-2.7,5.4-5.4,8.1-8.1c1-1,2.4-1.2,3.5-0.4c1,0.8,1.2,2,0.5,3
				c-0.2,0.3-0.5,0.6-0.7,0.8c-4,4-8.1,8.1-12.1,12.1c-1.1,1.1-2.5,1.1-3.6,0c-1.8-1.8-3.6-3.6-5.4-5.4c-0.4-0.4-0.7-0.9-0.8-1.6
				c-0.1-0.8,0.3-1.4,0.9-1.9c1-0.8,2.5-0.6,3.4,0.3c1.1,1.1,2.2,2.2,3.4,3.4C22.2,68.9,22.3,69,22.5,69.1z"/>
		</g>
	</g>
</g>
</svg>
