<?xml version="1.0" encoding="utf-8"?>
<!-- Generator: Adobe Illustrator 20.0.0, SVG Export Plug-In . SVG Version: 6.00 Build 0)  -->
<svg version="1.1" id="Layer_1" xmlns="http://www.w3.org/2000/svg" xmlns:xlink="http://www.w3.org/1999/xlink" x="0px" y="0px"
	 viewBox="0 0 512 128" style="enable-background:new 0 0 512 128;" xml:space="preserve">
<style type="text/css">
	.st0{fill:none;}
	.st1{fill:#3E4F4E;}
	.st2{fill:#7E8A88;}
</style>
<path id="Container" class="st0" d="M0,0h512v128H0V0z"/>
<g>
	<g id="cvaxNN_1_">
		<g>
			<path class="st1" d="M158.5,44.9c0,0.1,0,0.3-0.1,0.4c-0.2,1-0.6,1.8-1.3,2.6c-0.1,0.1-0.2,0.2-0.3,0.3
				c-5.2,5.2-10.4,10.4-15.7,15.7c-2.5,2.5-4.9,5-7.4,7.5c-5.4,5.4-10.9,10.8-16.3,16.3c-0.9,0.9-2.1,1.5-3.4,1.6c0,0-0.1,0-0.1,0
				c-0.2,0-0.5,0-0.7,0c-0.3,0-0.5-0.1-0.8-0.1c-2.1-0.4-3.8-2.2-4.1-4.3c-0.3-1.8,0.2-3.4,1.5-4.7c4.7-4.8,9.5-9.5,14.2-14.3
				c0.5-0.5,1-1,1.5-1.5c2.5-2.5,5-5,7.4-7.5c5.4-5.4,10.9-10.8,16.3-16.3c1-1,2.1-1.5,3.5-1.6c1.5-0.1,2.8,0.4,3.9,1.4
				c0.8,0.8,1.4,1.7,1.6,2.8c0,0.1,0.1,0.3,0.1,0.4C158.5,44,158.5,44.4,158.5,44.9z"/>
			<path class="st1" d="M79.1,89.2c-0.1,0-0.2,0-0.2,0c-1.7,0-3.3-0.2-4.9-0.6c-3.7-0.9-7-2.6-9.9-5.2c-3.7-3.3-6.2-7.5-7.3-12.4
				c-0.2-0.9-0.3-1.9-0.4-2.9c-0.1-0.8-0.1-1.6-0.1-2.4c0-7,0-14.1,0-21.1c0-1.2,0.3-2.3,0.9-3.3c0.9-1.3,2.1-2.1,3.7-2.4
				c0.2,0,0.3,0,0.5-0.1c0.2,0,0.3,0,0.5,0c0,0,0.1,0,0.1,0c2.2,0.2,3.6,1.3,4.5,3.3c0.3,0.7,0.5,1.5,0.5,2.4c0,7.2,0,14.5,0,21.7
				c0,1.8,0.4,3.6,1.2,5.3c1.7,3.5,4.5,5.7,8.3,6.6c0.9,0.2,1.9,0.3,2.8,0.3c1.3,0,2.5,0.4,3.5,1.3c2.3,1.9,2.6,5.4,0.6,7.6
				c-0.9,1-1.9,1.6-3.2,1.8c-0.2,0-0.4,0.1-0.6,0.1C79.4,89.2,79.2,89.2,79.1,89.2z"/>
			<path class="st1" d="M5.7,38.8c0.3,0,0.6,0.1,0.8,0.1c1.2,0.3,2.1,0.8,2.9,1.8c0.8,1,1.2,2.1,1.3,3.3c0,0.2,0,0.4,0,0.6
				c0,4,0,8.1,0,12.1c0,8.9,0,17.9,0,26.8c0,1.1-0.3,2.2-0.9,3.1C9,88.1,7.7,88.9,6,89.1c-1.6,0.2-3-0.3-4.2-1.3
				c-1-0.9-1.6-2.1-1.7-3.5c0-0.3,0-0.6,0-0.9C0,70.6,0,57.8,0,45c0-0.1,0-0.3,0-0.4c0-0.2,0-0.5,0-0.7c0-0.1,0.1-0.2,0.1-0.3
				c0.1-0.3,0.1-0.6,0.2-0.8c0.6-2,1.9-3.3,4-3.9c0.2-0.1,0.5-0.1,0.7-0.1C5.2,38.8,5.5,38.8,5.7,38.8z"/>
			<path class="st1" d="M45.4,38.8c0.3,0,0.6,0.1,0.9,0.2c2.1,0.5,3.8,2.3,4,4.4c0.2,1.8-0.3,3.3-1.6,4.6c-1.2,1.2-2.4,2.5-3.7,3.7
				c-1.7,1.7-3.4,3.4-5.2,5.2c-2.6,2.6-5.2,5.2-7.8,7.8c-1,1-2.1,2.1-3.1,3.1c-0.9,0.9-1.9,1.4-3.1,1.5c-1.6,0.2-3.1-0.2-4.3-1.4
				c-1-0.9-1.5-2-1.7-3.3c-0.2-1.7,0.3-3.2,1.5-4.4c1.2-1.2,2.4-2.4,3.6-3.6c5.2-5.2,10.4-10.4,15.7-15.6c0.3-0.3,0.5-0.6,0.8-0.8
				c0.8-0.7,1.8-1.2,2.9-1.3c0,0,0.1,0,0.1,0C44.9,38.8,45.1,38.8,45.4,38.8z"/>
			<path class="st1" d="M152.8,89.2c-0.3,0-0.5-0.1-0.8-0.1c-2.2-0.4-4-2.4-4.2-4.6c-0.3-2.3,1-4.6,3.1-5.5c1.8-0.8,3.5-0.7,5.2,0.4
				c1.2,0.8,2,2,2.3,3.4c0,0.2,0.1,0.3,0.1,0.5c0,0.4,0,0.7,0,1.1c0,0.2,0,0.3-0.1,0.5c-0.4,2.1-2.1,3.8-4.2,4.2
				c-0.2,0.1-0.5,0.1-0.7,0.1C153.3,89.2,153,89.2,152.8,89.2z"/>
			<path class="st1" d="M44.8,89.2c-0.3,0-0.6-0.1-0.8-0.1c-2.2-0.4-3.8-2.1-4.2-4.3c-0.5-2.5,0.9-4.8,2.9-5.8
				c3.4-1.6,7.3,0.5,7.7,4.2c0.3,3-1.7,5.4-4.4,5.9c-0.2,0-0.5,0.1-0.7,0.1C45.1,89.2,45,89.2,44.8,89.2z"/>
			<path class="st1" d="M97.3,38.8c0.2,0,0.4,0.1,0.6,0.1c2.3,0.4,4,2.2,4.4,4.4c0.4,2.6-1.1,5-3.4,5.8c-3.3,1.2-6.6-0.9-7.2-4.1
				c-0.5-3,1.4-5.6,4.1-6.2c0.2,0,0.4-0.1,0.6-0.1c0.1,0,0.1,0,0.2,0C96.8,38.8,97.1,38.8,97.3,38.8z"/>
		</g>
	</g>
	<g id="DSK9WA_1_">
		<g>
			<path class="st2" d="M79.9,89.1c0.1,0,0.3-0.1,0.4-0.1c2.2-0.4,4-2.2,4.3-4.5c0.4-2.9-1.6-5.6-4.5-6.1c-0.1,0-0.1,0-0.2-0.1
				c0.2,0,0.5,0,0.7-0.1c3-0.3,5.5-1.6,7.5-3.7c1.9-2,3-4.4,3.4-7.2c0.1-0.5,0.1-1,0.1-1.6c0-6.9,0-13.7,0-20.6c0-0.1,0-0.2,0-0.3
				c0.3,1.4,0.9,2.5,2.1,3.4c1.1,0.9,2.4,1.2,3.8,1.1c2.2-0.2,4.3-1.9,4.8-4.5c0,0.1,0,0.1,0,0.2c0,7.3,0,14.5,0,21.8
				c0,1.3-0.2,2.5-0.4,3.7c-0.6,3-1.8,5.8-3.5,8.4c-2.9,4.2-6.7,7.1-11.4,8.8c-1.7,0.6-3.5,1-5.4,1.2c-0.3,0-0.5,0-0.8,0.1
				c0,0-0.1,0-0.1,0C80.4,89.1,80.2,89.1,79.9,89.1z"/>
			<path class="st2" d="M113.8,38.8c0,0,0.1,0,0.1,0c1.3,0.1,2.4,0.6,3.4,1.6c5.3,5.3,10.5,10.5,15.8,15.8c0.1,0.1,0.2,0.1,0.2,0.2
				c-2.6,2.6-5.1,5.1-7.6,7.6c0,0-0.1-0.1-0.1-0.1c-5.3-5.3-10.6-10.6-15.9-15.9c-0.9-0.9-1.4-2-1.5-3.3c-0.1-1.7,0.4-3.1,1.6-4.2
				c0.9-0.9,2-1.4,3.3-1.5c0.1,0,0.1,0,0.2,0C113.4,38.8,113.6,38.8,113.8,38.8z"/>
			<path class="st2" d="M9.7,41.1c0.1,0,0.1,0,0.2,0.1c0.1,0,0.1,0.1,0.2,0.2c5,5,10,10,15,15c0.1,0.1,0.1,0.1,0.2,0.3
				c-0.1,0.1-0.2,0.1-0.2,0.2c-1.2,1.2-2.3,2.3-3.5,3.5c-1.2,1.2-1.7,2.6-1.6,4.2c0.1,1.1,0.5,2.1,1.2,2.9c0.1,0.1,0.1,0.1,0.1,0.2
				c0,0,0,0,0,0c-0.1,0-0.1-0.1-0.2-0.1c-3.4-3.4-6.8-6.8-10.2-10.2c-0.1-0.1-0.1-0.2-0.1-0.4c0-4.2,0-8.4,0-12.5
				c0-1.1-0.3-2.1-0.9-3.1C9.9,41.2,9.8,41.2,9.7,41.1C9.7,41.1,9.7,41.1,9.7,41.1z"/>
			<path class="st2" d="M50.4,45c0,12.7,0,25.3,0,38c-0.3-1.4-0.9-2.5-2-3.4c-1.1-0.9-2.4-1.3-3.8-1.1c-2.3,0.2-4.4,2-4.9,4.6
				c0-0.1,0-0.2,0-0.2c0-1,0-2,0-3c0-7.5,0-14.9,0-22.4c0-0.2,0.1-0.4,0.2-0.5c2.9-2.9,5.8-5.8,8.8-8.8c0.8-0.8,1.4-1.8,1.7-3
				C50.3,45.1,50.3,45.1,50.4,45C50.4,45,50.4,45,50.4,45z"/>
			<path class="st2" d="M156.2,79.3c-1.4-0.9-2.8-1.1-4.3-0.7c-1.1,0.3-2,0.9-2.8,1.7c-1.4,1.6-1.9,4.5,0,6.9
				c-0.2-0.1-15.5-15.4-15.6-15.6c2.5-2.5,5-5,7.5-7.5C141.1,64.2,156,79.1,156.2,79.3z"/>
		</g>
	</g>
</g>
</svg>
