<?xml version="1.0" encoding="utf-8"?>
<!-- Generator: Adobe Illustrator 19.2.1, SVG Export Plug-In . SVG Version: 6.00 Build 0)  -->
<svg version="1.1" id="Layer_1" xmlns="http://www.w3.org/2000/svg" xmlns:xlink="http://www.w3.org/1999/xlink" x="0px" y="0px"
	 viewBox="0 0 512 128" style="enable-background:new 0 0 512 128;" xml:space="preserve">
<style type="text/css">
	.st0{fill:none;}
	.st1{fill:#3E4F4E;}
</style>
<path id="Container" class="st0" d="M0,0h512v128H0V0z"/>
<g>
	<polygon class="st1" points="17.7,83.7 24.8,68.2 13.2,44.9 20.9,44.9 28.5,60.4 35.5,44.9 42.8,44.9 25,83.7 	"/>
	<path class="st1" d="M47.3,62.9c1.8,1.6,4.5,2.6,7.1,2.6c1.9,0,3.3-0.9,3.3-2.2c0-3.9-12.6-2.5-12.6-10.9c0-5,4.8-8.1,10-8.1
		c3.4,0,7.1,1.3,8.8,2.6l-3.3,5c-1.3-1-3.1-1.8-5-1.8c-1.9,0-3.5,0.8-3.5,2.1c0,3.4,12.6,2,12.6,11c0,5-4.9,8-10.3,8
		c-3.6,0-7.4-1.2-10.4-3.5L47.3,62.9z"/>
	<path class="st1" d="M90.2,70.8c-0.9,0.3-3,0.5-4.3,0.5c-4.2,0-7.2-1.4-9-3.7c-1.3-1.8-1.9-4.1-1.9-7.8v-9.1h-7.2v-5.9H75v-7.2h7
		v7.2h8.6v5.9h-8.6v9.9c0,1.6,0.3,2.6,0.9,3.3c0.7,0.8,1.8,1.3,3.5,1.3c1,0,2.4-0.2,2.8-0.3L90.2,70.8z"/>
	<path class="st1" d="M0,44.9v-12h7v12v5.9v9.9c0,1.6,0.3,2.6,0.9,3.3c0.7,0.8,1.8,1.3,3.5,1.3c1,0,2.4-0.2,2.8-0.3l1.1,5.9
		c-0.9,0.3-3,0.5-4.3,0.5c-4.2,0-7.2-1.4-9-3.7C0.6,65.9,0,63.6,0,59.9v-9.1V44.9z"/>
	<rect x="0" y="87.5" class="st1" width="113.3" height="7"/>
</g>
</svg>
