<?xml version="1.0" encoding="utf-8"?>
<!-- Generator: Adobe Illustrator 19.2.1, SVG Export Plug-In . SVG Version: 6.00 Build 0)  -->
<svg version="1.1" id="Layer_1" xmlns="http://www.w3.org/2000/svg" xmlns:xlink="http://www.w3.org/1999/xlink" x="0px" y="0px"
	 viewBox="0 0 512 128" style="enable-background:new 0 0 512 128;" xml:space="preserve">
<style type="text/css">
	.st0{fill:none;}
	.st1{fill:#3E4F4E;}
</style>
<g id="Container">
	<rect class="st0" width="512" height="128"/>
</g>
<g id="Logos">
	<g id="Declara">
		<g>
			<path class="st1" d="M0,62.7c0-0.3,0.1-0.6,0.1-0.9c0.6-7.3,3.3-13.7,8.1-19.1c4.5-5,10-8.3,16.5-9.9c2.8-0.7,5.6-0.9,8.5-0.9
				C37.7,32,42,33.1,46,35c0,0,0.1,0,0.2,0.1c0,5.6,0,11.3,0,17C46.1,52,46,52,46,51.9c-1.6-2.5-3.9-3.9-6.7-4.5
				c-4.8-1-9.1,0.1-12.7,3.5c-2.1,2-3.4,4.4-4.3,7.1c-0.8,2.6-1.1,5.3-0.9,8c0.1,2.3,0.6,4.6,1.5,6.8c1.2,2.8,3,5.1,5.6,6.8
				c2.5,1.6,5.2,2.2,8.2,2c2-0.1,3.8-0.6,5.5-1.6c1.9-1.1,3.4-2.6,4.4-4.5c0.1-0.1,0.1-0.2,0.3-0.4c0.2,0.5,0.1,0.8,0.1,1.2
				c0,0.4,0,0.8,0.1,1.2c0,0.4,0,0.8,0,1.1c0,0.4,0,0.8,0.1,1.2c0,0.4,0,0.8,0.1,1.2c1.8,0,3.6,0,5.3,0c0-0.3,0-0.6,0-0.9
				c0-1.1-0.1-2.1-0.1-3.2c0-12.5,0-25,0-37.6c0-0.2,0-0.3,0-0.5c0.2,0.1,0.3,0.2,0.4,0.3c5.7,4.8,9.5,10.9,11.2,18.2
				c0.7,3.1,0.9,6.3,0.6,9.5c-0.7,7.8-3.8,14.5-9.3,20.1c-4.5,4.5-9.9,7.5-16.2,8.8c-1.5,0.3-3,0.5-4.6,0.7c-0.1,0-0.3,0-0.4,0.1
				c-1.2,0-2.3,0-3.5,0c-0.1,0-0.3-0.1-0.4-0.1c-1.6-0.1-3.2-0.3-4.8-0.7c-7.2-1.6-13.2-5.3-17.9-10.9c-4.4-5.3-6.8-11.4-7.4-18.2
				c0-0.3-0.1-0.6-0.1-0.9C0,64.7,0,63.7,0,62.7z"/>
			<path class="st1" d="M226.8,45.5c0,0.2-0.1,0.4-0.1,0.5c-0.5,1.5-2,2.4-3.6,2.3c-1.5-0.1-2.9-1.3-3.1-2.8
				c-0.3-1.8,0.8-3.5,2.6-3.9c1.7-0.4,3.4,0.5,4.1,2.1c0.1,0.2,0.1,0.5,0.2,0.7C226.8,44.8,226.8,45.2,226.8,45.5z M223.3,47.8
				c1.6,0,2.9-1.3,2.9-2.8c0-1.6-1.3-2.8-2.9-2.8c-1.6,0-2.9,1.3-2.9,2.8C220.4,46.6,221.7,47.8,223.3,47.8z"/>
			<path class="st1" d="M74.4,65.6c0,0.3,0,0.6,0,0.9c0.1,1.6,0.4,3.1,1.1,4.6c1.2,2.6,3.3,4.2,6,5c1.1,0.3,2.2,0.5,3.4,0.5
				c2,0,4.1-0.1,6-0.6c0.8-0.2,1.7-0.5,2.5-0.8c0.1,0,0.2-0.1,0.4-0.1c0.3,1.3,0.7,2.7,1,4c-0.1,0.1-0.2,0.1-0.3,0.2
				c-1.9,0.8-3.8,1.3-5.9,1.6c-1.5,0.2-3,0.3-4.6,0.3c-2.5,0-4.9-0.5-7.2-1.6c-3.4-1.7-5.7-4.3-7-7.9c-0.8-2.1-1.1-4.4-1.1-6.6
				c0-3,0.6-6,1.9-8.7c1.4-3,3.5-5.3,6.5-6.8c2.4-1.2,4.9-1.6,7.5-1.4c1.4,0.1,2.8,0.4,4.1,0.9c2.3,0.9,4.1,2.5,5.4,4.6
				c1.1,1.8,1.8,3.8,2.1,5.9c0.3,1.7,0.4,3.4,0.2,5.1c0,0.3-0.1,0.7-0.1,1C89,65.6,81.7,65.6,74.4,65.6z M91,61.5
				C91,61.4,91,61.4,91,61.5v-0.2c0-1.8-0.3-3.4-1.1-5c-0.8-1.6-2-2.8-3.6-3.5c-1.4-0.6-2.9-0.7-4.4-0.5c-2.2,0.3-4,1.5-5.3,3.3
				c-1,1.3-1.6,2.8-1.9,4.3c-0.1,0.5-0.2,1-0.3,1.6C80,61.5,85.5,61.5,91,61.5z"/>
			<path class="st1" d="M196.8,54.7c-0.4-1.3-0.9-2.5-1.3-3.8c0.1-0.1,0.3-0.2,0.4-0.3c1.8-1,3.7-1.7,5.7-2.1
				c1.6-0.3,3.3-0.5,4.9-0.4c1.5,0,3,0.3,4.4,0.7c3,1,5,3.1,6,6c0.5,1.4,0.8,2.9,0.9,4.4c0.1,0.8,0.1,1.6,0.1,2.4
				c0,3.6,0,7.2,0,10.8c0,1.9,0,3.8,0.2,5.7c0.1,0.6,0.1,1.2,0.2,1.8c0,0.1,0,0.2,0,0.3c-0.3,0.1-4.7,0.1-5.1,0
				c-0.2-1.3-0.3-2.6-0.5-4c-0.1,0.1-0.2,0.2-0.3,0.3c-1.9,2.5-4.5,3.9-7.6,4.3c-2.2,0.3-4.4,0.2-6.5-0.8c-2.7-1.3-4.4-3.4-4.9-6.4
				c-0.5-2.5-0.1-4.9,1.3-7.1c0.9-1.5,2.2-2.6,3.7-3.5c1.7-1,3.6-1.6,5.5-2.1c2.5-0.5,5-0.7,7.5-0.8c0.2,0,0.4,0,0.7,0
				c0-0.1,0.1-0.1,0.1-0.2c0-1.3-0.1-2.5-0.5-3.7c-0.8-2.2-2.3-3.4-4.5-3.8c-1.3-0.3-2.7-0.2-4-0.1c-1.9,0.2-3.7,0.7-5.4,1.6
				C197.5,54.3,197.1,54.5,196.8,54.7z M212.3,64.3c-0.4,0-0.8,0-1.2,0c-2,0-4,0.2-6,0.6c-1.3,0.3-2.4,0.7-3.5,1.5
				c-0.9,0.6-1.7,1.5-2.1,2.5c-0.6,1.4-0.6,2.8-0.2,4.3c0.5,1.8,1.6,3,3.5,3.5c0.8,0.2,1.7,0.3,2.5,0.2c2-0.2,3.8-1,5.2-2.4
				c1.3-1.3,2-2.9,2-4.8c0-1.6,0-3.2,0-4.7C212.3,64.7,212.3,64.5,212.3,64.3z"/>
			<path class="st1" d="M169.3,80.4c-1.7,0-3.4,0-5.1,0c-0.2-1.3-0.4-2.6-0.5-3.9c-0.2-0.1-0.3,0.1-0.4,0.2
				c-0.7,0.9-1.4,1.6-2.3,2.2c-1.7,1.2-3.5,1.8-5.5,2.1c-1.8,0.2-3.5,0.1-5.3-0.4c-3.3-1.2-5.3-3.5-5.9-7c-0.5-3.1,0.2-5.9,2.3-8.3
				c1.1-1.3,2.5-2.2,4-2.8c1.8-0.8,3.6-1.3,5.5-1.6c2.2-0.4,4.3-0.5,6.5-0.5c0.1,0,0.2,0,0.3,0c0,0,0,0,0.1,0c0-0.2,0-0.4,0-0.5
				c0-1-0.1-2-0.4-2.9c-0.7-2.3-2.3-3.7-4.6-4.2c-1.4-0.3-2.7-0.2-4.1-0.1c-1.8,0.2-3.6,0.7-5.2,1.6c-0.4,0.2-0.7,0.4-1.1,0.6
				c-0.4-1.3-0.9-2.5-1.3-3.8c0.2-0.1,0.3-0.2,0.5-0.3c1.8-1,3.7-1.6,5.7-2c1.6-0.3,3.3-0.5,5-0.4c1.6,0.1,3.3,0.3,4.8,0.9
				c2.8,1.1,4.6,3.1,5.6,5.8c0.5,1.4,0.8,2.9,0.9,4.3c0.1,0.8,0.1,1.7,0.1,2.5c0,4.4,0,8.8,0,13.2c0,1.7,0.1,3.4,0.4,5.1
				C169.4,80.1,169.3,80.2,169.3,80.4z M163.3,64.3c-0.4,0-0.8,0-1.2,0c-2,0-4,0.2-6,0.6c-1.2,0.3-2.3,0.7-3.3,1.3
				c-1.3,0.9-2.3,2-2.6,3.6c-0.3,1.1-0.2,2.2,0,3.3c0.5,1.8,1.6,3,3.5,3.5c0.8,0.2,1.7,0.3,2.6,0.2c2-0.2,3.8-1,5.2-2.5
				c1.2-1.3,2-2.9,1.9-4.8c0-1.6,0-3.1,0-4.7C163.3,64.7,163.3,64.5,163.3,64.3z"/>
			<path class="st1" d="M46.2,64.2c0,1.1,0,2.1,0,3.2c-0.1,3.3-1.4,5.9-4.1,7.8c-1.7,1.2-3.6,1.7-5.7,1.6c-3.6-0.3-6.1-2.1-7.6-5.3
				c-0.8-1.5-1.2-3.2-1.3-4.9c-0.2-2.2-0.1-4.4,0.4-6.6c0.5-1.8,1.2-3.5,2.4-4.9c2-2.4,4.6-3.4,7.7-3.2c4,0.3,7.4,3.3,8.1,7.7
				c0.1,0.5,0.1,1,0.1,1.5C46.2,62.1,46.2,63.2,46.2,64.2z"/>
			<path class="st1" d="M125.2,75c0.3,1.5,0.6,2.9,1,4.3c-0.3,0.1-0.5,0.2-0.8,0.3c-1.7,0.7-3.4,1.1-5.2,1.3
				c-1.4,0.2-2.9,0.2-4.3,0.2c-3.4-0.2-6.5-1.2-9.2-3.5c-2.3-1.9-3.7-4.4-4.6-7.2c-0.6-2.2-0.8-4.5-0.7-6.8c0.1-2.2,0.6-4.4,1.6-6.4
				c2-4.2,5.3-6.9,9.8-8.2c2.3-0.7,4.7-0.9,7-0.7c1.8,0.1,3.6,0.5,5.4,1.2c0.2,0.1,0.5,0.2,0.7,0.3c0.1,0,0.2,0.1,0.3,0.2
				c-0.4,1.4-0.9,2.9-1.3,4.3c-0.1,0-0.1,0-0.2-0.1c-2-1-4.1-1.4-6.3-1.4c-1.7,0-3.4,0.3-5,1c-2.5,1.1-4.2,3-5.2,5.5
				c-0.9,2.1-1.2,4.3-1,6.6c0.1,1.7,0.5,3.3,1.2,4.8c1.6,3.3,4.2,5.2,7.8,5.8c2.9,0.4,5.7,0,8.4-1.1C124.8,75.1,124.9,75.1,125.2,75
				z"/>
			<path class="st1" d="M138.5,80.4c-1.9,0-3.8,0-5.7,0c0-15.4,0-30.8,0-46.2c1.9,0,3.8,0,5.6,0C138.6,34.5,138.6,79.6,138.5,80.4z"
				/>
			<path class="st1" d="M180.6,80.4c-1.9,0-3.8,0-5.7,0c0-0.2,0-0.3,0-0.4c0-3.9,0-7.9,0-11.8c0-3.6,0.1-7.2,0-10.8
				c0-2.6-0.1-5.2-0.2-7.8c0-0.2,0-0.4,0-0.5c0.3-0.1,4.4-0.1,5,0c0.1,2,0.2,4.1,0.3,6.2c0.1-0.1,0.2-0.1,0.2-0.1
				c0.1-0.1,0.1-0.3,0.2-0.5c0.8-2.1,2.1-3.7,4-5c1.5-1,3.2-1.4,5-1.4c0.4,0,0.8,0.1,1.2,0.2c0,1.8,0,3.6,0,5.4
				c-0.4,0-0.7-0.1-1-0.1c-1.6-0.1-3.2,0.1-4.6,0.9c-1.6,0.9-2.6,2.3-3.3,4c-0.7,1.5-0.9,3.2-0.9,4.8c0,5.5,0,11,0,16.5
				C180.6,80,180.6,80.1,180.6,80.4z"/>
			<path class="st1" d="M221.9,43.2c0.7,0,1.3,0,2,0c0.5,0,0.9,0.3,0.9,0.8c0.1,0.5-0.1,0.9-0.7,1.1c0,0-0.1,0-0.1,0.1
				c0.4,0.5,0.7,1,1.1,1.5c-0.3,0-0.6,0-0.8,0c-0.1,0-0.2-0.1-0.2-0.2c-0.2-0.3-0.4-0.6-0.6-0.9c-0.2-0.3-0.5-0.4-0.9-0.3
				c0,0.5,0,0.9,0,1.4c-0.3,0-0.5,0-0.7,0C221.9,45.5,221.9,44.4,221.9,43.2z M222.7,43.8c0,0.3,0,0.6,0,0.9c0.3,0,0.6,0,1,0
				c0.3,0,0.5-0.2,0.5-0.4c0-0.3-0.1-0.4-0.5-0.5S223,43.8,222.7,43.8z"/>
		</g>
	</g>
</g>
</svg>
