<?xml version="1.0" encoding="utf-8"?>
<!-- Generator: Adobe Illustrator 19.2.1, SVG Export Plug-In . SVG Version: 6.00 Build 0)  -->
<svg version="1.1" id="Layer_1" xmlns="http://www.w3.org/2000/svg" xmlns:xlink="http://www.w3.org/1999/xlink" x="0px" y="0px"
	 viewBox="0 0 512 128" style="enable-background:new 0 0 512 128;" xml:space="preserve">
<style type="text/css">
	.st0{fill:none;}
	.st1{fill:#3E4F4E;}
</style>
<g id="Container">
	<rect class="st0" width="512" height="128"/>
</g>
<g id="Logos">
	<g id="Captain_401">
		<g>
			<path class="st1" d="M201.1,61.1c0.1-4.1,0.6-8.1,2.5-11.8c1.8-3.5,4.6-5.8,8.6-6.5c5.6-0.9,10.8,1.8,13.2,7.6
				c1.9,4.6,2,9.3,1.8,14.1c-0.2,3.7-1.2,7.2-3.5,10.2c-1.9,2.5-4.3,4-7.4,4.6c-2.6,0.4-5.1,0-7.4-1c-2.2-1-3.8-2.8-5-4.9
				c-1.6-2.8-2.4-5.9-2.5-9.1C201.3,63.2,201.2,62.2,201.1,61.1z M205.8,61.1c0.1,1.2,0.2,2.4,0.3,3.6c0.1,2.6,0.8,5,2,7.3
				c1.9,3.7,6.7,5,10.2,2.5c2.3-1.6,3.2-4,3.8-6.6c0.7-2.7,0.7-5.5,0.6-8.3c-0.1-2.8-0.4-5.6-1.6-8.2c-1-2.2-2.5-4.1-5-4.6
				c-4.1-0.9-7.2,1.1-8.7,5C206.2,54.7,205.8,57.9,205.8,61.1z"/>
			<path class="st1" d="M64.6,76.6c0,3.7,0,7.3,0,11c-1.5,0-2.9,0-4.4,0c0-11.3,0-22.5,0-33.9c0.9,0,1.9-0.1,2.8,0
				c0.6,0.1,1,0.5,1,1.2c0.1,0.9,0.2,1.7,0.4,2.7c1.7-1.9,3.5-3.4,5.9-4c4.9-1.2,9.5,0.9,11.2,6.1c0.8,2.4,1.2,4.9,1,7.4
				c-0.1,3-0.9,6-2.8,8.4C78,77.6,76,79,73.2,79.4c-2.3,0.3-4.4,0.1-6.4-1C66.1,77.9,65.4,77.2,64.6,76.6z M78,65.6
				c-0.1-0.8-0.2-2.1-0.4-3.3c-0.3-1.5-0.9-3.1-2.1-4.1c-1.8-1.5-3.9-1.7-6.2-1.1c-1.8,0.5-3.1,1.7-4.3,3c-0.2,0.3-0.4,0.7-0.4,1
				c0,3.7,0,7.4,0,11.1c0,0.5,0.3,1,0.6,1.4c1.5,1.9,3.6,2.4,6,2.3c2.1-0.1,3.7-1,4.9-2.7C77.7,71.2,77.9,68.6,78,65.6z"/>
			<path class="st1" d="M30.2,74.3c-1.3,1-2.5,2-3.8,2.9c-1.8,1.3-3.9,1.9-6,2.1c-1.5,0.2-3,0.2-4.5,0.2c-3.3-0.1-6.4-1.2-9.1-3.1
				C3.3,73.8,1.3,70.2,0.4,66c-0.8-4.2-0.7-8.3,0.9-12.3c0.7-1.9,1.8-3.6,3.1-5.2c2.2-2.5,5-4.1,8.2-5c2.1-0.5,4.1-0.7,6.3-0.6
				c3.6,0.2,6.7,1.5,9.5,3.6c0.1,0.1,0.3,0.2,0.4,0.3c0.3,0.2,0.5,0.5,0.7,0.7c-0.6,0.7-1.1,1.4-1.6,2.1c-0.6,0.8-1.1,0.9-2,0.4
				c-1.6-1.1-3.3-2.1-5.3-2.5c-3.9-0.7-7.6-0.3-10.8,2.2c-2.8,2.2-4.2,5.2-4.6,8.6c-0.4,3.1-0.4,6.2,0.7,9.1c1.6,4.4,4.7,7.2,9.4,8
				c2.8,0.5,5.6,0.2,8.2-1c1.1-0.5,2.1-1.4,3-2.1c0.6-0.5,1.2-0.5,1.7,0.1C28.9,72.9,29.5,73.5,30.2,74.3z"/>
			<path class="st1" d="M192.8,43.3c0,7.6,0,15.2,0,22.8c1.8,0,3.6,0,5.4,0c0,1,0,1.8,0,2.7c0,0.6-0.3,0.9-1,0.9c-1.4,0-2.8,0-4.4,0
				c0,3.2,0,6.3,0,9.4c-1.3,0-2.6,0-3.9,0c0-3.1,0-6.2,0-9.4c-0.4,0-0.8,0-1.1,0c-4.8,0-9.7,0-14.5,0c-1.4,0-1.5-0.4-2-1.7
				c-0.6-1.8,0.5-2.7,1.3-3.7c5-6.8,10.1-13.5,15.2-20.3c0.4-0.5,0.8-0.8,1.5-0.7C190.5,43.3,191.6,43.3,192.8,43.3z M188.8,66.1
				c0-5.8,0-11.6,0-17.5c-4.3,5.9-8.6,11.7-12.9,17.5C180.4,66.1,184.6,66.1,188.8,66.1z"/>
			<path class="st1" d="M125.5,79.1c-0.9,0-1.6,0-2.3,0c-0.9,0-1.2-0.7-1.4-1.5c-0.2-0.6-0.2-1.2-0.4-1.9c-1,0.8-1.8,1.5-2.7,2.1
				c-3,1.8-6.3,2.2-9.6,1.1c-2-0.7-3.5-3.2-3.6-5.3c-0.3-3.5,2-5.6,4.7-6.8c2.9-1.2,5.9-1.8,9-1.9c0.6,0,1.3-0.2,2-0.3
				c0-1.9,0.3-3.9-0.9-5.7c-1.2-1.9-3.3-2.3-5.2-2.1c-1.9,0.2-3.4,1.1-4.9,2.2c-1.4,1-2.1,0.4-2.9-0.8c-0.2-0.3-0.3-0.6-0.5-1
				c1.7-1.9,3.8-3,6.3-3.6c2-0.5,4.1-0.6,6.2-0.1c3.3,0.8,5.2,3,6,6.3c0.2,1.1,0.4,2.3,0.4,3.4c0,4.9,0,9.8,0,14.7
				C125.5,78.3,125.5,78.7,125.5,79.1z M121.1,67.6c-1.8,0.2-3.5,0.3-5.2,0.6c-1.7,0.2-3.3,0.7-4.8,1.7c-1.3,0.9-1.6,2.1-1.4,3.5
				c0.2,1.3,0.9,2.3,2.3,2.7c2.9,0.8,5.5,0,7.8-1.9c0.5-0.4,1.2-1,1.2-1.5C121.2,71,121.1,69.3,121.1,67.6z"/>
			<path class="st1" d="M52.7,79.1c-0.7,0-1.2,0-1.8,0c-1.4,0-1.7-0.3-1.9-1.6c-0.1-0.5-0.2-1.1-0.4-1.7c-1,0.7-1.8,1.5-2.7,2
				c-3,1.8-6.3,2.2-9.6,1.1c-2-0.7-3.5-3.2-3.6-5.3c-0.3-3.6,2-5.6,4.7-6.8c2.9-1.2,5.9-1.8,9-1.9c0.6,0,1.3-0.2,2-0.3
				c0-1.9,0.3-3.9-0.9-5.7c-1.2-1.9-3.3-2.3-5.2-2.1s-3.4,1.1-4.9,2.2c-1.4,1-2.1,0.4-2.9-0.8c-0.2-0.3-0.3-0.6-0.5-1
				c1.7-1.9,3.8-3,6.3-3.6c2-0.5,4.1-0.6,6.2-0.1c3.3,0.8,5.2,3,6,6.3c0.2,1.1,0.4,2.3,0.4,3.4c0,4.9,0,9.8,0,14.7
				C52.7,78.3,52.7,78.7,52.7,79.1z M48.2,67.6c-0.4,0.1-0.7,0.1-0.9,0.1c-1.4,0.1-2.8,0.2-4.2,0.4c-1.7,0.2-3.3,0.7-4.8,1.7
				c-1.3,0.9-1.6,2.1-1.4,3.5c0.2,1.3,0.9,2.3,2.2,2.7c2.9,0.8,5.5,0,7.8-1.9c0.5-0.4,1.2-1,1.2-1.5C48.3,71,48.2,69.3,48.2,67.6z"
				/>
			<path class="st1" d="M166.8,79.1c-1.5,0-2.9,0-4.5,0c0-0.4,0-0.7,0-1c0-5.1,0-10.2,0-15.3c0-1.5-0.3-2.9-1.2-4.1
				c-1.2-1.5-2.9-1.9-4.6-1.8c-2.3,0.2-4.2,1.3-5.8,3c-0.4,0.4-0.6,0.8-0.6,1.4c0,5.6,0,11.1,0,16.7c0,0.3,0,0.7,0,1.1
				c-1.5,0-2.9,0-4.4,0c0-8.4,0-16.9,0-25.4c1,0,1.9-0.1,2.9,0c0.6,0.1,0.9,0.5,0.9,1.2c0.1,0.7,0.2,1.5,0.3,2.3
				c1.1-0.8,2.1-1.7,3.1-2.3c3.3-2.1,8-2.3,11.1,0.5c1.6,1.4,2.4,3.3,2.5,5.4c0.2,2.8,0.2,5.6,0.2,8.4
				C166.8,72.4,166.8,75.7,166.8,79.1z"/>
			<path class="st1" d="M242.8,49.2c-0.7,0.6-1.3,1-1.9,1.5c-1.4,1.2-2.7,2.3-4.1,3.5c-1,0.8-1.9,0.8-2.6-0.3
				c-0.4-0.5-0.7-1-1.1-1.6c1.3-1.1,2.6-2.3,3.9-3.5c1.1-0.9,2.2-1.8,3.3-2.8c1.1-0.9,2.2-1.9,3.2-2.9c0.1-0.1,0.3-0.2,0.5-0.2
				c1.1,0,2.2,0,3.3,0c0,10.9,0,21.8,0,32.7c2.4,0,4.7,0,7,0c0,1.1,0,2.2,0,3.3c-6.3,0-12.6,0-19,0c0-1.1,0-2.1,0-3.2
				c2.5,0,4.9,0,7.5,0C242.8,67,242.8,58.2,242.8,49.2z"/>
			<path class="st1" d="M102.5,77.2c-1.6,1.4-3.4,2.1-5.4,2.3c-1.6,0.1-3.1,0-4.5-0.9c-1.5-1-2.4-2.4-2.4-4.2
				C90.1,69.2,90.1,64,90,58.8c0-0.4,0-0.9,0-1.4c-0.9,0-1.9,0-2.8,0c-0.8,0-1.2-0.3-1.1-1.1c0-0.5,0-1,0-1.6
				c1.2-0.2,2.4-0.3,3.6-0.5c0.3,0,0.6-0.3,0.7-0.6c0.2-1.6,0.4-3.2,0.6-4.8c0.1-0.9,0.2-1.8,0.4-2.6c0.1-0.3,0.5-0.7,0.9-0.7
				c0.7-0.1,1.4,0,2.2,0c0,2.9,0,5.8,0,8.7c2.5,0,5,0,7.4,0c0,1.1,0,2.1,0,3.1c-2.4,0-4.8,0-7.4,0c0,0.4,0,0.8,0,1.1
				c0,4.6,0,9.1,0,13.7c0,0.7,0.1,1.4,0.3,2.1c0.5,1.7,2.3,1.9,3.9,1.4c0.5-0.1,0.9-0.5,1.4-0.7c0.5-0.3,0.8-0.2,1.1,0.3
				C101.6,75.8,102.1,76.5,102.5,77.2z"/>
			<path class="st1" d="M137.6,79.1c-1.5,0-2.9,0-4.3,0c0-8.5,0-16.9,0-25.4c1.5,0,2.9,0,4.3,0C137.6,62.1,137.6,70.6,137.6,79.1z"
				/>
			<path class="st1" d="M135.4,48.8c-1.7,0-3.1-1.4-3.1-3.1c0-1.4,1.2-3.2,3.1-3.2c1.8,0,3.5,1.6,3.3,3.3
				C138.5,47.4,137.4,48.9,135.4,48.8z"/>
		</g>
	</g>
</g>
</svg>
