<?xml version="1.0" encoding="utf-8"?>
<!-- Generator: Adobe Illustrator 19.2.1, SVG Export Plug-In . SVG Version: 6.00 Build 0)  -->
<svg version="1.1" id="Layer_1" xmlns="http://www.w3.org/2000/svg" xmlns:xlink="http://www.w3.org/1999/xlink" x="0px" y="0px"
	 viewBox="0 0 512 128" style="enable-background:new 0 0 512 128;" xml:space="preserve">
<style type="text/css">
	.st0{fill:none;}
	.st1{fill:#3E4F4E;}
</style>
<path id="Container" class="st0" d="M0,0h512v128H0V0z"/>
<g>
	<path class="st1" d="M0,40.5v48.2h55.4V40.5H0z M51.5,80.3h-8.4v0V60.4c0-2.9-1.3-5-4.7-5c-2.9,0-5.4,2-6.5,3.7v21.3h-8.4V60.4
		c0-2.9-1.3-5-4.7-5c-2.9,0-5.3,2-6.5,3.7v21.3H3.9V48.7h8.3v4.1c1.4-1.8,5.5-4.8,10.3-4.8c4.6,0,7.6,2.2,8.8,5.7
		c1.8-2.8,6-5.7,10.9-5.7c5.8,0,9.3,3.1,9.3,9.5V80.3z"/>
	<g>
		<path class="st1" d="M80,80.3V77c-2.2,2.6-5.9,4.1-10,4.1c-5,0-10.9-3.4-10.9-10.5c0-7.5,5.9-10.2,10.9-10.2c4.2,0,7.9,1.4,10,3.9
			v-4c0-3.2-2.7-5.3-6.9-5.3c-3.3,0-6.5,1.3-9.1,3.7l-3.3-5.8c3.9-3.5,8.8-5,13.8-5c7.3,0,13.9,2.9,13.9,12v20.4L80,80.3L80,80.3z
			 M80,72.7v-3.9C78.6,67,76,66,73.3,66c-3.3,0-5.9,1.8-5.9,4.8s2.7,4.7,5.9,4.7C76,75.5,78.6,74.5,80,72.7z"/>
		<path class="st1" d="M92.5,76.2l3.6-6c2.4,2.2,7,4.4,10.9,4.4c3.6,0,5.3-1.4,5.3-3.3c0-5.2-18.7-0.9-18.7-13.3
			c0-5.3,4.6-9.9,12.9-9.9c5.3,0,9.5,1.8,12.7,4.3l-3.3,5.9c-1.9-2-5.5-3.7-9.3-3.7c-3,0-5,1.3-5,3.1c0,4.6,18.8,0.7,18.8,13.5
			c0,5.8-5,10.1-13.7,10.1C101.1,81.1,95.8,79.2,92.5,76.2z"/>
		<path class="st1" d="M146.6,80.3V61.1c0-4.4-2.3-5.8-5.8-5.8c-3.3,0-5.8,1.8-7.2,3.7v21.3h-8.4V36.7h8.4v16.1
			c2-2.4,5.9-4.8,11-4.8c6.9,0,10.3,3.8,10.3,9.9v22.4H146.6z"/>
		<path class="st1" d="M161.3,88.4l3.7-5.9c2.5,2.7,5.9,3.9,9.9,3.9c4,0,8.8-1.7,8.8-8.1v-3.1c-2.5,3.1-5.9,4.9-9.8,4.9
			C166,80,160,74.5,160,64c0-10.3,5.9-16.1,13.9-16.1c3.8,0,7.3,1.6,9.8,4.8v-4.1h8.3v29.5c0,12-9.3,14.9-17.1,14.9
			C169.6,93.1,165.3,91.9,161.3,88.4z M183.7,69.1V58.9c-1.4-2-4.4-3.5-7.1-3.5c-4.8,0-8,3.3-8,8.7s3.3,8.7,8,8.7
			C179.3,72.7,182.3,71.1,183.7,69.1z"/>
		<path class="st1" d="M198.2,40.4c0-2.7,2.2-4.9,4.9-4.9c2.7,0,5,2.2,5,4.9c0,2.7-2.2,5-5,5C200.4,45.3,198.2,43.1,198.2,40.4z
			 M199,80.3V48.7h8.3v31.6H199z"/>
		<path class="st1" d="M235.5,80.3V61.2c0-4.4-2.3-5.9-5.8-5.9c-3.3,0-5.8,1.8-7.2,3.7v21.3h-8.3V48.7h8.3v4.1c2-2.4,5.9-4.8,11-4.8
			c7,0,10.3,3.9,10.3,10.1v22.3H235.5z"/>
	</g>
</g>
</svg>
