<?xml version="1.0" encoding="utf-8"?>
<!-- Generator: Adobe Illustrator 19.2.1, SVG Export Plug-In . SVG Version: 6.00 Build 0)  -->
<svg version="1.1" id="Layer_1" xmlns="http://www.w3.org/2000/svg" xmlns:xlink="http://www.w3.org/1999/xlink" x="0px" y="0px"
	 viewBox="0 0 512 128" style="enable-background:new 0 0 512 128;" xml:space="preserve">
<style type="text/css">
	.st0{fill:none;}
	.st1{fill:#3E4F4E;}
</style>
<g id="Container">
	<rect class="st0" width="512" height="128"/>
</g>
<g id="Logos">
	<g id="Flexport">
		<path class="st1" d="M93.5,47.5h13.4l4.9,8.7l5.3,8.5l-5.5,8.5l-5.7,9.3h-13l12.3-17.8L93.5,47.5z M0,47.7h27.4v7.6H11.9v7h12.5
			v8.5H11.9v11.5H0V47.7z M31.2,47.3h11.5V74h15.9v8.3H31.2V47.3z M62.4,47.7H91V56H74.2v4.7h14V69h-14v5h17.4v8.3H62.4V47.7z
			 M112.6,54.9l5.3-7.4h13.4l-13,16.5L112.6,54.9z M118.1,65.1L130,82.2h-13.4l-4.7-8.1C112,74.2,118.1,65.1,118.1,65.1z
			 M151.4,47.3c4.7,0,8.3,1.3,10.8,3.8s3.8,5.3,3.8,8.3v0.4c0,3-1.3,5.7-3.6,8.1c-2.3,2.5-5.9,3.8-10.6,3.8h-6.4V82h-11.9V47.3
			H151.4z M145.3,55.5v7.2h5.7c1.1,0,1.9-0.2,2.5-0.8s0.8-1.5,0.8-2.1v-0.6V59c-0.2-0.8-0.4-1.5-1.1-2.1c-0.6-0.8-1.5-1.1-2.8-1.1
			C150.6,55.7,145.3,55.5,145.3,55.5z M185.8,46.2c5.9,0,10.6,1.9,13.8,5.5s4.9,7.8,5.3,12.1v0.8c0,4.7-1.5,9.1-4.7,12.7
			C197,81.1,192.4,83,186,83s-11-1.9-14.2-5.7c-3.2-3.8-4.7-7.8-4.7-12.5v-0.2c0-4.5,1.7-8.7,4.9-12.5
			C175.2,48.3,179.6,46.4,185.8,46.2z M186,55.1c-1.9,0-3.4,0.8-4.9,2.3c-1.3,1.5-1.9,4-1.9,7.2c0,3.2,0.6,5.7,1.9,7.4
			c1.3,1.7,2.8,2.5,4.9,2.5c2.1,0,3.8-0.8,4.9-2.8s1.7-4.2,1.7-7.6c0-2.8-0.6-4.9-1.7-6.4c-1.1-1.5-2.3-2.3-3.6-2.5h-0.6
			C186.4,55.3,186.2,55.3,186,55.1z M207.2,47.3h18.2c5.3,0,8.9,1.1,11,3s3.2,4,3.4,6.4V57c0,2.1-0.6,4-1.7,5.9
			c-1.1,1.7-2.3,2.8-3.8,3c2.5,1.1,4,2.3,4.5,4c0.4,1.5,0.8,3.4,0.8,5.5v1.9c0,1.1,0,2.1,0.2,2.5c0.2,0.6,0.6,1.1,1.3,1.1V82H229
			c-0.2-1.1-0.4-2.1-0.4-3.2V76c0-1.5-0.2-2.5-0.4-3.4s-0.8-1.5-1.9-1.9c-0.4-0.2-0.8-0.2-1.5-0.4c-0.6-0.2-1.1-0.2-1.7-0.2h-4v11.7
			h-11.9C207.2,81.8,207.2,47.3,207.2,47.3z M218.7,55.9v6.2h6.8c1.1,0,1.9-0.2,2.3-0.8c0.6-0.6,0.8-1.3,0.8-2.1v-0.4
			c0-0.6-0.4-1.3-1.1-1.9c-0.6-0.6-1.5-0.8-2.5-0.8h-6.3V55.9z M242.8,47.3H275v9.5h-10.4v25.4h-11.9V56.8h-10.2
			C242.6,56.8,242.8,47.3,242.8,47.3z"/>
	</g>
</g>
</svg>
