<?xml version="1.0" encoding="utf-8"?>
<!-- Generator: Adobe Illustrator 19.2.1, SVG Export Plug-In . SVG Version: 6.00 Build 0)  -->
<svg version="1.1" id="Layer_1" xmlns="http://www.w3.org/2000/svg" xmlns:xlink="http://www.w3.org/1999/xlink" x="0px" y="0px"
	 viewBox="0 0 512 128" style="enable-background:new 0 0 512 128;" xml:space="preserve">
<style type="text/css">
	.st0{fill:none;}
	.st1{fill:#A9B1B0;}
	.st2{fill:#FFFFFF;}
	.st3{fill:#3E4F4E;}
	.st4{fill:#7E8A88;}
</style>
<path id="Container" class="st0" d="M0,0h512v128H0V0z"/>
<g>
	<g>
		<g>
			<path class="st1" d="M157.2,87.1c-18.6,0-22.1-12-25.5-23.6c-3.2-11-6.2-21.4-22-21.4s-18.8,10.4-22,21.4
				c-3.4,11.6-6.9,23.6-25.5,23.6H14.4v-1.7h47.9c17.4,0,20.5-10.9,23.9-22.4c3.2-11.1,6.6-22.6,23.6-22.6s20.4,11.5,23.6,22.6
				c3.3,11.5,6.5,22.4,23.9,22.4V87.1z"/>
		</g>
		<circle class="st1" cx="14.4" cy="86.3" r="4.6"/>
		<circle class="st2" cx="14.4" cy="86.3" r="2.2"/>
		<circle class="st1" cx="62.3" cy="86.3" r="4.6"/>
		<circle class="st1" cx="158.3" cy="86.3" r="4.6"/>
		<circle class="st1" cx="109.7" cy="41.5" r="6.1"/>
		<circle class="st3" cx="109.7" cy="41.5" r="5.1"/>
		<circle class="st1" cx="109.7" cy="41.5" r="3.2"/>
		<circle class="st4" cx="109.7" cy="41.5" r="2.4"/>
		<circle class="st2" cx="62.3" cy="86.3" r="2.2"/>
		<circle class="st2" cx="158.3" cy="86.3" r="2.2"/>
	</g>
	<g id="HV2HnI_1_">
		<g>
			<path class="st3" d="M17.5,39c4.2,0.1,8.1,1.1,11.2,4c2.6,2.4,4,5.5,4.6,8.9c0.9,5.1,0.7,10.2-1.3,15c-2.3,5.6-6.6,8.5-12.6,9.2
				c-2.7,0.3-5.4,0.2-8.1-0.5c-4.4-1.2-7.6-3.8-9.3-8c-2.6-6.4-2.8-13-0.1-19.4c2.3-5.3,6.5-8.2,12.2-9C15.2,39.2,16.4,39.1,17.5,39
				z M29.2,57.6c-0.2-1.6-0.3-3.3-0.6-4.9c-1-5-3.9-8.9-9.5-9.6c-5.4-0.7-10.6,1.4-13,7.2c-1.5,3.6-1.5,7.4-1,11.1
				C5.9,67.3,9.4,72.1,16,72.5c4.7,0.3,9.1-1.5,11.3-6C28.7,63.7,29.1,60.7,29.2,57.6z"/>
			<path class="st3" d="M62.5,50.2c0,0.9,0,1.6,0,2.3c0,6.3,0,12.5,0,18.8c0,1.3,0.1,1.4,1.4,1.5c0.6,0.1,1.2,0.2,1.9,0.3
				c0,0.9,0,1.7,0,2.7c-2.3,0-4.6,0-7,0c-0.1-1.1-0.3-2.2-0.4-3.4c-0.7,0.5-1.4,1-2,1.5c-2.8,1.9-5.8,2.9-9.3,2.4
				c-3.1-0.5-4.9-2.4-5.3-5.5c-0.1-1-0.2-2-0.2-3.1c0-4.2,0-8.4,0-12.5c0-1-0.3-1.6-1.3-1.7c-0.1,0-0.2-0.1-0.3-0.1
				c-2-0.5-2.1-0.6-1.5-2.6c0.1-0.2,0.4-0.5,0.6-0.5c2.3,0,4.6,0,7.1,0c0,0.5,0,0.9,0,1.2c0,5.6,0,11.3,0.1,16.9
				c0,0.6,0.1,1.3,0.3,1.8c0.6,2.2,2.4,3,5,2.4c2.5-0.6,4.4-2,6.1-3.9c0.2-0.2,0.3-0.7,0.3-1c0-4.3,0-8.6,0-12.8
				c0-0.8-0.2-1.3-1.1-1.4c-0.1,0-0.2-0.1-0.4-0.1c-1.9-0.5-2.1-0.8-1.5-2.7c0.1-0.2,0.4-0.5,0.6-0.5C57.9,50.2,60.1,50.2,62.5,50.2
				z"/>
			<path class="st3" d="M140.6,64.1c-5.6,0-11,0-16.5,0c-0.9,3,1.6,7.3,4.8,8.2c2.9,0.8,5.7,0.3,8.4-0.8c0.4-0.2,0.8-0.4,1.4-0.6
				c0.5,1.1,1,2.2,1.5,3.4c-3.4,1.9-7,2.5-10.8,2.2c-2.4-0.2-4.7-0.9-6.5-2.6c-2.2-2-3.1-4.6-3.5-7.5c-0.4-2.9-0.3-5.9,0.6-8.8
				c1.9-6,6.8-8.4,12.6-7.7c5.2,0.7,7.7,4.3,8.1,9.3C140.7,60.7,140.6,62.3,140.6,64.1z M124.1,60.6c4.1,0,8.1,0,12.1,0
				c0.5-4-1.8-7.1-5.4-7.3C126.8,53.1,124,56.2,124.1,60.6z"/>
			<path class="st3" d="M85.7,71.9c0.3,0.8,0.6,1.8,1,2.9c-1.9,0.8-3.7,1.4-5.7,1.5c-1.2,0.1-2.5,0-3.7-0.2
				c-2.8-0.5-4.4-2.7-4.4-5.6c0-5.2,0-10.4,0-15.6c0-1-0.3-1.3-1.2-1.2c-0.9,0.1-1.8,0-2.7,0c0-1,0-1.9,0-2.8
				c0.3-0.1,0.6-0.2,0.9-0.3c2.2-0.4,3.5-1.8,4-3.9c0.2-0.7,0.3-1.5,0.4-2.2c0.1-0.6,0.2-0.9,0.9-0.9c0.7,0.1,1.4,0,2.2,0
				c0,2.2,0,4.3,0,6.5c2.6,0,5.1,0,7.6,0c0,1.2,0,2.3,0,3.5c-2.5,0-5,0-7.5,0c0,0.4-0.1,0.6-0.1,0.9c0,4.8,0,9.6,0,14.3
				c0,0.3,0,0.7,0,1c0.1,1.8,1.2,2.9,3,2.8C82.1,72.5,83.8,72.2,85.7,71.9z"/>
			<path class="st3" d="M101.7,73.1c0,0.9,0,1.8,0,2.7c-4,0-8,0-12,0c0-0.9,0-1.7,0-2.7c0.8-0.1,1.5-0.2,2.3-0.2
				c1.3-0.1,1.4-0.2,1.4-1.4c0-7.3,0-14.7,0-22c0-2.1,0-4.2,0-6.3c0-0.8-0.3-1.3-1.1-1.5c-0.8-0.2-1.6-0.5-2.5-0.8
				c0.1-0.9,0.3-1.7,0.4-2.6c2.6,0,5.1,0,7.7,0c0,2.2,0,4.4,0,6.7c0,9,0,17.9,0,26.9c0,0.7,0.3,1,1,1.1
				C99.8,72.9,100.7,73,101.7,73.1z"/>
			<path class="st3" d="M163.2,57.7c-1.3-0.1-2.4-0.2-3.5-0.2c-0.2-1-0.3-2-0.5-3c-0.1-0.7-0.4-1-1.2-0.9c-2,0.4-3.6,1.5-5.1,2.9
				c-0.2,0.2-0.3,0.5-0.3,0.8c0,4.8,0,9.7,0,14.5c0,0.6,0.2,0.8,0.8,0.9c1.5,0.1,3,0.3,4.5,0.4c0,0.8,0,1.7,0,2.6
				c-4.3,0-8.7,0-13.1,0c0-0.9,0-1.7,0-2.7c0.7-0.1,1.4-0.2,2.1-0.3c0.7-0.1,1.1-0.3,1.1-1.2c0-5.5,0-11,0-16.5
				c0-0.8-0.3-1.3-1.1-1.4c-0.2,0-0.4-0.1-0.7-0.2c-1.7-0.6-1.7-0.6-1.5-2.4c0.1-0.6,0.3-0.9,1-0.9c1.7,0,3.3,0,5,0
				c0.6,0,0.8,0.2,0.9,0.8c0.1,0.9,0.3,1.7,0.4,2.7c0.8-0.7,1.6-1.4,2.4-2.1c2.4-2,5.2-2.2,8.2-1.6c0.2,0.1,0.6,0.4,0.6,0.6
				C163.2,52.9,163.2,55.2,163.2,57.7z"/>
			<path class="st3" d="M116.8,75.8c-4.3,0-8.4,0-12.5,0c0-0.9,0-1.8,0-2.7c0.8-0.1,1.6-0.2,2.4-0.2c1.5-0.1,1.6-0.2,1.6-1.7
				c0-3.5,0-7,0-10.5c0-1.7,0-3.4,0-5.1c0-1.5-0.1-1.6-1.5-2.1c-0.6-0.2-1.3-0.4-1.9-0.6c-0.1,0-0.1-0.1-0.2-0.1
				c0.1-0.8,0.3-1.7,0.4-2.5c2.5,0,5,0,7.6,0c0,0.4,0,0.8,0,1.2c0,6.6,0,13.3,0,19.9c0,1.3,0.1,1.4,1.4,1.5c0.4,0,0.7,0.1,1.1,0.1
				c1.5,0.2,1.5,0.2,1.5,1.8C116.8,75,116.8,75.4,116.8,75.8z"/>
		</g>
	</g>
</g>
</svg>
