<svg id="Layer_1" xmlns="http://www.w3.org/2000/svg" viewBox="0 0 512 128"><style>.st0{fill:none}.st1{fill:#3e4f4e}</style><path class="st0" d="M0 0h512v128H0z" id="Container"/><g id="Logos"><g id="Declara"><path class="st1" d="M0 62.7c0-.3.1-.6.1-.9.6-7.3 3.3-13.7 8.1-19.1 4.5-5 10-8.3 16.5-9.9 2.8-.7 5.6-.9 8.5-.9C37.7 32 42 33.1 46 35c0 0 .1 0 .2.1v17c-.1-.1-.2-.1-.2-.2-1.6-2.5-3.9-3.9-6.7-4.5-4.8-1-9.1.1-12.7 3.5-2.1 2-3.4 4.4-4.3 7.1-.8 2.6-1.1 5.3-.9 8 .1 2.3.6 4.6 1.5 6.8 1.2 2.8 3 5.1 5.6 6.8 2.5 1.6 5.2 2.2 8.2 2 2-.1 3.8-.6 5.5-1.6 1.9-1.1 3.4-2.6 4.4-4.5.1-.1.1-.2.3-.4.2.5.1.8.1 1.2 0 .4 0 .8.1 1.2v1.1c0 .4 0 .8.1 1.2 0 .4 0 .8.1 1.2h5.3v-.9c0-1.1-.1-2.1-.1-3.2V39.3v-.5c.2.1.3.2.4.3 5.7 4.8 9.5 10.9 11.2 18.2.7 3.1.9 6.3.6 9.5-.7 7.8-3.8 14.5-9.3 20.1-4.5 4.5-9.9 7.5-16.2 8.8-1.5.3-3 .5-4.6.7-.1 0-.3 0-.4.1h-3.5c-.1 0-.3-.1-.4-.1-1.6-.1-3.2-.3-4.8-.7-7.2-1.6-13.2-5.3-17.9-10.9C3.2 79.5.8 73.4.2 66.6c0-.3-.1-.6-.1-.9-.1-1-.1-2-.1-3zM226.8 45.5c0 .2-.1.4-.1.5-.5 1.5-2 2.4-3.6 2.3-1.5-.1-2.9-1.3-3.1-2.8-.3-1.8.8-3.5 2.6-3.9 1.7-.4 3.4.5 4.1 2.1.1.2.1.5.2.7-.1.4-.1.8-.1 1.1zm-3.5 2.3c1.6 0 2.9-1.3 2.9-2.8 0-1.6-1.3-2.8-2.9-2.8-1.6 0-2.9 1.3-2.9 2.8 0 1.6 1.3 2.8 2.9 2.8zM74.4 65.6v.9c.1 1.6.4 3.1 1.1 4.6 1.2 2.6 3.3 4.2 6 5 1.1.3 2.2.5 3.4.5 2 0 4.1-.1 6-.6.8-.2 1.7-.5 2.5-.8.1 0 .2-.1.4-.1.3 1.3.7 2.7 1 4-.1.1-.2.1-.3.2-1.9.8-3.8 1.3-5.9 1.6-1.5.2-3 .3-4.6.3-2.5 0-4.9-.5-7.2-1.6-3.4-1.7-5.7-4.3-7-7.9-.8-2.1-1.1-4.4-1.1-6.6 0-3 .6-6 1.9-8.7 1.4-3 3.5-5.3 6.5-6.8 2.4-1.2 4.9-1.6 7.5-1.4 1.4.1 2.8.4 4.1.9 2.3.9 4.1 2.5 5.4 4.6 1.1 1.8 1.8 3.8 2.1 5.9.3 1.7.4 3.4.2 5.1 0 .3-.1.7-.1 1-7.3-.1-14.6-.1-21.9-.1zM91 61.5c0-.1 0-.1 0 0v-.2c0-1.8-.3-3.4-1.1-5s-2-2.8-3.6-3.5c-1.4-.6-2.9-.7-4.4-.5-2.2.3-4 1.5-5.3 3.3-1 1.3-1.6 2.8-1.9 4.3-.1.5-.2 1-.3 1.6H91zM196.8 54.7c-.4-1.3-.9-2.5-1.3-3.8.1-.1.3-.2.4-.3 1.8-1 3.7-1.7 5.7-2.1 1.6-.3 3.3-.5 4.9-.4 1.5 0 3 .3 4.4.7 3 1 5 3.1 6 6 .5 1.4.8 2.9.9 4.4.1.8.1 1.6.1 2.4v10.8c0 1.9 0 3.8.2 5.7.1.6.1 1.2.2 1.8v.3c-.3.1-4.7.1-5.1 0-.2-1.3-.3-2.6-.5-4l-.3.3c-1.9 2.5-4.5 3.9-7.6 4.3-2.2.3-4.4.2-6.5-.8-2.7-1.3-4.4-3.4-4.9-6.4-.5-2.5-.1-4.9 1.3-7.1.9-1.5 2.2-2.6 3.7-3.5 1.7-1 3.6-1.6 5.5-2.1 2.5-.5 5-.7 7.5-.8h.7c0-.1.1-.1.1-.2 0-1.3-.1-2.5-.5-3.7-.8-2.2-2.3-3.4-4.5-3.8-1.3-.3-2.7-.2-4-.1-1.9.2-3.7.7-5.4 1.6-.3.4-.7.6-1 .8zm15.5 9.6h-1.2c-2 0-4 .2-6 .6-1.3.3-2.4.7-3.5 1.5-.9.6-1.7 1.5-2.1 2.5-.6 1.4-.6 2.8-.2 4.3.5 1.8 1.6 3 3.5 3.5.8.2 1.7.3 2.5.2 2-.2 3.8-1 5.2-2.4 1.3-1.3 2-2.9 2-4.8V65c-.2-.3-.2-.5-.2-.7zM169.3 80.4h-5.1c-.2-1.3-.4-2.6-.5-3.9-.2-.1-.3.1-.4.2-.7.9-1.4 1.6-2.3 2.2-1.7 1.2-3.5 1.8-5.5 2.1-1.8.2-3.5.1-5.3-.4-3.3-1.2-5.3-3.5-5.9-7-.5-3.1.2-5.9 2.3-8.3 1.1-1.3 2.5-2.2 4-2.8 1.8-.8 3.6-1.3 5.5-1.6 2.2-.4 4.3-.5 6.5-.5h.4v-.5c0-1-.1-2-.4-2.9-.7-2.3-2.3-3.7-4.6-4.2-1.4-.3-2.7-.2-4.1-.1-1.8.2-3.6.7-5.2 1.6-.4.2-.7.4-1.1.6-.4-1.3-.9-2.5-1.3-3.8.2-.1.3-.2.5-.3 1.8-1 3.7-1.6 5.7-2 1.6-.3 3.3-.5 5-.4 1.6.1 3.3.3 4.8.9 2.8 1.1 4.6 3.1 5.6 5.8.5 1.4.8 2.9.9 4.3.1.8.1 1.7.1 2.5v13.2c0 1.7.1 3.4.4 5.1.1-.1 0 0 0 .2zm-6-16.1h-1.2c-2 0-4 .2-6 .6-1.2.3-2.3.7-3.3 1.3-1.3.9-2.3 2-2.6 3.6-.3 1.1-.2 2.2 0 3.3.5 1.8 1.6 3 3.5 3.5.8.2 1.7.3 2.6.2 2-.2 3.8-1 5.2-2.5 1.2-1.3 2-2.9 1.9-4.8v-4.7c-.1-.1-.1-.3-.1-.5z"/><path class="st1" d="M46.2 64.2v3.2c-.1 3.3-1.4 5.9-4.1 7.8-1.7 1.2-3.6 1.7-5.7 1.6-3.6-.3-6.1-2.1-7.6-5.3-.8-1.5-1.2-3.2-1.3-4.9-.2-2.2-.1-4.4.4-6.6.5-1.8 1.2-3.5 2.4-4.9 2-2.4 4.6-3.4 7.7-3.2 4 .3 7.4 3.3 8.1 7.7.1.5.1 1 .1 1.5v3.1zM125.2 75c.3 1.5.6 2.9 1 4.3-.3.1-.5.2-.8.3-1.7.7-3.4 1.1-5.2 1.3-1.4.2-2.9.2-4.3.2-3.4-.2-6.5-1.2-9.2-3.5-2.3-1.9-3.7-4.4-4.6-7.2-.6-2.2-.8-4.5-.7-6.8.1-2.2.6-4.4 1.6-6.4 2-4.2 5.3-6.9 9.8-8.2 2.3-.7 4.7-.9 7-.7 1.8.1 3.6.5 5.4 1.2.2.1.5.2.7.3.1 0 .2.1.3.2-.4 1.4-.9 2.9-1.3 4.3-.1 0-.1 0-.2-.1-2-1-4.1-1.4-6.3-1.4-1.7 0-3.4.3-5 1-2.5 1.1-4.2 3-5.2 5.5-.9 2.1-1.2 4.3-1 6.6.1 1.7.5 3.3 1.2 4.8 1.6 3.3 4.2 5.2 7.8 5.8 2.9.4 5.7 0 8.4-1.1.2-.3.3-.3.6-.4zM138.5 80.4h-5.7V34.2h5.6c.2.3.2 45.4.1 46.2zM180.6 80.4h-5.7V80 68.2c0-3.6.1-7.2 0-10.8 0-2.6-.1-5.2-.2-7.8v-.5c.3-.1 4.4-.1 5 0 .1 2 .2 4.1.3 6.2.1-.1.2-.1.2-.1.1-.1.1-.3.2-.5.8-2.1 2.1-3.7 4-5 1.5-1 3.2-1.4 5-1.4.4 0 .8.1 1.2.2v5.4c-.4 0-.7-.1-1-.1-1.6-.1-3.2.1-4.6.9-1.6.9-2.6 2.3-3.3 4-.7 1.5-.9 3.2-.9 4.8V80c-.2 0-.2.1-.2.4zM221.9 43.2h2c.5 0 .9.3.9.8.1.5-.1.9-.7 1.1 0 0-.1 0-.1.1.4.5.7 1 1.1 1.5h-.8c-.1 0-.2-.1-.2-.2l-.6-.9c-.2-.3-.5-.4-.9-.3v1.4h-.7v-3.5zm.8.6v.9h1c.3 0 .5-.2.5-.4 0-.3-.1-.4-.5-.5s-.7 0-1 0z"/></g></g></svg>