<?xml version="1.0" encoding="utf-8"?>
<!-- Generator: Adobe Illustrator 19.2.1, SVG Export Plug-In . SVG Version: 6.00 Build 0)  -->
<svg version="1.1" id="Layer_1" xmlns="http://www.w3.org/2000/svg" xmlns:xlink="http://www.w3.org/1999/xlink" x="0px" y="0px"
	 viewBox="0 0 512 128" style="enable-background:new 0 0 512 128;" xml:space="preserve">
<style type="text/css">
	.st0{fill:none;}
	.st1{fill:#3E4F4E;}
	.st2{fill:#7E8A88;}
</style>
<path id="Container" class="st0" d="M0,0h512v128H0V0z"/>
<g>
	<g id="nxsMNA_1_">
		<g>
			<path class="st1" d="M117.3,78.5c0-3.2,0-6,0-8.8c0-2.4,0.1-4.7-0.1-7.1c-0.2-3.2-1.9-4.7-4.8-4.7c-3.1,0-4.8,1.5-4.9,4.8
				c-0.2,4.3-0.1,8.6-0.1,12.8c0,0.9,0,1.8,0,2.8c-2.1,0-4,0-6.2,0c0-2.8,0-5.4,0-8.1c0-2.4,0.1-4.7-0.1-7.1c-0.2-4.2-2.7-6.1-6.8-5
				c-2,0.5-3.3,1.6-3.2,4c0.1,5.3,0,10.7,0,16.1c-2.1,0-4,0-5.9,0c0-8.3,0-16.6,0-25.1c1.9,0.5,4.2-1.3,5.3,1.2
				c2.6-0.5,5.2-1.7,7.7-1.4c2.4,0.2,4.6,1.9,7.3,3c1.6-1.9,4.3-3.1,7.6-3.3c5.2-0.2,9.4,2.6,9.9,7.8c0.6,5.5,0.4,11.1,0.5,16.7
				c0,0.4-0.8,1.1-1.2,1.2C120.7,78.6,119.2,78.5,117.3,78.5z"/>
			<path class="st1" d="M139.3,78.9c-7.5,0-12.6-5.4-12.5-13.3c0.1-7.6,5.4-13,12.8-12.9c7.2,0.1,12.5,5.7,12.5,13.3
				C151.9,73.7,146.7,79,139.3,78.9z M145.8,65.9c0-4-1.7-6.9-4.5-7.7c-3.8-1.1-7.1,0.8-8.1,4.6c-1.3,5.2,0.6,10,4.5,10.8
				c0.2,0.1,0.5,0.1,0.7,0.1C142.9,74.3,145.8,71.3,145.8,65.9z"/>
			<path class="st1" d="M82,73.8c-0.2,1.9-0.4,3.4-0.6,4.7c-3.3,0.9-5,0.3-8-2.4c-2.2,2.1-5,3-8.1,2.8c-3-0.2-5.1-1.7-6-4.5
				c-1-2.8-0.9-5.6,1.4-7.9c2.3-2.3,5.2-3.3,8.4-3.9c1.2-0.2,2.4-0.3,3.6-0.5c0-4.6-2.3-5.1-11-2.7c-0.1-0.1-0.3-0.2-0.3-0.3
				c-0.7-4.6-0.7-4.6,3.9-5.8c1.2-0.3,2.4-0.5,3.6-0.6c5.9-0.5,9.3,2.2,9.9,8.1c0.3,3.2,0.2,6.4,0.3,9.6C79.1,72.3,79,74.2,82,73.8z
				 M72.8,66c-2.4,0.8-4.4,1.3-6.2,2.1c-1.7,0.8-2.1,2.6-1.5,4.3c0.6,1.9,2.3,2.1,4,1.7c1.7-0.4,3.6-0.7,3.7-3
				C72.9,69.7,72.8,68.2,72.8,66z"/>
			<path class="st1" d="M39.2,78.4c-2.1,0-3.9,0-5.9,0c0-8.3,0-16.6,0-25.1c2.1,0.5,4.4-1.2,5.7,1.1c2-0.6,4-1.4,6-1.6
				c5.8-0.4,9.4,2.9,10.2,9.1c0.2,1.2,0.1,2.4,0.1,3.7c0,4.2,0,8.4,0,12.7c-2.1,0-3.9,0-6.1,0c0-3.6,0-7,0-10.5c0-2-0.1-4-0.3-5.9
				c-0.2-1.8-1.2-3.3-3.2-3.7c-2.2-0.5-4.3-0.2-5.9,1.6c-0.5,0.5-0.6,1.5-0.6,2.3C39.2,67.4,39.2,72.7,39.2,78.4z"/>
			<path class="st1" d="M27.6,73c0,2.1,0,3.9,0,5.8c-9.2,0-18.3,0-27.6,0c0-2,0-3.8,0-5.8C9.2,73,18.3,73,27.6,73z"/>
		</g>
	</g>
	<g id="JQuffV_1_">
		<g>
			<path class="st2" d="M161.7,78.2c-2.1,0-3.9,0-5.9,0c0-8.3,0-16.5,0-25c1.9,0.5,4.2-1.3,5.1,1.3c2.6-0.6,5.1-1.4,7.7-1.6
				c2.7-0.2,4.9,1.4,6.2,3.2c2.7-1.1,5.1-2.7,7.7-3.1c5.7-1,10.1,1.9,10.8,7.6c0.6,5.8,0.1,11.7,0.1,17.7c-1.7,0-3.5,0-5.6,0
				c0-1.6,0-3.1,0-4.5c0-3.7,0.1-7.3-0.1-11c-0.2-3.4-1.9-4.9-4.8-4.9c-3.2,0-5,1.8-5.1,5.2c-0.1,4.2,0,8.4,0,12.6
				c0,0.8,0,1.6,0,2.6c-2.1,0-3.9,0-6,0c0-0.9,0-1.8,0-2.7c0-4.3,0.1-8.6-0.1-12.8c-0.2-4-2.7-5.6-6.6-4.7c-2.4,0.6-3.3,1.6-3.3,4.1
				C161.7,67.4,161.7,72.7,161.7,78.2z"/>
			<path class="st2" d="M241.5,54.3c0-4.5,0-8.9,0-13.4c2,0,3.9,0,5.9,0c0,12.4,0,24.8,0,37.2c-3.9,0.7-5,0.5-6-1.3
				c-2.7,2-5.9,2.7-9.1,1.7c-2.1-0.7-4.4-2-5.9-3.7c-3.9-4.3-4.1-12.1-0.7-17.1C229,52.9,233.6,51.9,241.5,54.3z M242.1,66
				c-0.3-1.5-0.4-2.8-0.8-4c-0.8-2.6-2.9-4.1-5.4-4.2c-2.6-0.1-4.8,1.4-5.8,4c-1.1,3.1-1.1,6.1,0.5,9.1c1.2,2.1,3.1,3.1,5.5,2.9
				c2.4-0.1,4-1.4,4.9-3.5C241.6,68.9,241.8,67.3,242.1,66z"/>
			<path class="st2" d="M219.7,66.8c-5.3,0-10.7,0-16.1,0c-0.7,5.8,4.3,7.8,14.9,6c1.5,3.6,1.1,4.7-2.6,5.4
				c-2.6,0.5-5.3,0.7-7.9,0.4c-7.4-0.9-11.9-7.4-10.7-15.1c1.2-7.4,7-11.8,14.2-10.5C217.8,54.1,221.5,60.1,219.7,66.8z M203.6,62.7
				c3.6,0,7,0,10.4,0c-0.1-3-1.4-4.6-4.1-4.9C206.7,57.5,204.5,59.1,203.6,62.7z"/>
			<path class="st2" d="M265.9,59.5c-1.4-4.1-1.1-4.7,2.7-5.9c0.7-0.2,1.5-0.4,2.2-0.5c8.3-1.4,12.2,1.8,12.3,10.2
				c0,2.4,0,4.9,0,7.3c0,1.8,0.2,3.5,2.6,3.3c0.2,0.3,0.3,0.5,0.3,0.6c-0.3,1.4-0.3,3.8-1,4.1c-2,0.7-4.2,0.3-6-1.3
				c-0.4-0.4-0.8-0.7-0.7-0.6c-2.9,0.8-5.5,1.8-8.2,2.1c-3.1,0.3-5.5-1.6-6.6-4.3c-1.2-3.2-0.7-6.5,2-8.3c2.4-1.6,5.3-2.4,8.1-3.4
				c1-0.4,2.2-0.3,3.3-0.5C276.8,57.4,273.6,56.6,265.9,59.5z M277.1,65.9c-2.4,0.8-4.5,1.2-6.3,2.2c-1.7,0.8-2.1,2.5-1.5,4.4
				c0.6,1.7,2,2,3.5,1.9c1.8-0.2,3.8-0.6,4.3-2.8C277.4,69.9,277.1,68.2,277.1,65.9z"/>
			<path class="st2" d="M27.5,40.8c0,1.9,0,3.8,0,5.8c-9.2,0-18.3,0-27.5,0c0-1.9,0-3.8,0-5.8C9.2,40.8,18.3,40.8,27.5,40.8z"/>
			<path class="st2" d="M27.5,54.7c-9.2,0-18.2,0-27.4,0c0-2,0-3.8,0-5.8c9.1,0,18.2,0,27.4,0C27.5,50.8,27.5,52.7,27.5,54.7z"/>
			<path class="st2" d="M27.5,56.9c0,1.9,0,3.7,0,5.7c-9.2,0-18.3,0-27.5,0c0-1.9,0-3.8,0-5.7C9.1,56.9,18.2,56.9,27.5,56.9z"/>
			<path class="st2" d="M27.5,70.8c-9.2,0-18.3,0-27.5,0C0,68.9,0,67,0,65c9.2,0,18.3,0,27.5,0C27.5,67,27.5,68.8,27.5,70.8z"/>
			<path class="st2" d="M253.3,53.3c1.6,0,3.1-0.1,4.6,0c0.4,0,1.2,0.6,1.2,1c0.1,7.9,0.1,15.8,0.1,23.9c-2.1,0-3.9,0-5.8,0
				C253.3,70,253.3,61.8,253.3,53.3z"/>
			<path class="st2" d="M259,49.3c-1.5,0-2.8,0-4.1,0c-0.5,0-1-0.1-1.7-0.2c0-1.9,0-3.7,0-5.6c1.9,0,3.7,0,5.7,0
				C259,45.3,259,47.1,259,49.3z"/>
		</g>
	</g>
</g>
</svg>
