<?xml version="1.0" encoding="utf-8"?>
<!-- Generator: Adobe Illustrator 19.2.1, SVG Export Plug-In . SVG Version: 6.00 Build 0)  -->
<svg version="1.1" id="Layer_1" xmlns="http://www.w3.org/2000/svg" xmlns:xlink="http://www.w3.org/1999/xlink" x="0px" y="0px"
	 viewBox="0 0 512 128" style="enable-background:new 0 0 512 128;" xml:space="preserve">
<style type="text/css">
	.st0{fill:none;}
	.st1{fill:#536261;}
	.st2{opacity:0.2;fill:#221F1F;enable-background:new    ;}
	.st3{fill:#3E4F4E;}
	.st4{fill:#A9B1B0;}
	.st5{opacity:0.2;}
	.st6{fill:#221F1F;}
	.st7{fill:#7E8A88;}
	.st8{opacity:0.2;enable-background:new    ;}
	.st9{fill:none;stroke:#221F1F;stroke-width:1.4013;stroke-miterlimit:10;}
</style>
<path id="Container" class="st0" d="M0,0h512v128H0V0z"/>
<g>
	<g>
		<path class="st1" d="M60.3,57.7c0.2-3.3-0.4-6.7-1.8-9.8c-1.5-3.5-3.9-6.5-6.8-8.8l-8-3.7c-4-1.1-7.1-0.5-7.1-0.5
			C34,31.2,32.1,29,29.8,28C29.9,45.1,23,46.3,23,61.7l3.6,0.4c0,0,2.1-1.3,2.2-1.4c3.1-5.9,9.5-7.2,10.5-6.9c1,0.1,1.9,0.4,2.5,1
			c2.5,1.9-0.2,10.6-11.6,14.8c-7.8,2.8-15.6,1.1-20.4-3c-2.3-1.9-4.3-4-5.7-6.5C2.6,57.4,2.1,55,2.1,55s-6,8.3,2.7,17.1
			c3.2,2.8,7.8,3.9,11.9,3.4c2.7-0.2,7.4-1.6,11-3.2c-0.5,1.1-0.8,2.1-1,2.7c-0.5,1.5-0.8,2.9-2,4.4l-1.5,5.8h2.9l5.6-8.3
			c2.7,0.7,5.3,1,7.8,1c0,1.8,0,7.3,0,7.3h0h1.7c0.2-0.6,0.7-3.2,3.3-5.8l0.6-2.5c2.9-0.7,5.6-2.2,7.9-4.2l0,0
			c3.2,3.9,2.9,8.6,2.9,8.6s0.9,1.5,1.2,1.8c0.3,0.6,0.4,1.2,0.6,1.8l2.6,0c0,0-0.2-4.3,0-7C60.3,70.1,60.3,61.4,60.3,57.7z"/>
		<path class="st2" d="M58.2,66c-1.2,2.5-3,4.9-5.2,6.7l0,0c0.7,0.8,1.1,1.5,1.4,2.3c3.1-3.7,5.1-8.2,5.9-12.8v-5.2
			C60.2,60.2,59.5,63.2,58.2,66z"/>
		<path class="st3" d="M55.9,81.4l1.2,1.9L57,85.3h3.3v-7.3c0,0-2.5,0-5.9-3C56,78.3,55.9,81.4,55.9,81.4z"/>
		<path class="st1" d="M26.6,45.1v-6.6C27.2,38.1,29,37,29,37C28.5,40.2,26.9,44.5,26.6,45.1z"/>
		<path class="st2" d="M26.6,45.1v-6.6C27.2,38.1,29,37,29,37C28.5,40.2,26.9,44.5,26.6,45.1z"/>
		<path class="st4" d="M50.5,28c-2.4,6.5-11.8,7.7-11.8,15.6l0,0.3l0,0l4.3-2.2l0,3.4l3.6-0.3c-1.2,1.7-1.5,3.2-1.3,4.7
			C51.1,44.5,53.9,36.8,50.5,28z"/>
		<path class="st4" d="M57.4,67.4c0-4.6-2.5-7.1-2.5-7.1l-2.2,0.9c-6.7-9.5-13.8-7.4-14-7.4c1.8,0,0.8,0,0,0c1.8,0,3.6,0.5,5,1.6
			c2,1.6,2.6,4.3,2.5,6.8c0.4,0,1.6,0,1.6,0s1.4,1.7,1.8,5.3c0.6,0,1.1,0,1.7,0c-0.7,2.1-2.2,3.9-4.1,4.9c-0.8,1.4-1.5,3.1-2,4.6
			C53.4,74.8,57.4,67.4,57.4,67.4z"/>
		<g class="st5">
			<path class="st6" d="M36.6,54.3L36.6,54.3C36.6,54.3,36.7,54.3,36.6,54.3C36.6,54.3,36.6,54.3,36.6,54.3z"/>
			<path class="st6" d="M40.8,62.2c0,0,5.3-4.5,5.3-10.4c-0.4-0.2-7.5,2-9.1,2.4c1.2-0.3,2.1-0.4,2.4-0.3c1.1,0.1,3.7,0.6,3.4,3.6
				C42.8,59.7,40.8,62.2,40.8,62.2z"/>
		</g>
		<path class="st7" d="M46.6,44.9L43,45.2l0-3.4L38.8,44l0,1.6l0,0l0,0c-3.2,0.9-5.9,2.2-8.1,3.8l0,0c-2.5,2.8-4.6,7.5-5.8,10.5
			l1.8,2.3l2.2-1.4c1.9-3.4,5.2-6.1,9.4-6.9l7.8-2.2C44.9,49.6,44.8,47.5,46.6,44.9z"/>
		<path class="st3" d="M42.3,85.3c0.2-0.9-0.1-3.6,2.3-5.8c0.2-0.8,0.3-1.5,0.6-2.5c-1.3,0.3-3.9,0.9-5.6,1c0,0,0,7.3,0,7.3l0,0
			L42.3,85.3z"/>
		<path class="st3" d="M23.2,85.3h2.9l5.6-8.3c-3,1.8-5,1.8-6.4,1.7l-0.6,0.8L23.2,85.3z"/>
		<g>
			<path class="st1" d="M38,85.3c0-0.1,0-7.3,0-7.3l-4-0.5c0.2,1.8,0.2,2.2,0.5,4.1c1.2,2.1,1.4,3.6,1.4,3.8H38z"/>
		</g>
		<path class="st3" d="M29.4,34.9c0.4-3.6,0.4-4.7,0.4-6.9c2.5,1.2,4.1,3.3,6,5.7C35.8,33.7,32.7,33.5,29.4,34.9z"/>
		<polygon class="st3" points="23,60.1 23,61.8 26.6,62.2 26.6,62.2 24.8,59.8 		"/>
		<path class="st3" d="M34.9,47C34.9,47,34.9,47,34.9,47c-0.6,0.2-1.1,0.5-1.6,0.7c0,0,0,0.1,0,0.1c-0.2,0.7,0.2,1.4,0.9,1.7
			c0.7,0.2,1.4-0.2,1.7-0.9C36,48,35.6,47.2,34.9,47z"/>
		<path class="st3" d="M35.8,85.3H38v-5.8c0,0-2.4,0.5-3.6,2.1C34.4,81.6,35.6,83.7,35.8,85.3z"/>
		<path class="st4" d="M31.7,77c2.4,0.6,5.4,1,7.8,1c0,0-0.2-1.9-0.5-3.8c-1.8,0.2-3.4,0.3-5.3,0C33.1,75.1,31.7,77,31.7,77z"/>
		<path class="st4" d="M4.5,71.9c0.4-0.1,2.6-0.4,4.1-1.1c-1.5-2.8-0.7-5.9-0.7-5.9C3.4,60.3,2.1,55,2.1,55
			C-1.4,59.7-0.5,67.2,4.5,71.9z"/>
		<path class="st8" d="M38,78l1.5,0c0,0-0.2-3.9-1.5-7.2"/>
		<path class="st2" d="M30.9,42.5l1.7-4.4L29.8,28c3.4,1.4,6.8,6.8,6.8,6.8l-2.7,0.5l0.8,3L30.9,42.5z"/>
		<path class="st9" d="M39.5,85.3"/>
		<polygon class="st8" points="33.7,74.2 33.9,77.5 31.7,77 		"/>
	</g>
	<g>
		<path class="st1" d="M98.1,55.2H86.7v7.7h10.9v5.3H86.7v15.7h-5.6v-34h17L98.1,55.2L98.1,55.2z"/>
		<path class="st3" d="M168.1,80.7c-7.6,0-13.8-6.2-13.8-13.8s6.2-13.8,13.8-13.8c3.5,0,6.7,1.3,9.1,3.5v-4.9
			c-2.9-1.7-5.8-2.5-8.9-2.5c-5.6,0-10.2,2.1-13.7,6.2c-2.9,3.4-4.3,7.3-4.3,11.6c0,4.8,1.7,9,5.1,12.4c3.4,3.4,7.6,5.1,12.5,5.1
			c3.2,0,6.3-0.8,9.3-2.5v-4.8C174.8,79.4,171.6,80.7,168.1,80.7z"/>
		<path class="st3" d="M181.3,71.9c0-3.4,1.2-6.3,3.7-8.7c2.5-2.4,5.5-3.7,8.9-3.7c3.4,0,6.4,1.2,8.8,3.7c2.5,2.5,3.7,5.4,3.7,8.8
			c0,3.5-1.2,6.4-3.7,8.8c-2.5,2.4-5.5,3.6-9,3.6c-3.1,0-5.9-1.1-8.4-3.2C182.7,78.9,181.3,75.8,181.3,71.9z M185,72
			c0,2.7,0.9,4.8,2.7,6.6c1.8,1.7,3.8,2.6,6.2,2.6c2.5,0,4.7-0.9,6.4-2.6c1.7-1.8,2.6-3.9,2.6-6.5c0-2.6-0.9-4.7-2.6-6.5
			c-1.7-1.7-3.8-2.6-6.3-2.6c-2.5,0-4.6,0.9-6.4,2.6C185.8,67.3,185,69.4,185,72z"/>
		<path class="st3" d="M282.5,63.4h-11.3v5.8h11v3.4h-11v8.1h11.3v3.4h-14.9V60h14.9V63.4z"/>
		<path class="st3" d="M296.5,73.8l7.5,10.3h-4.4l-6.9-9.9H292v9.9h-3.6V60h4.3c3.2,0,5.5,0.6,6.9,1.8c1.6,1.3,2.3,3.1,2.3,5.3
			c0,1.7-0.5,3.2-1.5,4.4C299.4,72.7,298.1,73.5,296.5,73.8z M292,71.1h1.2c3.4,0,5.2-1.3,5.2-3.9c0-2.5-1.7-3.7-5-3.7H292L292,71.1
			L292,71.1z"/>
		<path class="st3" d="M326.2,61.3v4.3c-2.1-1.8-4.3-2.6-6.5-2.6c-2.5,0-4.6,0.9-6.3,2.7c-1.7,1.8-2.6,3.9-2.6,6.5
			c0,2.5,0.9,4.7,2.6,6.4c1.7,1.7,3.8,2.6,6.3,2.6c1.3,0,2.4-0.2,3.3-0.6c0.5-0.2,1-0.5,1.6-0.8c0.5-0.4,1.1-0.8,1.7-1.3v4.4
			c-2.1,1.2-4.3,1.8-6.6,1.8c-3.4,0-6.4-1.2-8.8-3.6c-2.4-2.4-3.6-5.3-3.6-8.8c0-3.1,1-5.8,3-8.2c2.5-2.9,5.7-4.4,9.7-4.4
			C322.1,59.5,324.2,60.1,326.2,61.3z"/>
		<polygon class="st3" points="250.1,76.9 239.5,58.2 239.5,84.1 243.1,84.1 243.1,72.5 250,84.1 257.2,72.1 257.2,84.1 260.9,84.1 
			260.9,58.2 		"/>
		<polygon class="st3" points="222,76.9 211.3,58.2 211.3,84.1 215,84.1 215,72.5 221.9,84.1 229.1,72.1 229.1,84.1 232.7,84.1 
			232.7,58.2 		"/>
		<path class="st3" d="M347,63.4h-11.3v5.8h11v3.4h-11v8.1H347v3.4h-14.9V60H347V63.4z"/>
		<polygon class="st1" points="140.7,71 146.9,60.1 140.7,60.1 137.6,65.6 134.3,60.1 127.9,60.1 134.4,71.1 127,84 133.3,84 
			137.6,76.6 141.9,84 148.2,84 		"/>
		<path class="st1" d="M122.3,63.3c-2.4-2.4-5.3-3.6-8.7-3.6c-3.4,0-6.4,1.2-8.8,3.6c-2.4,2.4-3.7,5.3-3.7,8.6
			c0,3.8,1.4,6.9,4.1,9.3c2.4,2.1,5.2,3.2,8.3,3.2c3.4,0,6.4-1.2,8.9-3.6c2.4-2.4,3.7-5.3,3.7-8.7C125.9,68.7,124.7,65.7,122.3,63.3
			z M120.7,72c0,2.1-0.7,3.8-2.1,5.3c-1.4,1.4-3.1,2.1-5.2,2.1c-1.9,0-3.5-0.7-5-2.1c-1.5-1.4-2.2-3.1-2.2-5.3
			c0-2.1,0.7-3.8,2.1-5.2c1.4-1.4,3.1-2.1,5.2-2.1c2.1,0,3.7,0.7,5.1,2.1C120,68.2,120.7,69.9,120.7,72z"/>
	</g>
</g>
</svg>
