<?xml version="1.0" encoding="utf-8"?>
<!-- Generator: Adobe Illustrator 19.2.1, SVG Export Plug-In . SVG Version: 6.00 Build 0)  -->
<svg version="1.1" id="Layer_1" xmlns="http://www.w3.org/2000/svg" xmlns:xlink="http://www.w3.org/1999/xlink" x="0px" y="0px"
	 viewBox="0 0 256 256" style="enable-background:new 0 0 256 256;" xml:space="preserve">
<style type="text/css">
	.st0{fill:none;stroke:#F1C21A;stroke-width:8.3394;stroke-miterlimit:10;}
	.st1{fill:none;stroke:#F1C21A;stroke-width:8.3394;stroke-miterlimit:10;stroke-dasharray:16.6788;}
</style>
<g id="Icons">
	<g id="Self-Aware">
		
			<ellipse transform="matrix(0.7071 -0.7071 0.7071 0.7071 -77.0472 191.6299)" class="st0" cx="192.8" cy="188.8" rx="31.7" ry="31.7"/>
		<ellipse transform="matrix(0.7071 -0.7071 0.7071 0.7071 -23.6818 62.8312)" class="st0" cx="64" cy="60" rx="31.7" ry="31.7"/>
		<ellipse transform="matrix(0.7071 -0.7071 0.7071 0.7071 -23.6818 62.8312)" class="st0" cx="64" cy="60" rx="31.7" ry="31.7"/>
		<path class="st1" d="M168.6,210.8c32.5-15.1,55.1-48.1,55.1-86.3c0-50.4-39.2-91.6-88.8-94.9"/>
		<path class="st1" d="M88.3,38.2c-32.5,15.1-55,48.1-55,86.3c0,50.3,39.1,91.6,88.6,94.9"/>
		<polygon class="st0" points="128.4,109 158.2,109 143.3,134.8 128.4,160.6 113.5,134.8 98.6,109 		"/>
	</g>
</g>
</svg>
