<?xml version="1.0" encoding="utf-8"?>
<!-- Generator: Adobe Illustrator 19.2.1, SVG Export Plug-In . SVG Version: 6.00 Build 0)  -->
<svg version="1.1" id="Andela" xmlns="http://www.w3.org/2000/svg" xmlns:xlink="http://www.w3.org/1999/xlink" x="0px" y="0px"
	 viewBox="0 0 256 256" style="enable-background:new 0 0 256 256;" xml:space="preserve">
<style type="text/css">
	.st0{fill:#3E4F4E;}
	.st1{fill:none;}
</style>
<g id="gERAmC_1_">
	<g>
		<path class="st0" d="M167.4,112.5c-1-0.3-1.9-0.5-2.9-0.8c-2.3-0.7-4.6-1.4-7-2.1c-0.1,0-0.2-0.1-0.3-0.1
			c0.4-3.6,0.7-7.2,1.1-10.8c-1.3,0.1-2.6,0.3-3.8,0.4c-2.1,0.2-4.3,0.4-6.4,0.7c-0.5,0-0.7-0.1-0.8-0.5c-0.9-3-1.8-6-2.6-9
			c-0.1-0.2-0.1-0.3-0.2-0.6c-1.3,0.7-2.5,1.4-3.8,2c-1.7,0.9-3.4,1.8-5.1,2.8c-0.3,0.2-0.5,0.2-0.8-0.2c-2.1-2.7-4.3-5.3-6.5-8.1
			c-0.3,0.4-0.7,0.8-1,1.2c-1.9,2.3-3.7,4.6-5.6,6.9c-0.3,0.4-0.5,0.3-0.9,0.1c-2.9-1.6-5.8-3.1-8.7-4.8c-1,3.4-2,6.7-3,10.1
			c-3.6-0.4-7.2-0.7-10.9-1.1c0.4,3.6,0.7,7.2,1.1,10.9c-3.4,1-6.7,2-10.1,3c0.9,1.7,1.8,3.4,2.7,5c0.7,1.2,1.3,2.5,2,3.7
			c0.3,0.4,0.2,0.7-0.2,0.9c-2.5,2-5,4-7.5,6.1c-0.2,0.1-0.3,0.3-0.5,0.4c1.1,0.9,2.3,1.8,3.4,2.8c1.6,1.3,3.1,2.5,4.7,3.8
			c0.3,0.3,0.3,0.5,0.1,0.8c-1.5,2.6-2.9,5.3-4.3,7.9c-0.2,0.3-0.3,0.6-0.5,0.9c3.1,0.9,6.2,1.8,9.3,2.7c0.9,0.3,0.9,0.2,0.8,1.1
			c-0.4,3.3-0.7,6.6-1.1,10c1.1-0.1,2.1-0.2,3.1-0.3c2.2-0.2,4.5-0.5,6.7-0.7c1.1-0.1,1.1-0.1,1.4,1c0.9,3,1.8,6,2.7,9
			c-1.1,0.1-2.3,0.2-3.4,0.3c-2.2,0.2-4.4,0.4-6.7,0.6c-2.2,0.2-4.4,0.4-6.6,0.6c-1.5,0.1-3,0.3-4.6,0.3c-1.4,0-2.5-0.5-3-1.9
			c-0.3-0.7-0.3-1.5-0.3-2.3c0.1-2.2,0.3-4.4,0.5-6.6c0.2-2.2,0.4-4.5,0.6-6.7c0.2-2.1,0.3-4.3,0.5-6.4c0-0.4-0.1-0.7-0.4-1
			c-4.9-4.1-9.7-8.2-14.6-12.3c-1-0.8-1.8-1.7-2.2-2.9c0-0.4,0-0.7,0-1.1c0.4-1.1,1.1-1.9,1.9-2.7c5-4.2,10-8.4,15-12.7
			c0.2-0.1,0.3-0.4,0.3-0.6c-0.1-1.3-0.2-2.5-0.3-3.8c-0.2-2.2-0.4-4.4-0.6-6.6s-0.4-4.4-0.6-6.6c-0.1-1.4-0.2-2.9-0.2-4.3
			s0.9-2.5,2.3-2.7c1.1-0.2,2.3-0.2,3.4-0.1c2.2,0.1,4.4,0.4,6.6,0.5c2.2,0.2,4.4,0.4,6.6,0.6c1.7,0.1,3.5,0.3,5.2,0.4
			c0.2,0,0.5-0.1,0.6-0.2c3.8-4.5,7.6-9,11.4-13.4c1.2-1.4,2.2-3,4-3.5c0.4,0,0.7,0,1.1,0c1.7,0.5,2.7,1.9,3.8,3.2
			c3.9,4.6,7.7,9.1,11.6,13.7c0.2,0.2,0.5,0.3,0.7,0.3c2.2-0.1,4.4-0.3,6.5-0.5s4.3-0.4,6.4-0.6c2.3-0.2,4.6-0.4,6.9-0.5
			c0.6,0,1.2,0,1.8,0.1c1.6,0.3,2.6,1.6,2.5,3.2c0,1.5-0.2,3.1-0.3,4.6c-0.2,2.2-0.4,4.4-0.6,6.6c-0.2,2.2-0.4,4.4-0.6,6.6
			C167.6,110.3,167.5,111.4,167.4,112.5L167.4,112.5z"/>
		<path class="st0" d="M127.5,185c-1.8-0.8-2.9-2.4-4.1-3.8c-3.7-4.4-7.4-8.8-11.2-13.2c-0.1-0.1-0.1-0.1-0.1-0.2
			c3.1-1.7,6.2-3.3,9.3-5c2.3,2.8,4.6,5.6,6.9,8.5c2.3-2.8,4.6-5.6,6.9-8.5c3.1,1.7,6.2,3.4,9.3,5c-1,1.2-2,2.4-3,3.5
			c-3.3,3.9-6.6,7.7-9.8,11.6c-0.7,0.9-1.5,1.6-2.6,2C128.5,185,128,185,127.5,185z"/>
		<path class="st0" d="M167.4,112.5c1,0.9,2,1.7,3,2.6c4.2,3.6,8.4,7.1,12.6,10.7c0.9,0.8,1.6,1.7,1.6,3c0,1.1-0.5,1.9-1.2,2.6
			c-1.1,1.1-2.3,2.1-3.5,3.1c-4,3.4-8,6.8-12,10.2c-0.1,0.1-0.2,0.2-0.4,0.3c-1.7-3.1-3.3-6.2-5-9.3c2.8-2.3,5.6-4.6,8.5-6.9
			c-2.8-2.3-5.6-4.6-8.5-6.9C164,118.7,165.7,115.6,167.4,112.5L167.4,112.5z"/>
		<path class="st0" d="M158.4,158.8c-0.4-3.7-0.7-7.2-1.1-10.9c3.3-1,6.7-2,10.1-3c0.1,1.4,0.2,2.8,0.4,4.1c0.2,2.2,0.4,4.5,0.6,6.7
			c0.2,2.1,0.4,4.3,0.5,6.4c0.1,1.2,0.2,2.4,0.2,3.6c0,2.4-1.3,3.8-3.7,3.7c-1.9-0.1-3.8-0.2-5.7-0.4c-2.2-0.2-4.4-0.4-6.6-0.6
			c-2.2-0.2-4.4-0.4-6.6-0.6c-0.6-0.1-1.2-0.1-1.9-0.2c1-3.4,2-6.8,3-10.1C151.1,158,154.7,158.4,158.4,158.8z"/>
	</g>
</g>
<rect class="st1" width="256" height="256"/>
</svg>
