<?xml version="1.0" encoding="utf-8"?>
<!-- Generator: Adobe Illustrator 19.2.1, SVG Export Plug-In . SVG Version: 6.00 Build 0)  -->
<svg version="1.1" id="LendUp" xmlns="http://www.w3.org/2000/svg" xmlns:xlink="http://www.w3.org/1999/xlink" x="0px" y="0px"
	 viewBox="0 0 256 256" style="enable-background:new 0 0 256 256;" xml:space="preserve">
<style type="text/css">
	.st0{fill:#3E4F4E;}
	.st1{fill:none;}
</style>
<g id="AZKqwj_1_">
	<g>
		<path class="st0" d="M157.5,104.7c3,0,5.8,0,8.9,0c0,0.3,0,0.7,0,1c0,12.6,0,25.2,0,37.9c0,0.8,0.1,1.6,0.3,2.3
			c0.6,2.4,2.1,3.4,4.9,3.3c2.2-0.1,3.7-1.4,4-3.7c0.1-0.7,0.2-1.5,0.2-2.3c0-12.6,0-25.1,0-37.7c0-0.2,0-0.5,0-0.9
			c-1.6,0-3.1,0-4.8,0c3.1-5.4,6.2-10.7,9.3-16c3.1,5.4,6.1,10.6,9.2,16c-1.7,0-3.2,0-4.9,0c0,0.5,0,0.8,0,1.2c0,12.5,0,25,0,37.5
			c0,2.5-0.4,4.8-1.5,7c-1.4,2.9-3.8,4.9-6.9,5.8c-3.6,1.1-7.2,1.1-10.7-0.1c-4.7-1.6-7.2-5.1-7.8-10c-0.2-1.3-0.2-2.6-0.2-3.9
			c0-12.1,0-24.3,0-36.4C157.5,105.5,157.5,105.2,157.5,104.7z"/>
		<path class="st0" d="M189.5,117.8c2.6,0,5,0,7.5,0c0,1.3,0,2.6,0,3.8c0.1,0,0.1,0.1,0.2,0.1c0.3-0.3,0.6-0.7,0.9-1
			c1.9-2.2,4.1-3.6,7.1-3.6c4.2-0.1,7.1,2,8.2,6.2c0.3,1.2,0.5,2.4,0.5,3.7c0,6.8,0,13.6,0,20.4c0,1.8-0.4,3.6-1.2,5.2
			c-2.2,4.8-7.4,5.2-10.7,3.6c-1.3-0.6-2.5-1.6-3.7-2.5c-0.3-0.2-0.5-0.4-0.8-0.7c0,5.2,0,10.2,0,15.4c-0.7,0-1.4,0-2,0
			c-1.7,0-3.4,0-5.1,0c-0.8,0-1-0.2-1-1c0-10.2,0-20.5,0-30.7c0-6,0-11.9,0-17.9C189.5,118.6,189.5,118.2,189.5,117.8z M197.6,137
			c0,3.6,0,7.2,0,10.7c0,0.3,0.1,0.8,0.3,0.9c0.9,0.6,1.8,1.1,2.7,1.5c2.6,0.9,4.5-0.2,5-2.9c0.2-1.2,0.3-2.4,0.3-3.6
			c0-4.4,0.1-8.8,0-13.2c0-1.5-0.2-3-0.6-4.4c-0.4-1.7-1.7-2.4-3.4-2.3c-1.4,0.1-2.6,0.8-3.8,1.5c-0.5,0.3-0.6,0.6-0.6,1.2
			C197.6,129.9,197.6,133.5,197.6,137z"/>
		<path class="st0" d="M143.4,121c0-5.5,0-10.8,0-16.2c2.7,0,5.2,0,7.9,0c0,17.1,0,34.2,0,51.4c-2.4,0-4.9,0-7.4,0
			c0-1.3,0-2.5,0-3.8c-0.1,0-0.1-0.1-0.2-0.1c-0.3,0.3-0.6,0.6-0.8,1c-2.1,2.6-4.8,3.9-8.2,3.7c-3.6-0.2-6.1-2.3-7.1-6.1
			c-0.4-1.6-0.6-3.2-0.6-4.8c-0.1-6.1-0.1-12.2,0-18.3c0-1.7,0.2-3.4,0.7-5c1.6-5.1,6.9-7.2,11.6-4.6C140.7,119,142,120,143.4,121z
			 M143.4,137.1c0-3.5,0-7.1,0-10.6c0-0.3-0.1-0.8-0.3-0.9c-1.1-0.6-2.2-1.4-3.4-1.7c-2-0.6-3.6,0.4-4.2,2.4
			c-0.3,0.9-0.4,1.9-0.5,2.9c-0.1,4.9-0.1,9.8,0,14.7c0,1.4,0.2,2.8,0.5,4.2c0.5,2,2.2,2.9,4.1,2.3c1.1-0.3,2.1-0.9,3.1-1.4
			c0.6-0.3,0.7-0.7,0.7-1.3C143.4,144.1,143.4,140.6,143.4,137.1z"/>
		<path class="st0" d="M85.3,143.4c2.7,0,5.3,0,7.9,0c0.2,7.1-3,13.1-10.9,13.5c-1.7,0.1-3.5,0-5.1-0.3c-4.3-0.9-6.9-3.6-7.9-7.7
			c-0.5-1.8-0.7-3.8-0.8-5.7c-0.1-4.5-0.1-9,0.1-13.4c0.1-1.7,0.4-3.5,0.9-5.1c1.3-4.3,4.4-6.6,8.8-7.3c2.4-0.4,4.7-0.3,7,0.4
			c3.9,1.1,6.3,3.7,7.3,7.6c0.4,1.8,0.6,3.7,0.7,5.5c0.1,2.3,0,4.6,0,6.8c0,0.3,0,0.5-0.1,0.9c-5.6,0-11.1,0-16.8,0c0,2-0.1,4,0,6
			c0,1.1,0.2,2.2,0.5,3.2c0.6,1.8,1.9,2.7,3.8,2.7s3.3-0.8,3.9-2.6c0.4-1.1,0.4-2.3,0.6-3.4C85.4,144.1,85.3,143.8,85.3,143.4z
			 M85.3,132c0-1.1,0-2.1,0-3.1c0-0.5-0.1-1-0.2-1.5c-0.4-2.2-1.8-3.5-3.7-3.7c-2.4-0.1-4,0.8-4.5,3c-0.4,1.7-0.4,3.5-0.6,5.3
			C79.4,132,82.3,132,85.3,132z"/>
		<path class="st0" d="M97.8,156.2c0-12.8,0-25.5,0-38.3c2.5,0,4.9,0,7.5,0c0,1.2,0,2.4,0,3.8c0.8-0.7,1.5-1.2,2.1-1.8
			c2.1-1.8,4.4-2.7,7.1-2.8c3.6-0.1,6.2,1.8,6.9,5.4c0.2,1,0.3,2,0.3,2.9c0,9.9,0,19.9,0,29.8c0,0.8-0.2,1-1,1c-2.3,0-4.6,0-6.9,0
			c0-0.4-0.1-0.8-0.1-1.2c0-9.1,0-18.3,0-27.4c0-0.4,0-0.8,0-1.2c0-2.4-1.7-3-3.5-2.7c-1.7,0.3-3,1.3-4.3,2.3
			c-0.2,0.1-0.2,0.6-0.2,0.9c0,9.4,0,18.8,0,28.2c0,0.3,0,0.7,0,1C103.1,156.2,100.5,156.2,97.8,156.2z"/>
		<path class="st0" d="M43.6,104.8c2.9,0,5.8,0,8.8,0c0,14.6,0,29.1,0,43.8c4.4,0,8.6,0,12.9,0c0,2.6,0,5.1,0,7.6
			c-7.2,0-14.4,0-21.7,0C43.6,139,43.6,121.9,43.6,104.8z"/>
	</g>
</g>
<rect class="st1" width="256" height="256"/>
</svg>
