<?xml version="1.0" encoding="utf-8"?>
<!-- Generator: Adobe Illustrator 19.2.1, SVG Export Plug-In . SVG Version: 6.00 Build 0)  -->
<svg version="1.1" id="Robinhood" xmlns="http://www.w3.org/2000/svg" xmlns:xlink="http://www.w3.org/1999/xlink" x="0px" y="0px"
	 viewBox="0 0 256 256" style="enable-background:new 0 0 256 256;" xml:space="preserve">
<style type="text/css">
	.st0{fill:#3E4F4E;}
	.st1{fill:none;}
</style>
<g id="LQ6SZw_1_">
	<g>
		<path class="st0" d="M88.8,184.5c-2.4,0-2.1,0.1-1.6-2c2.7-11.1,5.7-22.2,9.4-33.1c0.1-0.4,0.1-0.9,0.1-1.4
			c-1-5.6-2.1-11.2-3.1-16.8c-0.1-0.5-0.3-1.1-0.2-1.6c0.1-0.8,0.1-1.6,0.5-2.2c4.6-6.9,9.5-13.5,14.7-19.9c1-1.2,2-2.4,2.9-3.7
			c1-1.4,2.2-2.1,3.9-2.4c7.6-1.4,15.1-2.9,22.6-4.3c1-0.2,2.1-0.3,3.2-0.4c0.3,0,0.5,0.1,0.8,0.2c-0.1,0.2-0.2,0.5-0.3,0.7
			c-6.3,7.4-12.3,15-17.9,23c-9.2,13.2-17.3,27.2-24,41.9c-3.1,6.9-5.9,14.1-8.8,21.1c-0.3,0.7-0.6,1-1.3,0.9
			C89.4,184.5,89.1,184.5,88.8,184.5z"/>
		<path class="st0" d="M150.1,107.2c0-3.6,0-8.2,0-12.9c0-1.6-1.1-2.6-2.7-2.3c-4,0.5-7.9,1-11.9,1.6c-4.5,0.7-9,1.6-13.5,2.4
			c-0.9,0.2-1.7,0.4-2.6,0.5c-0.3,0-0.6-0.1-0.8-0.1c0.1-0.3,0.1-0.6,0.3-0.8c3.3-3.5,6.5-7.1,9.9-10.5c2.5-2.6,5.3-5.1,7.8-7.7
			c1.5-1.5,3.3-2.3,5.3-2.9c4.6-1.3,9.2-2.3,13.9-2.2c2.7,0,5.5,0.3,8.1,1.3c2.1,0.9,3.7,2.3,4.6,4.4c1.2,2.8,1.8,5.7,2.2,8.7
			c0.4,3.9,0.2,7.7-0.4,11.5c-0.1,0.8-0.6,1.6-1.1,2.3c-4.3,5.4-8.7,10.8-13,16.2c-1.4,1.7-2.6,3.6-3.9,5.4
			c-0.2,0.2-0.5,0.4-0.7,0.5c-0.1-0.3-0.4-0.5-0.4-0.8C150.8,117.3,150.5,112.8,150.1,107.2z"/>
		<path class="st0" d="M147.7,127.4c0.3,0.8-0.2,1.5-0.6,2.3c-4.2,7.2-8.4,14.4-12.5,21.6c-0.4,0.7-0.9,1.2-1.8,1.4
			c-9,2.6-17.9,5.7-26.5,9.3c-0.4,0.2-0.8,0.1-1.2,0.2c0.1-0.4,0.1-0.9,0.3-1.2c3.6-7.7,7.7-15.1,12-22.4
			c5.3-8.8,11.1-17.4,17.4-25.5c3.2-4.2,6.7-8.2,10-12.3c0.1-0.1,0.2-0.3,0.3-0.4c0.2-0.1,0.5-0.2,0.7-0.4c0.1,0.2,0.3,0.5,0.3,0.7
			c0.1,2.7,0.2,5.3,0.3,8c0.3,5,0.7,10,1,15C147.4,124.9,147.5,126.1,147.7,127.4z"/>
		<path class="st0" d="M99.6,175.2c0.6-1.5,1.2-3.1,1.9-4.6c1.3-3,1.2-3.1,4.2-4.2c5.3-2,10.6-4,15.8-5.9c0.3-0.1,0.6,0,0.9,0
			c-0.1,0.3-0.1,0.6-0.2,0.8c-0.6,1.2-1.2,2.5-1.9,3.7c-0.3,0.5-0.7,1-1.2,1.2c-6,3-12.1,5.9-18.2,8.8c-0.4,0.2-0.8,0.3-1.2,0.5
			C99.7,175.4,99.6,175.3,99.6,175.2z"/>
	</g>
</g>
<rect class="st1" width="256" height="256"/>
</svg>
