<?xml version="1.0" encoding="utf-8"?>
<!-- Generator: Adobe Illustrator 19.2.1, SVG Export Plug-In . SVG Version: 6.00 Build 0)  -->
<svg version="1.1" id="Periscope" xmlns="http://www.w3.org/2000/svg" xmlns:xlink="http://www.w3.org/1999/xlink" x="0px" y="0px"
	 viewBox="0 0 256 256" style="enable-background:new 0 0 256 256;" xml:space="preserve">
<style type="text/css">
	.st0{fill:#3E4F4E;}
	.st1{fill:none;}
</style>
<g id="RZm2Iz_1_">
	<g>
		<path class="st0" d="M93.2,159.3c-2.2-2.3-4.4-4.6-6.7-7.1c-1.1,1-2.1,2-3.4,3.1c-0.6-1-1-1.8-1.7-2.9c1.7-0.2,3-0.3,4.3-0.4
			c0.2-0.3,0.4-0.6,0.6-0.8c-2.3-2.1-4.6-4.1-6.9-6.2c4.7,0,9.4,0,14.1,0c-2.1,2.3-4.2,4.5-6.5,6.9c4.5,0,8.7,0,13.7,0
			c-2.8-2.6-5-4.8-7.3-6.9c-2.3-2.3-4.5-4.6-7.1-7.2c-2.5,2.6-4.7,4.9-6.9,7.3c-1-2.2-2.1-4.4-3.3-7.1c3.7,0,6.6,0,10.1,0
			c-2.4-2.6-4.5-4.7-6.5-6.9l-0.1,0.1c4.6,0,9.1,0,13.7,0l-0.1-0.1c-2,2.2-4.1,4.3-6.2,6.6c4.5,0,8.8,0,13.7,0
			c-1.6-1.4-2.6-2.3-3.6-3.2c-1-1-1.9-2-3.2-3.2c6.2-0.5,6.2-0.5,7.2,4.8c0.1,0.8,0.2,1.6,0.2,1.7c-2.3,2.8-4.2,5.3-5.9,7.4
			c1.2,0,3.3-0.2,5.3,0.1c1.8,0.2,4.3-1.2,6,2.1c-1.7,1.6-3.4,3.1-5.2,4.7c4,0.7,8.2-0.6,12.4,1c-2.2,2.4-4.1,4.4-6,6.4
			c-0.2,0-0.4-0.1-0.6-0.1l0.1,0.1c-2.2-2.4-4.4-4.7-6.4-6.8c-2.6,2.5-4.9,4.6-7.3,6.8l0,0C93.5,159.3,93.4,159.3,93.2,159.3
			L93.2,159.3z"/>
		<path class="st0" d="M156.8,166.6c-2,2.1-4,4.3-6.2,6.7c2.2,0,4.1,0,6,0c0.1,0.2,0.1,0.4,0.2,0.5c-1.3,0.7-2.5,1.5-3.9,2.3
			c-0.9-0.8-1.8-1.6-3.2-2.8c-1.6,1.8-3.1,3.7-4.7,5.5c-1.3,1.4-2.5,1.5-3.9,0c-1.5-1.8-3.1-3.4-5-5.5c-2.6,2.8-4.9,5.2-7.1,7.7
			l0.1-0.1c-0.1-0.1-0.2-0.1-0.3-0.1l0.1,0.1c-2.2-2.4-4.4-4.8-7-7.6c-1.8,1.9-3.5,3.6-5,5.3c-1.4,1.7-2.7,1.5-4.1,0
			c-1.5-1.8-3-3.5-4.6-5.3c-1.4,1.3-2.3,2-3.2,2.8c-1.3-0.7-2.5-1.4-4.4-2.5c2.6,0,4.5,0,7,0c-2.4-2.6-4.4-4.8-6.4-7l-0.1,0.1
			c4.3,0,8.6,0,13,0c0.2,0.4,0.5,0.7,0.7,1.1c-2.2,1.7-4.4,3.4-6.9,5.4c4.9,0,9.2,0,13.4,0c0.1-0.2,0.3-0.4,0.4-0.6
			c-2.2-2-4.3-4-6.5-6c4.6,0,9.1,0,13.7,0c-2.2,2-4.3,4.1-6.5,6.1c0.1,0.2,0.3,0.4,0.4,0.6c4.2,0,8.3,0,12.5,0
			c0.1-0.2,0.3-0.4,0.4-0.6c-2.2-2-4.3-4.1-6.5-6.1c4.6,0,9.1,0,13.7,0c-2.1,2.1-4.1,4.3-6.4,6.6c4.7,0,8.9,0,13.1,0
			c0.3-0.4,0.6-0.7,0.9-1.1c-2.2-1.7-4.4-3.4-7-5.4C148.3,166.7,152.6,166.7,156.8,166.6L156.8,166.6z"/>
		<path class="st0" d="M107.3,88.4c-1.7-1.9-3.3-3.7-5.1-5.7c3.7-2.7,8-0.6,12.1-1.7c-0.8-0.9-1.5-1.8-2.4-2.9
			c2.5-0.7,4.7-1.3,7-1.9c0.1,0.2,0.3,0.4,0.4,0.6c-1.5,1.1-3.1,2.2-4.6,3.3c0.2,0.3,0.4,0.6,0.6,0.9c4.2,0,8.4,0,13.1,0
			c-1.7-1.8-3.1-3.4-5-5.3c3.8,0,7,0,10.8,0c-1.8,1.9-3.3,3.5-5.1,5.3c4.6,0,8.8,0,13.7,0c-1.8-1.4-3.3-2.6-4.7-3.7
			c0.2-0.3,0.5-0.7,0.7-1c2.2,0.6,4.5,1.1,6.9,1.8c-0.8,1-1.5,1.9-2.2,2.9c4,1.1,8.3-1,12,1.7c-1.8,2-3.4,3.9-5.1,5.7l0.1-0.1
			c-0.2,0-0.4,0.1-0.5,0.1c-2.3-2.4-4.5-4.7-7-7.3c-2.3,2.6-4.4,5-6.6,7.3c-2.4,2.4-4.9,4.9-7.3,7.3c-2.6-2.4-5.2-4.9-7.8-7.3
			c-2.2-2.4-4.3-4.8-6.6-7.3c-2.5,2.7-4.7,5-6.9,7.3C107.6,88.4,107.4,88.4,107.3,88.4L107.3,88.4z M122.5,88.3c4.3,0,8.5,0,12.5,0
			c-2.2-2.1-4.3-4.2-6.4-6.2C126.9,83.9,124.8,86,122.5,88.3z"/>
		<path class="st0" d="M178.1,131.2c-2.2,1.9-4.4,3.9-6.6,5.8c0.2,0.3,0.4,0.6,0.5,0.9c2.9,0,5.9,0,9.4,0c-0.9,2.6-1.6,4.8-2.4,6.9
			c-0.1,0.2-0.6,0.3-0.9,0.5v0.1c-2.2-2.4-4.4-4.7-6.8-7.3c-2.5,2.7-4.6,5-6.8,7.3l0.1-0.1c-4.7,4.7-9.4,9.4-14.1,14.1l0.1-0.1
			c-0.2,0-0.4,0.1-0.6,0.1c-1.9-2-3.8-4-5.6-6.1c0-0.3,0-0.5,0-0.8c4,0,8,0,12.1,0c0.1-0.4,0.2-0.7,0.4-1.1c-1.8-1.5-3.7-3.1-6-5
			c4.5-2.3,8.8-0.5,12.1-1.4c-2-2.3-4.1-4.6-6.4-7.1c0.4-2.1,0.9-4.4,1.3-6.5c2,0,3.8,0,5.5,0c0.2,0.3,0.3,0.5,0.5,0.8
			c-2,1.8-4.1,3.6-6.3,5.6c4.6,0,8.8,0,13.1,0c0.2-0.3,0.4-0.5,0.6-0.8c-2.2-1.9-4.4-3.9-6.6-5.8l-0.1,0.1
			C169.1,131.2,173.7,131.2,178.1,131.2C178.2,131.2,178.1,131.2,178.1,131.2z"/>
		<path class="st0" d="M85.9,123.9c-2.1-2.4-4.1-4.7-6.3-7.1c-0.9,0.8-1.6,1.3-2.2,1.9c-0.2-0.1-0.4-0.2-0.5-0.4
			c0.4-0.7,0.9-1.3,1.4-2.3c-1.6-1.8,0.2-3.8,0.9-5.8c0.1-0.3,0.9-0.5,1.3-0.5c1.8,0,3.6,0.1,5.4,0.1l-0.1-0.1
			c-1.9,2.2-3.9,4.4-5.9,6.8c4.4,0,8.6,0,13.1,0c-2.2-2.5-4.2-4.6-6.1-6.8l-0.1,0.1c4.4,0,8.7,0,13.1-0.1c-2,2.2-3.9,4.4-6.3,7
			c3.1,0,5.7,0,8.2,0c-0.2,6.7-4.4,10.6-8.8,14.3l0.1,0.1c-0.6-0.8-1.2-1.6-1.8-2.4c-1.4-1.6-2.9-3.2-4.4-4.8c4.2,0,8.5,0,13.1,0
			c-2.6-2.6-4.7-4.7-7-7c-1.3,1.3-2.7,2.6-4,4.1c-0.8,0.9-1.4,2-2,3C86.7,124,86.3,123.9,85.9,123.9L85.9,123.9z"/>
		<path class="st0" d="M171.9,109.9c1.1-0.1,2.2-0.1,3.4-0.1c3.3,0,4.7,1.2,4.8,4.6c0,0.7-0.5,1.3-0.7,1.8c0.6,0.6,1.2,1.3,1.8,2
			c-0.2,0.2-0.3,0.3-0.5,0.5c-0.7-0.5-1.4-1.1-2.4-1.9c-2.1,2.4-4.2,4.7-6.2,7.1l0.1-0.1c-0.4,0.1-0.8,0.1-1.2,0.2
			c-2-2.4-4-4.9-5.6-6.8c-2.4,2.5-4.6,4.6-6.7,6.8c3.9,0,8.1,0,12.3,0c-0.6,0.7-1.1,1.5-1.7,2.1c-1.5,1.7-3,3.4-4.6,5.1l0.1-0.1
			c-4.6-3.7-8.4-7.8-8.7-14.5c2.6,0,5.1,0,8,0c-2.3-2.5-4.2-4.7-6.2-6.9c4.4,0,8.8,0.1,13.1,0.1l-0.1-0.1c-2,2.2-3.9,4.4-6.1,6.7
			c4.6,0,8.8,0,13.1,0C175.8,114.1,173.9,111.9,171.9,109.9L171.9,109.9z"/>
		<path class="st0" d="M157.7,166.7c-0.3-0.1-0.6-0.1-0.9-0.2l0.1,0.1c-0.5-0.8-1-1.6-1.6-2.3c-1.5-1.7-3.1-3.4-4.7-5.1l-0.1,0.1
			c4.3,0,8.7,0,13,0c0.3-0.4,0.5-0.9,0.8-1.3c-2.2-1.7-4.4-3.4-6.6-5.1c0.2-0.3,0.3-0.5,0.5-0.8c4.2,0,8.3,0,13,0
			c-2.4-2.6-4.5-4.8-6.5-7l-0.1,0.1c4.5,0,9.1,0,13.6,0v-0.1c-2,2.2-4.1,4.4-6.4,6.8c1.6,0.1,2.8,0.2,4.5,0.3
			c-0.5,1.1-0.9,1.9-1.5,3.1c-1.2-1.1-2.2-2.1-3.5-3.3c-2.3,2.4-4.4,4.7-6.6,7l-0.1,0.1C162.2,161.9,159.9,164.3,157.7,166.7
			L157.7,166.7z"/>
		<path class="st0" d="M101.1,166.6c-0.3,0.1-0.6,0.1-0.9,0.2l0.1,0.1c-1.4-1.7-2.9-3.4-4.3-5.2c-0.7-0.8-1.5-1.6-2.2-2.4l0,0
			c4.5,0,9.1,0,13.6,0l-0.1-0.1c-0.7,0.8-1.4,1.7-2.2,2.5C103.7,163.4,102.4,165,101.1,166.6C101,166.7,101.1,166.6,101.1,166.6z"/>
		<path class="st0" d="M150.5,88.4c4.3,0,8.7,0,13.7,0c-1.8,1.9-3.3,3.3-4.7,4.8c-0.7,0.7-1.1,1.6-1.6,2.5l0.1-0.1
			c-0.4,0-0.7,0-1.1,0.1c-0.4-0.7-0.8-1.5-1.3-2.1C153.9,91.9,152.2,90.1,150.5,88.4L150.5,88.4z"/>
		<path class="st0" d="M100,95.8c-1.2-1.5-2.4-3.1-3.7-4.5c-0.7-0.8-1.8-1.3-2.7-1.9c0.2-0.3,0.4-0.6,0.6-0.9c4.4,0,8.7,0,13.1,0
			l-0.1-0.1c-0.8,1-1.7,1.9-2.5,2.9c-1.2,1.5-2.5,3-3.7,4.5C100.7,95.7,100.3,95.7,100,95.8C99.9,95.7,100,95.8,100,95.8z"/>
		<path class="st0" d="M164.6,102.5c3,0,6.1-0.1,9.1,0c0.8,0,1.8,0.6,2.2,1.3c0.2,0.4-0.4,1.5-0.8,2.1c-1,1.4-2.1,2.6-3.1,3.9
			l0.1-0.1c-0.4,0-0.7,0-1.1,0l0.1,0.1c-0.5-0.7-0.9-1.5-1.5-2.2C167.8,105.9,166.2,104.2,164.6,102.5L164.6,102.5z"/>
		<path class="st0" d="M85.9,109.8c-1.1-1.4-2.3-2.7-3.3-4.1c-0.4-0.5-0.8-1.5-0.6-1.9c0.3-0.6,1.2-1.2,1.9-1.2
			c3.1-0.1,6.2-0.1,9.3-0.1h-0.1c-0.7,0.8-1.4,1.6-2.1,2.4c-1.4,1.6-2.8,3.3-4.2,4.9l0.1-0.1C86.6,109.8,86.2,109.8,85.9,109.8
			L85.9,109.8z"/>
		<path class="st0" d="M93.2,102.5c-2-2.1-4.1-4.3-6.4-6.7c4.7,0,8.9,0,13.2,0l-0.1-0.1c-2.1,2.3-4.1,4.6-6.2,6.9
			C93.6,102.5,93.4,102.5,93.2,102.5L93.2,102.5z"/>
		<path class="st0" d="M157.8,95.8c4.2,0,8.4,0,13.1,0c-2.3,2.4-4.3,4.6-6.3,6.8h0.1c-0.2,0-0.4,0.1-0.5,0.1
			C162,100.3,159.9,98,157.8,95.8C157.9,95.7,157.8,95.8,157.8,95.8z"/>
		<path class="st0" d="M171.9,123.9c3.2,0,6.5,0,9.6,0c1.4,3.8-1.2,5.4-3.4,7.3l0.1,0.1c-0.7-0.9-1.4-1.8-2.1-2.6
			C174.8,127,173.3,125.4,171.9,123.9L171.9,123.9z"/>
		<path class="st0" d="M79.7,131.2c-2.2-1.8-4.8-3.5-3.4-7.3c3.2,0,6.4,0,9.6,0l-0.1-0.1c-0.6,0.8-1.2,1.6-1.8,2.4
			C82.6,127.9,81.1,129.5,79.7,131.2C79.6,131.2,79.7,131.2,79.7,131.2z"/>
		<path class="st0" d="M93.2,159.3c-1.3,1.4-2.6,2.9-4.1,4.6c-1.2-1.6-2.2-2.8-3.5-4.5C88.5,159.3,90.9,159.3,93.2,159.3L93.2,159.3
			z"/>
		<path class="st0" d="M164.7,159.3c2.3,0,4.6,0,7.5,0c-1.3,1.7-2.3,3-3.4,4.6c-1.5-1.6-2.9-3.1-4.2-4.5
			C164.6,159.4,164.7,159.3,164.7,159.3z"/>
		<path class="st0" d="M100.2,166.8c-1.1,1.3-2.2,2.6-3.5,4.1c-1.8-1.5-3.1-2.7-4.4-3.8c0.1-0.2,0.1-0.4,0.2-0.7
			C95,166.5,97.6,166.7,100.2,166.8C100.2,166.9,100.2,166.8,100.2,166.8z"/>
		<path class="st0" d="M157.6,166.8c2.6-0.1,5.1-0.3,7.7-0.4c0.1,0.2,0.2,0.4,0.3,0.6c-1.3,1.1-2.6,2.3-4.1,3.6
			C160.1,169.2,158.9,168,157.6,166.8C157.7,166.7,157.6,166.8,157.6,166.8z"/>
		<path class="st0" d="M128.7,180.7c-0.8,0.3-1.6,1-2.4,0.9c-1.9,0-3.9-0.4-5.8-0.9C123.3,180.8,126,180.8,128.7,180.7
			C128.8,180.8,128.7,180.7,128.7,180.7z"/>
		<path class="st0" d="M128.9,180.9c2.8,0,5.6,0,8.4,0c0,0.2,0,0.5,0,0.7C134.5,181.4,131.8,181.1,128.9,180.9
			C129,180.8,128.9,180.9,128.9,180.9z"/>
		<path class="st0" d="M105.4,128.7c15.7,0,31.4,0,47.1,0c-0.3,13.4-10.4,23.4-23.5,23.4C115.8,152.1,105.7,142.1,105.4,128.7z"/>
		<path class="st0" d="M93.7,102.4c4.4,0,8.8,0,13.7,0c-2.3-2.5-4.3-4.6-6.4-6.8c4.3,0,8.6,0,12.8,0c0.1-0.3,0.2-0.5,0.2-0.8
			c-2.1-2.2-4.2-4.4-6.3-6.5c4.6,0,9.1,0,13.7,0c-1.5,1.7-3.1,3.3-4.6,5c-0.7,0.8-1.3,1.7-2,2.6l0,0c-2.2,2-4.5,3.9-7.3,6.4
			c3.1,0,5.5,0,8.7,0c-2.1,1.4-3.6,2.4-5.2,3.5c-1.1-1-2.1-2-3.5-3.3c-2.2,2.5-4.4,4.9-6.6,7.3l0.1-0.1c-0.3,0-0.7,0-1,0
			c-1.4-1.6-2.8-3.3-4.2-4.9C95.1,104.1,94.4,103.3,93.7,102.4z"/>
		<path class="st0" d="M156.8,95.7c-2.2,1.9-4.4,3.9-6.5,5.8c0.2,0.3,0.3,0.6,0.5,0.9c4.5,0,8.9,0,13.4,0c-1.6,1.8-3.3,3.5-4.9,5.3
			c-0.5,0.6-0.9,1.4-1.3,2.1c-0.3,0-0.7,0-1,0l0.1,0.1c-2.1-2.4-4.2-4.7-6.5-7.3c-1.3,1.2-2.3,2.1-3.5,3.2c-1.5-0.9-2.9-1.9-4.9-3.1
			c2.8,0,5,0,7.9,0c-2.6-2.7-4.6-4.8-6.7-6.9C147.7,95.7,152.3,95.7,156.8,95.7z"/>
		<path class="st0" d="M129.2,166.6c-0.2,0-0.4,0-0.6,0c-2.4-2.4-4.9-4.9-7.3-7.3c-0.9-1.1-1.8-2.3-3-3.7c1.9,0.5,3.4,0.9,5.3,1.4
			c-0.4,0.7-0.7,1.3-1.2,2c4.3,0,8.5,0,12.9,0c-0.3-0.6-0.6-1.2-0.9-1.9c1.6-0.5,3.1-1,5-1.5c-1.1,1.4-2,2.6-2.8,3.7
			C134.1,161.8,131.6,164.2,129.2,166.6z"/>
		<path class="st0" d="M142.7,166.6c-1.5-1.7-2.9-3.3-4.4-5c-0.7-0.8-1.3-1.6-1.9-2.4c4.6,0,9.1,0,13.7,0
			C147.6,161.7,145.2,164.2,142.7,166.6z"/>
		<path class="st0" d="M121.4,159.3c-1.5,1.6-3,3.3-4.4,4.9c-0.7,0.8-1.2,1.6-1.8,2.4c-2.5-2.5-4.9-4.9-7.4-7.4
			C112.3,159.3,116.8,159.3,121.4,159.3z"/>
		<path class="st0" d="M136.4,88.4c4.6,0,9.1,0,13.7,0c-2.3,2.5-4.5,4.9-6.8,7.4c-0.2,0-0.4,0-0.6,0c-1.5-1.7-2.9-3.3-4.4-5
			C137.6,90,137,89.2,136.4,88.4z"/>
		<path class="st0" d="M129.1,95.7c4.6,0,9.1,0,13.7,0c-0.8,0.9-1.7,1.7-2.5,2.6c-3,3-5.6,3-8.6,0C130.8,97.4,130,96.6,129.1,95.7z"
			/>
		<path class="st0" d="M114.8,96c4.3,0,8.7,0,13.8,0c-1.5,1.4-2.6,2.5-3.9,3.5c-2.1,1.6-4.7,1.4-6.5-0.4C117.1,98,116,97,114.8,96
			L114.8,96z"/>
		<path class="st0" d="M100.9,109.9c1.8-0.1,3.7-0.2,6-0.3c-1,1.5-1.8,2.6-2.6,3.9C103.1,112.2,102.1,111,100.9,109.9
			C101,109.8,100.9,109.9,100.9,109.9z"/>
		<path class="st0" d="M156.8,109.8c-1,1.1-2,2.2-3.2,3.5c-0.9-1.3-1.7-2.2-2.8-3.7C153.2,109.7,155.1,109.8,156.8,109.8
			C156.9,109.9,156.8,109.8,156.8,109.8z"/>
	</g>
</g>
<rect class="st1" width="256" height="256"/>
</svg>
