<svg id="Layer_1" xmlns="http://www.w3.org/2000/svg" viewBox="0 0 512 128"><style>.st0{fill:none}.st1{fill:#3e4f4e}</style><path class="st0" d="M0 0h512v128H0z" id="Container"/><path class="st1" d="M50.1 51.4c-.9 2-1.5 3.2-2 4.3-5 12.3-10 24.6-15.1 36.9-.7 1.7-1.9 3.7-3.3 4.3-1.4.6-4.1.2-5.2-.8-1.1-1.1-1.7-3.8-1.3-5.4 1.2-4.2 3.2-8.2 4.8-12.3 5.5-13.4 11-27 16.5-40.6.3-.6.4-1.4.8-1.8 1.5-1.2 3.1-3 4.7-3.1 1.6 0 4.1 1.4 4.7 2.9 3.7 8.2 7 16.6 10.3 25 1.1 2.8-.3 4.9-2.9 6-2.6 1.2-4.8.2-6-2.1-1.6-3.1-2.8-6.4-4.2-9.6-.4-1-.9-1.9-1.8-3.7zM73.3 97.5c-4.5 0-6.4-3.3-4.8-7.5 3-7.7 6.2-15.2 9.3-22.9 4-9.7 7.9-19.4 11.9-29.1.4-.9.8-1.9 1.3-2.8 1.4-2.5 3.6-3 6.1-2.3 2.6.8 3.6 2.9 2.9 5.3-.8 3-2 6-3.2 8.9-6.2 15.2-12.4 30.5-18.6 45.7-1 2.5-2.1 4.9-4.9 4.7zM20 61.9c.1 2.9-1.4 4.9-3.8 5-1.8.1-4.7-1-5.3-2.3C7.1 56.2 3.7 47.6.4 39c-.9-2.4-.1-4.8 2.5-6 2.5-1.1 5.4-.2 6.6 2.5 3.6 8.3 6.9 16.7 10.3 25 .1.6.2 1.1.2 1.4z"/></svg>