<svg id="Layer_1" xmlns="http://www.w3.org/2000/svg" viewBox="0 0 512 128"><style>.st0{fill:none}.st1{fill:#3e4f4e}</style><path id="Container" class="st0" d="M0 0h512v128H0V0z"/><path class="st1" d="M14.9 55.3V79H8.3V55.3H0v-5.7h23.2v5.7h-8.3zM49.3 59.4c0 4.7-1.9 7.7-5.6 9.1L51.1 79h-8l-6.5-9.4h-4.5V79h-6.6V49.6h11.1c4.6 0 7.8.8 9.8 2.3 1.9 1.6 2.9 4.1 2.9 7.5zm-7.9 3.5c.8-.7 1.2-1.9 1.2-3.5s-.4-2.7-1.3-3.3c-.8-.6-2.3-.9-4.4-.9H32v8.7h4.8c2.3.1 3.8-.3 4.6-1zM74.7 49.7v5.8H60.1v6h13.1v5.6H60.1v6.1h15V79H53.5V49.6h21.2v.1zM99 49.7h6.6v29.4H99L85 60.7v18.4h-6.6V49.7h6.1l14.4 18.9V49.7h.1zM132.7 53.5c2.8 2.6 4.2 6.1 4.2 10.7s-1.4 8.2-4.1 10.8c-2.7 2.7-6.9 4-12.5 4h-10V49.6h10.4c5.1.1 9.2 1.3 12 3.9zM127.9 71c1.6-1.5 2.4-3.7 2.4-6.6s-.8-5.1-2.4-6.7-4.1-2.3-7.4-2.3h-3.7v17.9h4.2c2.9-.1 5.2-.8 6.9-2.3zM203.5 55.4h-3.7v17.9h4.2c2.9-.1 5.2-.8 6.9-2.3 1.6-1.5 2.4-3.7 2.4-6.6 0-2.9-.8-5.1-2.4-6.7-1.6-1.6-4.1-2.3-7.4-2.3zm23.3-19.1h-78c-3 0-6 3.1-6 6v44c0 2.9 3 6 6 6h78c2.9 0 6-3 6-6v-44c0-2.9-3-6-6-6zM188.5 79h-6.6V60.7l-7.8 15.8h-4l-7.9-16V79h-6.6V49.6h8.9l7.6 16.1 7.6-16.1h8.8V79zm27.3-4c-2.7 2.7-6.9 4-12.5 4h-10V49.6h10.4c5.1.1 9.2 1.3 12 3.9 2.8 2.6 4.2 6.1 4.2 10.7s-1.4 8.2-4.1 10.8z"/></svg>