<svg id="Layer_1" xmlns="http://www.w3.org/2000/svg" viewBox="0 0 512 128"><style>.st0{fill:none}.st1{fill:#a9b1b0}.st2{fill:#fff}.st3{fill:#3e4f4e}.st4{fill:#7e8a88}</style><path id="Container" class="st0" d="M0 0h512v128H0V0z"/><path class="st1" d="M157.2 87.1c-18.6 0-22.1-12-25.5-23.6-3.2-11-6.2-21.4-22-21.4s-18.8 10.4-22 21.4c-3.4 11.6-6.9 23.6-25.5 23.6H14.4v-1.7h47.9c17.4 0 20.5-10.9 23.9-22.4 3.2-11.1 6.6-22.6 23.6-22.6s20.4 11.5 23.6 22.6c3.3 11.5 6.5 22.4 23.9 22.4v1.7z"/><circle class="st1" cx="14.4" cy="86.3" r="4.6"/><circle class="st2" cx="14.4" cy="86.3" r="2.2"/><circle class="st1" cx="62.3" cy="86.3" r="4.6"/><circle class="st1" cx="158.3" cy="86.3" r="4.6"/><circle class="st1" cx="109.7" cy="41.5" r="6.1"/><circle class="st3" cx="109.7" cy="41.5" r="5.1"/><circle class="st1" cx="109.7" cy="41.5" r="3.2"/><circle class="st4" cx="109.7" cy="41.5" r="2.4"/><circle class="st2" cx="62.3" cy="86.3" r="2.2"/><circle class="st2" cx="158.3" cy="86.3" r="2.2"/><g id="HV2HnI_1_"><path class="st3" d="M17.5 39c4.2.1 8.1 1.1 11.2 4 2.6 2.4 4 5.5 4.6 8.9.9 5.1.7 10.2-1.3 15-2.3 5.6-6.6 8.5-12.6 9.2-2.7.3-5.4.2-8.1-.5-4.4-1.2-7.6-3.8-9.3-8-2.6-6.4-2.8-13-.1-19.4 2.3-5.3 6.5-8.2 12.2-9 1.1 0 2.3-.1 3.4-.2zm11.7 18.6c-.2-1.6-.3-3.3-.6-4.9-1-5-3.9-8.9-9.5-9.6-5.4-.7-10.6 1.4-13 7.2-1.5 3.6-1.5 7.4-1 11.1.8 5.9 4.3 10.7 10.9 11.1 4.7.3 9.1-1.5 11.3-6 1.4-2.8 1.8-5.8 1.9-8.9zM62.5 50.2v21.1c0 1.3.1 1.4 1.4 1.5.6.1 1.2.2 1.9.3v2.7h-7c-.1-1.1-.3-2.2-.4-3.4-.7.5-1.4 1-2 1.5-2.8 1.9-5.8 2.9-9.3 2.4-3.1-.5-4.9-2.4-5.3-5.5-.1-1-.2-2-.2-3.1V55.2c0-1-.3-1.6-1.3-1.7-.1 0-.2-.1-.3-.1-2-.5-2.1-.6-1.5-2.6.1-.2.4-.5.6-.5h7.1v1.2c0 5.6 0 11.3.1 16.9 0 .6.1 1.3.3 1.8.6 2.2 2.4 3 5 2.4 2.5-.6 4.4-2 6.1-3.9.2-.2.3-.7.3-1V54.9c0-.8-.2-1.3-1.1-1.4-.1 0-.2-.1-.4-.1-1.9-.5-2.1-.8-1.5-2.7.1-.2.4-.5.6-.5h6.9zM140.6 64.1h-16.5c-.9 3 1.6 7.3 4.8 8.2 2.9.8 5.7.3 8.4-.8.4-.2.8-.4 1.4-.6.5 1.1 1 2.2 1.5 3.4-3.4 1.9-7 2.5-10.8 2.2-2.4-.2-4.7-.9-6.5-2.6-2.2-2-3.1-4.6-3.5-7.5-.4-2.9-.3-5.9.6-8.8 1.9-6 6.8-8.4 12.6-7.7 5.2.7 7.7 4.3 8.1 9.3 0 1.5-.1 3.1-.1 4.9zm-16.5-3.5h12.1c.5-4-1.8-7.1-5.4-7.3-4-.2-6.8 2.9-6.7 7.3zM85.7 71.9c.3.8.6 1.8 1 2.9-1.9.8-3.7 1.4-5.7 1.5-1.2.1-2.5 0-3.7-.2-2.8-.5-4.4-2.7-4.4-5.6V54.9c0-1-.3-1.3-1.2-1.2-.9.1-1.8 0-2.7 0v-2.8l.9-.3c2.2-.4 3.5-1.8 4-3.9.2-.7.3-1.5.4-2.2.1-.6.2-.9.9-.9.7.1 1.4 0 2.2 0v6.5H85v3.5h-7.5c0 .4-.1.6-.1.9v15.3c.1 1.8 1.2 2.9 3 2.8 1.7-.1 3.4-.4 5.3-.7zM101.7 73.1v2.7h-12v-2.7c.8-.1 1.5-.2 2.3-.2 1.3-.1 1.4-.2 1.4-1.4v-22-6.3c0-.8-.3-1.3-1.1-1.5-.8-.2-1.6-.5-2.5-.8.1-.9.3-1.7.4-2.6h7.7v33.6c0 .7.3 1 1 1.1.9-.1 1.8 0 2.8.1zM163.2 57.7c-1.3-.1-2.4-.2-3.5-.2-.2-1-.3-2-.5-3-.1-.7-.4-1-1.2-.9-2 .4-3.6 1.5-5.1 2.9-.2.2-.3.5-.3.8v14.5c0 .6.2.8.8.9 1.5.1 3 .3 4.5.4v2.6h-13.1V73l2.1-.3c.7-.1 1.1-.3 1.1-1.2V55c0-.8-.3-1.3-1.1-1.4-.2 0-.4-.1-.7-.2-1.7-.6-1.7-.6-1.5-2.4.1-.6.3-.9 1-.9h5c.6 0 .8.2.9.8.1.9.3 1.7.4 2.7l2.4-2.1c2.4-2 5.2-2.2 8.2-1.6.2.1.6.4.6.6v7.2zM116.8 75.8h-12.5v-2.7c.8-.1 1.6-.2 2.4-.2 1.5-.1 1.6-.2 1.6-1.7V60.7v-5.1c0-1.5-.1-1.6-1.5-2.1-.6-.2-1.3-.4-1.9-.6-.1 0-.1-.1-.2-.1.1-.8.3-1.7.4-2.5h7.6V71.4c0 1.3.1 1.4 1.4 1.5.4 0 .7.1 1.1.1 1.5.2 1.5.2 1.5 1.8.1.2.1.6.1 1z"/></g></svg>