<svg id="Layer_1" xmlns="http://www.w3.org/2000/svg" viewBox="0 0 512 128"><style>.st0{fill:none}.st1{fill:#3e4f4e}.st2{fill:#687675}</style><path class="st0" d="M0 0h512v128H0z" id="Container"/><g id="Logos"><g id="Modsy"><path class="st1" d="M59.9 58.7v22.5h-5.1V45.8c.5.4.9.7 1.2 1 5.2 6 10.3 12 15.5 18 .2.2.3.3.5.6.3-.3.5-.6.8-.9 5-5.9 10.1-11.9 15.1-17.8.2-.3.6-.5 1.1-.9v35.4h-5.1V58.8c-1.9 2.3-3.8 4.7-5.7 7-1.8 2.2-3.6 4.4-5.4 6.5-.8.9-1 .9-1.8 0-3.6-4.4-7.2-8.8-10.7-13.3-.2-.1-.3-.2-.4-.3zm52.2-12.6c10.2 0 17.9 7.7 17.9 18 0 10.1-7.8 17.8-18 17.7-10.1 0-17.8-7.8-17.9-17.8 0-10.2 7.8-17.9 18-17.9zm0 4.8c-7.1 0-12.4 5.5-12.4 12.8 0 7.6 5.2 13.1 12.4 13.1s12.4-5.5 12.4-13c0-7.3-5.3-12.9-12.4-12.9zm23.3 30.3V46.5h1.2c3.6.1 7.3 0 10.9.2 7.7.5 13.8 5.4 15.5 12.5 1.3 5.3.7 10.5-2.5 15.1-2.8 3.9-6.7 6.2-11.4 6.7-4.4.5-9 .3-13.4.4-.2-.1-.3-.2-.3-.2zm5.5-4.7c3.3 0 6.5.2 9.6-.9 3.6-1.3 5.8-3.8 6.8-7.5.8-2.9.7-5.8-.1-8.7s-2.6-5.1-5.3-6.5c-3.5-1.8-7.2-1.7-11-1.6v25.2zm47.3-25c-1.6 1-2.9 1.8-4.4 2.7-.3-.5-.6-.9-1-1.3-1.5-1.9-4.2-2.6-6.5-1.8-2.7 1-3.6 4.5-1.5 6.5.9.9 2 1.5 3.1 2.1 2.4 1.2 4.8 2.3 7.1 3.6 2.4 1.4 4.1 3.4 4.8 6.2 1.4 6.2-2.2 11.2-8.6 12-2.8.4-5.6.2-8.2-.8-3.1-1.2-5.3-3.3-6.8-6.2 1.5-.8 2.9-1.6 4.4-2.5.5.7.9 1.3 1.5 1.9 2.2 2.6 5.9 3.6 9.1 2.5 1.8-.6 3-1.7 3.3-3.6.3-2-.4-3.7-2.1-4.7-1.8-1.1-3.7-2-5.6-2.9-2.1-1-4.2-2-5.9-3.7-2.7-2.8-3.2-6.1-2.1-9.6s3.8-5.3 7.3-5.8 6.9-.1 9.6 2.5c1 .9 1.6 1.9 2.5 2.9zm3.5-5h5.5c.7 0 .9.5 1.1.9 2.8 5.3 5.6 10.7 8.4 16.1.1-.1.2-.4.3-.7 2.6-5.3 5.3-10.5 7.9-15.8.1-.2.5-.5.8-.5h5.1c-.2.4-.3.7-.4.9-3.5 6.6-7.1 13.3-10.6 19.9-.3.6-.5 1.3-.5 2v12h-5.4V69.8c0-.8-.2-1.6-.6-2.2-3.6-6.7-7.3-13.4-11-20-.2-.4-.4-.7-.6-1.1z" id="_x34_RSaus.tif"/><path class="st1" d="M9.7 45.3L0 55v9.6l9.7-9.7z"/><path class="st2" d="M19.2 54.7l-9.5-9.4v9.6l9.5 9.5zm9.4-9.4l9.8 9.7v9.6l-9.8-9.7z"/><path class="st1" d="M19.2 54.7l9.4-9.4v9.6l-9.4 9.5z"/><path class="st2" d="M19.2 83.7L0 64.6V55l19.2 19.1z"/><path class="st1" d="M19.2 83.7l19.2-19.1V55L19.2 74.1z"/></g></g></svg>