<svg id="Layer_1" xmlns="http://www.w3.org/2000/svg" viewBox="0 0 512 128"><style>.st0{fill:none}.st1{fill:#a9b1b0}.st2{fill:#3e4f4e}</style><path id="Container" class="st0" d="M0 0h512v128H0V0z"/><circle class="st1" cx="26" cy="61.6" r="26"/><g id="GQiJpE_1_"><path class="st2" d="M27.2 35.6c.4 0 .7.1 1.1.1 2.3.2 4.6.7 6.8 1.5C39.9 39 43.8 42 46.9 46c1 1.3 1.9 2.7 2.6 4.2 0 .1.1.1.1.2H2.4c.4-.7.7-1.4 1.1-2.1C6 44.2 9.4 41 13.7 38.7c2.5-1.4 5.2-2.3 8.1-2.7.9-.1 1.9-.2 2.8-.3.1 0 .2 0 .2-.1h2.4zm9.2 9.7c1.1 0 1.9-.6 2-1.5.2-.9-.3-1.8-1.1-2.1-.8-.3-1.8 0-2.3.7-.1.2-.2.3-.4.3H17.4c-.2 0-.3-.1-.5-.2-.4-.6-1-.9-1.7-.9-.9 0-1.6.7-1.7 1.6-.1.9.4 1.7 1.2 2 .8.3 1.7 0 2.2-.8.1-.2.2-.2.4-.2h17.2c.2 0 .3.1.4.2.5.6 1 .9 1.5.9zM172.8 83.8h-4.2v-.4-15.9c0-1.8-.2-3.6-.8-5.3-1-2.7-3-4.1-5.9-4.4-1.7-.2-3.4.1-4.9.9-2 1-3.2 2.7-4 4.7-.7 1.8-.9 3.6-1 5.5v14.9h-4.2c-.1-9.6.2-19.2-.2-28.7h4c.1 1.6.2 3.3.2 4.9l.2-.2c1.1-2.1 2.9-3.5 5.1-4.5 2.1-.9 4.3-1.2 6.6-.9 1.2.1 2.5.4 3.6 1 2.3 1.1 3.7 3 4.6 5.3.5 1.3.8 2.6.9 4 0 .1 0 .3.1.4-.1 6.2-.1 12.5-.1 18.7zM64.2 83.8V40.3h13c2.7 0 5.3.4 7.8 1.6 3.2 1.5 5.3 3.9 5.9 7.4.5 2.8.3 5.5-1 8-1.2 2.4-3.2 3.9-5.7 4.9-1.9.8-4 1.2-6 1.3-3.1.1-6.1.1-9.2.1h-.4v20.2h-4.4zM68.7 44v15.8h8.1c1.7 0 3.5-.2 5.1-.8 1.9-.7 3.5-1.9 4.3-3.8.6-1.3.7-2.6.6-4-.2-2.8-1.5-4.8-4.1-6-1.9-.8-3.9-1.1-6-1.1H69c-.2-.1-.2-.1-.3-.1zM137.7 83.8h-3.8c-.1-1.6-.3-3.1-.4-4.7-.1.1-.2.2-.2.3-1.2 1.7-2.6 3.1-4.5 4-1.7.8-3.5 1.1-5.4 1.1-2 0-4-.3-5.8-1.3-2.2-1.2-3.7-3-4.2-5.5-.4-2.2-.3-4.3.8-6.3.8-1.4 2-2.3 3.3-3 1.5-.8 3.2-1.3 4.9-1.6 2.4-.5 4.9-.6 7.4-.7h3.7v-1.8c-.1-1-.2-2-.7-3-.8-1.9-2.3-2.9-4.3-3.4-4.2-.9-7.9 0-11.1 2.9l-.1.1c-.8-.9-1.5-1.8-2.3-2.8.4-.3.7-.6 1-.9 2.1-1.6 4.5-2.5 7.1-2.9 1.9-.3 3.7-.4 5.6-.1 2.3.4 4.3 1.2 6 2.8 1.5 1.5 2.3 3.2 2.6 5.3.1.8.2 1.7.2 2.6v13.6c0 1.6.3 3.2.4 4.8-.3.3-.2.4-.2.5zm-4.5-14.4h-.4c-1.2 0-2.5 0-3.7.1-1.8.1-3.7.2-5.5.6-1.5.3-3 .8-4.3 1.7-1.8 1.2-2.4 2.9-2 5 .3 1.9 1.5 3.1 3.2 3.8 1.6.6 3.3.8 5 .5 3.2-.5 5.5-2.2 6.8-5.2 1-2.1 1-4.3.9-6.5zM99.8 37.3h4.1v46.4h-4.1V37.3zM22.5 69.1l2.5-2.5 8.1-8.1c1-1 2.4-1.2 3.5-.4 1 .8 1.2 2 .5 3-.2.3-.5.6-.7.8L24.3 74c-1.1 1.1-2.5 1.1-3.6 0l-5.4-5.4c-.4-.4-.7-.9-.8-1.6-.1-.8.3-1.4.9-1.9 1-.8 2.5-.6 3.4.3l3.4 3.4c0 .1.1.2.3.3z"/></g></svg>