<svg id="Layer_1" xmlns="http://www.w3.org/2000/svg" viewBox="0 0 512 128"><style>.st0{fill:none}.st1{fill:#3e4f4e}</style><path class="st0" d="M0 0h512v128H0z" id="Container"/><g id="Logos"><path class="st1" d="M222.9 75.5h-6.4c-.6 0-.8-.2-1.1-.7-1-1.9-2-3.7-2.9-5.6-.2-.4-.4-.5-.8-.5h-4.3v6.7h-6.3V51.1h.7c3.9 0 7.8-.1 11.6 0 3.1.1 6 1.1 7.7 4 2.1 3.6 1.4 9.8-2.9 12.1-.1 0-.2.1-.3.2 1.7 2.6 3.4 5.2 5 7.8v.3zM207 63.7h4.7c.4 0 .9 0 1.3-.1 2-.5 2.8-1.7 2.8-3.9 0-2-1.2-3.2-2.5-3.3-2.1-.3-4.2-.2-6.3-.3v7.6zM39.6 39.4c1.2.5 2.3 1.2 2.7 2.5.7 2.2-1 4.7-3.3 4.7H10.6c-1.5 0-3.2-1.5-3.4-2.9-.2-1.8.8-3.5 2.6-4.1.1 0 .2-.1.3-.2h29.5zM0 52.4c.8-1.9 2.2-2.8 4.3-2.8 9.1.1 18.1.1 27.2 0 1.9 0 3.8 1.8 3.8 3.7 0 1.7-1.8 3.6-3.8 3.6-9.1 0-18.1-.1-27.2 0-2.1 0-3.5-.8-4.3-2.8v-1.7zm10.1 36.3c-1.2-.5-2.3-1.2-2.7-2.5-.7-2.3 1-4.7 3.4-4.7h27.9c1.8 0 3.5 1.3 3.8 3 .3 1.9-.7 3.5-2.7 4.1-.1 0-.1.1-.2.1H10.1zM143 75.5h-6.1c-.4 0-.6-.2-.7-.6-.4-1.1-.8-2.3-1.3-3.4-.1-.2-.5-.5-.7-.5h-10l-1.8 4.5h-6.5l10.5-24.3h6.1c.2 0 .5.2.6.4 3.3 7.9 6.7 15.8 10 23.8-.1-.1-.1 0-.1.1zm-13.6-18c-1.2 3-2.3 5.8-3.4 8.7h6.8c-1.2-2.9-2.3-5.7-3.4-8.7zM60.6 72.3c.8-1.7 1.6-3.3 2.3-4.9 1.8 1.4 3.6 2.3 5.7 2.9 1.5.4 3.1.7 4.7.3.9-.2 1.5-.8 1.6-1.7.1-.9-.5-1.6-1.3-1.9-1.4-.5-2.8-.9-4.2-1.3-1.4-.5-2.8-.9-4.2-1.5-4.1-1.9-4.3-7-2.1-9.8 1.5-2 3.7-2.8 6-3.2 3.7-.6 7.2 0 10.6 1.6.4.2.8.4 1.3.7-.7 1.7-1.5 3.3-2.2 4.9-1.5-.6-2.9-1.2-4.4-1.6-1.5-.5-3.1-.9-4.7-.4-.7.2-1.3.6-1.4 1.3s.2 1.5.9 1.7c1.5.6 2.9 1.1 4.5 1.6 1.9.6 3.8 1.1 5.4 2.3 1.9 1.4 2.7 4.1 2.3 6.3-.6 3.4-2.9 5.2-6.1 5.9-5.2 1.2-10.1.1-14.5-2.9 0-.2-.1-.2-.2-.3zm50.6-17.2l-3.6 4.2c-3.7-4.1-8.1-3.7-10.6-1.5-2.8 2.5-3.1 7.1-.6 10.1 1.4 1.8 3.4 2.5 5.7 2.3 2.2-.2 3.9-1.3 5.5-2.8 1.2 1.3 2.4 2.6 3.7 3.9-1 1.2-2.2 2-3.5 2.7-2.4 1.3-4.9 2-7.7 1.8-5.5-.5-10.2-4-11.5-9.9-1.4-6.7 2.6-12.8 8.9-14.5 4.7-1.3 10.5.2 13.7 3.7zm-86.3 5h13.9c1.9 0 3.8 1.8 3.7 3.7 0 1.7-1.8 3.6-3.7 3.6H10.9c-1.9 0-3.8-1.8-3.8-3.7 0-1.7 1.8-3.6 3.7-3.6 4.8.1 9.4 0 14.1 0zm5.3 10.8h13.9c1.8 0 3.8 1.8 3.7 3.7 0 1.7-1.8 3.6-3.7 3.6H16.2c-1.8 0-3.8-1.8-3.7-3.7 0-1.7 1.8-3.6 3.7-3.6h14zm152.6-9.3c1.8-3.2 3.5-6.4 5.2-9.6.3-.6.7-.9 1.4-.8 1.7.1 3.5 0 5.3 0-.3.5-.5 1-.7 1.4-2.6 4.9-5.2 9.7-7.8 14.6-.2.3-.3.7-.3 1.1v7.2h-6.3c0-1.5-.1-3 0-4.5.2-2.2-.4-4.1-1.5-6-2.6-4.5-5-9.2-7.5-13.8.3 0 .4-.1.6-.1h5c.5 0 .8.2 1 .6 1.7 3.2 3.5 6.3 5.2 9.5l.4.4zm-15.7 14.1h-16.6V51.4h6.2v19h9.8c.2 0 .6.3.7.4-.1 1.6-.1 3.2-.1 4.9z" id="Scalyr"/></g></svg>