<svg id="Layer_1" xmlns="http://www.w3.org/2000/svg" viewBox="0 0 512 128"><style>.st0{fill:none}.st1{fill:#3e4f4e}.st2{fill:#7e8a88}</style><path id="Container" class="st0" d="M0 0h512v128H0V0z"/><path id="Remedy" class="st1" d="M63 65h-5.4v14.9h-5.1V43.5h13.6c1.7 0 3.2.3 4.6.8s2.5 1.3 3.5 2.3c1 1 1.7 2.1 2.2 3.4.5 1.3.8 2.7.8 4.2 0 2.6-.8 4.9-2.3 6.7s-3.7 3.1-6.5 3.6L77 79.7h-5.8L63 65zm2.3-4.5c2 0 3.7-.6 5-1.7 1.3-1.1 1.9-2.6 1.9-4.5s-.6-3.5-1.9-4.6c-1.3-1.1-2.9-1.7-5-1.7h-7.7v12.5h7.7z"/><path id="Path" class="st1" d="M99.4 72.7c-.3 1.1-.8 2.1-1.5 3.1-.7.9-1.5 1.8-2.4 2.5-.9.7-2 1.3-3.2 1.7-1.2.4-2.5.6-3.9.6-1.6 0-3.2-.3-4.7-.9-1.5-.6-2.8-1.4-4-2.6-1.1-1.1-2-2.5-2.7-4.2-.7-1.6-1-3.5-1-5.6 0-1.9.3-3.7 1-5.3s1.5-3 2.6-4.1 2.3-2 3.8-2.7 2.9-.9 4.4-.9c1.9 0 3.5.3 5 .9 1.5.6 2.7 1.5 3.7 2.6s1.7 2.5 2.3 4.1.8 3.3.8 5.3v.9c0 .3 0 .5-.1.7H81c0 1.1.2 2.1.6 3s.9 1.7 1.6 2.4 1.4 1.2 2.3 1.5c.9.4 1.9.5 2.9.5 2 0 3.5-.5 4.6-1.4 1.1-1 1.8-2.1 2.3-3.5l4.1 1.4zm-4.8-7.9c-.1-1.8-.7-3.3-1.8-4.5-1.1-1.2-2.8-1.8-5-1.8-1 0-1.9.2-2.7.5-.8.4-1.5.8-2 1.4-.6.6-1 1.3-1.4 2-.3.8-.5 1.5-.6 2.3h13.5z"/><path id="Path_1_" class="st1" d="M101.1 79.6V55h4.6v3.3c.8-1.4 1.9-2.4 3.2-3 1.4-.6 2.8-1 4.2-1 1.5 0 3 .4 4.3 1.1 1.3.8 2.4 1.9 3 3.5 1-1.8 2.2-3 3.7-3.7s3-1 4.5-1c1.1 0 2.1.2 3.1.6 1 .4 1.9.9 2.7 1.7s1.4 1.7 1.9 2.9.7 2.6.7 4.2v16h-4.7V64.1c0-1.6-.4-2.9-1.3-4s-2.2-1.6-4-1.6c-1.7 0-3.1.6-4.1 1.8s-1.6 2.7-1.6 4.4v14.9h-4.8V64.1c0-1.6-.4-2.9-1.2-4s-2.1-1.6-4-1.6c-1.7 0-3.1.6-4.2 1.7-1 1.2-1.6 2.7-1.6 4.5v14.9h-4.4z"/><path id="Path_2_" class="st1" d="M162.3 72.7c-.3 1.1-.8 2.1-1.5 3.1-.7.9-1.5 1.8-2.4 2.5-.9.7-2 1.3-3.2 1.7s-2.5.6-3.9.6c-1.6 0-3.2-.3-4.7-.9-1.5-.6-2.8-1.4-4-2.6s-2-2.5-2.7-4.2c-.7-1.6-1-3.5-1-5.6 0-1.9.3-3.7 1-5.3.6-1.6 1.5-3 2.6-4.1s2.3-2 3.8-2.7c1.4-.6 2.9-.9 4.4-.9 1.9 0 3.5.3 5 .9 1.5.6 2.7 1.5 3.7 2.6s1.7 2.5 2.3 4.1c.5 1.6.8 3.3.8 5.3v.9c0 .3 0 .5-.1.7h-18.5c0 1.1.2 2.1.6 3 .4.9.9 1.7 1.6 2.4s1.4 1.2 2.3 1.5c.9.4 1.9.5 2.9.5 2 0 3.5-.5 4.6-1.4 1.1-1 1.8-2.1 2.3-3.5l4.1 1.4zm-4.9-7.9c-.1-1.8-.7-3.3-1.8-4.5-1.1-1.2-2.8-1.8-5-1.8-1 0-1.9.2-2.7.5-.8.4-1.5.8-2 1.4-.6.6-1 1.3-1.4 2-.3.8-.5 1.5-.6 2.3h13.5z"/><path id="Path_3_" class="st1" d="M183.1 75.8c-.6 1.2-1.5 2.2-2.8 3.1s-2.9 1.3-4.8 1.3c-1.8 0-3.4-.3-4.9-1-1.4-.7-2.6-1.6-3.7-2.8-1-1.2-1.8-2.6-2.3-4.2-.5-1.6-.8-3.3-.8-5.2 0-1.7.3-3.4.8-4.9s1.4-2.9 2.4-4.1c1-1.2 2.2-2.1 3.7-2.8 1.4-.7 3-1.1 4.7-1.1 1.1 0 2.1.1 2.9.4s1.6.6 2.2.9c.6.4 1.1.8 1.5 1.3.4.5.7 1 .9 1.5V42.5h4.7V75c0 1.2 0 2.2.1 3 .1.8.1 1.3.2 1.5h-4.6c-.1-.3-.1-.7-.2-1.3-.1-.6-.1-1.3-.1-2v-.4zm-14.3-8.6c0 1.3.2 2.4.5 3.5s.8 2 1.4 2.8c.6.8 1.4 1.4 2.2 1.8s1.9.7 3.1.7c1.1 0 2.1-.2 3-.7.9-.5 1.6-1.1 2.2-1.9.6-.8 1.1-1.7 1.4-2.8s.5-2.3.5-3.5c0-2.6-.6-4.6-1.9-6.2-1.2-1.6-3-2.4-5.2-2.4-1.1 0-2.1.2-3 .6-.9.4-1.7 1-2.3 1.8s-1.1 1.7-1.5 2.7c-.2 1.1-.4 2.3-.4 3.6z"/><path id="Path_4_" class="st1" d="M193.4 89.7l6.1-13-10.6-21.9h5.5l7.7 17 7.4-17h5.2l-16 35h-5.3z"/><path id="Combined-Shape" class="st2" d="M14 81.1l26.7-26.7c3.2-3.2 3.2-8.4 0-11.6-3.2-3.2-8.4-3.2-11.6 0L2.4 69.5c-3.2 3.2-3.2 8.4 0 11.6 3.2 3.2 8.4 3.2 11.6 0z"/><path id="Combined-Shape-Copy" class="st2" d="M40.8 69.5L14 42.7c-3.2-3.2-8.4-3.2-11.6 0-3.2 3.2-3.2 8.4 0 11.6L29.1 81c3.2 3.2 8.4 3.2 11.6 0 3.3-3.1 3.3-8.3.1-11.5z"/><path transform="rotate(-45.001 21.593 61.918)" class="st1" d="M13.4 53.7h16.4v16.4H13.4z"/></svg>