<svg id="Layer_1" xmlns="http://www.w3.org/2000/svg" viewBox="0 0 512 128"><style>.st0{fill:none}.st1{fill:#fff}.st2{fill:#7e8a88}.st3{fill:#a9b1b0}.st4{fill:#253e55}.st5{fill:#3e4f4e}.st6{fill:#354f5b}</style><path id="Container" class="st0" d="M0 0h512v128H0V0z"/><path class="st1" d="M1 52.9l1.6.6 2.2.4 2.5-.1 4.8-.9-.6-3-7.4 2.6-1.2.3z"/><path class="st2" d="M24.7 88.4c-3 .1-5.4.3-8.6.3-3.5 0-6.6-.5-9.5.2-4.4 1-4.9 2.4-1.8 3.7s6 1.1 10.4 1.3c4.4.2 7.4.1 12 0s10.9-.2 13.1-.3 8-.7 8-.7l.9-.5h-2.7L45 91.2s-.2.1-1.8 0-4.6-.4-4.2-.9c.4-.5 1.2-1.3 1.9-1.4.8-.1 2.7-.8 2.7-.8h-4.1l-.7-.6-8 .2-6.1.7z"/><path class="st3" d="M18.4 36.9l-1-.7-.6-.8-.2-1.5-.9.1-1.7 1-3.7 2.3-4 3.2L4 43.6l-.9 2.8-.5 2 .6 2.3.9 1.8 1.8-.3 4.3-1.1 1.1.6-.2.7-1.7 1.1-2.1.3 2.6.7.9.6 3 1.7 1.2 1.9.6 3.2.2 2.9 1 5.1 1.1 3-2.9 3.6-1.1 2.4-.5 4.9.1 2.1.9.5 2.3.1 2.4-.3.4-.6-.2-1.7-.1-2.6.5-1.2 1.8-1.4 1.1 1.9 1 2.5.9 3v4.2l.3 1 1.4 1 2.3.4 2.1-.4 1.5-1.3-.6-2.1-1-4.5-.5-6.8-.1-3.5 1.1-1.3 1.1.5 4.4 1.5 4.1.5 1.7-.1-.4 2.7-1.2 3.1-1.3 3.2-.3 3.4 1.4.4 2.5-.2 2.1-.7-.2 3.7 1.1 1 2.3.6 2.9-1V88l.7-2.9 1.3-3.3 1.6-3.4v-2.7l.7-2.6 1.3-3.3.6-3.7.4-3.9 2.2.7.9 1.7 1.2 2.5 1.6 2 2 1.5.9.4 1.3 1.3 1.4.4 3.4-1-1.8-1.1-2-.7-1.9-.2-2.2-1.2-1.7-2.2-1.3-3.1-1.5-2.4-2.9-1.8-.7-1.6-2.1-2.9-3.4-3.2-2.5-2.6-1.2-.6-3.5.4-5.5.9-7.8 1.5-.9-.7-.7-1.1-1.3-1.6-2.1-.9-2.9-.7-2.5-1-.7-1-1.8-.2-2.3 1-3.5 1.5-2.2.2L7.7 48l-1.1-1 .1-1 1-1.9 1.5-1.9 1.6-1.4 1.8-1.3 1.7-.7 2.9-1 1.3-.6z"/><path class="st2" d="M32.1 71.3c1.2.4 6.5 2.5 11.5 2.2.1.9.2 1.6-.2 1.6s-.4 2.7.1 3.5c.5.8 1.8 3.1 1.8 3.9 0 .8-2 .5-2.5 0-.6-.5-1.8-1.9-1.8-1.9l.9-3 .3-2.4s-2.8 0-4.1-.3-3.6-.8-4.7-1.2c-1.1-.4-2.2-1-2.2-1l.9-1.4z"/><path transform="rotate(-27.327 36.796 23.072)" class="st4" d="M28.9 18.1h15.8V28H28.9z"/><path transform="rotate(-27.327 36.796 23.072)" class="st5" d="M28.9 18.1h15.8V28H28.9z"/><path class="st0" d="M22.9 86.5c-.1-.5 0-1.5 0-1.8 0-.2.3-.8.4-1.1-.9-2.5-2.3-4.7-3.4-7.1-.1-.2-.5-.4-.8-.7.1.4.3 1 .3 1.1.9 3.1-1.3 3-1.4 6.8 0 .8.7 2.9 1.4 3.2.3.1 1.7.9 2.8 1.6.1.1.2.1.3.2.4-.7.5-1.7.4-2.2zM11.1 51.9c-.5-.7-1-.4-1.5-.3-2.3.6-4.4 1.5-7.6 1.4-1 0 1 .4 1.1.4 2.3.2 4.5.1 6.7-.7 1.5-.5 1.3-.6 1.3-.8zM23.5 86.1c0 .4.1 1.2.1 1.5 0 .2-.1.9-.1 1.5.3.2.5.3.7.3.3-1.4 0-3.4-.3-4.5 0-.1-.1-.3-.1-.4-.1.1-.1.2-.1.3-.1.2-.2.9-.2 1.3zM42.9 75.8s-.1-.1-.3-.1c-.1.5-.2.9-.3 1.4-.2.8-.3 1.6-.6 2.4-.5 1.4-1.1 2.8-1.7 4.1-.6 1.2-.6 2.5-.5 3.9 1.2.3 2.3.4 3.4.1.9-.2 1.5-.8 1.9-1.7.6-1.4.1-2.7-.5-3.9-.8-2-1.8-3.9-1.4-6.2z"/><path class="st0" d="M68.6 70.4c-.4.1-1 0-1.4-.2-2-.8-3.7-1.9-4.6-4-.4-.9-.7-1.8-1.1-2.7-.5-1.3-1.4-2.3-2.5-3.2-.2-.2-.4-.3-.7-.3-.2 0-.4.3-.6.4-.2-.3-.4-.5-.5-.8-1.1-2.6-3-4.7-4.9-6.7-1.2-1.3-2.5-2.4-3.8-3.7-.6-.5-1.2-.8-2-.6-1.6.2-3.2.3-4.7.7-3.6.8-7.3 1.4-11.1 2.1 1 .4 1.8.7 2.6 1.1 1.6.8 1.9 2.5.7 3.8-.3.4-.8.7-1.2.9-1.6.9-2.6 2.2-3.5 3.9-.8 1.5-1.8 3-2.8 4.5-.4.5-.9 1-1.5 1.4-1.1.8-2.4.5-3.1-.7-.3-.5-.5-1-.6-1.5-.3-1.9-.9-3.7-1.6-5.6-.7-1.8-.7-3.7-.2-5.6.1-.5.3-1 .8-1.3.4.6.1 1.1-.1 1.6-.5 1.5-.4 2.9 0 4.4.6 2 1.5 4 1.7 6.2.1.8.4 1.6 1.3 1.9.8.3 1.4-.4 1.9-.9 1.4-1.4 2.4-3 3.2-4.8.8-1.7 1.9-3 3.5-4 .5-.3.9-.6 1.3-1 .8-.8.7-1.8-.3-2.4-.3-.2-.7-.3-1-.5-1.1-.5-2.3-.9-3.4-1.5-1.8-1.2-3-3.1-5.1-4 .5 0 1 0 1.5.2.6.3 1.1.7 1.6 1.1.7.6 1.4 1.2 2.3 1.9-.5-1.5-.7-1.8-1.5-2.5-1.2-1-2.6-1.3-4-1.5-1.2-.1-2.1-.6-3-1.3-.4-.3-.8-.7-1.2-.9-.5-.2-1.1-.3-1.6-.1-.9.4-1.8.9-2.5 1.5-.8.6-1.6.9-2.5 1-2.2.2-4 1.1-5.2 3-.2.2-.4.4-.7.6-.2 0-.3 0-.2-.2.3-.7.5-1.3.8-2-.5-.5-1.4.7-2.3.9-.2.1-.4.1-.4-.1.6-.5 1.1-.9 1.6-1.4.1-.4-1.3-.3-1.8-.4-.2-.1-.2-.2 0-.3.7-.1 1.3-.2 2.1-.1.1-2.1 1.2-3.7 2.7-5 2.2-1.9 4.7-3.2 7.5-4.1.4-.1.8-.3 1.2-.4-.6-.4-1.2-.7-1.4-1.1-.3-.5-.2-1.1-.2-1.8-1.3.7-2.5 1.4-3.6 2.1-2.7 1.5-5 3.4-7 5.7-1.3 1.6-2.1 3.3-2.4 5.3-.3 1.9.2 3.7 1.1 5.1 1.8-.2 2.7-.7 4-1.1.6-.2 1.2-.4 1.9-.5.7-.2 1.3.2 1.5.7.2.6 0 1.2-.6 1.5-.5.3-1 .5-1.5.7-.2.1-1 .2-1.6.3 1.7.2 4 .3 5.6.3.7 0 1-.6 1.2-1 .9.4.9.6 1.1 1.3-.1.1-.5-.2-.6-.1-1.2.9-2.7.3-4.1.6.3.2.7.5 1 .6 1.7.5 2.8 1.7 3.3 3.3.2.6.3 1.3.4 1.9l.3 3.3c.2 2.7.8 5.3 2 7.7.2.5.5 1 .7 1.4.1 0 .1 0 .2-.1 0-.5.1-1 .1-1.5.3.1.4.3.4.4.5 2.9 1.8 5.4 3.2 8 1.7 3.3 3 6.7 2.3 10.5-.1.5.2.8.6 1.1 1.5 1 3 1.1 4.7.7.3-.1.5-.3.8-.4.4-.2.6-.6.4-1.1l-.6-2.4c-.3-1.3-.8-2.6-.9-3.9-.3-1.8-.4-3.7-.5-5.5-.1-.9.1-1.8.1-2.7v-.9c-.5.2-.8.3-1.2.5-.3.1-.4 0-.2-.2 1.4-2 3.3-3.5 4.5-5.6.2-.1.3 0 .2.2l-1.3 2.6c3.8 1.6 7.5 2.5 11.6 1.9 0-.9.1-1.7.1-2.6.1-.2.2-.2.3 0 .3 1.1.6 2.2.3 3.4-.3 1.2-.4 2.5.1 3.7.3.7.5 1.4.9 2 .9 1.2.9 2.5.8 3.9-.2 1.7-.3 3.3-.5 5-.1.4-.1.8.4 1.1 1.4 1.1 3.4 1.1 5 .1 0-.9-.2-1.9 0-2.9.7-3.2 1.5-6.3 3.3-9.2.3-.5.4-1.1.4-1.7 0-1.3 0-2.6.4-3.8.5-1.2 1-2.5 1.4-3.7.9-2.4.8-5 .9-7.5V62c2.2.4 2.8.7 3.5 1.9.3.5.5 1 .7 1.5 1 2.4 2.5 4.3 4.8 5.5.4.2.7.5 1 .8.6.4 1.1 1 2 .8-.4-.4-1-.5-1.2-1.3 1 .5 1.9.8 3 .6-.5-1-1.1-1.7-2.2-1.4z"/><path class="st6" d="M23.9 84.2l-.4-.8s0 .1-.1.2c.1.3.2.5.3.8l.2-.2z"/><path class="st0" d="M11.1 51.9c-.5-.7-1-.4-1.5-.3-2.3.6-4.4 1.5-7.6 1.4-1 0 1 .4 1.1.4 2.3.2 4.5.1 6.7-.7 1.5-.5 1.3-.6 1.3-.8zM42.9 75.8s-.1-.1-.3-.1c-.1.5-.2.9-.3 1.4-.2.8-.3 1.6-.6 2.4-.5 1.4-1.1 2.8-1.7 4.1-.6 1.2-.6 2.5-.5 3.9 1.2.3 2.3.4 3.4.1.9-.2 1.5-.8 1.9-1.7.6-1.4.1-2.7-.5-3.9-.8-2-1.8-3.9-1.4-6.2zM24.1 89.4v-.2.2z"/><path class="st0" d="M68.6 70.4c-.4.1-1 0-1.4-.2-2-.8-3.7-1.9-4.6-4-.4-.9-.7-1.8-1.1-2.7-.5-1.3-1.4-2.3-2.5-3.2-.2-.2-.4-.3-.7-.3-.2 0-.4.3-.6.4-.2-.3-.4-.5-.5-.8-1.1-2.6-3-4.7-4.9-6.7-1.2-1.3-2.5-2.4-3.8-3.7-.6-.5-1.2-.8-2-.6-1.6.2-3.2.3-4.7.7-3.6.8-7.3 1.4-11.1 2.1 1 .4 1.8.7 2.6 1.1 1.6.8 1.9 2.5.7 3.8-.3.4-.8.7-1.2.9-1.6.9-2.6 2.2-3.5 3.9-.8 1.5-1.8 3-2.8 4.5-.4.5-.9 1-1.5 1.4-1.1.8-2.4.5-3.1-.7-.3-.5-.5-1-.6-1.5-.3-1.9-.9-3.7-1.6-5.6-.7-1.8-.7-3.7-.2-5.6.1-.5.3-1 .8-1.3.4.6.1 1.1-.1 1.6-.5 1.5-.4 2.9 0 4.4.6 2 1.5 4 1.7 6.2.1.8.4 1.6 1.3 1.9.8.3 1.4-.4 1.9-.9 1.4-1.4 2.4-3 3.2-4.8.8-1.7 1.9-3 3.5-4 .5-.3.9-.6 1.3-1 .8-.8.7-1.8-.3-2.4-.3-.2-.7-.3-1-.5-1.1-.5-2.3-.9-3.4-1.5-1.8-1.2-3-3.1-5.1-4 .5 0 1 0 1.5.2.6.3 1.1.7 1.6 1.1.7.6 1.4 1.2 2.3 1.9-.5-1.5-.7-1.8-1.5-2.5-1.2-1-2.6-1.3-4-1.5-1.2-.1-2.1-.6-3-1.3-.4-.3-.8-.7-1.2-.9-.5-.2-1.1-.3-1.6-.1-.9.4-1.8.9-2.5 1.5-.8.6-1.6.9-2.5 1-2.2.2-4 1.1-5.2 3-.2.2-.4.4-.7.6-.2 0-.3 0-.2-.2.3-.7.5-1.3.8-2-.5-.5-1.4.7-2.3.9-.2.1-.4.1-.4-.1.6-.5 1.1-.9 1.6-1.4.1-.4-1.3-.3-1.8-.4-.2-.1-.2-.2 0-.3.7-.1 1.3-.2 2.1-.1.1-2.1 1.2-3.7 2.7-5 2.2-1.9 4.7-3.2 7.5-4.1.4-.1.8-.3 1.2-.4-.6-.4-1.2-.7-1.4-1.1-.3-.5-.2-1.1-.2-1.8-1.3.7-2.5 1.4-3.6 2.1-2.7 1.5-5 3.4-7 5.7-1.3 1.6-2.1 3.3-2.4 5.3-.3 1.9.2 3.7 1.1 5.1 1.8-.2 2.7-.7 4-1.1.6-.2 1.2-.4 1.9-.5.7-.2 1.3.2 1.5.7.2.6 0 1.2-.6 1.5-.5.3-1 .5-1.5.7-.2.1-1 .2-1.6.3 1.7.2 4 .3 5.6.3.7 0 1-.6 1.2-1 .9.4.9.6 1.1 1.3-.1.1-.5-.2-.6-.1-1.2.9-2.7.3-4.1.6.3.2.7.5 1 .6 1.7.5 2.8 1.7 3.3 3.3.2.6.3 1.3.4 1.9l.3 3.3c.2 2.7.8 5.3 2 7.7.2.5.5 1 .7 1.4.1 0 .1 0 .2-.1 0-.5.1-1 .1-1.5.3.1.4.3.4.4.5 2.9 1.8 5.4 3.2 8 1.7 3.3 3 6.7 2.3 10.5-.1.5.2.8.6 1.1 1.5 1 3 1.1 4.7.7.3-.1.5-.3.8-.4.4-.2.6-.6.4-1.1l-.6-2.4c-.3-1.3-.8-2.6-.9-3.9-.3-1.8-.4-3.7-.5-5.5-.1-.9.1-1.8.1-2.7v-.9c-.5.2-.8.3-1.2.5-.3.1-.4 0-.2-.2 1.4-2 3.3-3.5 4.5-5.6.2-.1.3 0 .2.2l-1.3 2.6c3.8 1.6 7.5 2.5 11.6 1.9 0-.9.1-1.7.1-2.6.1-.2.2-.2.3 0 .3 1.1.6 2.2.3 3.4-.3 1.2-.4 2.5.1 3.7.3.7.5 1.4.9 2 .9 1.2.9 2.5.8 3.9-.2 1.7-.3 3.3-.5 5-.1.4-.1.8.4 1.1 1.4 1.1 3.4 1.1 5 .1 0-.9-.2-1.9 0-2.9.7-3.2 1.5-6.3 3.3-9.2.3-.5.4-1.1.4-1.7 0-1.3 0-2.6.4-3.8.5-1.2 1-2.5 1.4-3.7.9-2.4.8-5 .9-7.5V62c2.2.4 2.8.7 3.5 1.9.3.5.5 1 .7 1.5 1 2.4 2.5 4.3 4.8 5.5.4.2.7.5 1 .8.6.4 1.1 1 2 .8-.4-.4-1-.5-1.2-1.3 1 .5 1.9.8 3 .6-.5-1-1.1-1.7-2.2-1.4z"/><path class="st6" d="M24.2 89v0z"/><path class="st0" d="M11.1 51.9c-.5-.7-1-.4-1.5-.3-2.3.6-4.4 1.5-7.6 1.4-1 0 1 .4 1.1.4 2.3.2 4.5.1 6.7-.7 1.5-.5 1.3-.6 1.3-.8zM23.5 83.4s0 .1-.1.2c.1.3.2.5.3.8.1-.1.2-.3.2-.3l-.4-.7z"/><path class="st0" d="M19.4 76.1c.6.5 1 1.8 1 1.8l2.7 6.6c.1-.3.3-.6.4-.8-.9-2.5-2.3-4.7-3.4-7.1-.1-.2-.5-.4-.8-.7 0 .1.1.2.1.2zM42.9 75.8s-.1-.1-.3-.1c-.1.5-.2.9-.3 1.4-.2.8-.3 1.6-.6 2.4-.5 1.4-1.1 2.8-1.7 4.1-.6 1.2-.6 2.5-.5 3.9 1.2.3 2.3.4 3.4.1.9-.2 1.5-.8 1.9-1.7.6-1.4.1-2.7-.5-3.9-.8-2-1.8-3.9-1.4-6.2z"/><path class="st0" d="M68.6 70.4c-.4.1-1 0-1.4-.2-2-.8-3.7-1.9-4.6-4-.4-.9-.7-1.8-1.1-2.7-.5-1.3-1.4-2.3-2.5-3.2-.2-.2-.4-.3-.7-.3-.2 0-.4.3-.6.4-.2-.3-.4-.5-.5-.8-1.1-2.6-3-4.7-4.9-6.7-1.2-1.3-2.5-2.4-3.8-3.7-.6-.5-1.2-.8-2-.6-1.6.2-3.2.3-4.7.7-3.6.8-7.3 1.4-11.1 2.1 1 .4 1.8.7 2.6 1.1 1.6.8 1.9 2.5.7 3.8-.3.4-.8.7-1.2.9-1.6.9-2.6 2.2-3.5 3.9-.8 1.5-1.8 3-2.8 4.5-.4.5-.9 1-1.5 1.4-1.1.8-2.4.5-3.1-.7-.3-.5-.5-1-.6-1.5-.3-1.9-.9-3.7-1.6-5.6-.7-1.8-.7-3.7-.2-5.6.1-.5.3-1 .8-1.3.4.6.1 1.1-.1 1.6-.5 1.5-.4 2.9 0 4.4.6 2 1.5 4 1.7 6.2.1.8.4 1.6 1.3 1.9.8.3 1.4-.4 1.9-.9 1.4-1.4 2.4-3 3.2-4.8.8-1.7 1.9-3 3.5-4 .5-.3.9-.6 1.3-1 .8-.8.7-1.8-.3-2.4-.3-.2-.7-.3-1-.5-1.1-.5-2.3-.9-3.4-1.5-1.8-1.2-3-3.1-5.1-4 .5 0 1 0 1.5.2.6.3 1.1.7 1.6 1.1.7.6 1.4 1.2 2.3 1.9-.5-1.5-.7-1.8-1.5-2.5-1.2-1-2.6-1.3-4-1.5-1.2-.1-2.1-.6-3-1.3-.4-.3-.8-.7-1.2-.9-.5-.2-1.1-.3-1.6-.1-.9.4-1.8.9-2.5 1.5-.8.6-1.6.9-2.5 1-2.2.2-4 1.1-5.2 3-.2.2-.4.4-.7.6-.2 0-.3 0-.2-.2.3-.7.5-1.3.8-2-.5-.5-1.4.7-2.3.9-.2.1-.4.1-.4-.1.6-.5 1.1-.9 1.6-1.4.1-.4-1.3-.3-1.8-.4-.2-.1-.2-.2 0-.3.7-.1 1.3-.2 2.1-.1.1-2.1 1.2-3.7 2.7-5 2.2-1.9 4.7-3.2 7.5-4.1.4-.1.8-.3 1.2-.4-.6-.4-1.2-.7-1.4-1.1-.3-.5-.2-1.1-.2-1.8-1.3.7-2.5 1.4-3.6 2.1-2.7 1.5-5 3.4-7 5.7-1.3 1.6-2.1 3.3-2.4 5.3-.3 1.9.2 3.7 1.1 5.1 1.8-.2 2.7-.7 4-1.1.6-.2 1.2-.4 1.9-.5.7-.2 1.3.2 1.5.7.2.6 0 1.2-.6 1.5-.5.3-1 .5-1.5.7-.2.1-1 .2-1.6.3 1.7.2 4 .3 5.6.3.7 0 1-.6 1.2-1 .9.4.9.6 1.1 1.3-.1.1-.5-.2-.6-.1-1.2.9-2.7.3-4.1.6.3.2.7.5 1 .6 1.7.5 2.8 1.7 3.3 3.3.2.6.3 1.3.4 1.9l.3 3.3c.2 2.7.8 5.3 2 7.7.2.5.5 1 .7 1.4.1 0 .1 0 .2-.1 0-.5.1-1 .1-1.5.3.1.4.3.4.4.5 2.9 1.8 5.4 3.2 8 1.7 3.3 3 6.7 2.3 10.5-.1.5.2.8.6 1.1 1.5 1 3 1.1 4.7.7.3-.1.5-.3.8-.4.4-.2.6-.6.4-1.1l-.6-2.4c-.3-1.3-.8-2.6-.9-3.9-.3-1.8-.4-3.7-.5-5.5-.1-.9.1-1.8.1-2.7v-.9c-.5.2-.8.3-1.2.5-.3.1-.4 0-.2-.2 1.4-2 3.3-3.5 4.5-5.6.2-.1.3 0 .2.2l-1.3 2.6c3.8 1.6 7.5 2.5 11.6 1.9 0-.9.1-1.7.1-2.6.1-.2.2-.2.3 0 .3 1.1.6 2.2.3 3.4-.3 1.2-.4 2.5.1 3.7.3.7.5 1.4.9 2 .9 1.2.9 2.5.8 3.9-.2 1.7-.3 3.3-.5 5-.1.4-.1.8.4 1.1 1.4 1.1 3.4 1.1 5 .1 0-.9-.2-1.9 0-2.9.7-3.2 1.5-6.3 3.3-9.2.3-.5.4-1.1.4-1.7 0-1.3 0-2.6.4-3.8.5-1.2 1-2.5 1.4-3.7.9-2.4.8-5 .9-7.5V62c2.2.4 2.8.7 3.5 1.9.3.5.5 1 .7 1.5 1 2.4 2.5 4.3 4.8 5.5.4.2.7.5 1 .8.6.4 1.1 1 2 .8-.4-.4-1-.5-1.2-1.3 1 .5 1.9.8 3 .6-.5-1-1.1-1.7-2.2-1.4z"/><path class="st5" d="M72.1 71.1c-1.4-.9-2.8-1.4-4.4-1.6-1.9-.3-3.5-1.6-4.4-3.5-.4-.9-.7-1.9-1.2-2.8-.8-1.7-1.9-3.3-3.7-4.1-.4-.2-.7-.6-1-.9-.9-1.6-1.9-3.1-3.2-4.3-1.7-1.8-3.5-3.5-5.2-5.3-.6-.6-1.4-.8-2.3-.8-1.8 0-3.6.4-5.3.8l-9.9 1.8c-1.2.2-1.4 0-2-1.1-1-2-2.6-3.1-4.7-3.4-1.7-.2-3.2-.6-4.4-1.8-.6-.6-1.6-1-2.5-.7-1.1.4-2.2.8-3.1 1.4-.8.5-1.6.9-2.6 1-1.3.1-2.5.5-3.6 1.3-.6.4-1 .3-1.5-.1.1-2.1 1.2-3.7 2.8-4.9 1.8-1.5 3.9-2.7 6.1-3.5.8-.3 1.7-.6 2.5-.9.4-.1.8-.3.7-.8-.1-.3-.5-.7-.7-.7-1-.2-1.5-.5-1.2-1.6.1-.4-.1-.9-.6-1-.4 0-.8.1-1.2.3-.5.3-1 .8-1.6 1C11.4 36 9 37.4 7 39.3c-2.2 2.2-4 4.4-4.5 7.6-.1.3-.2.7-.2 1l-1.8-.6c-.4-.1-.5.2-.2.4l.6.6c.4.3 1.5 1.1 1.5 1.1.1.5.7 2.4 1.3 3-1 .1-2.2.1-3.3-.2-.4 0-.4.3 0 .6.2.2.4.3.7.5.8.4 1.8.8 2.8.8 1.8.1 3.6.1 5.3.6.2.1.5.1.7.2.9.5 1.8 1.1 2.8 1.6 1 .4 1.5 1.2 1.9 2.1.6 1.6.7 3.3.7 4.9 0 1.9.3 3.7.9 5.4.6 1.7 1.2 3.5 1.8 5.2.6.8.8 1.1 1.3 1.7.3.3.7.5.8.7 1.2 2.3 2.5 4.6 3.4 7.1.1-.1.1-.2.1-.2l.4.8s-.1.1-.2.3c0 .1.1.3.1.4.3 1 .5 2.8.4 4.1v.4c0 .2-.1.5-.1.8.2 1.1.4 1.5 1.4 2.1 1.6 1 3.3 1.2 5.1.7 1.8-.5 2.3-1.4 1.8-3.2-.1-.2-.1-.4-.2-.6-.3-1-.7-2-.9-3.1-.8-3.8-.9-7.6-.6-11.4 0-.6.2-1.1.9-1.3 3.2 1.9 6.9 2.2 10.6 2.4-.4 2.3-1 4.3-2 6.2-.7 1.4-1.1 2.8-1.3 4.4-.1 1.4.1 1.7 1.5 2 1.5.3 3 .1 4.5-.6-.1.8-.1 1.4-.1 2-.2 1.5 0 1.8 1.3 2.4.3.1.5.3.8.4 1.4.4 2.9.5 4.2-.3.5-.3.7-.6.7-1.3-.2-4 1.2-7.7 3.1-11.1.4-.8.6-1.5.6-2.4 0-2.2.2-4.4 1.4-6.4.5-.8.7-1.7.9-2.7.2-1.8.3-3.6.5-5.4 0-.1.1-.2.2-.3.2 0 .4 0 .5.1 1.1.6 1.6 1.6 2.1 2.7 1 2.5 2.6 4.5 5.2 5.6.3.1.5.4.7.6.8 1 1.9 1.5 3.2 1.3 1.2-.2 2.4-.6 3.6-.8 0 0 .1-.1.1-.3-.9-.4-1.4-.5-1.9-.8zm-69-17.6C3 53.4 1 53 2 53c3.2.1 5.3-.8 7.6-1.4.5-.1 1-.4 1.5.3 0 .1.2.3-1.2.8-2.2.8-4.5 1-6.8.8zm41.7 32.4c-.4.9-1 1.4-1.9 1.7-1.1.3-2.2.2-3.4-.1-.1-1.4 0-2.7.5-3.9.6-1.4 1.2-2.7 1.7-4.1.3-.8.4-1.6.6-2.4.1-.4.2-.9.3-1.4.2.1.3.1.3.1-.4 2.2.6 4.2 1.5 6.1.5 1.3 1.1 2.5.4 4zm23.3-15c.1.8.8.9 1.2 1.3-.9.2-1.4-.4-2-.8-.3-.2-.6-.6-1-.8-2.3-1.2-3.8-3.1-4.8-5.5-.2-.5-.4-1-.7-1.5-.7-1.2-1.3-1.5-3.5-1.9v.8c-.1 2.5 0 5.1-.9 7.5-.5 1.2-1 2.5-1.4 3.7-.5 1.2-.4 2.5-.4 3.8 0 .6-.2 1.2-.4 1.7-1.7 2.8-2.6 6-3.3 9.2-.2.9 0 2 0 2.9-1.6 1.1-3.7 1-5-.1-.4-.3-.4-.7-.4-1.1.2-1.7.4-3.3.5-5 .1-1.4.1-2.7-.8-3.9-.4-.6-.6-1.3-.9-2-.5-1.2-.4-2.4-.1-3.7.3-1.2 0-2.3-.3-3.4-.1-.2-.2-.2-.3 0 0 .8-.1 1.6-.1 2.6-4.1.6-7.9-.2-11.6-1.9.5-.9.9-1.8 1.3-2.6.1-.2 0-.2-.2-.2-1.3 2.1-3.1 3.6-4.5 5.6-.2.2-.1.3.2.2.4-.1.7-.3 1.2-.5v.9c0 .9-.2 1.8-.1 2.7.1 1.8.2 3.7.5 5.5.2 1.3.6 2.6.9 3.9l.6 2.4c.1.5 0 .8-.4 1.1-.3.1-.5.3-.8.4-1.6.4-3.2.3-4.7-.7-.4-.3-.7-.5-.6-1.1.7-3.8-.6-7.2-2.3-10.5-1.3-2.6-2.6-5.1-3.2-8 0-.1-.1-.3-.4-.4 0 .5-.1 1-.1 1.5-.1 0-.1 0-.2.1-.2-.5-.5-1-.7-1.4-1.2-2.4-1.7-5-2-7.7-.1-1.1-.1-2.2-.3-3.3-.1-.6-.2-1.3-.4-1.9-.5-1.7-1.6-2.8-3.3-3.3-.3-.1-.7-.3-1-.6 1.3-.3 2.9.4 4.1-.6.1-.1.4.2.6.1-.2-.7-.2-.9-1.1-1.3-.1.4-.5 1-1.2 1-1.6 0-3.9-.2-5.6-.3.6 0 1.4-.2 1.6-.3.5-.2 1-.4 1.5-.7.6-.4.8-.9.6-1.5-.2-.6-.8-.9-1.5-.7-.6.1-1.2.3-1.9.5-1.3.4-2.2.9-4 1.1-.9-1.4-1.5-3.2-1.1-5.1.3-2 1.1-3.7 2.4-5.3 2-2.3 4.3-4.2 7-5.7 1.2-.6 2.4-1.3 3.6-2.1.1.7 0 1.3.2 1.8.2.4.8.7 1.4 1.1-.4.1-.8.3-1.2.4-2.8.9-5.3 2.2-7.5 4.1-1.5 1.2-2.6 2.9-2.7 5-.8-.1-1.4.1-2.1.1-.2.1-.2.2 0 .3.6.1 2 0 1.8.4-.6.5-1 .9-1.6 1.4 0 .1.1.1.4.1.9-.2 1.9-1.4 2.3-.9-.3.7-.5 1.4-.8 2 0 .1 0 .2.2.2.2-.2.5-.4.7-.6 1.2-1.9 3-2.8 5.2-3 .9-.1 1.7-.4 2.5-1s1.6-1.1 2.5-1.5c.5-.2 1.1-.1 1.6.1s.9.6 1.2.9c.9.8 1.8 1.2 3 1.3 1.5.1 2.9.4 4 1.5.8.7 1 1.1 1.5 2.5-.9-.8-1.6-1.4-2.3-1.9-.5-.4-1-.8-1.6-1.1-.4-.2-.9-.2-1.5-.2 2 1 3.3 2.9 5.1 4 1 .7 2.2 1 3.4 1.5.4.2.7.3 1 .5.9.6 1 1.6.3 2.4-.4.4-.8.7-1.3 1-1.6 1-2.7 2.3-3.5 4-.8 1.8-1.8 3.4-3.2 4.8-.5.5-1.1 1.1-1.9.9-.9-.3-1.2-1.1-1.3-1.9-.2-2.2-1.1-4.1-1.7-6.2-.5-1.5-.5-3 0-4.4.2-.5.4-1 .1-1.6-.6.3-.7.8-.8 1.3-.6 1.9-.5 3.7.2 5.6.6 1.8 1.3 3.6 1.6 5.6.1.5.3 1.1.6 1.5.7 1.2 2 1.5 3.1.7.6-.4 1.1-.8 1.5-1.4 1-1.4 2-2.9 2.8-4.5.8-1.6 1.9-3 3.5-3.9.4-.2.9-.6 1.2-.9 1.2-1.3.9-3-.7-3.8-.8-.4-1.6-.7-2.6-1.1 3.8-.6 7.5-1.2 11.1-2.1 1.5-.4 3.1-.4 4.7-.7.8-.1 1.4.1 2 .6 1.3 1.2 2.6 2.4 3.8 3.7 1.9 2 3.8 4.1 4.9 6.7.1.3.3.5.5.8.2-.2.4-.4.6-.4.2 0 .5.2.7.3 1.1.9 1.9 2 2.5 3.2.4.9.7 1.8 1.1 2.7.9 2.1 2.6 3.2 4.6 4 .4.2 1 .3 1.4.2 1.1-.3 1.7.4 2.5 1.1-1.4.5-2.3.2-3.3-.3z"/><path class="st5" d="M13.8 49.1c.9-.7 1.6-.4 1.8.8-.5-.4-.7-.6-1.8-.8M17.4 72.9c-1.7 1.9-3.5 3.2-4 6.1-.5 2.9-.5 5.2-.5 6.7 0 1.4 2.2 1.1 3.2 1.2 1 .1 3.4-.1 3.5-.9.1-.8-.4-3.2-.3-4.3.1-1.1 1.9-2.5 1.9-2.5l-.1-.7s-1.7.6-2.1 1.8c-.4 1.1-.3 2.3-.3 3.2 0 .8.4 1.7.1 2.2-.3.5-3.9 1.1-4.9.3-1.1-.7 0-4.8 0-5.9 0-1.1.3-1.9.6-2.5.6-1 2.3-3.2 3.2-3.9.6-.5 0-.6 0-.6l-.3-.2z"/><g id="MqgkxU.tif"><path class="st5" d="M314 79.6h-5.5v-1.4-11.5c0-3.1-1.9-4.5-4.8-3.4-2 .8-3 1.6-2.9 3.9.2 3.7 0 7.4 0 11v1.4h-5.6v-1.5-11.8c0-2.6-1.6-3.8-4.1-3.3-2.4.5-3.5 1.9-3.5 4.3v12.3h-5.5v-21h5.4c.1.8.1 1.5.2 2.3 4.8-4.2 10.7-3.8 12.8.7 2.1-2.5 4.8-3.8 8.1-3.6 2.9.2 5.1 2 5.2 5 .2 5 .1 10 .1 15 .1.5.1 1 .1 1.6zM102.2 79.6h-5.4c-.3 0-.5-.5-.8-.7-.1-.1 0-.3 0-.5V51.7c0-.3 0-.7.1-1.1.3 0 .5-.1.8-.1 4.5 0 9-.1 13.5 0 5.4.1 9.1 3.9 9.1 9.2 0 5.4-3.6 9.3-9 9.5-2.4.1-4.8.1-7.1 0-.9 0-1.2.3-1.2 1.2.1 3 0 6 0 9.2zm.1-15.9c2.5 0 4.9.1 7.3 0 2.1-.1 3.6-1.8 3.7-3.8 0-2-1.3-3.8-3.4-3.9-2.5-.2-5 0-7.6 0v7.7zM236.3 79.6H231c0-.7-.1-1.4-.2-2.3-.4.3-.6.5-.9.7-4.3 3.7-10.5 2.7-13.4-2.2-2.4-4-2.1-10.6.6-14.3 3-4.1 8.9-4.7 12.7-1.4.3.2.6.5 1 .9V50.5h5.5v29.1zm-5.4-10.4v-3.1c0-.4-.1-.8-.3-1.1-1.7-2.6-6.6-2.8-8.5-.4-1.6 2.1-2 4.5-1.1 7 1.3 3.4 4.7 4.7 7.9 2.9 1.3-.7 2.2-1.6 2-3.3-.1-.6 0-1.3 0-2zM188 79.6h-5.4v-1.4-11c0-3.4-1.8-4.9-5.1-4.1-1 .2-2.1.9-2.9 1.5-.5.3-.8 1.1-.8 1.7-.1 3.9 0 7.9 0 11.8v1.5h-5.4V50.5h5.4v10.7c2.5-2.5 5.3-3.4 8.5-3.2 3.4.2 5.8 2.3 5.8 5.7.1 5.1 0 10.2 0 15.3 0 .2 0 .4-.1.6zM190.8 58.5c1.8 0 3.5-.1 5.1 0 .4 0 .9.5 1.1.9 1.6 4 3.1 8.1 4.6 12.1.2.4.3.9.6 1.5.3-.6.5-1.1.7-1.5 1.5-4 3-7.9 4.4-11.9.3-.9.7-1.3 1.7-1.3 1.5.1 3 0 4.7 0-.4 1-.7 1.9-1.1 2.8-2.9 7.1-5.8 14.2-8.6 21.4-1.8 4.4-4.5 6-9.2 5.5-.5-.1-1-.1-1.7-.2.3-1.6.5-3.2.8-4.7.9 0 1.8.1 2.6 0 2-.3 3.3-2.5 2.5-4.4-2.5-6.3-5.1-12.7-7.6-19-.3-.2-.4-.6-.6-1.2zM135.3 79.7c0-.7-.1-1.2-.1-1.9-.4.3-.8.5-1.1.7-3.7 2.5-8.6 2.2-11.3-.8-1.9-2.1-2.1-4.6-1.2-7.2.9-2.4 2.8-3.6 5.3-4 3-.5 5.7.1 8 2 1.2-3.8-.9-6.4-4.8-6.1-2.1.2-4 1-5.8 2.4-.6-1.1-1.3-2.1-1.7-3.2-.1-.3.3-.9.6-1.2 2.1-1.5 4.5-2.4 7.1-2.5 1.5-.1 3 0 4.5.3 3.8.7 5.9 3.4 6 7.4.1 4.3 0 8.6 0 12.8 0 .9-.3 1.1-1.1 1.1-1.4.1-2.9.2-4.4.2zm-.2-6.4c.4-1.4-.4-2.3-1.6-2.5-1.4-.3-2.9-.5-4.3-.4-1.6.2-2.6 1.6-2.6 3s1 2.7 2.6 2.9c1.4.2 2.8 0 4.2-.3 1.3-.4 2.2-1.2 1.7-2.7zM262.3 70.8h-15.8c.3 1.9 1.2 3.3 2.7 4.1 3.2 1.8 6.3.9 9.2-1.1.8 1.1 1.5 2.3 2.4 3.5-1.7 1.5-3.7 2.3-5.8 2.6-2.9.5-5.8.4-8.5-1-4.1-2.1-5.8-5.6-5.7-10.1.1-4.5 2.1-8 6.3-9.9 4-1.7 8-1.4 11.5 1.5 3 2.7 3.8 6.3 3.7 10.4zm-5.5-3.8c0-2.7-2.4-5-5.8-4.6-2.5.2-4.6 2.5-4.3 4.6h10.1zM164.5 61.8c-1.1 1.1-2.3 2.2-3.4 3.2-2.9-2.6-6.5-2.8-8.7-.6-2.4 2.5-2.3 6.9.1 9.3 2.2 2.2 5.7 1.9 8.5-.7 1.2 1.1 2.3 2.1 3.5 3.2-2.1 3.3-7.1 4.7-11.7 3.4-4.7-1.3-7.7-5.4-7.8-10.4 0-5.3 2.8-9.4 7.5-10.8 4.6-1.3 9.8.1 12 3.4zM271.9 79.6c-1.7 0-3.3.1-4.8 0-.3 0-.7-.7-.7-1-.1-2.5 0-5.1 0-7.6V60.1v-1.5h5.5v2.6c2.1-1.8 4-3.2 6.7-3.2v4.8c-1.9.6-3.6 1-5.3 1.6-1 .4-1.4 1.2-1.4 2.4.1 4.2 0 8.4 0 12.8z"/></g></svg>