<svg id="Layer_1" xmlns="http://www.w3.org/2000/svg" viewBox="0 0 512 128"><style>.st0{fill:none}.st1{fill:#3e4f4e}</style><path id="Container" class="st0" d="M0 0h512v128H0V0z"/><path class="st1" d="M17.7 83.7l7.1-15.5-11.6-23.3h7.7l7.6 15.5 7-15.5h7.3L25 83.7zM47.3 62.9c1.8 1.6 4.5 2.6 7.1 2.6 1.9 0 3.3-.9 3.3-2.2 0-3.9-12.6-2.5-12.6-10.9 0-5 4.8-8.1 10-8.1 3.4 0 7.1 1.3 8.8 2.6l-3.3 5c-1.3-1-3.1-1.8-5-1.8s-3.5.8-3.5 2.1c0 3.4 12.6 2 12.6 11 0 5-4.9 8-10.3 8-3.6 0-7.4-1.2-10.4-3.5l3.3-4.8zM90.2 70.8c-.9.3-3 .5-4.3.5-4.2 0-7.2-1.4-9-3.7-1.3-1.8-1.9-4.1-1.9-7.8v-9.1h-7.2v-5.9H75v-7.2h7v7.2h8.6v5.9H82v9.9c0 1.6.3 2.6.9 3.3.7.8 1.8 1.3 3.5 1.3 1 0 2.4-.2 2.8-.3l1 5.9zM0 44.9v-12h7V60.7c0 1.6.3 2.6.9 3.3.7.8 1.8 1.3 3.5 1.3 1 0 2.4-.2 2.8-.3l1.1 5.9c-.9.3-3 .5-4.3.5-4.2 0-7.2-1.4-9-3.7-1.4-1.8-2-4.1-2-7.8v-15zM0 87.5h113.3v7H0z"/></svg>