<svg id="Layer_1" xmlns="http://www.w3.org/2000/svg" viewBox="0 0 512 128"><style>.st0{fill:none}.st1{fill:#3e4f4e}</style><path class="st0" d="M0 0h512v128H0z" id="Container"/><g id="Logos"><g id="Vurb"><path class="st1" d="M0 46c2.4-.6 4.9-1.1 7.4-1.7.9 4.4 1.9 8.6 2.7 12.8 1.4 6.5 2.7 12.9 4.1 19.4.2.9.6 1.9 1 2.7.7 1.3 2 1.4 2.7 0 .7-1.5 1.2-3.1 1.5-4.6 1.4-6.5 2.7-13.1 4.1-19.6 1.2-5.5 4.2-9.5 10.2-10.5 3.3-.5 6.5.3 9.8 1.2-.9 2.5-1.7 4.9-2.5 7.3-1.5-.2-2.9-.4-4.3-.6-3.3-.3-4.9.9-5.6 4.1-1.2 5.5-2.3 11-3.5 16.5-.5 2.5-1.1 5-1.8 7.4-1 3.5-3.3 6-6.9 7.1h-4.6c-4.6-1.5-6.5-5.1-7.5-9.4-1.6-7.3-3.1-14.7-4.7-22-.6-3-1.4-6-2-8.9-.1-.4-.1-.8-.1-1.2zm101.3 41.5c-1.3-.3-2.5-.5-3.8-.9-1.2-.3-2.3-.8-3.4-1.1-2.8-.9-4-2.7-3.9-5.9.2-12.9.1-25.7.1-38.6h7.3c0 .6.1 1.2.1 1.7v34.5c0 1.2.4 1.7 1.5 2 2.5.7 5 .9 7.6.3 2.9-.7 5.1-2.3 6-5.3.9-3.1.1-5.9-2.4-8-1.6-1.3-3.5-2.3-5.4-3.2-1.4-.7-3-1.1-4.7-1.7.8-2.3 1.5-4.5 2.4-7.1 3 1.2 6 2.2 8.8 3.5 3.3 1.5 6 3.8 7.6 7.1.7 1.4 1.1 2.8 1.6 4.3v5.5c-.1.1-.2.2-.2.4-1.3 6.2-5.1 9.9-11.1 11.6-1.2.3-2.5.6-3.8.8-1.6.1-3 .1-4.3.1z"/><path class="st1" d="M47.6 87.5c-1.1-.2-2.2-.4-3.2-.7-5.6-1.6-8.8-5.5-9.1-11.2-.3-5.7-.1-11.5-.1-17.3h7.4v15.8c.1 3.5 2.3 5.8 5.8 5.9 1.1 0 2.2 0 3.3-.3 2.7-.6 4.2-2.4 4.3-5.1.1-7.4.1-14.8.1-22.2v-1.9h7.4v23.2c0 7.8-4 12.4-11.7 13.6-.2 0-.3.2-.5.2h-3.7zm40.2-36.2c-.8 2.3-1.5 4.5-2.3 6.7-1.7-.2-3.4-.4-5-.4-2.2 0-3.8 1.4-4.2 3.6-.2.9-.3 1.8-.3 2.7v22.9h-7.2c0-.3-.1-.5-.1-.7 0-8.4-.1-16.7 0-25.1.1-6.4 4.1-10.4 10.4-10.9 3-.2 5.8.2 8.7 1.2z"/></g></g></svg>