<svg id="Layer_1" xmlns="http://www.w3.org/2000/svg" viewBox="0 0 512 128"><style>.st0{fill:none}.st1{fill:#3e4f4e}.st2{fill:#7e8a88}</style><path class="st0" d="M0 0h512v128H0z" id="Container"/><g id="xowHDQ_1_"><path class="st1" d="M16.9 87c-1.2-13.7-2.4-26.5-3.6-39.8 1.2.6 2 1 2.7 1.5 5.7 4 11.4 7.9 17.1 11.9 3 2.1 3.2 3.8.8 6.7C28.5 73.7 23 80 16.9 87zM64.2 71.1C62.6 80.9 53.5 91 44.8 93c-1-8-1.9-15.9-2.9-23.9-.3-2.7.5-3.6 3.3-2.8 6.3 1.7 12.6 3.2 19 4.8zM95.5 71.7v-5.3h-7.6v-4.2h13.3v14.2c-6.2-.3-12.5-.2-18.6-1.1-3.5-.5-5.6-3.6-6.1-7.3-1.6-10 2.1-16.2 12.4-15.8 4 .1 8 0 12.3 0v4.4H88.9c-4.8 0-6.5 2-6.5 7.6 0 5.4 1.6 7.3 6.4 7.4 2 .1 4.2.1 6.7.1z"/><path class="st2" d="M232.4 75.9c-5.5.3-10.6.9-15.6.7-7.7-.2-11.8-5.5-11.1-13.4.4-4.4 1.3-8.6 6-10.3 5.3-1.9 10.9-2.3 15.6 1.3 5 3.8 4.2 9.5 3.3 14.7-.6 3.9-.9 3.8 1.8 7zm-20.5-11.7v1.9c.3 4 2.6 6.2 6.5 6.2s6.2-2.1 6.5-6.1c.1-1.5.1-3-.1-4.5-.5-3.6-2.9-5.5-6.5-5.4-4.3 0-6.4 2.6-6.4 7.9z"/><path class="st1" d="M38.5 68.1c1 8.6 2.1 17.2 3.2 26.2-7.2 1.7-14 1.4-20.5-1.5-2.2-1-2-3.2-.8-4.6C26.1 81.3 32 74.7 37.9 68c.1-.1.2 0 .6.1z"/><path class="st2" d="M181.3 76.2v-4.5h5.5c2.7 0 5.5.2 8.2-.1 1.3-.2 3.2-1.4 3.4-2.4.4-2.1-1.5-2.5-3.3-2.5-2.8-.1-5.7 0-8.5-.2-4.1-.3-6.1-2.3-6.3-6.1-.3-4.7 1.3-7.4 5.6-7.7 5.7-.4 11.4-.1 17.3-.1v4.3h-11.8c-1.1 0-2.3-.1-3.2.4-.8.5-1.8 1.7-1.7 2.6.1.8 1.3 2 2.2 2.1 3.1.3 6.3 0 9.4.4 4.8.5 6.5 2.5 6.5 6.9-.1 4.2-2.2 6.8-6.6 7-5.5.1-10.9-.1-16.7-.1z"/><path class="st1" d="M13.3 87.3C1.5 79.1-1.9 58.8 7.9 45.4c1 1.9 2.3 3.4 2.5 5 1.2 11.7 2.1 23.4 3.1 35 .1.6-.1 1.2-.2 1.9zM16.3 44.8c10.8-.7 20.6-1.3 31.5-2C45 48.6 42.7 53.4 40 58c-.4.8-3.2 1-4.2.4-5.7-3.6-11.1-7.6-16.6-11.5-.7-.4-1.4-.9-2.9-2.1zM145.6 76.2c-.1 2.2-.2 4-.3 5.8-4.5 1.4-5 1-5-3.4V58.9c4.4 0 8.5-.4 12.5.1 4.6.6 6.7 4.5 6.3 9.9-.4 4.2-3.4 7-7.8 7.3-1.9.1-3.7 0-5.7 0zm0-14.5v11.4c2.8-1 5.6-1.3 7.2-2.9 1-1 1.1-4.6.1-5.6-1.6-1.5-4.4-1.9-7.3-2.9zM65.5 68.1c-7.4-1.9-13.9-3.4-20.4-5.3-.9-.3-2-2.8-1.7-3.7 1.8-4.3 4-8.4 6.2-12.5.2-.4 2.3-.6 2.6-.1 4.3 5.6 8.5 11.3 12.5 17.1.9.9.6 2.5.8 4.5zM137.7 76.2c-5 0-9.6.1-14.1 0-2.8-.1-4.7-1.6-4.9-4.6-.2-3.3 1.1-5.2 4.4-5.7 3-.4 6-.4 9.4-.7-1.2-3.3-3.7-2.5-5.7-2.6-2.1-.1-4.3 0-6.7 0-.1-1.3-.1-2.4-.2-3.7 4.4 0 8.6-.2 12.8.1 2.9.2 4.9 2.2 5 5.1.2 3.8 0 7.7 0 12.1zm-5.4-7c-2.5 0-4.5-.1-6.5.1-.6.1-1.1 1.1-1.6 1.6.6.5 1.1 1.3 1.7 1.4 2 .2 4.1.1 6.2.1.1-1.2.2-2 .2-3.2zM49.5 36.1c-3.1 4.4-7.6 4-12 4.2-6.3.4-12.5.9-18.8 1.2-1.8.1-3.6-.7-6-1.3 8.6-9.4 25.6-11 36.8-4.1zM161.1 52.5h4.8c.1 2 .2 3.9.3 6.2 1.9 0 3.8-.1 5.6 0 4.3.3 6.1 2.1 6.2 6.4.1 3.6 0 7.1 0 10.9h-5.2v-7.8c0-5.5-.6-6-6.7-5.1v12.8H161c.1-7.7.1-15.4.1-23.4z"/><path class="st2" d="M233 52.4h5.7v11c0 8.4 0 8.4 8.3 8.4h3.4v4.3c-3.5 0-6.9.3-10.2-.1-4-.4-6.8-3.2-7-7.3-.4-5.3-.2-10.6-.2-16.3z"/><path class="st1" d="M103.9 75.9c0-3.9-.1-7.4 0-11 .1-3.6 1.9-5.7 5.5-6.1 2.5-.3 5.2-.1 7.9-.1v3.4c-.5.1-.9.3-1.3.3-6.8.3-6.8.3-6.8 7.1v6.4h-5.3zM64.3 56.6c-3.1-5.3-9-8.9-9.4-15.8 5.3 4 8.3 9.4 9.4 15.8z"/></g></svg>