<svg id="Layer_1" xmlns="http://www.w3.org/2000/svg" viewBox="0 0 512 128"><style>.st0{fill:none}.st1{fill:#3e4f4e}</style><path class="st0" d="M0 0h512v128H0z" id="Container"/><path class="st1" d="M59.1 64.7c0-7.6-6-13.7-13.5-13.9 0 0-4.7-.3-8.2-.5-3.5-.2-6.9-1-6.9-1s.5 3.4.6 5.9c.2 2.6.1 9.4.1 9.4 0 7.7 6.2 13.9 13.9 13.9h.2c-3.9-.1-7-3.3-7-7.1 0-3.9 3.2-7.2 7.2-7.2s7.2 3.2 7.2 7.2c0 3.6-2.7 6.6-6.2 7.1 7.1-.6 12.6-6.6 12.6-13.8zM-.5 63.2c0 7.6 6 13.7 13.5 13.9 0 0 4.7.3 8.2.5 3.5.2 6.9 1 6.9 1s-.5-3.4-.6-5.9c-.2-2.6-.1-9.4-.1-9.4 0-7.7-6.2-13.9-13.9-13.9h-.2c3.9.1 7 3.3 7 7.1 0 4-3.2 7.2-7.2 7.2s-7.2-3.2-7.2-7.2c0-3.6 2.7-6.6 6.2-7.1C5 50.1-.5 56-.5 63.2z"/><circle class="st1" cx="13.6" cy="56" r="6.7"/><circle class="st1" cx="44.8" cy="71.9" r="6.7"/><g><path class="st1" d="M86.5 66.1c-1.9 1.3-4.3 1.4-6.5 1.4h-4.5v10H73V52.7h7c2.3 0 4.6.2 6.5 1.4 2 1.4 3.1 3.5 3.1 6 0 2.4-1.1 4.6-3.1 6zm-2.3-10.5c-1.4-.7-2.8-.6-4.3-.6h-4.4v10.3h4.4c1.6 0 2.9 0 4.3-.6 1.9-.9 2.9-2.5 2.9-4.5 0-2.1-1.1-3.8-2.9-4.6zM99.1 77.5V52.7h13.8v2.2h-11.3v8.9h10.9V66h-10.9v9.1h11.3v2.2H99.1zM133.2 68.2l7.1 9.2h-3.2l-8.6-11.2c1.6 0 3.9.1 5.4-.4 2.5-.7 4.2-2.7 4.2-5.3 0-1.9-1.1-3.9-2.8-4.8-1.6-.8-3.1-.9-4.9-.9H126v22.5h-2.5V52.7h6.4c1.9 0 4.4.1 6.2.9 2.8 1.3 4.5 4 4.5 7.1.1 4.2-3.2 7.3-7.4 7.5zM162.1 77.9c-7.2 0-13.2-5.6-13.2-12.8 0-7.2 5.8-12.8 13.2-12.8 3.8 0 7.4 1.6 10 4.4.6.7 1.2 1.5 1.6 2.3h-2.8c-1.9-2.8-5.3-4.5-8.8-4.5-5.8 0-10.6 5-10.6 10.6s5 10.5 10.7 10.5c3.7 0 6.7-1.9 8.8-4.7h2.8c-2.4 4.3-6.9 7-11.7 7zM195.4 77.9c-7.1 0-13.4-5.6-13.4-12.7 0-7.2 6-13 13.4-13 7.2 0 13.4 5.7 13.4 12.8s-6.2 12.9-13.4 12.9zm0-23.4c-6 0-10.8 4.9-10.8 10.7 0 5.7 5 10.4 10.8 10.4 5.9 0 10.9-4.7 10.9-10.5s-4.9-10.6-10.9-10.6zM218.5 77.5V52.7h2.5v22.5h10.5v2.2h-13zM260.1 77.5l-3.7-8.3h-11.7l-3.7 8.3h-2.6l10.8-24.8h2.8l10.9 24.8h-2.8zm-9.4-22l-5 11.4h9.8l-4.8-11.4zM274.5 54.9v22.5H272V54.9h-5.8v-2.2h14.1v2.2h-5.8zM305.4 77.5l-3.7-8.3H290l-3.7 8.3h-2.6l10.8-24.8h2.8l10.9 24.8h-2.8zm-9.5-22l-5 11.4h9.8l-4.8-11.4z"/></g></svg>