<svg id="Layer_1" xmlns="http://www.w3.org/2000/svg" viewBox="0 0 512 128"><style>.st0{fill:none}.st1{fill:#3e4f4e}</style><path id="Container" class="st0" d="M0 0h512v128H0V0z"/><path class="st1" d="M32.8 47.1H2.5c-1.7 0-2.5.8-2.5 2.5V80c0 1.7.8 2.5 2.5 2.5h30.3c1.7 0 2.6-.8 2.6-2.5V49.6c0-1.7-.9-2.5-2.6-2.5zM17.7 78.9c-7.8 0-14.2-6.3-14.2-14.2 0-7.8 6.3-14.2 14.2-14.2 7.8 0 14.2 6.3 14.2 14.2 0 7.9-6.4 14.2-14.2 14.2z"/><path class="st1" d="M25.6 64.6c1-.6 1.9-1.5 1.9-3.1 0-1-.3-1.8-1-2.4-.8-.8-2.1-1.5-3.7-1.5h-10c-1.8 0-3.3.2-4.2 1.1-.8.8-1.1 1.7-1.1 3.4 0 1.6 1.2 3.1 3 3.8L7 71.8h3.6l3-5.3h1.6c.2.3.5.6.9.8v4.5H23c3.2 0 5.3-1.3 5.3-3.9 0-2-1-2.7-2.7-3.3zm-9.4-2.2c-.5.3-.8.7-1.1 1.2H13c-1.5 0-2.4-.4-2.4-1.6 0-1.2.9-1.6 2.4-1.6h3.1v2zm1.5 3.1c-.4 0-.7-.3-.7-.7 0-.4.3-.7.7-.7.4 0 .7.3.7.7 0 .4-.3.7-.7.7zm1.6-5.2h3c1.3 0 2 .7 2 1.6s-.9 1.7-2.2 1.7h-1.9c-.2-.4-.5-.8-.9-1.1v-2.2zm5.9 7.1c0 1.1-.8 1.5-2.2 1.5h-3.7V67c.4-.3.8-.7 1-1.2h2.6c1.6 0 2.3.6 2.3 1.6zM46.4 50.9h12.9c3.6 0 6.4 1 8.2 2.9 1.6 1.6 2.4 3.8 2.4 6.4v.1c0 4.5-2.5 7.4-6 8.7l6.9 10.1h-7.2l-6-9h-4.9v9h-6.2V50.9zm12.5 13.7c3 0 4.7-1.6 4.7-4v-.1c0-2.7-1.9-4-4.9-4h-6.2v8.1h6.4zM76 65.1c0-8.1 6.3-14.7 15-14.7s14.9 6.5 14.9 14.5v.1c0 8-6.3 14.6-15 14.6S76 73.1 76 65.1zm23.5 0c0-4.9-3.5-8.9-8.5-8.9s-8.5 3.9-8.5 8.8c0 4.8 3.5 8.9 8.5 8.9s8.5-4 8.5-8.8zM112 65.1c0-8.1 6-14.7 14.7-14.7 5.3 0 8.5 1.8 11.1 4.3l-3.9 4.5c-2.2-2-4.4-3.2-7.2-3.2-4.8 0-8.2 3.9-8.2 8.8v.2c0 4.8 3.3 8.9 8.2 8.9 3.2 0 5.2-1.3 7.4-3.3l3.9 4c-2.9 3.1-6.1 5-11.6 5-8.3 0-14.4-6.4-14.4-14.5zM145.1 50.9h6.2v12.3l11.4-12.3h7.5l-11.5 12 12 16.2h-7.4l-8.7-12-3.3 3.4v8.6h-6.2V50.9zM177.3 50.9h13.1c3.2 0 5.8.9 7.4 2.5 1.3 1.3 1.9 2.9 1.9 4.8v.1c0 3.2-1.7 5-3.7 6.1 3.3 1.2 5.3 3.1 5.3 6.9v.1c0 5.2-4.2 7.7-10.5 7.7h-13.4V50.9zm16.3 8.4c0-1.9-1.4-2.9-4.1-2.9h-6.1v6h5.7c2.7-.1 4.5-1 4.5-3.1zm-3.1 8.2h-7.2v6.2h7.4c2.7 0 4.4-1 4.4-3.1v-.1c0-1.9-1.4-3-4.6-3zM206.5 65.1c0-8.1 6.3-14.7 15-14.7s14.9 6.5 14.9 14.5v.1c0 8-6.3 14.6-15 14.6-8.6 0-14.9-6.5-14.9-14.5zm23.5 0c0-4.9-3.5-8.9-8.5-8.9S213 60.1 213 65c0 4.8 3.5 8.9 8.5 8.9s8.5-4 8.5-8.8zM250.2 56.6h-8.6v-5.7H265v5.7h-8.6v22.5h-6.2V56.6z"/></svg>