<svg id="Layer_1" xmlns="http://www.w3.org/2000/svg" viewBox="0 0 512 128"><style>.st0{fill:none}.st1{fill:#3e4f4e}</style><path class="st0" d="M0 0h512v128H0z" id="Container"/><g id="Logos"><g id="Periscope"><path class="st1" d="M14.2 90c-1.8-1.9-3.6-3.8-5.5-5.8-.9.9-1.7 1.6-2.8 2.6-.5-.8-.9-1.5-1.4-2.4 1.4-.2 2.5-.3 3.5-.4.2-.2.3-.5.5-.7-1.9-1.7-3.8-3.4-5.7-5h11.6c-1.7 1.9-3.5 3.7-5.3 5.7h11.2c-2.3-2.2-4.1-3.9-6-5.7-1.9-1.9-3.7-3.8-5.8-5.9-2.1 2.2-3.9 4.1-5.7 6-.8-1.8-1.7-3.6-2.7-5.8h8.3c-2-2.1-3.7-3.9-5.3-5.6H3h11.2l-.1-.1c-1.7 1.8-3.3 3.5-5.1 5.4h11.3c-1.3-1.1-2.1-1.9-3-2.7-.8-.8-1.6-1.6-2.6-2.7 5.1-.4 5.1-.4 5.9 4 .1.6.2 1.3.2 1.4-1.9 2.3-3.5 4.3-4.9 6.1 1 0 2.7-.2 4.3 0 1.5.2 3.5-1 4.9 1.7-1.4 1.3-2.8 2.6-4.3 3.9 3.3.6 6.7-.5 10.2.8-1.8 1.9-3.4 3.6-4.9 5.3-.2 0-.3 0-.5-.1l.1.1c-1.8-1.9-3.6-3.9-5.2-5.6-2.2 2-4.1 3.8-6 5.6 0-.1-.2-.1-.3-.1zm52.1 6c-1.6 1.7-3.3 3.5-5.1 5.5h5c0 .1.1.3.1.4-1 .6-2.1 1.2-3.2 1.9-.8-.7-1.4-1.3-2.6-2.3l-3.9 4.5c-1 1.2-2.1 1.3-3.2 0-1.2-1.4-2.6-2.8-4.1-4.5-2.1 2.3-4 4.3-5.8 6.3l.1-.1c-.1-.1-.2-.1-.2-.1l.1.1c-1.8-2-3.6-3.9-5.7-6.2-1.5 1.6-2.8 2.9-4.1 4.4-1.2 1.4-2.2 1.2-3.4 0-1.2-1.4-2.5-2.9-3.8-4.4-1.2 1-1.9 1.6-2.6 2.3-1-.6-2.1-1.2-3.6-2.1H26c-2-2.2-3.6-3.9-5.2-5.7h-.1 10.6l.6.9c-1.8 1.4-3.6 2.8-5.7 4.4h11c.1-.2.2-.3.3-.5-1.8-1.6-3.6-3.3-5.3-4.9h11.2c-1.8 1.7-3.6 3.4-5.4 5 .1.2.2.3.4.5h10.2c.1-.2.2-.3.4-.5-1.8-1.7-3.6-3.3-5.4-5h11.2c-1.7 1.7-3.4 3.5-5.2 5.4h10.8c.2-.3.5-.6.7-.9-1.8-1.4-3.6-2.8-5.7-4.4h10.9zM25.8 31.8c-1.4-1.5-2.7-3.1-4.2-4.7 3-2.2 6.6-.5 9.9-1.4-.6-.8-1.2-1.4-1.9-2.4 2-.5 3.9-1 5.7-1.5.1.2.2.3.3.5-1.3.9-2.5 1.8-3.8 2.7.2.2.3.5.5.7h10.8c-1.4-1.5-2.6-2.7-4.1-4.4h8.9c-1.5 1.6-2.7 2.9-4.2 4.4h11.2c-1.5-1.2-2.7-2.1-3.9-3 .2-.3.4-.6.6-.8 1.8.5 3.7.9 5.7 1.4-.7.8-1.2 1.5-1.8 2.4 3.3.9 6.8-.8 9.8 1.4-1.5 1.7-2.8 3.2-4.2 4.7l.1-.1c-.1 0-.3 0-.4.1-1.8-1.9-3.7-3.9-5.7-6-1.9 2.1-3.6 4.1-5.4 6l-6 6c-2.1-2-4.3-4-6.4-6-1.8-2-3.6-3.9-5.4-6-2.1 2.2-3.9 4.1-5.7 6h-.4c-.1 0 0 0 0 0zm12.5-.1h10.3c-1.8-1.7-3.6-3.5-5.2-5.1-1.6 1.5-3.3 3.2-5.1 5.1zm45.6 35.2l-5.4 4.8c.1.2.3.5.4.7h7.7c-.7 2.1-1.3 3.9-2 5.7-.1.2-.5.3-.8.4v.1c-1.8-1.9-3.6-3.9-5.6-6-2 2.2-3.8 4.1-5.6 6v-.1L61 90.1l.1-.1c-.2 0-.3 0-.5.1-1.5-1.7-3.1-3.3-4.6-5v-.6h9.9l.3-.9c-1.5-1.3-3-2.5-4.9-4.1 3.7-1.9 7.2-.4 9.9-1.2-1.7-1.9-3.4-3.8-5.2-5.9.4-1.7.7-3.6 1.1-5.3h4.5c.1.2.3.4.4.6-1.7 1.5-3.3 3-5.2 4.6h10.7c.2-.2.3-.4.5-.7l-5.4-4.8-.1.1h11.4c.1 0 0 0 0 0z"/><path class="st1" d="M8.2 60.9C6.5 59 4.8 57 3.1 55.1c-.8.7-1.3 1.1-1.8 1.5-.1-.1-.3-.2-.4-.3.4-.6.7-1.1 1.2-1.9-1.3-1.5.2-3.1.7-4.8.1-.2.7-.4 1.1-.4 1.5 0 3 .1 4.5.1l-.1-.1C6.6 51.1 5 53 3.4 54.9h10.7c-1.8-2-3.4-3.8-5-5.5l-.1.1c3.6 0 7.2 0 10.8-.1-1.6 1.8-3.2 3.6-5.1 5.8h6.7c-.1 5.5-3.6 8.7-7.2 11.8l.1.1c-.5-.7-1-1.3-1.5-2-1.2-1.3-2.4-2.6-3.6-4H20c-2.1-2.1-3.8-3.8-5.8-5.7-1 1.1-2.2 2.2-3.3 3.4-.6.7-1.1 1.6-1.7 2.4-.3-.2-.7-.3-1-.3zm70.6-11.5c.9 0 1.8-.1 2.8-.1 2.7 0 3.8 1 3.9 3.8 0 .5-.4 1.1-.6 1.5.5.5 1 1.1 1.5 1.6l-.4.4c-.6-.4-1.2-.9-2-1.5-1.7 1.9-3.4 3.9-5.1 5.8-.3.1-.7.1-1 .2-1.6-2-3.3-4-4.6-5.6-2 2-3.7 3.8-5.5 5.6h10.1c-.5.6-.9 1.2-1.4 1.7-1.2 1.4-2.5 2.8-3.7 4.2l.1-.1c-3.7-3-6.9-6.4-7.1-11.9h6.6c-1.9-2.1-3.5-3.9-5.1-5.6 3.6 0 7.2 0 10.8.1l-.1-.1c-1.6 1.8-3.2 3.6-5 5.5h10.8c-1.9-2-3.4-3.8-5-5.5zM67.1 96.1c-.3 0-.5-.1-.8-.1l.1.1c-.4-.6-.8-1.3-1.3-1.9-1.3-1.4-2.6-2.8-3.8-4.2l-.1.1h10.7c.2-.4.4-.7.6-1.1l-5.4-4.2c.1-.2.3-.4.4-.6h10.7c-2-2.1-3.7-3.9-5.3-5.7v.1h11.2v-.1c-1.7 1.8-3.3 3.6-5.2 5.6 1.3.1 2.3.2 3.7.3-.4.9-.8 1.6-1.3 2.6-1-.9-1.8-1.7-2.8-2.7-1.9 2-3.6 3.9-5.4 5.8l-.4-.1c-1.8 2.1-3.7 4.1-5.6 6.1zM20.6 96c-.2.1-.5.1-.7.2-1.2-1.4-2.4-2.8-3.5-4.2-.6-.7-1.2-1.3-1.8-2h11.2l-.1-.1-1.8 2.1c-1.1 1.3-2.2 2.7-3.3 4zm40.6-64.2h11.2c-1.5 1.5-2.7 2.7-3.8 4-.5.6-.9 1.3-1.4 2v-.1c-.3 0-.6 0-.9.1-.4-.6-.6-1.2-1.1-1.7-1.2-1.5-2.6-2.9-4-4.3zm-41.4 6c-1-1.2-1.9-2.5-3-3.7-.6-.6-1.5-1.1-2.2-1.6.2-.3.3-.5.5-.8h10.7l-2.1 2.4c-1 1.2-2 2.5-3 3.7h-.9c-.1 0 0 0 0 0zm53 5.6c2.5 0 5-.1 7.5 0 .6 0 1.5.5 1.8 1 .2.3-.3 1.2-.7 1.7-.8 1.1-1.7 2.2-2.6 3.2l.1-.1H78l.1.1c-.4-.6-.8-1.3-1.2-1.8-1.5-1.4-2.8-2.8-4.1-4.1z"/><path class="st1" d="M8.2 49.4c-.9-1.1-1.9-2.2-2.7-3.4-.3-.4-.7-1.2-.5-1.6.3-.5 1-1 1.6-1 2.5-.1 5.1 0 7.6-.1-.6.7-1.1 1.3-1.7 2-1.1 1.3-2.3 2.7-3.4 4.1l.1-.1c-.4 0-.7 0-1 .1z"/><path class="st1" d="M14.2 43.4c-1.7-1.8-3.3-3.5-5.3-5.5h10.8l-.1-.1c-1.7 1.9-3.4 3.8-5.1 5.6h-.3zm53-5.6H78c-1.9 2-3.5 3.8-5.2 5.5h.1c-.1 0-.3 0-.4.1-1.8-1.9-3.5-3.8-5.3-5.6.1 0 0 0 0 0zm11.6 23.1h7.9c1.2 3.1-1 4.5-2.8 6h.1c-.6-.7-1.1-1.5-1.7-2.1-1.2-1.3-2.3-2.6-3.5-3.9zm-75.7 6c-1.8-1.5-3.9-2.9-2.8-6h7.9c-.5.6-1 1.3-1.5 1.9-1.2 1.4-2.4 2.7-3.6 4.1-.1 0 0 0 0 0zM14.2 90c-1.1 1.2-2.1 2.4-3.3 3.7C9.9 92.4 9 91.4 8 90h6.2zm58.6-.1H79c-1 1.4-1.8 2.5-2.8 3.8-1.3-1.3-2.4-2.5-3.5-3.7l.1-.1zm-52.9 6.2c-.9 1.1-1.8 2.1-2.9 3.3-1.5-1.3-2.5-2.2-3.6-3.1.1-.2.1-.4.2-.5l6.3.3c.1.1 0 0 0 0zm47.2 0l6.3-.3c.1.2.1.3.2.5-1.1.9-2.1 1.9-3.4 3-1.1-1.2-2.1-2.2-3.1-3.2zm-23.8 11.5c-.7.3-1.3.8-2 .8-1.6 0-3.2-.3-4.7-.7 2.3-.1 4.5-.1 6.7-.1.1 0 0 0 0 0zm.2.1h6.9v.6c-2.3-.2-4.5-.5-6.9-.6.1-.1 0 0 0 0zM24.2 64.8h38.6c-.3 11-8.5 19.2-19.3 19.2-10.8.1-19.1-8.2-19.3-19.2zm-9.6-21.5h11.2c-1.9-2-3.6-3.8-5.2-5.5h10.5c.1-.2.1-.4.2-.6-1.7-1.8-3.5-3.6-5.2-5.4h11.2c-1.3 1.4-2.5 2.7-3.7 4.1-.6.7-1.1 1.4-1.6 2.1-1.8 1.6-3.7 3.2-6 5.2h7.1c-1.7 1.2-2.9 2-4.3 2.9-.9-.8-1.8-1.6-2.9-2.7-1.8 2.1-3.6 4-5.4 6v-.1h-.9c-1.1-1.4-2.3-2.7-3.4-4.1-.5-.6-1-1.2-1.6-1.9zm51.8-5.5L61 42.6c.1.3.3.5.4.8h11c-1.3 1.4-2.7 2.9-4 4.3-.4.5-.7 1.1-1.1 1.7h-.8v.1c-1.7-1.9-3.5-3.9-5.3-6-1 1-1.9 1.7-2.8 2.6-1.2-.8-2.4-1.5-4-2.6h6.4c-2.1-2.2-3.8-3.9-5.5-5.7h11.1zM43.7 96h-.5l-6-6c-.7-.9-1.5-1.9-2.4-3 1.5.4 2.8.8 4.3 1.2-.3.6-.6 1-1 1.7h10.5c-.2-.5-.5-1-.8-1.6 1.3-.4 2.5-.8 4.1-1.3-.9 1.2-1.6 2.1-2.3 3-1.9 2-3.9 4-5.9 6z"/><path class="st1" d="M54.8 96c-1.2-1.4-2.4-2.7-3.6-4.1-.5-.6-1-1.3-1.6-1.9h11.2c-1.9 2-4 4-6 6zm-17.5-6.1c-1.2 1.4-2.5 2.7-3.6 4.1-.5.6-1 1.3-1.5 2-2-2-4-4-6.1-6 3.8-.1 7.5-.1 11.2-.1zm12.4-58.1h11.2c-1.9 2-3.7 4-5.6 6h-.5c-1.2-1.4-2.4-2.7-3.6-4.1-.5-.6-1-1.3-1.5-1.9zm-6 6h11.2l-2.1 2.1c-2.4 2.4-4.6 2.4-7.1 0-.7-.7-1.3-1.4-2-2.1zm-11.8.2h11.3C42 39.1 41 40.1 40 40.9c-1.7 1.3-3.8 1.2-5.4-.3-.8-.9-1.7-1.7-2.7-2.6zM20.5 49.4c1.5-.1 3-.1 4.9-.2-.8 1.2-1.5 2.1-2.2 3.2-.8-1.1-1.7-2.1-2.7-3 .1 0 0 0 0 0zm45.9 0c-.8.9-1.7 1.8-2.6 2.9-.8-1-1.4-1.8-2.3-3 1.9 0 3.5.1 4.9.1.1 0 0 0 0 0z"/></g></g></svg>