<svg id="Layer_1" xmlns="http://www.w3.org/2000/svg" viewBox="0 0 512 128"><style>.st0{fill:none}.st1{fill:#3e4f4e}.st2{fill:#7e8a88}</style><path id="Container" class="st0" d="M0 0h512v128H0V0z"/><g id="nxsMNA_1_"><path class="st1" d="M117.3 78.5v-8.8c0-2.4.1-4.7-.1-7.1-.2-3.2-1.9-4.7-4.8-4.7-3.1 0-4.8 1.5-4.9 4.8-.2 4.3-.1 8.6-.1 12.8v2.8h-6.2v-8.1c0-2.4.1-4.7-.1-7.1-.2-4.2-2.7-6.1-6.8-5-2 .5-3.3 1.6-3.2 4 .1 5.3 0 10.7 0 16.1h-5.9V53.1c1.9.5 4.2-1.3 5.3 1.2 2.6-.5 5.2-1.7 7.7-1.4 2.4.2 4.6 1.9 7.3 3 1.6-1.9 4.3-3.1 7.6-3.3 5.2-.2 9.4 2.6 9.9 7.8.6 5.5.4 11.1.5 16.7 0 .4-.8 1.1-1.2 1.2-1.6.3-3.1.2-5 .2zM139.3 78.9c-7.5 0-12.6-5.4-12.5-13.3.1-7.6 5.4-13 12.8-12.9 7.2.1 12.5 5.7 12.5 13.3-.2 7.7-5.4 13-12.8 12.9zm6.5-13c0-4-1.7-6.9-4.5-7.7-3.8-1.1-7.1.8-8.1 4.6-1.3 5.2.6 10 4.5 10.8.2.1.5.1.7.1 4.5.6 7.4-2.4 7.4-7.8zM82 73.8c-.2 1.9-.4 3.4-.6 4.7-3.3.9-5 .3-8-2.4-2.2 2.1-5 3-8.1 2.8-3-.2-5.1-1.7-6-4.5-1-2.8-.9-5.6 1.4-7.9 2.3-2.3 5.2-3.3 8.4-3.9 1.2-.2 2.4-.3 3.6-.5 0-4.6-2.3-5.1-11-2.7-.1-.1-.3-.2-.3-.3-.7-4.6-.7-4.6 3.9-5.8 1.2-.3 2.4-.5 3.6-.6 5.9-.5 9.3 2.2 9.9 8.1.3 3.2.2 6.4.3 9.6 0 1.9-.1 3.8 2.9 3.4zM72.8 66c-2.4.8-4.4 1.3-6.2 2.1-1.7.8-2.1 2.6-1.5 4.3.6 1.9 2.3 2.1 4 1.7 1.7-.4 3.6-.7 3.7-3 .1-1.4 0-2.9 0-5.1zM39.2 78.4h-5.9V53.3c2.1.5 4.4-1.2 5.7 1.1 2-.6 4-1.4 6-1.6 5.8-.4 9.4 2.9 10.2 9.1.2 1.2.1 2.4.1 3.7v12.7h-6.1V67.8c0-2-.1-4-.3-5.9-.2-1.8-1.2-3.3-3.2-3.7-2.2-.5-4.3-.2-5.9 1.6-.5.5-.6 1.5-.6 2.3v16.3zM27.6 73v5.8H0V73h27.6z"/></g><g id="JQuffV_1_"><path class="st2" d="M161.7 78.2h-5.9v-25c1.9.5 4.2-1.3 5.1 1.3 2.6-.6 5.1-1.4 7.7-1.6 2.7-.2 4.9 1.4 6.2 3.2 2.7-1.1 5.1-2.7 7.7-3.1 5.7-1 10.1 1.9 10.8 7.6.6 5.8.1 11.7.1 17.7h-5.6v-4.5c0-3.7.1-7.3-.1-11-.2-3.4-1.9-4.9-4.8-4.9-3.2 0-5 1.8-5.1 5.2-.1 4.2 0 8.4 0 12.6v2.6h-6v-2.7c0-4.3.1-8.6-.1-12.8-.2-4-2.7-5.6-6.6-4.7-2.4.6-3.3 1.6-3.3 4.1-.1 5.2-.1 10.5-.1 16zM241.5 54.3V40.9h5.9v37.2c-3.9.7-5 .5-6-1.3-2.7 2-5.9 2.7-9.1 1.7-2.1-.7-4.4-2-5.9-3.7-3.9-4.3-4.1-12.1-.7-17.1 3.3-4.8 7.9-5.8 15.8-3.4zm.6 11.7c-.3-1.5-.4-2.8-.8-4-.8-2.6-2.9-4.1-5.4-4.2-2.6-.1-4.8 1.4-5.8 4-1.1 3.1-1.1 6.1.5 9.1 1.2 2.1 3.1 3.1 5.5 2.9 2.4-.1 4-1.4 4.9-3.5.6-1.4.8-3 1.1-4.3zM219.7 66.8h-16.1c-.7 5.8 4.3 7.8 14.9 6 1.5 3.6 1.1 4.7-2.6 5.4-2.6.5-5.3.7-7.9.4-7.4-.9-11.9-7.4-10.7-15.1 1.2-7.4 7-11.8 14.2-10.5 6.3 1.1 10 7.1 8.2 13.8zm-16.1-4.1H214c-.1-3-1.4-4.6-4.1-4.9-3.2-.3-5.4 1.3-6.3 4.9zM265.9 59.5c-1.4-4.1-1.1-4.7 2.7-5.9.7-.2 1.5-.4 2.2-.5 8.3-1.4 12.2 1.8 12.3 10.2v7.3c0 1.8.2 3.5 2.6 3.3.2.3.3.5.3.6-.3 1.4-.3 3.8-1 4.1-2 .7-4.2.3-6-1.3-.4-.4-.8-.7-.7-.6-2.9.8-5.5 1.8-8.2 2.1-3.1.3-5.5-1.6-6.6-4.3-1.2-3.2-.7-6.5 2-8.3 2.4-1.6 5.3-2.4 8.1-3.4 1-.4 2.2-.3 3.3-.5-.1-4.9-3.3-5.7-11-2.8zm11.2 6.4c-2.4.8-4.5 1.2-6.3 2.2-1.7.8-2.1 2.5-1.5 4.4.6 1.7 2 2 3.5 1.9 1.8-.2 3.8-.6 4.3-2.8.3-1.7 0-3.4 0-5.7zM27.5 40.8v5.8H0v-5.8h27.5zM27.5 54.7H.1v-5.8h27.4v5.8zM27.5 56.9v5.7H0v-5.7h27.5zM27.5 70.8H0V65h27.5v5.8zM253.3 53.3c1.6 0 3.1-.1 4.6 0 .4 0 1.2.6 1.2 1 .1 7.9.1 15.8.1 23.9h-5.8c-.1-8.2-.1-16.4-.1-24.9zM259 49.3h-4.1c-.5 0-1-.1-1.7-.2v-5.6h5.7c.1 1.8.1 3.6.1 5.8z"/></g></svg>