<svg id="Layer_1" xmlns="http://www.w3.org/2000/svg" viewBox="0 0 512 128"><style>.st0{fill:none}.st1{fill:#3e4f4e}</style><path class="st0" d="M0 0h512v128H0z" id="Container"/><g id="Logos"><g id="Robinhood"><path class="st1" d="M1.5 109c-1.9 0-1.6 0-1.2-1.6C2.5 98.5 4.9 89.7 7.8 81c.1-.3.1-.7 0-1.1C7 75.5 6.2 71 5.4 66.5c-.1-.4-.2-.8-.2-1.3.1-.6.1-1.3.4-1.8 3.7-5.5 7.6-10.8 11.7-15.9.8-1 1.6-1.9 2.3-2.9.8-1.1 1.8-1.7 3.1-1.9 6-1.1 12-2.3 18.1-3.4.8-.2 1.7-.2 2.5-.3.2 0 .4.1.7.2-.1.2-.1.4-.3.6-5.1 5.9-9.8 12-14.3 18.3C22 68.7 15.6 79.8 10.3 91.5c-2.5 5.5-4.7 11.2-7 16.8-.2.6-.5.8-1.1.7h-.7z"/><path class="st1" d="M50.4 47.3V37c0-1.3-.9-2.1-2.2-1.9-3.2.4-6.3.8-9.5 1.3-3.6.6-7.2 1.3-10.8 1.9-.7.1-1.4.3-2.1.4-.2 0-.4-.1-.7-.1.1-.2.1-.5.2-.6 2.6-2.8 5.2-5.6 7.9-8.4 2-2.1 4.2-4.1 6.2-6.2 1.2-1.2 2.6-1.8 4.2-2.3 3.6-1 7.3-1.8 11.1-1.8 2.2 0 4.4.2 6.4 1.1 1.7.7 2.9 1.8 3.7 3.5 1 2.2 1.5 4.5 1.7 6.9.3 3.1.2 6.2-.3 9.2-.1.6-.5 1.3-.9 1.8-3.4 4.3-6.9 8.6-10.4 13-1.1 1.4-2.1 2.9-3.1 4.3-.1.2-.4.3-.5.4-.1-.2-.3-.4-.3-.6 0-3.5-.3-7.1-.6-11.6z"/><path class="st1" d="M48.4 63.5c.2.6-.1 1.2-.5 1.8-3.3 5.7-6.7 11.5-10 17.2-.3.6-.8.9-1.4 1.1-7.2 2.1-14.3 4.6-21.2 7.4-.3.1-.7.1-1 .2.1-.3.1-.7.2-1 2.9-6.1 6.1-12 9.6-17.8 4.2-7 8.8-13.9 13.9-20.3 2.6-3.3 5.3-6.6 8-9.8l.3-.3c.2-.1.4-.2.5-.3.1.2.2.4.2.6.1 2.1.1 4.2.3 6.4.3 4 .5 8 .8 12 .2.8.2 1.7.3 2.8zm-38.3 38.1c.5-1.2 1-2.5 1.5-3.7 1-2.4 1-2.4 3.4-3.4 4.2-1.6 8.4-3.2 12.6-4.7.2-.1.5 0 .7 0-.1.2-.1.5-.2.7-.5 1-.9 2-1.5 2.9-.2.4-.6.8-1 1-4.8 2.4-9.6 4.7-14.5 7.1-.3.2-.7.3-1 .4.1-.2 0-.2 0-.3z"/></g></g></svg>