<svg id="Layer_1" xmlns="http://www.w3.org/2000/svg" viewBox="0 0 512 128"><style>.st0{fill:none}.st1{fill:#3e4f4e}</style><path class="st0" d="M0 0h512v128H0z" id="Container"/><g id="Logos"><path class="st1" d="M249 84.3h-.3c-1.4 0-2.8 0-4.2-.1-.5 0-.9-.1-1.3-.3-.9-.3-1.3-1-1.4-1.9 0-.3-.1-.5-.1-.8-.1 0-.1.1-.2.1-1.4 1.7-3.2 2.6-5.3 3-2.4.5-4.7.5-7-.2-3.4-1-5.4-3.3-6-6.9-.3-2-.1-4 .8-5.8 1-2.2 2.9-3.4 5.1-4.1 1.4-.5 2.8-.7 4.3-.7 2.6 0 5.2-.1 7.8-.1.3 0 .5-.1.5-.4-.1-.8-.2-1.7-.4-2.5-.5-1.5-1.6-2.4-3.1-2.7-3.7-.8-7.2-.5-10.4 1.8-.6.4-.9.4-1.2-.3-.5-.8-.9-1.6-1.4-2.4-.4-.6-.3-.9.3-1.3 1.9-1.4 4.1-2.2 6.5-2.6 1-.2 2.1-.3 3.2-.3 2.3 0 4.7.1 6.9 1 2.6 1.1 4.1 3.1 4.6 5.8.2 1 .3 2.1.3 3.2v12.4c0 .3 0 .6.1.9.1.6.5 1 1.1 1 .4 0 .7.1.9.4-.1 1.2-.1 2.5-.1 3.8zm-11.3-13.5c0-.1 0-.1 0 0-1.6 0-3.3 0-4.9.2-1 .1-2 .4-2.9 1-1.5 1-1.9 2.8-1.5 4.5.3 1.7 1.4 2.6 3 3.1 1.4.4 2.8.5 4.2.3 1.2-.1 2.3-.4 3.4-1 1.5-.8 2.5-2.1 2.6-3.9.1-1.3.1-2.6.1-3.8 0-.3-.1-.5-.5-.5-1.2.1-2.4.1-3.5.1zM35.8 100.6c-1.5-.7-2.3-2.1-3.3-3.3-2.2-2.5-4.3-5-6.4-7.6 0-.1-.1-.1-.2-.2.1-.1.2-.1.3-.2 1.7-.9 3.5-1.9 5.2-2.8.3-.2.5-.1.7.1l3.9 4.8c.1.1.2.2.3.4.4-.4.7-.9 1-1.3 1.1-1.3 2.1-2.6 3.2-3.9.1-.2.2-.2.5-.1 1.8 1 3.7 2 5.6 3l.1.1c-.3.4-.7.8-1 1.2-2.3 2.8-4.7 5.5-7 8.3-.5.6-1.1 1.2-1.9 1.5h-1zm136.4-42.3V45c0-.7.2-1 1-1h4c.3 0 .4.1.4.4v38.5c0 .6-.3.9-.9.9h-3.6c-.7 0-.9-.3-.9-.9v-1.1c-.1 0-.2 0-.2.1-1.1 1.2-2.4 1.8-3.9 2.1-2.8.6-5.6.7-8.3-.2-3-1-4.9-3.1-6.1-5.9-.6-1.5-1-3-1.1-4.6-.1-1.7-.3-3.4-.2-5.1.1-3 .8-5.8 2.6-8.3 1.6-2.1 3.7-3.3 6.2-3.9 2.8-.6 5.6-.4 8.4.5.9.3 1.7.8 2.4 1.5 0 .2 0 .2.2.3zm0 11.9v-1.1c0-1.1 0-2.1-.2-3.2-1-3.8-4.8-6.2-8.6-5.4-3.5.7-5.5 3.8-5.8 7.2-.1 1.4-.1 2.8-.1 4.1 0 .9.1 1.8.3 2.6 1 4.2 4.5 6.1 8.1 5.5 3.6-.5 6.2-3.7 6.2-7.3.1-.8.1-1.6.1-2.4zM118.9 84H117c-.7 0-.9-.2-1.2-.8-1.1-2.6-2.2-5.3-3.3-7.9-.1-.3-.3-.4-.6-.4H96.6c-.4 0-.5.1-.7.5-1.1 2.6-2.1 5.2-3.2 7.8-.3.7-.5.9-1.3.9h-3.9c-.5 0-.7-.2-.5-.7.5-1.2.9-2.3 1.4-3.5 3.9-9.6 7.8-19.3 11.7-28.9.4-1.1.9-2.2 1.4-3.3.2-.5.6-1.1 1-1.5 1-1 2.6-.9 3.5.2.3.4.6.9.8 1.4 3.5 8.7 7.1 17.5 10.6 26.2 1.2 3 2.4 6 3.7 9.1.1.1.1.3.2.4.2.5.1.6-.4.6-.6-.1-1.3-.1-2-.1zM98.2 69.6h12.2c-2-4.9-4-9.8-6-14.6h-.1c-2.1 4.9-4 9.7-6.1 14.6zm98.3 3.4h-9.2c-.5 0-.5.1-.5.5.4 3.1 2.6 5.4 5.7 5.9 2.4.4 4.7.2 7-.9 1-.5 1.8-1.2 2.6-2 .5-.5.8-.6 1.4-.1.7.7 1.5 1.3 2.2 2 .5.5.5.7.1 1.2-1.9 2.3-4.4 3.7-7.3 4.4-1.8.5-3.6.6-5.4.5-3.2-.2-6-1.3-8.2-3.6-1.6-1.6-2.5-3.5-3-5.7-.4-1.6-.6-3.2-.5-4.9.1-2.7.4-5.3 1.5-7.8 1.6-3.6 4.5-5.8 8.4-6.5 3-.6 6-.3 8.8 1 3.1 1.5 4.9 4.1 5.9 7.4.4 1.5.6 3 .6 4.5 0 1 .1 2 .1 3.1 0 .7-.2.9-.9.9-3.2.1-6.2.1-9.3.1zm-2.6-4.3h7c.3 0 .4-.2.4-.5-.1-.7 0-1.5-.2-2.2-.5-2.5-2-4.3-4.5-5.1-1.8-.5-3.5-.5-5.2.1-1.4.5-2.6 1.3-3.4 2.6-.8 1.2-1.1 2.6-1.2 4.1 0 .9-.2.9.9.9 2 .1 4.1.1 6.2.1zm-63.8-9.1c.1-.1.2-.1.2-.2 1.4-1.8 3.2-2.8 5.4-3.3 2.2-.4 4.3-.4 6.4.4 3.1 1.1 5 3.4 5.9 6.6.4 1.3.5 2.6.5 4V83c0 .8-.2 1-1 1h-3.3c-.8 0-1-.2-1-1V68.2c0-1.2-.2-2.4-.6-3.6-.7-1.8-1.9-3-3.8-3.4-1.6-.4-3.2-.4-4.7.2-2.3.9-3.5 2.7-3.9 5.1-.1.7-.1 1.5-.2 2.3V83c0 .8-.2 1-1 1h-3.3c-.9 0-1-.3-1-1V57.6c0-.8.2-1 1-1h3.5c.6 0 .8.2.8.8v1.8c.1.1.1.2.1.4zm85.7 1v15.5c0 .5.1 1 .2 1.5.2 1 .9 1.5 1.9 1.6.6 0 1.2.1 1.8.1s.8.2.8.8v3.3c0 .5-.2.8-.7.8-1.7 0-3.3.1-5-.3-2.3-.6-3.6-2.2-4.1-4.4-.2-1-.3-2.1-.3-3.1V45.3c0-.9.2-1.1 1.1-1.1h3.7c.4 0 .5.1.5.5.1 5.3.1 10.6.1 15.9zM61.5 53.8c-2.2-.6-4.3-1.3-6.4-1.9.2-2.3.5-4.7.7-7-.7.1-1.3.1-1.9.2-1.1.1-2.3.2-3.4.4-.4 0-.9.1-1.3.1-.3 0-.5 0-.6-.4-.5-1.9-1.1-3.8-1.7-5.7 0-.1 0-.2-.1-.3.4 0 .8-.1 1.2-.1 1.7-.1 3.5-.3 5.2-.4 2.2-.2 4.4-.4 6.6-.5h1c1.1.2 1.7 1 1.7 2.1 0 .9-.1 1.8-.2 2.7-.1.8-.1 1.5-.2 2.3-.1 1.5-.3 2.9-.4 4.4l-.3 3.3c.1.2.1.5.1.8zm-50.4 21c.8.2 1.4.4 2.1.6 1.3.4 2.6.8 4 1.2.3.1.4.2.4.5-.2 1.8-.4 3.5-.6 5.3 0 .4-.1.8-.2 1.3 2.4-.2 4.7-.5 7-.7.6 2.1 1.3 4.3 1.9 6.4-.9.1-1.8.2-2.7.2-1.5.1-2.9.3-4.4.4-.9.1-1.9.2-2.8.2-1.1.1-2.3.2-3.4.2-1.5 0-2.4-.8-2.3-2.3 0-1.1.1-2.1.2-3.2s.2-2.1.3-3.2c.1-1.5.2-2.9.4-4.4.1-.7.1-1.5.2-2.2-.1.1-.1-.1-.1-.3zm35.7 14.7c.6-2.2 1.3-4.3 1.9-6.4 2.3.2 4.6.5 7 .7-.2-2.4-.5-4.7-.7-7 2.1-.6 4.2-1.3 6.4-1.9.1.6.1 1.1.2 1.7.2 1.8.3 3.7.5 5.5l.3 4.2c.1.7.1 1.3.1 2 0 1.6-.8 2.4-2.4 2.4-1.2 0-2.4-.2-3.6-.3-1.1-.1-2.1-.2-3.2-.3-1.5-.1-2.9-.3-4.4-.4-.6-.1-1.3-.1-2.1-.2zM10 40.5c0-.2 0-.6.1-1 .2-.8.9-1.4 1.8-1.4 1.2 0 2.4.1 3.6.2 1.1.1 2.1.2 3.2.3 1.5.1 2.9.3 4.4.4.8.1 1.5.1 2.3.2.3 0 .4.1.3.4-.6 1.9-1.1 3.9-1.7 5.8-.1.3-.2.3-.5.3-1.4-.2-2.7-.3-4.1-.4-.8-.1-1.5-.2-2.3-.2-.2 0-.3.1-.3.3.2 1.8.4 3.7.6 5.5v.4c.1.8.1.8-.7 1-1.7.5-3.5 1-5.2 1.6-.5.1-.5.1-.5-.4-.1-1.4-.2-2.9-.4-4.3-.1-1-.2-2.1-.3-3.1-.1-1.2-.2-2.3-.3-3.5.1-.7.1-1.3 0-2.1zm36.7-1.4c-.7.4-1.3.7-2 1.1-1.2.7-2.4 1.3-3.6 2-.3.1-.4.1-.6-.1-1.3-1.6-2.6-3.2-3.9-4.9l-.3-.3c-.5.6-1 1.2-1.4 1.8-.9 1.1-1.9 2.3-2.8 3.5-.1.1-.2.2-.4.1-1.9-1-3.7-2-5.6-3l-.1-.1c.2-.2.4-.5.6-.7 2.6-3.1 5.3-6.2 7.9-9.3.4-.5.8-.8 1.5-1 .6-.2 1.2 0 1.6.4.6.6 1.2 1.2 1.7 1.9 2.4 2.8 4.7 5.6 7.1 8.4 0-.1.1 0 .3.2zM11.1 54c.6 1.2 1.2 2.3 1.9 3.4.4.7.8 1.5 1.2 2.2.1.2.1.4-.1.6l-4.8 3.9c-.4.3-.4.3 0 .6 1.6 1.3 3.1 2.6 4.7 3.8.3.2.3.4.1.7-.9 1.7-1.8 3.4-2.7 5-.1.1-.1.2-.2.4-.4-.3-.8-.6-1.1-.9-2.9-2.4-5.7-4.8-8.6-7.3-.6-.5-1.2-1-1.3-1.9-.3-.5-.1-1.1.3-1.5.6-.7 1.3-1.3 2-1.9l8.1-6.9c.2 0 .3-.1.5-.2zm50.4 20.7c-.8-1.5-1.6-2.9-2.4-4.4l-.6-1.2c-.2-.3-.1-.4.1-.6 1.6-1.3 3.2-2.6 4.7-3.8.1-.1.3-.2.4-.4-.7-.5-1.3-1.1-1.9-1.6-1.1-.9-2.1-1.7-3.2-2.6-.2-.1-.3-.3-.2-.5 1-1.8 2-3.6 3-5.5 0 0 .1-.1.1-.2.5.5 1.1.9 1.6 1.3 2.7 2.3 5.3 4.5 8 6.8.3.3.7.6 1 1 .7.9.7 1.8-.1 2.6-.6.6-1.2 1.2-1.9 1.7-2.8 2.4-5.6 4.7-8.3 7.1 0 .1-.1.2-.3.3z" id="Andela"/></g></svg>