<svg id="Layer_1" xmlns="http://www.w3.org/2000/svg" viewBox="0 0 512 128"><style>.st0{fill:none}.st1{fill:#3e4f4e}</style><path class="st0" d="M0 0h512v128H0z" id="Container"/><g id="Logos"><path class="st1" d="M93.5 47.5h13.4l4.9 8.7 5.3 8.5-5.5 8.5-5.7 9.3h-13l12.3-17.8-11.7-17.2zM0 47.7h27.4v7.6H11.9v7h12.5v8.5H11.9v11.5H0V47.7zm31.2-.4h11.5V74h15.9v8.3H31.2v-35zm31.2.4H91V56H74.2v4.7h14V69h-14v5h17.4v8.3H62.4V47.7zm50.2 7.2l5.3-7.4h13.4l-13 16.5-5.7-9.1zm5.5 10.2L130 82.2h-13.4l-4.7-8.1c.1.1 6.2-9 6.2-9zm33.3-17.8c4.7 0 8.3 1.3 10.8 3.8s3.8 5.3 3.8 8.3v.4c0 3-1.3 5.7-3.6 8.1-2.3 2.5-5.9 3.8-10.6 3.8h-6.4V82h-11.9V47.3h17.9zm-6.1 8.2v7.2h5.7c1.1 0 1.9-.2 2.5-.8s.8-1.5.8-2.1V59c-.2-.8-.4-1.5-1.1-2.1-.6-.8-1.5-1.1-2.8-1.1.2-.1-5.1-.3-5.1-.3zm40.5-9.3c5.9 0 10.6 1.9 13.8 5.5s4.9 7.8 5.3 12.1v.8c0 4.7-1.5 9.1-4.7 12.7-3.2 3.8-7.8 5.7-14.2 5.7s-11-1.9-14.2-5.7c-3.2-3.8-4.7-7.8-4.7-12.5v-.2c0-4.5 1.7-8.7 4.9-12.5 3.2-3.8 7.6-5.7 13.8-5.9zm.2 8.9c-1.9 0-3.4.8-4.9 2.3-1.3 1.5-1.9 4-1.9 7.2s.6 5.7 1.9 7.4c1.3 1.7 2.8 2.5 4.9 2.5 2.1 0 3.8-.8 4.9-2.8s1.7-4.2 1.7-7.6c0-2.8-.6-4.9-1.7-6.4s-2.3-2.3-3.6-2.5h-.6c-.3.1-.5.1-.7-.1zm21.2-7.8h18.2c5.3 0 8.9 1.1 11 3s3.2 4 3.4 6.4v.3c0 2.1-.6 4-1.7 5.9-1.1 1.7-2.3 2.8-3.8 3 2.5 1.1 4 2.3 4.5 4 .4 1.5.8 3.4.8 5.5v1.9c0 1.1 0 2.1.2 2.5.2.6.6 1.1 1.3 1.1V82H229c-.2-1.1-.4-2.1-.4-3.2V76c0-1.5-.2-2.5-.4-3.4s-.8-1.5-1.9-1.9c-.4-.2-.8-.2-1.5-.4-.6-.2-1.1-.2-1.7-.2h-4v11.7h-11.9V47.3zm11.5 8.6v6.2h6.8c1.1 0 1.9-.2 2.3-.8.6-.6.8-1.3.8-2.1v-.4c0-.6-.4-1.3-1.1-1.9-.6-.6-1.5-.8-2.5-.8h-6.3v-.2zm24.1-8.6H275v9.5h-10.4v25.4h-11.9V56.8h-10.2c.1 0 .3-9.5.3-9.5z" id="Flexport"/></g></svg>