<svg id="Layer_1" xmlns="http://www.w3.org/2000/svg" viewBox="0 0 512 128"><style>.st0{fill:none}.st1{fill:#3e4f4e}.st2{fill:#7e8a88}</style><path id="Container" class="st0" d="M0 0h512v128H0V0z"/><g id="pHJjBt.tif"><path class="st1" d="M0 36.8H46.6l.1.1c-.4.4-.7.8-1.1 1.2-.7.6-1.4 1.2-2.2 1.9-1 .9-2.1 1.8-3.1 2.7-.7.6-1.3 1.1-2 1.7-1 .9-2.1 1.8-3.1 2.7-.4.4-.9.8-1.3 1.2-.3.2-.5.4-.9.4H1.7c-.7 0-1.3-.2-1.7-.9v-11zM227 36.2c.7.1 1.4.2 2 .3 1.4.3 2.6.8 3.7 1.7 1.6 1.3 2.3 3 2.5 5.1.1 1 0 2-.3 3-.6 2.1-2 3.6-3.9 4.6-.1.1-.3.1-.5.2 1.8 2.6 3.6 5.3 5.4 8h-7c-.3 0-.4-.1-.5-.3l-4.2-6.3c-.2-.3-.4-.4-.7-.4h-2.3V59h-6.3v-.3-22.3-.2H227zm-5.6 11h4.2c.7 0 1.3-.2 1.9-.4 1.1-.5 1.5-1.4 1.4-2.5-.1-1.1-.6-1.8-1.6-2.2-.5-.2-1.1-.3-1.6-.3h-4.3v5.4zM175 36.2V59h-6.3v-8.6h-8.1V59h-6.3v-.3-22.3-.2h6.3v8.5h8.1v-8.5h6.3zM116.4 36.2v5.4h-12.1v3.1c0 .3.1.4.4.4h10.5v5h-10.9v3.6h12.2v5.4H98v-.5-21.8-.5c6.1-.1 12.2-.1 18.4-.1zM88.5 36.2v4.2c0 .3-.1.5-.3.7-3.6 4.1-7.3 8.2-10.9 12.2-.1.1-.2.2-.3.4h11.4V59H68.2v-.4-3.9c0-.2.1-.4.2-.6C72 50 75.6 46 79.2 41.9c.1-.1.2-.3.4-.4h-11V41v-4.4-.5c6.7.1 13.3.1 19.9.1zM136.9 36.2c.8.1 1.5.2 2.3.4 2.4.6 4.3 1.8 5.4 4.1 1.2 2.6 1.1 6.8-1.5 9.2-1.4 1.3-3.1 2-5 2.3-.9.2-1.9.2-2.9.2h-2.9v6.5H126v-.3V36c3.6.2 7.2.2 10.9.2zm-4.6 11.3c.7.2 3.8.1 4.5-.2 1-.3 1.7-.8 2-1.8.6-1.9-.4-3.6-2.4-3.9-1.3-.2-2.7-.1-4-.1h-.1v6zM206.9 36.2c-2.8 4.6-5.7 9.3-8.5 14-.1.2-.2.4-.2.6v8.3h-6.4v-.5-7.7c0-.2-.1-.5-.2-.7-2.7-4.5-5.5-9-8.2-13.5-.1-.1-.1-.3-.2-.4h7.2c0 .1 0 .1.1.2 1.5 2.6 3 5.3 4.5 7.9 0 .1.1.1.1.2 0-.1.1-.1.1-.2 1.5-2.6 3-5.2 4.5-7.9 0-.1.1-.2.1-.2 2.3-.1 4.7-.1 7.1-.1zM48 80.7v10.1c0 1.1-.4 1.5-1.5 1.5H9.4c-2.5 0-5 0-7.6.1h-.7l1.6-1.6c1.2-1.1 2.4-2.1 3.6-3.1 1.5-1.3 2.9-2.5 4.4-3.8C11.8 83 12.9 82 14 81c.2-.2.5-.3.8-.3 1.2 0 2.4.1 3.6.1h29c.2-.1.4-.1.6-.1z"/></g><g id="lS1SLM.tif"><path class="st2" d="M.2 80.1c0-.1.1-.2.1-.4v-1.5c0-.5.2-.9.5-1.3.8-.7 1.6-1.4 2.5-2.1.7-.8 1.6-1.5 2.4-2.2.8-.7 1.6-1.3 2.4-2 .6-.5 1.2-1.1 1.8-1.6.9-.7 1.8-1.5 2.6-2.2.7-.6 1.3-1.2 2-1.7.9-.8 1.8-1.6 2.7-2.3.6-.6 1.3-1.1 1.9-1.7.9-.7 1.8-1.5 2.6-2.2.7-.6 1.3-1.2 2-1.7.9-.8 1.8-1.5 2.6-2.3.7-.6 1.3-1.2 2-1.7.9-.8 1.9-1.6 2.8-2.4.5-.4 1-.9 1.5-1.3 1-.9 2-1.8 3-2.6l2.4-2.1c1.1-.9 2.2-1.9 3.3-2.8.8-.7 1.7-1.5 2.5-2.2.8-.7 1.5-1.4 2.3-2.1.2-.2.3-.4.4-.6h.6c.2.2.2.4.2.7 0 4.4 0 8.8.1 13.2 0 1-.4 1.6-1.1 2.2-.6.5-1.3 1.1-1.9 1.6-.8.7-1.7 1.4-2.5 2.2-.6.5-1.2 1.1-1.8 1.6-1 .9-2 1.7-3 2.6-.6.5-1.2 1.1-1.9 1.6-.9.8-1.8 1.5-2.7 2.3-.6.6-1.3 1.1-1.9 1.7-.9.8-1.8 1.5-2.7 2.3-.6.6-1.3 1.1-1.9 1.7-.9.8-1.8 1.5-2.7 2.3-.6.5-1.3 1.1-1.9 1.7-.9.8-1.8 1.6-2.7 2.3-.7.6-1.3 1.2-2 1.8l-2.1 1.8c-.6.6-1.3 1.1-1.9 1.7-1.3 1.2-2.7 2.3-4 3.5-1 .9-2 1.8-3 2.6-1 .9-2.1 1.8-3.1 2.7-.6.5-1.1 1.1-1.6 1.6H.5c-.3-.2-.4-.4-.4-.8v-4c0-.1-.1-.3-.1-.4.2-2.7.2-5.1.2-7.5zM100.4 92.5v-3.8-18.9-.5h16.8v2.4H103v7.9h12.7V82H103v8.2h14.4v2.4c-5.6-.1-11.3-.1-17-.1zM67.8 92.5V92 69.8v-.5h2.6v10.3h13.4V69.3h2.7v23.2h-2.7V82H70.4v10.5h-2.6zM217.4 92.5v-.4-22.5-.4h2.6v10.3h13.5V69.2h2.6v23.3h-2.7v-.3-9.7-.4H220v10.5c-.9-.1-1.8-.1-2.6-.1zM128.2 92.5c0-.1.1-.2.1-.4 3.4-7.6 6.8-15.1 10.2-22.7.2-.3.3-.5.7-.4h1.6c.3 0 .5.1.6.4 2.5 5.5 4.9 10.9 7.4 16.4 1 2.1 1.9 4.2 2.9 6.3.1.1.1.2.1.4H149c-.9-2-1.7-4-2.6-5.9 0-.1-.2-.2-.4-.2h-12.1c-.1 0-.3.1-.4.2-.9 2-1.8 3.9-2.7 5.9h-2.6zm11.7-20.4c-1.8 4-3.5 7.9-5.3 11.8h10.6c-1.7-3.9-3.5-7.8-5.3-11.8zM194.6 92.5V92 72.2v-.6h-7.8v-2.4h18.3v2.4h-7.7v20.9h-2.8zM163.8 92.5V92 69.7v-.5h2.6V90h13.1v2.4c-5.2.1-10.4.1-15.7.1z"/></g></svg>