<svg id="Layer_1" xmlns="http://www.w3.org/2000/svg" viewBox="0 0 512 128"><style>.st0{fill:none}.st1{fill:#3e4f4e}.st2{fill:#7e8a88}</style><path id="Container" class="st0" d="M0 0h512v128H0V0z"/><path class="st1" d="M89.3 56.2c-.2.1-.5 0-.6-.2-1.3-1.7-4.2-3.3-7.5-3.3-4.6 0-6.8 1.9-6.8 4.3 0 2.8 3.4 3.6 7.3 4.1 6.2.8 12 2.3 13 8.4 1 6.1-3.6 11.7-9.7 12.3-8.4.8-15-.7-17.9-7.4-.1-.2 0-.5.2-.6l4.3-2.2c.2-.1.5 0 .6.2 1.6 3.3 5.2 4.7 9 4.7 3.9 0 7.5-1.4 7.5-4.9 0-3.1-3.2-4.3-7.6-4.8-6.7-.8-12.8-2.6-12.8-9.9 0-6.7 6.6-9.5 12.7-9.5 4.9 0 10.1 1.4 12.6 6.1.1.2 0 .5-.2.7l-4.1 2zM129.6 76.7c.2.2.2.5 0 .7-3.3 3.1-7.5 4.5-12.1 4.5-12.1 0-17.3-8.4-17.3-16.9 0-8.5 5.5-17.2 17.3-17.2 4.3 0 8.3 1.6 11.6 4.6.2.2.2.5 0 .7l-3.4 3.3c-.2.2-.5.2-.6 0-2.1-1.9-4.9-2.8-7.6-2.8-7.9 0-11.3 5.9-11.3 11.3S109.4 76 117.5 76c2.7 0 5.7-1.1 7.9-3 .2-.2.5-.2.7 0l3.5 3.7zM188.1 71.6h-8.7c-.3 0-.6.3-.6.6v6.9c0 .6-.3 1.2-.9 1.5l-3.6 1.9c-.7.4-1.6-.2-1.6-1V49.1c0-.3.2-.6.6-.6h14.8c16 0 16 23.1 0 23.1zm-9.2-6.2c0 .3.3.6.6.6h8.7c7.9 0 7.8-11.6 0-11.6h-8.7c-.3 0-.6.3-.6.6v10.4zM230.4 81.2h-23.5c-.3 0-.5-.2-.5-.5V49c0-.3.2-.5.5-.5h23.5c.3 0 .5.2.5.5v5c0 .3-.2.5-.5.5H213c-.3 0-.5.2-.5.5v6.6c0 .3.2.5.5.5h16.8c.3 0 .5.2.5.5v4.8c0 .3-.2.5-.5.5H213c-.3 0-.5.2-.5.5v6.4c0 .3.2.5.5.5h17.4c.3 0 .5.2.5.5v5.1c-.1.1-.3.3-.5.3zM166.7 65v-.1-.2c0-7.2-3.8-14.2-11.8-16.2-1.5-.4-3.2-.6-4.9-.6-2 0-3.7.3-5.3.7-7.3 2-10.9 8.3-11.4 14.9v.2c0 .4-.1.8-.1 1.2V65.2c0 7.2 3.8 14.2 11.8 16.2 1.5.4 3.2.6 4.9.6 2 0 3.7-.3 5.3-.7 7.3-2 10.9-8.3 11.4-14.9v-.2c.1-.4.1-.8.1-1.2zm-6.1.3v.8c0 .3-.1.6-.1.9v.2c0 .3-.1.5-.1.7 0 .2-.1.4-.2.6 0 .1 0 .2-.1.3-.7 2.4-2.2 4.7-4.5 6.1-1.5.9-3.3 1.4-5.6 1.4-3.3 0-5.7-1.1-7.4-2.7-.9-.8-1.5-1.8-2.1-2.9v-.1c-.1-.3-.3-.6-.4-.9 0-.1-.1-.2-.1-.3-.1-.2-.1-.5-.2-.7 0-.2-.1-.3-.1-.5-.1-.6-.3-1.5-.3-2v-.6-.7-.3-.8c0-.3.1-.6.1-.9v-.2c0-.3.1-.5.1-.7 0-.2.1-.4.2-.6 0-.1 0-.2.1-.3.7-2.4 2.2-4.7 4.5-6.1 1.5-.9 3.3-1.4 5.6-1.4 3.3 0 5.7 1.1 7.4 2.7.9.8 1.5 1.8 2.1 2.9v.1c.1.3.3.6.4.9 0 .1.1.2.1.3.1.2.1.5.2.7 0 .2.1.3.1.5l.3 1.8v1.8z"/><g><path class="st2" d="M257.4 57.5c.1-.1.2-.2.2-.3v-1.3c0-.1-.1-.3-.2-.3l-15.9-7.1h-.3c-.1.1-.2.2-.2.3v1.3c0 .1.1.3.2.3l3.7 1.6v9.1l-3.7 1.7c-.1.1-.2.2-.2.3v1.3c0 .1.1.2.2.3.1.1.2.1.3 0l15.9-7.2zm-10.7-4.7l8.5 3.7-8.5 3.7v-7.4z"/><path class="st2" d="M240.7 64.4V63c0-.2.1-.5.4-.6l3.5-1.6v-8.7l-3.5-1.6c-.2-.1-.4-.3-.4-.6v-1.3c0-.2.1-.4.3-.5.2-.1.4-.1.6 0l15.9 7.1c.2.1.4.3.4.6v1.3c0 .2-.1.5-.4.6l-15.9 7.1c-.2.1-.4.1-.6 0-.2 0-.3-.2-.3-.4zm4.5-12.4v9.1c0 .1-.1.2-.2.3l-3.7 1.7v1.4l.2.3-.1-.3 15.9-7.1v-1.3l-15.9-7.2h-.1v1.3l3.7 1.7c.1-.1.2 0 .2.1zm1.2 8.3v-7.5c0-.1 0-.2.1-.2.1-.1.2-.1.3 0l8.5 3.7c.1 0 .2.2.2.3 0 .1-.1.2-.2.3l-8.5 3.7h-.3c0-.1-.1-.2-.1-.3zm.6-7.1v6.6l7.5-3.3-7.5-3.3z"/><g><path class="st2" d="M241.6 81.7l5.6-5.1c.1 1.4.6 2.5 1.5 3.3.9.9 2.2 1.4 3.7 1.4 2.6 0 5.3-1.8 5.3-5.6v-7c0-.2-.2-.3-.3-.3h-15.9c-.2 0-.3.2-.3.3V70c0 .2.2.3.3.3h5.7v3.8l-5.9 5.4c-.1.1-.1.2-.1.3v1.6c0 .1.1.3.2.3-.1.2 0 .1.2 0zm7.2-6v-5.3h6.9v5.4c0 1.1-.3 2-1 2.6-.6.6-1.5 1-2.5 1-1.5-.1-3.4-.7-3.4-3.7z"/><path class="st2" d="M240.7 81.5v-1.6c0-.2.1-.3.2-.5l5.8-5.3v-3.4h-5.4c-.3 0-.6-.3-.6-.6v-1.2c0-.3.3-.6.6-.6h15.9c.3 0 .6.3.6.6v7c0 4-2.9 5.8-5.6 5.9-1.5 0-2.9-.5-3.9-1.5-.8-.8-1.3-1.8-1.5-3l-5.1 4.7c-.2.2-.5.2-.7.1-.2-.1-.3-.4-.3-.6zm6.6-11.1v3.8c0 .1 0 .2-.1.2l-5.9 5.4v1.7h.1l5.6-5.1c.1-.1.2-.1.3-.1.1 0 .2.1.2.2.1 1.3.6 2.4 1.4 3.2.9.9 2.1 1.3 3.5 1.3 2.4 0 5-1.7 5-5.3v-7s0-.1-.1-.1h-15.9s-.1 0-.1.1V70s0 .1.1.1h5.7c.1 0 .2.1.2.3zm1.3 5.3v-5.3c0-.2.1-.3.3-.3h6.9c.2 0 .3.1.3.3v5.4c0 1.1-.4 2.1-1.1 2.8-.7.7-1.7 1.1-2.7 1-2.4 0-3.7-1.4-3.7-3.9zm.5-5v5c0 2.2 1.1 3.4 3.2 3.4.9 0 1.7-.3 2.3-.9.6-.6.9-1.4.9-2.4v-5.1h-6.4z"/></g></g><path class="st2" d="M50 51.4c0-.5-.3-.9-.7-1.2L25.5 36.1c-.3-.2-.6-.2-.9 0L.6 50.2c-.4.2-.6.6-.6 1.1v27.5c0 .3.2.7.5.8 0 0 19.7 11.6 24.2 14.1.5.3 1.2.3 1.7 0l23.2-13.8c.3-.2.5-.5.5-.8L50 51.4zM23.2 88.2s-.1.1-.3 0L4.1 77.3c-.3-.2-.4-.4-.4-.5V55.4c0-.2.2-.4.4-.3l4.2 2.4c.5.3.7.7.7 1.2L9.1 74c0 .3.2.6.5.8l7.9 4.6c.3.2.7.2.9 0 .3-.2.5-.5.5-.8v-2.2c0-.3-.2-.6-.5-.8L13 72.4c-.1 0-.1-.1-.1-.2V60.7c0-.1.1-.2.1-.2s.1-.1.3 0L23 66c.2.1.3.5.3.6l.1 21.4c0 .2-.1.2-.2.2zm2.3-25.6c-.2.1-.4.2-.7 0l-19.1-11c-.1-.1-.1-.2-.1-.2s0-.1.1-.2l19-10.8c.2-.1.4-.1.7 0l9.6 5.7 8.8 5.2c.2.1.2.4 0 .5l-3.9 2.3c-.4.3-1 .3-1.5 0l-12.9-7.4c-.3-.2-.6-.2-1 0l-7.8 4.8c-.3.2-.5.5-.5.8 0 .3.2.6.5.8l1.9 1.1c.3.2.7.2 1 0L25 51h.3l9.8 5.6c.1.1.1.2.1.2 0 .1 0 .1-.1.2l-9.6 5.6zm20.4 15.1L27.5 88.8c-.2.1-.4 0-.4-.2v-5.4c0-.3.2-.6.4-.8l13.2-7.7c.3-.2.5-.5.5-.8V65c0-.3-.2-.6-.5-.8-.3-.2-.6-.2-.9 0l-1.9 1.1c-.3.2-.5.5-.5.8v6c0 .1 0 .2-.1.2L27.5 78c-.1.1-.2 0-.3 0 0 0-.1-.1-.1-.2V66.7c0-.3.1-.6.4-.8l14.1-8.4c.1 0 .1-.1.1-.1l4.2-2.5c.1-.1.2 0 .2 0s.1.1.1.2l.1 21.8c0 .4-.1.6-.4.8z"/></svg>