<svg id="Layer_1" xmlns="http://www.w3.org/2000/svg" viewBox="0 0 512 128"><style>.st0{fill:none}.st1{fill:#3e4f4e}</style><path class="st0" d="M0 0h512v128H0z" id="Container"/><g id="Logos"><g id="Bright"><path class="st1" d="M26.4 63c.4.3.7.4.9.6 2.6 1.4 4.2 3.6 4.5 6.6.2 2.1 0 4.3-.3 6.3-.4 2.4-2 4.1-4.2 5.3-2 1.1-4.1 1.7-6.3 1.7-6.6 0-13.2 0-19.9.1-.9 0-1.1-.3-1.1-1.2V46.2c0-.8.2-1.1 1-1.1 6.9.1 13.8 0 20.7.2 5.4.1 8.8 3.8 8.8 9.4 0 1.5-.3 2.9-.6 4.4-.3 1.6-1.4 2.7-2.8 3.5-.2.1-.4.2-.7.4zM14 67.1v-.2H8.9c-.7 0-.9.2-.9.9V76c0 .8.3 1.1 1 1h9.4c1.2 0 2.4-.3 3.5-.6 1.2-.3 1.9-1.2 1.9-2.5.1-1.1.1-2.2 0-3.4-.1-2.1-1.3-3.3-3.5-3.4H14zm.1-6.8c1.3-.1 2.7-.1 4-.1 3.8-.1 4.7-1.1 4.6-4.8 0-2.3-.8-3.3-3.1-3.4-3.6-.2-7.2-.2-10.8-.3-.6 0-.8.3-.8.8v6.8c0 .7.3.9.9.9 1.8.1 3.5.1 5.2.1zM63 68.2c3.3 5.1 6.4 10.1 9.7 15.2-.5.1-.8.1-1 .1-2.2 0-4.3 0-6.5.1-1.5.1-2.3-.4-3-1.7-2.5-4.2-5.1-8.3-7.7-12.4-.4-.7-.9-1-1.7-.9-1.6 0-3.3.1-4.9 0-.8 0-1.1.2-1.1 1v12.8c0 .9-.3 1.2-1.1 1.1-1.8-.1-3.6-.1-5.5 0-1.1.1-1.4-.2-1.4-1.3.1-5.2 0-10.4 0-15.6V46.5c0-1.4 0-1.4 1.4-1.4 6.8 0 13.7 0 20.5.2 3.1.1 6.1.9 7.9 3.8.5.8 1 1.7 1.2 2.5.9 3.3.8 6.6.1 9.9-.7 3.1-2.7 5-5.7 6.1-.4.2-.7.4-1.2.6zM52.4 51.7c-1.5.1-3.1.1-4.6.1-.8 0-1.1.2-1.1 1.1v8.2c0 .8.4.9 1 .9 2.5 0 5 0 7.6-.1 1.2 0 2.4-.1 3.6-.4 2-.4 3-1.5 3.3-3.5.1-.6.1-1.3.1-1.9 0-2.5-1-3.7-3.5-4-2.1-.2-4.3-.3-6.4-.4zM127 57.1c-.4 0-.7.1-1 .1h-6c-.6 0-.9-.2-1-.8-.6-3.4-3.1-4.8-6.2-5.1-2.1-.2-4.4-.1-6.5.1-3.9.5-6.1 3.1-6.9 6.8-1 4.5-1 9 .3 13.4 1 3.5 3.7 5.7 7.5 5.9 2.3.1 4.6.1 6.9-.3 4.4-.6 5.4-3.5 5.7-6.9.1-.7-.4-.8-.9-.8H112c-.8 0-1.1-.3-1.1-1 0-1.6.1-3.2 0-4.8 0-.8.5-.9 1.1-.9h13.2c2.4 0 2.5 0 2.4 2.4-.1 2.6-.1 5.2-.5 7.7-1 5.5-4.4 9.2-9.9 10.5-5.1 1.3-10.4 1.4-15.5-.2-5-1.6-8.4-4.9-9.7-10-1.8-6.5-1.9-13 .5-19.3 1.8-5 5.5-7.9 10.7-9s10.3-1 15.4.6c5.3 1.7 7.9 5.6 8.6 10.9-.2.3-.2.5-.2.7zM164.9 64.4v18c0 1-.3 1.3-1.3 1.2-1.8-.1-3.6-.1-5.5 0-1 0-1.2-.3-1.2-1.3V67.8c0-1-.3-1.3-1.3-1.3-4.2 0-8.3.1-12.5 0-1.1 0-1.3.4-1.3 1.4v14.3c0 1.1-.3 1.4-1.4 1.3-1.8-.1-3.6-.1-5.5 0-.9 0-1.2-.2-1.2-1.2V51.9c0-1.9.1-3.7 0-5.6 0-1.1.3-1.3 1.3-1.3 1.8.1 3.6.1 5.5 0 1 0 1.3.3 1.3 1.2v12.1c0 1.4 0 1.4 1.4 1.4h12.4c1 0 1.3-.3 1.3-1.2V46.2c0-.9.3-1.2 1.2-1.2h5.5c.9 0 1.3.2 1.3 1.2v18.2zM181.2 67.8V53.2c0-1-.3-1.3-1.2-1.2-3.1.1-6.2 0-9.2 0-.8 0-1.1-.3-1.1-1.1v-4.6c0-.9.3-1.1 1.2-1.1H199.3c1.5 0 1.5 0 1.5 1.4V51c0 .8-.3 1-1 1-3.1 0-6.2 0-9.2-.1-1 0-1.3.3-1.3 1.2V82c0 1.4 0 1.4-1.4 1.4h-5.6c-.8 0-1.1-.2-1.1-1.1V67.8zM76.9 64.3V46.1c0-.7.2-.9.9-.9H84c.6 0 .9.3.9.9V82.3c0 1.4 0 1.4-1.4 1.4-1.8 0-3.6-.1-5.4 0-.9 0-1.2-.3-1.2-1.2.1-6.1.1-12.1 0-18.2z"/></g></g></svg>