<svg id="Layer_1" xmlns="http://www.w3.org/2000/svg" viewBox="0 0 512 128"><style>.st0{fill:none}.st1{fill:#3e4f4e}</style><path id="Container" class="st0" d="M0 0h512v128H0V0z"/><path class="st1" d="M0 40.5v48.2h55.4V40.5H0zm51.5 39.8h-8.4V60.4c0-2.9-1.3-5-4.7-5-2.9 0-5.4 2-6.5 3.7v21.3h-8.4v-20c0-2.9-1.3-5-4.7-5-2.9 0-5.3 2-6.5 3.7v21.3H3.9V48.7h8.3v4.1C13.6 51 17.7 48 22.5 48c4.6 0 7.6 2.2 8.8 5.7 1.8-2.8 6-5.7 10.9-5.7 5.8 0 9.3 3.1 9.3 9.5v22.8zM80 80.3V77c-2.2 2.6-5.9 4.1-10 4.1-5 0-10.9-3.4-10.9-10.5 0-7.5 5.9-10.2 10.9-10.2 4.2 0 7.9 1.4 10 3.9v-4c0-3.2-2.7-5.3-6.9-5.3-3.3 0-6.5 1.3-9.1 3.7l-3.3-5.8c3.9-3.5 8.8-5 13.8-5 7.3 0 13.9 2.9 13.9 12v20.4H80zm0-7.6v-3.9C78.6 67 76 66 73.3 66c-3.3 0-5.9 1.8-5.9 4.8s2.7 4.7 5.9 4.7c2.7 0 5.3-1 6.7-2.8zM92.5 76.2l3.6-6c2.4 2.2 7 4.4 10.9 4.4 3.6 0 5.3-1.4 5.3-3.3 0-5.2-18.7-.9-18.7-13.3 0-5.3 4.6-9.9 12.9-9.9 5.3 0 9.5 1.8 12.7 4.3l-3.3 5.9c-1.9-2-5.5-3.7-9.3-3.7-3 0-5 1.3-5 3.1 0 4.6 18.8.7 18.8 13.5 0 5.8-5 10.1-13.7 10.1-5.6-.2-10.9-2.1-14.2-5.1zM146.6 80.3V61.1c0-4.4-2.3-5.8-5.8-5.8-3.3 0-5.8 1.8-7.2 3.7v21.3h-8.4V36.7h8.4v16.1c2-2.4 5.9-4.8 11-4.8 6.9 0 10.3 3.8 10.3 9.9v22.4h-8.3zM161.3 88.4l3.7-5.9c2.5 2.7 5.9 3.9 9.9 3.9s8.8-1.7 8.8-8.1v-3.1c-2.5 3.1-5.9 4.9-9.8 4.9C166 80 160 74.5 160 64c0-10.3 5.9-16.1 13.9-16.1 3.8 0 7.3 1.6 9.8 4.8v-4.1h8.3v29.5c0 12-9.3 14.9-17.1 14.9-5.3.1-9.6-1.1-13.6-4.6zm22.4-19.3V58.9c-1.4-2-4.4-3.5-7.1-3.5-4.8 0-8 3.3-8 8.7s3.3 8.7 8 8.7c2.7-.1 5.7-1.7 7.1-3.7zM198.2 40.4c0-2.7 2.2-4.9 4.9-4.9s5 2.2 5 4.9-2.2 5-5 5c-2.7-.1-4.9-2.3-4.9-5zm.8 39.9V48.7h8.3v31.6H199zM235.5 80.3V61.2c0-4.4-2.3-5.9-5.8-5.9-3.3 0-5.8 1.8-7.2 3.7v21.3h-8.3V48.7h8.3v4.1c2-2.4 5.9-4.8 11-4.8 7 0 10.3 3.9 10.3 10.1v22.3h-8.3z"/></svg>