<svg id="Layer_1" xmlns="http://www.w3.org/2000/svg" viewBox="0 0 512 128"><style>.st0{fill:none}.st1{fill:#3e4f4e}.st2{fill:#a9b1b0}</style><path id="Container" class="st0" d="M0 0h512v128H0V0z"/><g id="_x34_OFJNM.tif"><path class="st1" d="M22.4 43.3c.7.1 1.3.1 2 .3 8.8 1.6 14.7 6.6 17.3 15.1 3.5 11.5-3.5 23.5-15.1 26.4-1.2.3-2.4.4-3.7.6-.1 0-.3.1-.4.1h-2.3c-.1 0-.3-.1-.4-.1-1.4-.2-2.9-.3-4.2-.8C7 82.3 1.9 76.5.3 67.7c-.1-.6-.2-1.3-.3-2v-2.3c0-.1.1-.3.1-.4.2-1.4.3-2.9.8-4.3 2.7-8.5 8.5-13.6 17.3-15.2.6-.1 1.3-.2 2-.3.7.1 1.4.1 2.2.1zM83.9 84.1h-8.8v-.6-28.7-.5c-.1-.2-.3-.3-.4-.4-.1-.1-.3 0-.4 0h-14c-.8 0-.9.1-.9.9v29.3h-8.8v-39h48.1c4.7 0 8.5 3.1 9.4 7.6.1.6.2 1.3.2 1.9v29.5h-8.7v-.6-28.6-.5c0-.3-.2-.5-.5-.5H84.7c-.7 0-.8 0-.8.8V84.1zM117.6 45.1h8.8v29.3c0 .8.1.9.9.9h20.2c.8 0 .9-.1.9-.9V45.7v-.6h8.8v29.5c0 4.3-2.3 7.6-6.4 9-1 .3-2 .5-3 .5H127c-4.1 0-7.6-2.5-8.9-6.3-.4-1-.5-2.1-.5-3.2v-29-.5zM184.1 57.4c2.4-2.8 4.9-5.6 7.2-8.4 1-1.2 2.1-2.5 3.1-3.7.1-.1.4-.3.5-.3h9.3v2.2c0 .1-.2.2-.2.4-4.6 5.4-9.1 10.7-13.7 16.1-.2.2-.3.4-.5.6.1.2.3.4.4.5L204 81.6c.2.2.2.5.3.7v1.8H195c-.3 0-.5-.1-.6-.3-3.3-4-6.6-8-9.9-12.1-.1-.2-.3-.3-.5-.6-.1.1-.2.2-.3.4-3.3 4.1-6.6 8.2-10 12.3-.1.1-.3.3-.5.3h-9.4v-2c0-.1.1-.3.2-.4 4.6-5.7 9.2-11.3 13.8-16.9.1-.1.2-.3.3-.4-.9-1-1.8-2.1-2.6-3.1-3.8-4.5-7.7-9-11.5-13.6-.2-.2-.2-.5-.3-.7v-1.8h9.2c.3 0 .5.1.7.3 3.2 3.8 6.5 7.7 9.8 11.5.4.1.5.2.7.4z"/></g><path class="st2" d="M18.1 70.3c.1-1.9.2-3.7.4-5.6.2-2.1.3-4.3.5-6.4l.3-3.9c0-.4.1-.7.6-.7.4 0 .5.3.6.7.2 2 .3 4 .5 6 .2 2.9.5 5.8.8 8.7l.3-2.7c.3-2.8.6-5.5.8-8.3 0-.1 0-.2.1-.3.1-.3.2-.5.6-.5.3 0 .5.2.5.5.1.8.2 1.7.3 2.5l.6 4.5c.1.9.2 1.9.4 2.9 0-.1.1-.2.1-.2.3-2 .7-3.9 1-5.9 0-.1 0-.2.1-.3.2-.2.3-.4.5-.4s.5.2.6.4c.1.2.2.5.2.8l.9 3.6c0 .1.1.2.1.4.1-.4.2-.7.2-1 .2-.6.6-1 1.2-1 1.2 0 2.4.1 3.6.1.5 0 .5.3.5.6 0 .4-.3.3-.5.3-1.1 0-2.1.1-3.2 0-.5 0-.6.2-.7.6-.1.6-.3 1.3-.5 1.9 0 .1 0 .3-.1.3-.2.2-.4.4-.6.4-.2 0-.5-.2-.6-.4-.2-.3-.2-.7-.3-1.1-.3-1-.5-2-.8-3.1-.2.9-.3 1.8-.5 2.6-.3 1.6-.5 3.3-.8 4.9-.1.3-.2.7-.6.7-.4 0-.5-.4-.6-.7-.2-1.2-.3-2.5-.5-3.7l-.6-4.5c0-.1 0-.2-.1-.3-.1.7-.1 1.3-.2 2-.3 2.8-.6 5.6-.9 8.5-.1.6-.1 1.2-.2 1.8 0 .4-.2.6-.6.6-.4 0-.5-.3-.5-.6-.1-1.2-.2-2.5-.3-3.7-.2-2.3-.4-4.5-.6-6.8-.1-1-.2-2.1-.3-3.1-.1.8-.1 1.6-.2 2.4-.2 3.2-.5 6.4-.7 9.6-.1 1.7-.2 3.4-.4 5.1 0 .2-.2.5-.4.6-.3.2-.6-.1-.7-.6l-.3-3.9c-.2-3-.4-6-.6-9.1-.1-1.9-.2-3.8-.4-5.7 0 .7-.1 1.4-.1 2.1 0 .8-.1 1.5-.1 2.3 0 .6-.4 1-1 1h-4.3c-.4 0-.4-.2-.3-.9h4.4c.1-1.1.1-2.1.2-3.1.2-3.4.4-6.8.6-10.3 0-.4.1-.7.5-.7s.5.3.6.7c.2 3.2.4 6.5.6 9.7.4 3.2.6 6.5.9 9.7-.1 0 0 0 0 0z" id="rU5I8x_1_"/></svg>