<svg id="Layer_1" xmlns="http://www.w3.org/2000/svg" viewBox="0 0 512 128"><style>.st0{fill:none}.st1{fill:#3e4f4e}.st2{fill:#a9b1b0}</style><path id="Container" class="st0" d="M0 0h512v128H0V0z"/><path class="st1" d="M119 57.4c-.6-1-1.5-1.8-2.7-2.5-1.1-.7-2.4-1-3.9-1s-2.9.2-4.1.7c-1.2.5-2.3 1.3-3.1 2.2-.9.9-1.5 2-2 3.3-.4 1.3-.7 2.7-.7 4.2s.2 2.9.7 4.2c.4 1.3 1.1 2.4 2 3.3.9.9 1.9 1.7 3.1 2.2 1.2.5 2.6.8 4.1.7 1.5 0 2.8-.3 3.9-1s2-1.5 2.7-2.5l3 2.3c-1.3 1.5-2.8 2.7-4.4 3.4-1.6.7-3.4 1.1-5.2 1.2-2.1 0-4.1-.3-5.8-1-1.7-.7-3.2-1.7-4.4-2.9-1.2-1.2-2.1-2.7-2.8-4.4-.6-1.7-1-3.5-1-5.5s.3-3.8 1-5.5c.6-1.7 1.6-3.2 2.8-4.4 1.2-1.2 2.7-2.2 4.4-2.9 1.7-.7 3.6-1 5.8-1 1.8 0 3.5.4 5.2 1.2 1.6.7 3.1 1.9 4.4 3.4l-3 2.3zM144.4 61.4v-.7c0-4.5-2.2-6.8-6.7-6.8-3.1 0-5.7 1-8 3.1l-2.2-2.6c2.5-2.5 6.2-3.8 11.1-3.8 1.3 0 2.5.2 3.7.6 1.2.4 2.2.9 3.1 1.7.9.8 1.6 1.7 2.1 2.9s.8 2.5.8 4.2v11.7c0 1 0 2.1.1 3.2s.2 2 .3 2.7H145c-.1-.6-.2-1.3-.3-2.1-.1-.7-.1-1.5-.1-2.2h-.1c-1.1 1.8-2.4 3-3.8 3.8-1.5.8-3.3 1.2-5.4 1.2-1.2 0-2.3-.2-3.4-.5s-2-.8-2.9-1.5c-.8-.7-1.5-1.5-2-2.4-.5-1-.8-2.1-.8-3.3 0-2.1.6-3.8 1.7-5 1.1-1.2 2.5-2.1 4.2-2.7 1.7-.6 3.4-1 5.3-1.1 1.9-.1 3.6-.2 5.2-.2h1.8zm-1.9 3.1c-.9 0-2.1 0-3.5.1s-2.8.3-4 .7c-1.3.4-2.4.9-3.3 1.7-.9.7-1.4 1.8-1.4 3.1 0 .9.2 1.6.5 2.2.4.6.8 1.1 1.4 1.5.6.4 1.3.7 2 .8.7.2 1.5.3 2.2.3 1.3 0 2.5-.2 3.5-.7 1-.4 1.8-1.1 2.5-1.8.7-.8 1.2-1.7 1.5-2.7.3-1 .5-2.1.5-3.3v-1.9h-1.9zM169.5 57.5c-.6-1.1-1.3-1.9-2.2-2.6-.9-.6-2.1-1-3.4-1-.6 0-1.3.1-1.9.2-.7.1-1.2.4-1.8.7-.5.3-.9.7-1.3 1.2-.3.5-.5 1.1-.5 1.8 0 1.2.4 2.1 1.3 2.7.9.6 2.2 1 3.9 1.5l3.8.9c1.8.4 3.4 1.2 4.6 2.5 1.2 1.3 1.8 2.8 1.8 4.7 0 1.4-.3 2.6-.9 3.7-.6 1-1.3 1.9-2.3 2.5-1 .7-2 1.1-3.3 1.4-1.2.3-2.5.4-3.8.4-2 0-3.9-.4-5.6-1.2-1.7-.8-3.2-2.1-4.5-4l3.2-2.2c.7 1.2 1.7 2.2 2.8 2.9 1.1.7 2.5 1.1 4.1 1.1.7 0 1.5-.1 2.2-.3.7-.2 1.4-.4 2-.8.6-.4 1-.8 1.4-1.4.4-.6.5-1.2.5-2 0-1.3-.5-2.3-1.5-2.8-1-.6-2.2-1-3.5-1.4l-3.6-.8c-.4-.1-1.1-.3-1.8-.6-.8-.3-1.5-.7-2.2-1.2-.7-.5-1.4-1.2-1.9-2s-.8-1.9-.8-3.1c0-1.3.3-2.5.8-3.5s1.3-1.8 2.2-2.5c.9-.6 2-1.1 3.1-1.4 1.2-.3 2.4-.5 3.6-.5 1.8 0 3.5.4 5.1 1.1 1.6.7 2.8 1.9 3.7 3.6l-3.3 2.4zM182.1 65.4c.1 1.3.4 2.5 1 3.7.5 1.2 1.2 2.2 2.1 3 .9.8 1.9 1.5 3 2s2.3.7 3.6.7c2 0 3.7-.5 5.1-1.4 1.4-.9 2.5-2 3.3-3.2l2.9 2.4c-1.6 2-3.3 3.4-5.2 4.3-1.9.9-3.9 1.3-6.1 1.3-1.9 0-3.8-.3-5.4-1-1.7-.7-3.1-1.7-4.3-2.9-1.2-1.2-2.1-2.7-2.8-4.4-.7-1.7-1-3.5-1-5.5s.3-3.8 1-5.5c.7-1.7 1.6-3.1 2.8-4.4 1.2-1.2 2.6-2.2 4.2-2.9 1.6-.7 3.4-1 5.2-1 2 0 3.8.4 5.3 1.1 1.6.7 2.9 1.7 4 2.8 1.1 1.2 1.9 2.6 2.4 4.2.6 1.6.8 3.3.8 5.1v1.7h-21.9zm17.8-3c0-2.5-.7-4.5-2.2-6.1-1.5-1.6-3.6-2.3-6.3-2.3-1.2 0-2.4.2-3.5.7-1.1.5-2.1 1.1-2.9 1.9-.8.8-1.5 1.7-2 2.7-.5 1-.8 2.1-.8 3.1h17.7zM223.8 54.6h-7.6v15.5c0 1 .1 1.8.3 2.4.2.6.4 1.1.8 1.4.3.3.7.6 1.2.7.5.1 1 .2 1.5.2.6 0 1.3-.1 2-.3.7-.2 1.3-.4 1.9-.7l.2 3.4c-1.4.6-3.1 1-5 1-.7 0-1.5-.1-2.2-.3-.8-.2-1.5-.5-2.1-1.1-.6-.5-1.2-1.2-1.6-2.1-.4-.9-.6-2.1-.6-3.5V54.6H207v-3.4h5.6v-7.4h3.7v7.4h7.6v3.4zM230.8 65.4c.1 1.3.4 2.5 1 3.7.5 1.2 1.2 2.2 2.1 3 .9.8 1.9 1.5 3 2s2.3.7 3.6.7c2 0 3.7-.5 5.1-1.4 1.4-.9 2.5-2 3.3-3.2l2.9 2.4c-1.6 2-3.3 3.4-5.2 4.3-1.9.9-3.9 1.3-6.1 1.3-1.9 0-3.8-.3-5.4-1-1.7-.7-3.1-1.7-4.3-2.9-1.2-1.2-2.1-2.7-2.8-4.4-.7-1.7-1-3.5-1-5.5s.3-3.8 1-5.5c.7-1.7 1.6-3.1 2.8-4.4 1.2-1.2 2.6-2.2 4.2-2.9 1.6-.7 3.4-1 5.2-1 2 0 3.8.4 5.3 1.1 1.6.7 2.9 1.7 4 2.8 1.1 1.2 1.9 2.6 2.4 4.2.6 1.6.8 3.3.8 5.1v1.7h-21.9zm17.9-3c0-2.5-.7-4.5-2.2-6.1-1.5-1.6-3.6-2.3-6.3-2.3-1.2 0-2.4.2-3.5.7-1.1.5-2.1 1.1-2.9 1.9-.8.8-1.5 1.7-2 2.7-.5 1-.8 2.1-.8 3.1h17.7zM264.8 63.5l-9.5-12.2h5.1l7.3 9.8 7-9.8h4.6L270 63.5l11 14h-5L267.2 66l-8.5 11.5H254l10.8-14zM299.8 54.6h-7.6v15.5c0 1 .1 1.8.3 2.4.2.6.4 1.1.8 1.4.3.3.7.6 1.2.7.5.1 1 .2 1.5.2.6 0 1.3-.1 2-.3.7-.2 1.3-.4 1.9-.7l.2 3.4c-1.4.6-3.1 1-5 1-.7 0-1.5-.1-2.2-.3-.8-.2-1.5-.5-2.1-1.1-.6-.5-1.2-1.2-1.6-2.1-.4-.9-.6-2.1-.6-3.5V54.6H283v-3.4h5.6v-7.4h3.7v7.4h7.6v3.4z"/><g><path class="st2" d="M39.9 93.4L1.1 71.1l39.4-22.9 38.8 22.3z"/><path class="st2" d="M39.9 84.2L1.1 61.9 40.5 39l38.8 22.3z"/><path class="st2" d="M39.9 74.9L1.1 52.6l39.1-22.9 39.1 22.4z"/><path class="st1" d="M39.1 74.5l-38-21.9s-2.5 2.8 0 5.6l38 21.9s.7.4 1.4 0 38.8-22.4 38.8-22.4v-5.6L40.6 74.4s-.7.5-1.5.1z"/><path class="st1" d="M39.1 83.7l-38-21.9s-2.5 2.8 0 5.6l38 21.9s.7.4 1.4 0 38.8-22.4 38.8-22.4v-5.6L40.6 83.7s-.7.4-1.5 0z"/><path class="st1" d="M39.1 93l-38-21.9s-2.5 2.8 0 5.6l38 21.9s.7.4 1.4 0 38.8-22.4 38.8-22.4v-5.6L40.6 92.9s-.7.5-1.5.1zM19.7 57.8l-1.7-.9L48.6 39l1.8 1.1zM12.7 54.2l-1.7-.9 30.6-17.9 1.9 1.1zM25.7 61.5l-1.7-1 30.6-17.8 1.9 1zM31.9 65.2l-1.7-.9 30.6-17.9 1.9 1.1zM38.3 69l-1.8-1 25.8-15 1.9 1.1z"/></g></svg>