<?xml version="1.0" encoding="utf-8"?>
<!-- Generator: Adobe Illustrator 20.0.0, SVG Export Plug-In . SVG Version: 6.00 Build 0)  -->
<svg version="1.1" id="Layer_1" xmlns="http://www.w3.org/2000/svg" xmlns:xlink="http://www.w3.org/1999/xlink" x="0px" y="0px"
	 viewBox="0 0 512 128" style="enable-background:new 0 0 512 128;" xml:space="preserve">
<style type="text/css">
	.st0{fill:none;}
	.st1{fill:#3E4F4E;}
	.st2{fill:#7E8A88;}
</style>
<g id="Container">
	<rect class="st0" width="512" height="128"/>
</g>
<g id="xowHDQ_1_">
	<g>
		<path class="st1" d="M16.9,87c-1.2-13.7-2.4-26.5-3.6-39.8c1.2,0.6,2,1,2.7,1.5c5.7,4,11.4,7.9,17.1,11.9c3,2.1,3.2,3.8,0.8,6.7
			C28.5,73.7,23,80,16.9,87z"/>
		<path class="st1" d="M64.2,71.1C62.6,80.9,53.5,91,44.8,93c-1-8-1.9-15.9-2.9-23.9c-0.3-2.7,0.5-3.6,3.3-2.8
			C51.5,68,57.8,69.5,64.2,71.1z"/>
		<path class="st1" d="M95.5,71.7c0-1.9,0-3.4,0-5.3c-2.6,0-5,0-7.6,0c0-1.6,0-2.7,0-4.2c4.4,0,8.7,0,13.3,0c0,4.5,0,8.9,0,14.2
			c-6.2-0.3-12.5-0.2-18.6-1.1c-3.5-0.5-5.6-3.6-6.1-7.3c-1.6-10,2.1-16.2,12.4-15.8c4,0.1,8,0,12.3,0c0,1.5,0,2.8,0,4.4
			c-4.1,0-8.2,0-12.3,0c-4.8,0-6.5,2-6.5,7.6c0,5.4,1.6,7.3,6.4,7.4C90.8,71.7,93,71.7,95.5,71.7z"/>
		<path class="st2" d="M232.4,75.9c-5.5,0.3-10.6,0.9-15.6,0.7c-7.7-0.2-11.8-5.5-11.1-13.4c0.4-4.4,1.3-8.6,6-10.3
			c5.3-1.9,10.9-2.3,15.6,1.3c5,3.8,4.2,9.5,3.3,14.7C230,72.8,229.7,72.7,232.4,75.9z M211.9,64.2c0,0.6,0,1.3,0,1.9
			c0.3,4,2.6,6.2,6.5,6.2c3.9,0,6.2-2.1,6.5-6.1c0.1-1.5,0.1-3-0.1-4.5c-0.5-3.6-2.9-5.5-6.5-5.4C214,56.3,211.9,58.9,211.9,64.2z"
			/>
		<path class="st1" d="M38.5,68.1c1,8.6,2.1,17.2,3.2,26.2c-7.2,1.7-14,1.4-20.5-1.5c-2.2-1-2-3.2-0.8-4.6
			C26.1,81.3,32,74.7,37.9,68C38,67.9,38.1,68,38.5,68.1z"/>
		<path class="st2" d="M181.3,76.2c0-1.6,0-2.8,0-4.5c1.9,0,3.7,0,5.5,0c2.7,0,5.5,0.2,8.2-0.1c1.3-0.2,3.2-1.4,3.4-2.4
			c0.4-2.1-1.5-2.5-3.3-2.5c-2.8-0.1-5.7,0-8.5-0.2c-4.1-0.3-6.1-2.3-6.3-6.1c-0.3-4.7,1.3-7.4,5.6-7.7c5.7-0.4,11.4-0.1,17.3-0.1
			c0,1.4,0,2.6,0,4.3c-4.1,0-7.9,0-11.8,0c-1.1,0-2.3-0.1-3.2,0.4c-0.8,0.5-1.8,1.7-1.7,2.6c0.1,0.8,1.3,2,2.2,2.1
			c3.1,0.3,6.3,0,9.4,0.4c4.8,0.5,6.5,2.5,6.5,6.9c-0.1,4.2-2.2,6.8-6.6,7C192.5,76.4,187.1,76.2,181.3,76.2z"/>
		<path class="st1" d="M13.3,87.3C1.5,79.1-1.9,58.8,7.9,45.4c1,1.9,2.3,3.4,2.5,5c1.2,11.7,2.1,23.4,3.1,35
			C13.6,86,13.4,86.6,13.3,87.3z"/>
		<path class="st1" d="M16.3,44.8c10.8-0.7,20.6-1.3,31.5-2C45,48.6,42.7,53.4,40,58c-0.4,0.8-3.2,1-4.2,0.4
			c-5.7-3.6-11.1-7.6-16.6-11.5C18.5,46.5,17.8,46,16.3,44.8z"/>
		<path class="st1" d="M145.6,76.2c-0.1,2.2-0.2,4-0.3,5.8c-4.5,1.4-5,1-5-3.4c0-6.5,0-13,0-19.7c4.4,0,8.5-0.4,12.5,0.1
			c4.6,0.6,6.7,4.5,6.3,9.9c-0.4,4.2-3.4,7-7.8,7.3C149.4,76.3,147.6,76.2,145.6,76.2z M145.6,61.7c0,4.3,0,7.3,0,11.4
			c2.8-1,5.6-1.3,7.2-2.9c1-1,1.1-4.6,0.1-5.6C151.3,63.1,148.5,62.7,145.6,61.7z"/>
		<path class="st1" d="M65.5,68.1c-7.4-1.9-13.9-3.4-20.4-5.3c-0.9-0.3-2-2.8-1.7-3.7c1.8-4.3,4-8.4,6.2-12.5
			c0.2-0.4,2.3-0.6,2.6-0.1c4.3,5.6,8.5,11.3,12.5,17.1C65.6,64.5,65.3,66.1,65.5,68.1z"/>
		<path class="st1" d="M137.7,76.2c-5,0-9.6,0.1-14.1,0c-2.8-0.1-4.7-1.6-4.9-4.6c-0.2-3.3,1.1-5.2,4.4-5.7c3-0.4,6-0.4,9.4-0.7
			c-1.2-3.3-3.7-2.5-5.7-2.6c-2.1-0.1-4.3,0-6.7,0c-0.1-1.3-0.1-2.4-0.2-3.7c4.4,0,8.6-0.2,12.8,0.1c2.9,0.2,4.9,2.2,5,5.1
			C137.9,67.9,137.7,71.8,137.7,76.2z M132.3,69.2c-2.5,0-4.5-0.1-6.5,0.1c-0.6,0.1-1.1,1.1-1.6,1.6c0.6,0.5,1.1,1.3,1.7,1.4
			c2,0.2,4.1,0.1,6.2,0.1C132.2,71.2,132.3,70.4,132.3,69.2z"/>
		<path class="st1" d="M49.5,36.1c-3.1,4.4-7.6,4-12,4.2c-6.3,0.4-12.5,0.9-18.8,1.2c-1.8,0.1-3.6-0.7-6-1.3
			C21.3,30.8,38.3,29.2,49.5,36.1z"/>
		<path class="st1" d="M161.1,52.5c1.7,0,3.1,0,4.8,0c0.1,2,0.2,3.9,0.3,6.2c1.9,0,3.8-0.1,5.6,0c4.3,0.3,6.1,2.1,6.2,6.4
			c0.1,3.6,0,7.1,0,10.9c-1.8,0-3.2,0-5.2,0c0-2.6,0-5.2,0-7.8c0-5.5-0.6-6-6.7-5.1c0,4.1,0,8.3,0,12.8c-1.9,0-3.4,0-5.1,0
			C161.1,68.2,161.1,60.5,161.1,52.5z"/>
		<path class="st2" d="M233,52.4c1.9,0,3.5,0,5.7,0c0,3.7,0,7.4,0,11c0,8.4,0,8.4,8.3,8.4c1.1,0,2.1,0,3.4,0c0,1.6,0,2.8,0,4.3
			c-3.5,0-6.9,0.3-10.2-0.1c-4-0.4-6.8-3.2-7-7.3C232.8,63.4,233,58.1,233,52.4z"/>
		<path class="st1" d="M103.9,75.9c0-3.9-0.1-7.4,0-11c0.1-3.6,1.9-5.7,5.5-6.1c2.5-0.3,5.2-0.1,7.9-0.1c0,1.2,0,2.2,0,3.4
			c-0.5,0.1-0.9,0.3-1.3,0.3c-6.8,0.3-6.8,0.3-6.8,7.1c0,2,0,4.1,0,6.4C107.4,75.9,105.8,75.9,103.9,75.9z"/>
		<path class="st1" d="M64.3,56.6c-3.1-5.3-9-8.9-9.4-15.8C60.2,44.8,63.2,50.2,64.3,56.6z"/>
	</g>
</g>
</svg>
