<svg id="Layer_1" xmlns="http://www.w3.org/2000/svg" viewBox="0 0 512 128"><style>.st0{fill:none}.st1{fill:#3e4f4e}</style><path class="st0" d="M0 0h512v128H0z" id="Container"/><g id="Logos"><g id="Pipeline"><path class="st1" d="M33.3 34.9c4.6 0 9.2.1 13.9 0 2.3-.1 3.7 1 4.7 2.8.9 1.7 2 3.4 2.9 5.2 1.7 3 3.4 6.1 5.2 9.1 1.4 2.5 2.9 4.9 4.4 7.4.8 1.3 1.4 2.7 2.1 4.1.4.7 0 .9-.6 1-.3.1-.6 0-.9 0H49.5c-1.8 0-3.3-.6-4.6-2-1.8-2-3.8-3.8-5.7-5.7-1.2-1.2-2.3-2.4-3.6-3.5-2.5-2.2-5.4-3.6-8.7-4.3-3.5-.8-7-.4-10.5-.4-1.9 0-3.3-.7-4.5-2.1-.4-.5-1.1-.9-1.2-1.4-.1-.5.5-1.1.8-1.7 1.2-2.2 2.4-4.5 3.7-6.6.7-1.1 1.8-1.9 3.3-1.9 4.9.1 9.9 0 14.8 0zm-.1 58.3c-5 0-10-.1-15 0-1.5 0-2.3-.7-3-1.8-.9-1.4-1.7-3-2.5-4.5-.3-.5-.2-1 .3-1.5.9-1.1 2.1-1.3 3.4-1.3 1.6 0 3.2 0 4.8-.1 3.9-.3 7.1-1.9 9.7-4.8 1.3-1.5 2.8-2.9 4.4-4.2.5-.4 1.3-.7 2-.7 7.6-.1 15.1 0 22.7 0 1 0 1.1.1.6 1L57 81.6c-.9 1.6-1.8 3.3-2.8 4.9-1.1 1.9-2.3 3.8-3.5 5.7-.4.7-1.1.9-2 .9-5.2.1-10.4.1-15.5.1zm263.6-29.6c.7.5 1.2.8 1.7 1.2 2.2 1.6 2.9 3.9 2.5 6.5-.5 3.5-3.6 5.6-6.6 5.6-4.6 0-9.2 0-13.9.1-.7 0-.8-.3-.8-.9V52.4c0-.7.2-1 1-1h12.5c1.8 0 3.6.4 5.1 1.6 1.7 1.3 2.8 4.6 2.1 6.7-.7 1.9-2.1 3.2-3.6 3.9zm-7.3 2.8c-1.1-.1-2.2 0-3.4-.1-.7 0-.9.3-.9.9v4.1c0 .6.2.9.8.9 2.4 0 4.8 0 7.1-.1 1.5-.1 2.4-1.3 2.4-2.8 0-1.6-.9-2.7-2.4-2.9h-3.6zm-.2-4.7c1.2 0 2.3 0 3.5-.1.3 0 .5-.3.7-.4 1.3-.7 1.7-1.6 1.4-3.2-.2-1-1.3-1.9-2.4-2-2.1-.1-4.3 0-6.4 0-.6 0-.8.3-.8.9v3.9c0 .6.3 1 1 .9.9-.1 1.9 0 3 0zm-39 2.4V52.6c0-1.3.1-1.4 1.4-1.4 3.1 0 6.2-.1 9.3 0 4.1.2 7.8 1.5 10.5 4.8.9 1.2 1.5 2.5 2 3.8.8 2 .8 4.1.5 6.2-.4 3-1.7 5.6-4 7.6-2.8 2.4-6.1 3.2-9.7 3.2h-8.7c-1.2 0-1.2 0-1.3-1.2V64.1zm5.4.1v7c0 .5 0 1 .6.9 2.4-.1 4.8.4 7.2-.5 1.9-.7 3.4-2 4.2-3.9.8-2 1-4 .4-6.2-.6-2.6-3.3-5-5.7-5.2-1.8-.1-3.6-.2-5.5-.2-1.1 0-1.3.2-1.3 1.3.1 2.3.1 4.6.1 6.8zM29 65.2c-.6.6-1.3 1.2-1.9 1.8l-4.6 4.6c-.7.7-1.5 1.2-2.6 1.2-2 0-4.1-.1-6.1.1-2.5.2-4.7 1.1-6.7 2.6-.8.6-1.1.2-1.4-.3-.6-1-1.2-2.1-1.8-3.2-1-1.8-2.2-3.6-3.1-5.4-.4-.8-.9-1.7-.8-2.5.1-1 .7-2 1.2-2.9.7-1.2.8-1.2 2-.3 1.9 1.4 3.9 2.6 6.2 3.3 1.8.5 3.6 1 5.5.9 4.3-.1 8.5 0 12.8 0 .4 0 .8 0 1.3.1-.1-.1 0 0 0 0z"/><path class="st1" d="M55.3 71.1c-2.6 0-5.1.1-7.7 0-2.6-.2-4.8-1.2-6.7-3.1-3.2-3.2-6.3-6.4-9.6-9.5-1.8-1.7-4-2.8-6.6-3-2.3-.1-4.6-.2-7-.2-2.5 0-5 0-7.2-1.3-1.2-.7-2.2-1.8-3.3-2.7-.1-.1 0-.6.1-.9.2-.5.6-.8.9-1.3.4-.8.8-.6 1.2-.1.5.5 1 .9 1.5 1.3 1.3 1.2 3 1.6 4.7 1.6h5.6c2.7 0 5.4.4 7.9 1.4 2 .8 3.7 2.1 5.2 3.5 3.2 3.1 6.3 6.2 9.4 9.3 1.2 1.2 2.8 1.6 4.4 1.6h15.1c.4 0 .8.2 1.1.3-.1.4-.2.7-.3 1.1-.6 1.8-1.8 2.3-3.6 2.1-1.5-.2-3.3-.1-5.1-.1zm160.6 1.6c0-.6.1-1 .1-1.4V52.5c0-.8.1-1.3 1.1-1.2 1.1.1 1.1.1 1.1 1.2v23.2c0 .4-.2 1.2-.3 1.2-.7.1-1.6.4-2.2-.4l-2.7-3.6-3.9-5.4c-1.7-2.3-3.4-4.6-5-6.9l-3.6-4.8-.5-.5c-.1.6-.1 1-.1 1.4v19.2c0 .8-.1 1.2-1 1.2-.8 0-1-.3-1-1.1V52.8c0-.4.1-1.1.4-1.3.6-.4 1.7 0 2.1.6 1 1.4 2.1 2.8 3.1 4.1 2.8 3.8 5.6 7.5 8.4 11.3l3.3 4.5c0 .1.3.3.7.7zm11-8.5V52.7c0-1.3.1-1.4 1.4-1.4h13.8c.5 0 1.1-.1 1.3.6.2 1 0 1.3-1.1 1.3h-12c-.8 0-1.1.2-1.1 1.1v7.5c0 .7.3 1 1 1h11.7c.3 0 .9.1.9.3.1.5.1 1 .1 1.5 0 .1-.5.2-.8.2h-11.7c-1.2 0-1.2 0-1.2 1.2v7.9c0 .8.3 1.1 1.1 1.1h11.9c.7 0 1.2.1 1.2 1 0 .7-.2 1-1 1h-14.6c-.8 0-.9-.3-.9-1V64.2zm-86-.1V52.5c0-1.2 0-1.3 1.2-1.3H156c1.1 0 1.2.1 1.2 1.1 0 .7-.3.8-.9.8h-12.5c-.6 0-.8.2-.8.8v7.9c0 .8.4.9 1 .9h11.8c.8 0 1 .3 1.1 1 .1.8-.1 1.1-1 1.1h-11.8c-.9 0-1.1.3-1.1 1.1v7.8c0 1.2 0 1.2 1.2 1.2H156c1.1 0 1.5.6 1.1 1.6-.1.2-.6.4-.9.4h-14.4c-.7 0-.9-.2-.9-.9V64.1zm-24.5 0V52.6c0-1.3.1-1.3 1.4-1.3h7.8c2.9 0 5.6.9 7.2 3.5 1 1.6 1.3 3.4 1 5.2-.4 3-2.7 5.3-5.5 6-2.4.5-4.7.3-7 .4-2.5.1-2.5 0-2.5 2.5V76c0 1-.5 1-1.2 1-.8 0-1-.2-1-1-.1-4-.2-7.9-.2-11.9zm2.3-5.4v4.6c0 .8.2 1 1 1h6.4c2.2 0 3.9-.8 4.9-3 .9-1.9.7-4.3-.5-5.9-1.2-1.5-2.8-2-4.5-2.1-2.1-.1-4.2 0-6.3 0-.7 0-.9.3-.9.9-.1 1.5-.1 3-.1 4.5zm-37.5 5.5V52.6c0-1.2.2-1.4 1.4-1.4 2.7 0 5.4-.1 8.1 0s5.2.9 6.7 3.3c2.3 3.6 1.3 9.1-3.1 11-1.1.4-2.3.7-3.4.7-2 .1-4.1 0-6.1 0-1.3 0-1.3 0-1.3 1.2v8.3c0 .9-.4 1-1.1 1-.8 0-1.2-.1-1.2-1.1V64.2zm2.2-5.5v4.6c0 .8.3 1 1 1 2.1 0 4.1-.1 6.2 0 3.1.1 5.8-2.1 5.6-5.8-.2-3.2-2.5-5.1-5.4-5.2-2.1-.1-4.3 0-6.4 0-.8 0-1 .3-.9 1 0 1.4-.1 2.9-.1 4.4zM5.4 54c1.2.9 2.2 1.8 3.3 2.5 1.1.6 2.3 1.1 3.5 1.5 2.2.8 4.6.5 6.9.5 1.6 0 3.2 0 4.9.1 2.3.2 4.2 1.3 6 3-.4.1-.6.2-.9.2-5 0-10.1.2-15.1-.1-3.7-.2-7-1.7-9.7-4.3-.3-.3-.4-.9-.3-1.2.4-.7.9-1.4 1.4-2.2zM165 64.2V52.5c0-.7.1-1.2.9-1.1 1.1 0 1.2 0 1.2 1.2v21.2c0 1.3 0 1.3 1.2 1.3h10c.7 0 1.2.2 1.2 1s-.4 1-1.1 1H166c-.8 0-1-.3-1-1V64.2zM40 72.1h-2.6c-1.7-.1-3.1.7-4.3 1.9-1.9 1.9-3.7 3.9-5.7 5.6-1.9 1.6-4.3 2.3-6.8 2.3h-4.4c-1.7.1-3.4.4-4.6 1.8-.1.1-.4.3-.4.2-.4-.4-.8-.9-1.1-1.4-.1-.2.2-.7.4-.9 1.7-1.6 3.7-2 5.9-1.9 1.5 0 2.9 0 4.4-.1 2.3-.1 4.2-.9 5.8-2.4 1.9-1.8 3.7-3.7 5.6-5.5 1.5-1.5 3.4-2.1 5.4-1.9.4 0 .9.5 1.3.8.4.4.8.8 1.2 1.3 0 0 0 .1-.1.2z"/><path class="st1" d="M35.5 67.2c-1.1.5-2.3.9-3.3 1.5-.9.6-1.7 1.3-2.5 2.1-1.7 1.6-3.3 3.2-5 4.8-1.3 1.2-2.9 1.5-4.5 1.7-1.8.1-3.7.1-5.6.1s-3.6.7-5.1 2c-.2.2-.5.3-.9.6-.1-.2-.2-.4-.3-.5-.8-1.5-.7-1.8.7-2.6 1.9-1.2 4-1.8 6.2-1.8 1.9 0 3.9 0 5.8-.2.8-.1 1.8-.5 2.4-1.1 1.9-1.7 3.7-3.6 5.5-5.4 1.2-1.2 2.6-2.1 4.2-2.6.9-.4 1.2-.1 2.4 1.4zm72.2-2.9v11.6c0 .9-.4 1.1-1.2 1.1-.8 0-1.1-.2-1.1-1V52.5c0-1.1.9-1.6 1.8-1.1.3.1.4.7.4 1.1.2 3.9.1 7.8.1 11.8zm78.9-.2V52.5c0-1.1.6-1.6 1.6-1.1.3.1.5.7.5 1.1v23.2c0 1.3-.4 1.6-1.7 1.3-.2-.1-.4-.6-.4-.9v-12z"/></g></g></svg>