<svg id="Layer_1" xmlns="http://www.w3.org/2000/svg" viewBox="0 0 512 128"><style>.st0{fill:none}.st1{fill:#3e4f4e}.st2{fill:#7e8a88}</style><path id="Container" class="st0" d="M0 0h512v128H0V0z"/><path class="st1" d="M107.6 44.6c-.4-.6-.9-1.1-1.5-1.3-.6-.3-1.3-.4-2-.4-.5 0-1 .1-1.5.2s-.9.3-1.3.6-.7.6-.9 1c-.2.4-.4.9-.4 1.5 0 .4.1.8.2 1.2.1.3.4.6.7.9.3.3.7.5 1.3.8.5.2 1.2.5 1.9.7.7.2 1.5.5 2.2.8.7.3 1.3.6 1.9 1 .5.4 1 .9 1.3 1.6.3.6.5 1.4.5 2.4s-.2 1.8-.6 2.5c-.4.7-.9 1.3-1.5 1.8s-1.3.8-2.2 1c-.8.2-1.7.3-2.5.3-.6 0-1.1-.1-1.7-.2-.6-.1-1.1-.3-1.6-.5s-1-.5-1.5-.8-.8-.8-1.2-1.2l2-1.6c.4.7 1 1.2 1.7 1.6.7.4 1.5.5 2.4.5.5 0 1-.1 1.5-.2s1-.4 1.3-.6c.4-.3.7-.6 1-1 .3-.4.4-.9.4-1.4 0-.6-.1-1.1-.3-1.5-.2-.4-.5-.7-.9-1-.4-.3-.9-.5-1.6-.7-.6-.2-1.4-.5-2.2-.8-.7-.2-1.3-.5-1.9-.7-.6-.3-1.1-.6-1.5-1-.4-.4-.8-.9-1-1.5-.2-.6-.4-1.3-.4-2.1 0-.9.2-1.7.5-2.4.4-.7.9-1.3 1.5-1.7.6-.5 1.3-.8 2.1-1 .8-.2 1.6-.4 2.5-.4 1.1 0 2.1.2 3 .5.9.3 1.7.9 2.4 1.8l-2.1 1.3zM126.6 43.3h-6.4v17.2h-2.3V43.3h-6.4v-2.1h15v2.1zM135.3 41.2h2.2l8.2 19.3H143l-2-4.7h-9.6l-2 4.7h-2.6l8.5-19.3zm1 2.9l-4.1 9.5h7.9l-3.8-9.5zM148.8 41.2h2.9l11.2 16h.1v-16h2.3v19.3h-2.9l-11.2-16h-.2v16h-2.3V41.2zM170.1 41.2h7.4c.6 0 1.3.1 2 .2s1.4.4 2.1.7c.7.3 1.4.7 2 1.2.6.5 1.2 1.1 1.7 1.8s.9 1.5 1.2 2.5c.3.9.4 2 .4 3.2s-.1 2.2-.4 3.2c-.3.9-.7 1.8-1.2 2.5s-1.1 1.3-1.7 1.8c-.6.5-1.3.9-2 1.2-.7.3-1.4.5-2.1.7-.7.1-1.4.2-2 .2h-7.4V41.2zm2.3 17.1h4.4c1.1 0 2.1-.1 3.1-.4.9-.3 1.8-.7 2.5-1.3.7-.6 1.2-1.4 1.6-2.3.4-.9.6-2.1.6-3.4s-.2-2.5-.6-3.4c-.4-.9-.9-1.7-1.6-2.3-.7-.6-1.5-1.1-2.5-1.3-.9-.3-2-.4-3.1-.4h-4.4v14.8zM198 41.2h2.2l8.2 19.3h-2.7l-2-4.7h-9.6l-2 4.7h-2.6l8.5-19.3zm1.1 2.9l-4.1 9.5h7.9l-3.8-9.5zM213.1 41.2h4.9c.9 0 1.8.1 2.8.2.9.1 1.7.3 2.5.7.7.4 1.3.9 1.8 1.6.5.7.7 1.6.7 2.8 0 1.4-.4 2.6-1.3 3.4-.9.9-2 1.4-3.5 1.7l5.5 8.9h-2.8l-5.2-8.7h-2.9v8.7h-2.3V41.2zm2.3 8.5h2c.6 0 1.3 0 2-.1.7 0 1.3-.2 1.9-.4.6-.2 1-.5 1.4-.9.4-.4.6-1 .6-1.8 0-.7-.1-1.2-.4-1.7-.3-.4-.6-.7-1.1-1-.4-.2-.9-.4-1.5-.4-.6-.1-1.1-.1-1.7-.1h-3.2v6.4zM231 41.2h7.4c.6 0 1.3.1 2 .2s1.4.4 2.1.7c.7.3 1.4.7 2 1.2.6.5 1.2 1.1 1.7 1.8s.9 1.5 1.2 2.5c.3.9.4 2 .4 3.2s-.1 2.2-.4 3.2c-.3.9-.7 1.8-1.2 2.5s-1.1 1.3-1.7 1.8c-.6.5-1.3.9-2 1.2-.7.3-1.4.5-2.1.7-.7.1-1.4.2-2 .2H231V41.2zm2.3 17.1h4.4c1.1 0 2.1-.1 3.1-.4.9-.3 1.8-.7 2.5-1.3.7-.6 1.2-1.4 1.6-2.3.4-.9.6-2.1.6-3.4s-.2-2.5-.6-3.4c-.4-.9-.9-1.7-1.6-2.3-.7-.6-1.5-1.1-2.5-1.3-.9-.3-2-.4-3.1-.4h-4.4v14.8zM111.4 71.4H105v17.2h-2.3V71.4h-6.4v-2.1h15v2.1zM115.8 69.3h4.9c.9 0 1.8.1 2.8.2.9.1 1.7.3 2.5.7.7.4 1.3.9 1.8 1.6.5.7.7 1.6.7 2.8 0 1.4-.4 2.6-1.3 3.4-.9.9-2 1.4-3.5 1.7l5.5 8.9h-2.8l-5.2-8.7H118v8.7h-2.3V69.3zm2.2 8.5h2c.6 0 1.3 0 2-.1.7 0 1.3-.2 1.9-.4.6-.2 1-.5 1.4-.9.4-.4.6-1 .6-1.8 0-.7-.1-1.2-.4-1.7-.3-.4-.6-.7-1.1-1s-.9-.4-1.5-.4c-.6-.1-1.1-.1-1.7-.1H118v6.4zM134.6 69.3h12.1v2.1h-9.8v6h9.2v2.1h-9.2v6.9h10.3v2.1h-12.6V69.3zM160.2 69.3h2.2l8.2 19.3h-2.7l-2-4.7h-9.6l-2 4.7h-2.6l8.5-19.3zm1.1 2.9l-4.1 9.5h7.9l-3.8-9.5zM184.5 72.7c-.4-.6-.9-1.1-1.5-1.3-.6-.3-1.3-.4-2-.4-.5 0-1 .1-1.5.2s-.9.3-1.3.6-.7.6-.9 1c-.2.4-.4.9-.4 1.5 0 .4.1.8.2 1.2.1.3.4.6.7.9.3.3.7.5 1.3.8.5.2 1.2.5 1.9.7.7.2 1.5.5 2.2.8.7.3 1.3.6 1.9 1 .5.4 1 .9 1.3 1.6.3.6.5 1.4.5 2.4s-.2 1.8-.6 2.5c-.4.7-.9 1.3-1.5 1.8s-1.3.8-2.2 1c-.8.2-1.7.3-2.5.3-.6 0-1.1-.1-1.7-.2-.6-.1-1.1-.3-1.6-.5s-1-.5-1.5-.8-.8-.8-1.2-1.2l2-1.6c.4.7 1 1.2 1.7 1.6.7.4 1.5.5 2.4.5.5 0 1-.1 1.5-.2s1-.4 1.3-.6c.4-.3.7-.6 1-1 .3-.4.4-.9.4-1.4 0-.6-.1-1.1-.3-1.5-.2-.4-.5-.7-.9-1-.4-.3-.9-.5-1.6-.7-.6-.2-1.4-.5-2.2-.8-.7-.2-1.3-.5-1.9-.7-.6-.3-1.1-.6-1.5-1-.4-.4-.8-.9-1-1.5-.2-.6-.4-1.3-.4-2.1 0-.9.2-1.7.5-2.4.4-.7.9-1.3 1.5-1.7s1.3-.8 2.1-1c.8-.2 1.6-.4 2.5-.4 1.1 0 2.1.2 3 .5.9.3 1.7.9 2.4 1.8l-2.1 1.3zM207.1 81.2c0 1.1-.1 2.1-.4 3-.3.9-.7 1.8-1.3 2.5-.6.7-1.3 1.3-2.2 1.7-.9.4-2.1.6-3.4.6s-2.4-.2-3.4-.6c-.9-.4-1.7-1-2.2-1.7-.6-.7-1-1.5-1.3-2.5-.3-.9-.4-1.9-.4-3V69.3h2.3v11.6c0 .8.1 1.5.2 2.3.2.7.4 1.4.8 1.9.4.6.9 1 1.5 1.3s1.4.5 2.4.5 1.8-.2 2.4-.5c.6-.3 1.1-.8 1.5-1.3.4-.6.7-1.2.8-1.9.2-.7.2-1.5.2-2.3V69.3h2.3v11.9zM213.5 69.3h4.9c.9 0 1.8.1 2.8.2.9.1 1.7.3 2.5.7.7.4 1.3.9 1.8 1.6.5.7.7 1.6.7 2.8 0 1.4-.4 2.6-1.3 3.4-.9.9-2 1.4-3.5 1.7l5.5 8.9h-2.8l-5.2-8.7H216v8.7h-2.3V69.3zm2.2 8.5h2c.6 0 1.3 0 2-.1.7 0 1.3-.2 1.9-.4.6-.2 1-.5 1.4-.9.4-.4.6-1 .6-1.8 0-.7-.1-1.2-.4-1.7-.3-.4-.6-.7-1.1-1-.4-.2-.9-.4-1.5-.4-.6-.1-1.1-.1-1.7-.1h-3.2v6.4zM239.7 80.3l-7.2-11h2.9l5.4 8.7 5.6-8.7h2.8l-7.2 11v8.3h-2.3v-8.3z"/><path class="st2" d="M57.7 32.2c-.7-.5-1.5-1-2.2-1.5L36.1 41.9 17.1 31c-.8.5-1.5 1-2.2 1.5L36 44.7l21.7-12.5z"/><path class="st1" d="M0 60.9L19.3 72v22.2l2.4 1.2V70.6L.1 58.2c0 .9-.1 1.8-.1 2.7zM72.8 57.7L51.3 70.1v25.3c.8-.4 1.6-.7 2.4-1.2V71.5L73 60.4c-.1-.9-.1-1.8-.2-2.7z"/><path class="st2" d="M64.1 38l-28 16.2L8.6 38.4c-.5.6-1 1.3-1.5 1.9l29 16.7 29.6-17.1c-.6-.6-1.1-1.2-1.6-1.9z"/><path class="st1" d="M2.1 49.7L30 65.8v32.1c.8.1 1.6.3 2.4.4V64.4L3 47.4c-.4.8-.6 1.6-.9 2.3zM69.9 47.1L40.6 63.9v34.3c.8-.1 1.6-.2 2.4-.4V65.3l27.7-16c-.2-.8-.5-1.5-.8-2.2z"/></svg>