<svg id="Layer_1" xmlns="http://www.w3.org/2000/svg" viewBox="0 0 512 128"><style>.st0{fill:none}.st1{fill:#3e4f4e}</style><path class="st0" d="M0 0h512v128H0z" id="Container"/><g id="Logos"><g id="Qadium"><path class="st1" d="M33.1 77c1.6 1.9 3.2 3.7 5 5.9-3-.2-5.6.4-8.2-.5-.6-.2-1.1-.6-1.5-1.1-3.6-4-7.2-7.9-10.7-11.9-.1-.1-.1-.2-.2-.5h8.4c.4 0 .8.5 1.1.8.6.6 1.1 1.3 2 2.3.5-2.1 1-3.8 1.3-5.5.4-2.7.2-5.3-.8-7.8-1.7-4.7-5.4-7.3-10.6-7.3-5.3 0-9.2 2.5-10.8 7.3-1.5 3.7-1.5 7.5-.2 11.3 1.6 4.6 5.3 7.2 10.2 7.3 1.1 0 1.7.3 2.4 1.1 1.1 1.3 2.3 2.6 3.5 3.9-5.3 2.4-15.8.7-20.8-6.8-5.3-7.9-3.9-19.6 3-25.6 7-6 18.5-5.8 25.3.3 7.2 6.5 7.9 19.1 1.6 26.8zM80.1 82.7V46h3.1c4.8.1 9.7-.2 14.5.4 8.5 1 14.5 7.9 15 16.5.2 3.4-.2 6.7-1.7 9.9-3.1 6.6-8.6 9.7-15.7 10.1-4.9.2-9.8.1-14.7.1-.1-.2-.3-.2-.5-.3zm6.8-5.5c3.2 0 6.5.3 9.6-.1 4.3-.5 7.1-3.2 8.4-7.4 1.1-3.4 1.1-6.8.1-10.2-1.4-5-5.2-7.9-10.4-8-2.3-.1-4.7 0-7 0-.2 0-.5.1-.7.1v25.6zM207.4 46v36.8h-6V58.3c-1.9 2.5-3.8 4.5-5.2 6.8-1.9 3.1-4.3 4.5-8 4-1.4-.2-2.3-.5-3.1-1.6l-15.9-20.1c-.3-.4-.6-.8-1-1.3 3 0 5.9-.1 8.7.1.9.1 1.9 1 2.5 1.8 3.2 3.9 6.3 8 9.4 12 .3.3.6.7.9 1.1 2-2.6 3.9-5 5.8-7.5 1.8-2.3 3.5-4.6 5.3-6.8.3-.4 1-.7 1.5-.8 1.8-.1 3.4 0 5.1 0zM133.2 46c1.8 0 3.4-.1 5 0 1.3.1 2 1 2 2.6v20.5c.3 5.9 4.8 9.3 10.6 8 3.6-.8 6.1-3.9 6.2-8.1.1-3.2 0-6.4 0-9.6V48.6c0-1.9.7-2.6 2.6-2.6h4.2c0 .5.1.8.1 1.2 0 7 .1 13.9-.1 20.9 0 2.1-.4 4.2-1.1 6.2-2.4 6.4-8 9.1-14.5 9.1-7.2 0-12.5-4.1-14.3-10.5-.3-1.2-.6-2.5-.6-3.7-.1-7.1-.1-14.3-.1-21.4V46zM40.1 82.9c1.7-4.4 3.4-8.7 5.1-12.9 3-7.6 6-15.2 8.9-22.8.3-.9.8-1.3 1.7-1.2 1.6.1 3.2 0 4.8.1.4 0 1.1.4 1.2.7 4.7 11.9 9.4 23.9 14 35.8v.2c-1.9 0-3.9.1-5.8-.1-.6-.1-1.4-1-1.7-1.7-.9-2-1.6-4.1-2.3-6.2-.3-.7-.6-1-1.4-1H51.4c-.8 0-1.2.3-1.4 1-.7 2-1.4 4-2.2 5.9-.6 1.7-1.2 2.1-3 2.1-1.4.1-2.9.1-4.7.1zm18-30c-2 5.5-3.9 10.7-5.8 15.9H64c-2-5.3-3.9-10.4-5.9-15.9zM125.6 82.8h-6.7V46.1h6.7v36.7zM177.8 82.8h-5.9V56.5c.8 1 1.3 1.9 2.1 2.6 3.2 3 4.3 6.7 3.9 11.1-.4 4.1-.1 8.3-.1 12.6z"/></g></g></svg>