<svg id="Layer_1" xmlns="http://www.w3.org/2000/svg" viewBox="0 0 256 256"><style>.st0,.st1{fill:none;stroke:#f1c21a;stroke-width:8.3394;stroke-miterlimit:10}.st1{stroke-dasharray:16.6788}</style><g id="Icons"><g id="Self-Aware"><ellipse transform="rotate(-45.001 192.793 188.822)" class="st0" cx="192.8" cy="188.8" rx="31.7" ry="31.7"/><ellipse transform="rotate(-45.001 64.003 60.003)" class="st0" cx="64" cy="60" rx="31.7" ry="31.7"/><ellipse transform="rotate(-45.001 64.003 60.003)" class="st0" cx="64" cy="60" rx="31.7" ry="31.7"/><path class="st1" d="M168.6 210.8c32.5-15.1 55.1-48.1 55.1-86.3 0-50.4-39.2-91.6-88.8-94.9M88.3 38.2c-32.5 15.1-55 48.1-55 86.3 0 50.3 39.1 91.6 88.6 94.9"/><path class="st0" d="M128.4 109h29.8l-14.9 25.8-14.9 25.8-14.9-25.8L98.6 109z"/></g></g></svg>