<svg id="8ebfe83a-5787-43f1-ae5d-75f3d6211f4e" data-name="Layer 1" xmlns="http://www.w3.org/2000/svg" viewBox="0 0 28 28"><defs><style>.\38 7ca91b9-9814-454d-b7ee-c20dc635a611{fill:#d0d4d2;}.\30 a647927-47d5-45ff-a76c-78b553efe146{fill:none;}</style></defs><title>icon-linkedin</title><path class="87ca91b9-9814-454d-b7ee-c20dc635a611" d="M24.57,2H4.11A1.75,1.75,0,0,0,2.34,3.69V24.22A1.75,1.75,0,0,0,4.11,26H24.57a1.76,1.76,0,0,0,1.78-1.73V3.69A1.75,1.75,0,0,0,24.57,2ZM9.46,22.41H5.9V11H9.46V22.41Zm-1.78-13A2.06,2.06,0,1,1,9.74,7.32,2.06,2.06,0,0,1,7.68,9.39Zm15.11,13H19.23V16.84c0-1.33,0-3-1.85-3s-2.13,1.45-2.13,2.94v5.66H11.69V11h3.41v1.57h0a3.74,3.74,0,0,1,3.37-1.85c3.6,0,4.27,2.37,4.27,5.46v6.28Z"/><rect class="0a647927-47d5-45ff-a76c-78b553efe146" width="28" height="28"/></svg>