<?xml version="1.0" encoding="utf-8"?>
<!-- Generator: Adobe Illustrator 19.2.1, SVG Export Plug-In . SVG Version: 6.00 Build 0)  -->
<svg version="1.1" id="f4d79a6c-4264-4908-b95d-a2787d6e2117"
	 xmlns="http://www.w3.org/2000/svg" xmlns:xlink="http://www.w3.org/1999/xlink" x="0px" y="0px" viewBox="0 0 28 28"
	 style="enable-background:new 0 0 28 28;" xml:space="preserve">
<style type="text/css">
	.st0{fill:#3D4E4D;}
	.st1{fill:none;}
</style>
<title>icon-linkedin-hover</title>
<path class="st0" d="M24.6,2H4.1c-1,0-1.7,0.7-1.8,1.7v20.5c0,1,0.8,1.8,1.7,1.8c0,0,0,0,0.1,0h20.5c1,0,1.8-0.8,1.8-1.7V3.7
	C26.3,2.7,25.5,2,24.6,2z M8.7,16.1c-1.1,0-2.1-0.9-2.1-2.1c0-1.1,0.9-2.1,2.1-2.1c1.1,0,2,0.9,2.1,2C10.7,15.1,9.8,16,8.7,16.1
	C8.7,16,8.7,16,8.7,16.1L8.7,16.1z M14.3,16.1c-1.1,0-2.1-0.9-2.1-2.1c0-1.1,0.9-2.1,2.1-2.1c1.1,0,2,0.9,2.1,2
	C16.4,15.1,15.5,16,14.3,16.1C14.4,16,14.3,16,14.3,16.1L14.3,16.1z M20,16.1c-1.1,0-2.1-0.9-2.1-2.1c0-1.1,0.9-2.1,2.1-2.1
	c1.1,0,2,0.9,2.1,2C22.1,15.1,21.2,16,20,16.1C20,16,20,16,20,16.1L20,16.1z"/>
<path class="st1" d="M0,0h28v28H0V0z"/>
</svg>
