<svg id="LendUp" xmlns="http://www.w3.org/2000/svg" viewBox="0 0 256 256"><style>.st0{fill:#3e4f4e}.st1{fill:none}</style><g id="AZKqwj_1_"><path class="st0" d="M157.5 104.7h8.9v38.9c0 .8.1 1.6.3 2.3.6 2.4 2.1 3.4 4.9 3.3 2.2-.1 3.7-1.4 4-3.7.1-.7.2-1.5.2-2.3v-37.7-.9H171c3.1-5.4 6.2-10.7 9.3-16 3.1 5.4 6.1 10.6 9.2 16h-4.9v38.7c0 2.5-.4 4.8-1.5 7-1.4 2.9-3.8 4.9-6.9 5.8-3.6 1.1-7.2 1.1-10.7-.1-4.7-1.6-7.2-5.1-7.8-10-.2-1.3-.2-2.6-.2-3.9v-36.4-1zM189.5 117.8h7.5v3.8c.1 0 .1.1.2.1.3-.3.6-.7.9-1 1.9-2.2 4.1-3.6 7.1-3.6 4.2-.1 7.1 2 8.2 6.2.3 1.2.5 2.4.5 3.7v20.4c0 1.8-.4 3.6-1.2 5.2-2.2 4.8-7.4 5.2-10.7 3.6-1.3-.6-2.5-1.6-3.7-2.5-.3-.2-.5-.4-.8-.7v15.4h-7.1c-.8 0-1-.2-1-1v-30.7-17.9c.1-.2.1-.6.1-1zm8.1 19.2v10.7c0 .3.1.8.3.9.9.6 1.8 1.1 2.7 1.5 2.6.9 4.5-.2 5-2.9.2-1.2.3-2.4.3-3.6 0-4.4.1-8.8 0-13.2 0-1.5-.2-3-.6-4.4-.4-1.7-1.7-2.4-3.4-2.3-1.4.1-2.6.8-3.8 1.5-.5.3-.6.6-.6 1.2.1 3.5.1 7.1.1 10.6zM143.4 121v-16.2h7.9v51.4h-7.4v-3.8c-.1 0-.1-.1-.2-.1-.3.3-.6.6-.8 1-2.1 2.6-4.8 3.9-8.2 3.7-3.6-.2-6.1-2.3-7.1-6.1-.4-1.6-.6-3.2-.6-4.8-.1-6.1-.1-12.2 0-18.3 0-1.7.2-3.4.7-5 1.6-5.1 6.9-7.2 11.6-4.6 1.4.8 2.7 1.8 4.1 2.8zm0 16.1v-10.6c0-.3-.1-.8-.3-.9-1.1-.6-2.2-1.4-3.4-1.7-2-.6-3.6.4-4.2 2.4-.3.9-.4 1.9-.5 2.9-.1 4.9-.1 9.8 0 14.7 0 1.4.2 2.8.5 4.2.5 2 2.2 2.9 4.1 2.3 1.1-.3 2.1-.9 3.1-1.4.6-.3.7-.7.7-1.3v-10.6zM85.3 143.4h7.9c.2 7.1-3 13.1-10.9 13.5-1.7.1-3.5 0-5.1-.3-4.3-.9-6.9-3.6-7.9-7.7-.5-1.8-.7-3.8-.8-5.7-.1-4.5-.1-9 .1-13.4.1-1.7.4-3.5.9-5.1 1.3-4.3 4.4-6.6 8.8-7.3 2.4-.4 4.7-.3 7 .4 3.9 1.1 6.3 3.7 7.3 7.6.4 1.8.6 3.7.7 5.5.1 2.3 0 4.6 0 6.8 0 .3 0 .5-.1.9H76.4c0 2-.1 4 0 6 0 1.1.2 2.2.5 3.2.6 1.8 1.9 2.7 3.8 2.7s3.3-.8 3.9-2.6c.4-1.1.4-2.3.6-3.4.2-.4.1-.7.1-1.1zm0-11.4v-3.1c0-.5-.1-1-.2-1.5-.4-2.2-1.8-3.5-3.7-3.7-2.4-.1-4 .8-4.5 3-.4 1.7-.4 3.5-.6 5.3h9zM97.8 156.2v-38.3h7.5v3.8c.8-.7 1.5-1.2 2.1-1.8 2.1-1.8 4.4-2.7 7.1-2.8 3.6-.1 6.2 1.8 6.9 5.4.2 1 .3 2 .3 2.9v29.8c0 .8-.2 1-1 1h-6.9c0-.4-.1-.8-.1-1.2v-27.4-1.2c0-2.4-1.7-3-3.5-2.7-1.7.3-3 1.3-4.3 2.3-.2.1-.2.6-.2.9v29.2c-2.6.1-5.2.1-7.9.1zM43.6 104.8h8.8v43.8h12.9v7.6H43.6v-51.4z"/></g><path class="st1" d="M0 0h256v256H0z"/></svg>