<svg id="Periscope" xmlns="http://www.w3.org/2000/svg" viewBox="0 0 256 256"><style>.st0{fill:#3e4f4e}.st1{fill:none}</style><g id="RZm2Iz_1_"><path class="st0" d="M93.2 159.3c-2.2-2.3-4.4-4.6-6.7-7.1-1.1 1-2.1 2-3.4 3.1-.6-1-1-1.8-1.7-2.9 1.7-.2 3-.3 4.3-.4.2-.3.4-.6.6-.8-2.3-2.1-4.6-4.1-6.9-6.2h14.1c-2.1 2.3-4.2 4.5-6.5 6.9h13.7c-2.8-2.6-5-4.8-7.3-6.9-2.3-2.3-4.5-4.6-7.1-7.2-2.5 2.6-4.7 4.9-6.9 7.3-1-2.2-2.1-4.4-3.3-7.1h10.1c-2.4-2.6-4.5-4.7-6.5-6.9l-.1.1h13.7l-.1-.1c-2 2.2-4.1 4.3-6.2 6.6h13.7c-1.6-1.4-2.6-2.3-3.6-3.2-1-1-1.9-2-3.2-3.2 6.2-.5 6.2-.5 7.2 4.8.1.8.2 1.6.2 1.7-2.3 2.8-4.2 5.3-5.9 7.4 1.2 0 3.3-.2 5.3.1 1.8.2 4.3-1.2 6 2.1-1.7 1.6-3.4 3.1-5.2 4.7 4 .7 8.2-.6 12.4 1-2.2 2.4-4.1 4.4-6 6.4-.2 0-.4-.1-.6-.1l.1.1c-2.2-2.4-4.4-4.7-6.4-6.8-2.6 2.5-4.9 4.6-7.3 6.8-.2-.2-.3-.2-.5-.2zM156.8 166.6c-2 2.1-4 4.3-6.2 6.7h6c.1.2.1.4.2.5-1.3.7-2.5 1.5-3.9 2.3-.9-.8-1.8-1.6-3.2-2.8-1.6 1.8-3.1 3.7-4.7 5.5-1.3 1.4-2.5 1.5-3.9 0-1.5-1.8-3.1-3.4-5-5.5-2.6 2.8-4.9 5.2-7.1 7.7l.1-.1c-.1-.1-.2-.1-.3-.1l.1.1c-2.2-2.4-4.4-4.8-7-7.6-1.8 1.9-3.5 3.6-5 5.3-1.4 1.7-2.7 1.5-4.1 0-1.5-1.8-3-3.5-4.6-5.3-1.4 1.3-2.3 2-3.2 2.8-1.3-.7-2.5-1.4-4.4-2.5h7c-2.4-2.6-4.4-4.8-6.4-7l-.1.1h13c.2.4.5.7.7 1.1-2.2 1.7-4.4 3.4-6.9 5.4h13.4c.1-.2.3-.4.4-.6-2.2-2-4.3-4-6.5-6h13.7c-2.2 2-4.3 4.1-6.5 6.1.1.2.3.4.4.6h12.5c.1-.2.3-.4.4-.6-2.2-2-4.3-4.1-6.5-6.1h13.7c-2.1 2.1-4.1 4.3-6.4 6.6h13.1c.3-.4.6-.7.9-1.1-2.2-1.7-4.4-3.4-7-5.4 4.8 0 9.1 0 13.3-.1zM107.3 88.4c-1.7-1.9-3.3-3.7-5.1-5.7 3.7-2.7 8-.6 12.1-1.7-.8-.9-1.5-1.8-2.4-2.9 2.5-.7 4.7-1.3 7-1.9.1.2.3.4.4.6-1.5 1.1-3.1 2.2-4.6 3.3l.6.9h13.1c-1.7-1.8-3.1-3.4-5-5.3h10.8c-1.8 1.9-3.3 3.5-5.1 5.3h13.7c-1.8-1.4-3.3-2.6-4.7-3.7.2-.3.5-.7.7-1 2.2.6 4.5 1.1 6.9 1.8-.8 1-1.5 1.9-2.2 2.9 4 1.1 8.3-1 12 1.7-1.8 2-3.4 3.9-5.1 5.7l.1-.1c-.2 0-.4.1-.5.1-2.3-2.4-4.5-4.7-7-7.3-2.3 2.6-4.4 5-6.6 7.3l-7.3 7.3c-2.6-2.4-5.2-4.9-7.8-7.3-2.2-2.4-4.3-4.8-6.6-7.3-2.5 2.7-4.7 5-6.9 7.3h-.5zm15.2-.1H135c-2.2-2.1-4.3-4.2-6.4-6.2-1.7 1.8-3.8 3.9-6.1 6.2zM178.1 131.2c-2.2 1.9-4.4 3.9-6.6 5.8.2.3.4.6.5.9h9.4c-.9 2.6-1.6 4.8-2.4 6.9-.1.2-.6.3-.9.5v.1c-2.2-2.4-4.4-4.7-6.8-7.3-2.5 2.7-4.6 5-6.8 7.3l.1-.1-14.1 14.1.1-.1c-.2 0-.4.1-.6.1-1.9-2-3.8-4-5.6-6.1v-.8h12.1c.1-.4.2-.7.4-1.1-1.8-1.5-3.7-3.1-6-5 4.5-2.3 8.8-.5 12.1-1.4-2-2.3-4.1-4.6-6.4-7.1.4-2.1.9-4.4 1.3-6.5h5.5c.2.3.3.5.5.8-2 1.8-4.1 3.6-6.3 5.6h13.1c.2-.3.4-.5.6-.8-2.2-1.9-4.4-3.9-6.6-5.8l-.1.1c4.5-.1 9.1-.1 13.5-.1.1 0 0 0 0 0z"/><path class="st0" d="M85.9 123.9c-2.1-2.4-4.1-4.7-6.3-7.1-.9.8-1.6 1.3-2.2 1.9-.2-.1-.4-.2-.5-.4.4-.7.9-1.3 1.4-2.3-1.6-1.8.2-3.8.9-5.8.1-.3.9-.5 1.3-.5 1.8 0 3.6.1 5.4.1l-.1-.1c-1.9 2.2-3.9 4.4-5.9 6.8H93c-2.2-2.5-4.2-4.6-6.1-6.8l-.1.1c4.4 0 8.7 0 13.1-.1-2 2.2-3.9 4.4-6.3 7h8.2c-.2 6.7-4.4 10.6-8.8 14.3l.1.1-1.8-2.4c-1.4-1.6-2.9-3.2-4.4-4.8H100l-7-7c-1.3 1.3-2.7 2.6-4 4.1-.8.9-1.4 2-2 3-.3 0-.7-.1-1.1-.1zM171.9 109.9c1.1-.1 2.2-.1 3.4-.1 3.3 0 4.7 1.2 4.8 4.6 0 .7-.5 1.3-.7 1.8.6.6 1.2 1.3 1.8 2l-.5.5c-.7-.5-1.4-1.1-2.4-1.9-2.1 2.4-4.2 4.7-6.2 7.1l.1-.1c-.4.1-.8.1-1.2.2-2-2.4-4-4.9-5.6-6.8-2.4 2.5-4.6 4.6-6.7 6.8H171c-.6.7-1.1 1.5-1.7 2.1-1.5 1.7-3 3.4-4.6 5.1l.1-.1c-4.6-3.7-8.4-7.8-8.7-14.5h8c-2.3-2.5-4.2-4.7-6.2-6.9 4.4 0 8.8.1 13.1.1l-.1-.1c-2 2.2-3.9 4.4-6.1 6.7h13.1c-2.1-2.3-4-4.5-6-6.5zM157.7 166.7c-.3-.1-.6-.1-.9-.2l.1.1c-.5-.8-1-1.6-1.6-2.3-1.5-1.7-3.1-3.4-4.7-5.1l-.1.1h13c.3-.4.5-.9.8-1.3l-6.6-5.1c.2-.3.3-.5.5-.8h13c-2.4-2.6-4.5-4.8-6.5-7l-.1.1h13.6v-.1c-2 2.2-4.1 4.4-6.4 6.8 1.6.1 2.8.2 4.5.3-.5 1.1-.9 1.9-1.5 3.1-1.2-1.1-2.2-2.1-3.5-3.3-2.3 2.4-4.4 4.7-6.6 7l-.1.1c-2.4 2.8-4.7 5.2-6.9 7.6zM101.1 166.6c-.3.1-.6.1-.9.2l.1.1c-1.4-1.7-2.9-3.4-4.3-5.2-.7-.8-1.5-1.6-2.2-2.4h13.6l-.1-.1c-.7.8-1.4 1.7-2.2 2.5-1.4 1.7-2.7 3.3-4 4.9-.1.1 0 0 0 0zM150.5 88.4h13.7c-1.8 1.9-3.3 3.3-4.7 4.8-.7.7-1.1 1.6-1.6 2.5l.1-.1c-.4 0-.7 0-1.1.1-.4-.7-.8-1.5-1.3-2.1-1.7-1.7-3.4-3.5-5.1-5.2zM100 95.8c-1.2-1.5-2.4-3.1-3.7-4.5-.7-.8-1.8-1.3-2.7-1.9l.6-.9h13.1l-.1-.1c-.8 1-1.7 1.9-2.5 2.9-1.2 1.5-2.5 3-3.7 4.5-.3-.1-.7-.1-1 0-.1-.1 0 0 0 0z"/><path class="st0" d="M164.6 102.5c3 0 6.1-.1 9.1 0 .8 0 1.8.6 2.2 1.3.2.4-.4 1.5-.8 2.1-1 1.4-2.1 2.6-3.1 3.9l.1-.1H171l.1.1c-.5-.7-.9-1.5-1.5-2.2-1.8-1.7-3.4-3.4-5-5.1zM85.9 109.8c-1.1-1.4-2.3-2.7-3.3-4.1-.4-.5-.8-1.5-.6-1.9.3-.6 1.2-1.2 1.9-1.2 3.1-.1 6.2-.1 9.3-.1h-.1l-2.1 2.4c-1.4 1.6-2.8 3.3-4.2 4.9l.1-.1c-.3.1-.7.1-1 .1z"/><path class="st0" d="M93.2 102.5c-2-2.1-4.1-4.3-6.4-6.7H100l-.1-.1c-2.1 2.3-4.1 4.6-6.2 6.9-.1-.1-.3-.1-.5-.1zM157.8 95.8h13.1c-2.3 2.4-4.3 4.6-6.3 6.8h.1c-.2 0-.4.1-.5.1-2.2-2.4-4.3-4.7-6.4-6.9.1-.1 0 0 0 0zM171.9 123.9h9.6c1.4 3.8-1.2 5.4-3.4 7.3l.1.1c-.7-.9-1.4-1.8-2.1-2.6-1.3-1.7-2.8-3.3-4.2-4.8zM79.7 131.2c-2.2-1.8-4.8-3.5-3.4-7.3h9.6l-.1-.1-1.8 2.4c-1.4 1.7-2.9 3.3-4.3 5-.1 0 0 0 0 0zM93.2 159.3c-1.3 1.4-2.6 2.9-4.1 4.6-1.2-1.6-2.2-2.8-3.5-4.5 2.9-.1 5.3-.1 7.6-.1zM164.7 159.3h7.5c-1.3 1.7-2.3 3-3.4 4.6-1.5-1.6-2.9-3.1-4.2-4.5l.1-.1zM100.2 166.8c-1.1 1.3-2.2 2.6-3.5 4.1-1.8-1.5-3.1-2.7-4.4-3.8.1-.2.1-.4.2-.7 2.5.1 5.1.3 7.7.4 0 .1 0 0 0 0zM157.6 166.8c2.6-.1 5.1-.3 7.7-.4l.3.6c-1.3 1.1-2.6 2.3-4.1 3.6-1.4-1.4-2.6-2.6-3.9-3.8.1-.1 0 0 0 0zM128.7 180.7c-.8.3-1.6 1-2.4.9-1.9 0-3.9-.4-5.8-.9 2.8.1 5.5.1 8.2 0 .1.1 0 0 0 0zM128.9 180.9h8.4v.7c-2.8-.2-5.5-.5-8.4-.7.1-.1 0 0 0 0zM105.4 128.7h47.1c-.3 13.4-10.4 23.4-23.5 23.4-13.2 0-23.3-10-23.6-23.4z"/><path class="st0" d="M93.7 102.4h13.7c-2.3-2.5-4.3-4.6-6.4-6.8h12.8c.1-.3.2-.5.2-.8-2.1-2.2-4.2-4.4-6.3-6.5h13.7c-1.5 1.7-3.1 3.3-4.6 5-.7.8-1.3 1.7-2 2.6-2.2 2-4.5 3.9-7.3 6.4h8.7c-2.1 1.4-3.6 2.4-5.2 3.5-1.1-1-2.1-2-3.5-3.3-2.2 2.5-4.4 4.9-6.6 7.3l.1-.1h-1c-1.4-1.6-2.8-3.3-4.2-4.9-.7-.7-1.4-1.5-2.1-2.4zM156.8 95.7c-2.2 1.9-4.4 3.9-6.5 5.8.2.3.3.6.5.9h13.4c-1.6 1.8-3.3 3.5-4.9 5.3-.5.6-.9 1.4-1.3 2.1h-1l.1.1c-2.1-2.4-4.2-4.7-6.5-7.3-1.3 1.2-2.3 2.1-3.5 3.2-1.5-.9-2.9-1.9-4.9-3.1h7.9c-2.6-2.7-4.6-4.8-6.7-6.9 4.3-.1 8.9-.1 13.4-.1zM129.2 166.6h-.6l-7.3-7.3c-.9-1.1-1.8-2.3-3-3.7 1.9.5 3.4.9 5.3 1.4-.4.7-.7 1.3-1.2 2h12.9c-.3-.6-.6-1.2-.9-1.9 1.6-.5 3.1-1 5-1.5-1.1 1.4-2 2.6-2.8 3.7-2.5 2.5-5 4.9-7.4 7.3z"/><path class="st0" d="M142.7 166.6c-1.5-1.7-2.9-3.3-4.4-5-.7-.8-1.3-1.6-1.9-2.4h13.7c-2.5 2.5-4.9 5-7.4 7.4zM121.4 159.3c-1.5 1.6-3 3.3-4.4 4.9-.7.8-1.2 1.6-1.8 2.4l-7.4-7.4c4.5.1 9 .1 13.6.1zM136.4 88.4h13.7c-2.3 2.5-4.5 4.9-6.8 7.4h-.6c-1.5-1.7-2.9-3.3-4.4-5-.7-.8-1.3-1.6-1.9-2.4z"/><path class="st0" d="M129.1 95.7h13.7c-.8.9-1.7 1.7-2.5 2.6-3 3-5.6 3-8.6 0l-2.6-2.6zM114.8 96h13.8c-1.5 1.4-2.6 2.5-3.9 3.5-2.1 1.6-4.7 1.4-6.5-.4-1.1-1.1-2.2-2.1-3.4-3.1zM100.9 109.9c1.8-.1 3.7-.2 6-.3-1 1.5-1.8 2.6-2.6 3.9-1.2-1.3-2.2-2.5-3.4-3.6.1-.1 0 0 0 0zM156.8 109.8c-1 1.1-2 2.2-3.2 3.5-.9-1.3-1.7-2.2-2.8-3.7 2.4.1 4.3.2 6 .2.1.1 0 0 0 0z"/></g><path class="st1" d="M0 0h256v256H0z"/></svg>