<svg id="Robinhood" xmlns="http://www.w3.org/2000/svg" viewBox="0 0 256 256"><style>.st0{fill:#3e4f4e}.st1{fill:none}</style><g id="LQ6SZw_1_"><path class="st0" d="M88.8 184.5c-2.4 0-2.1.1-1.6-2 2.7-11.1 5.7-22.2 9.4-33.1.1-.4.1-.9.1-1.4-1-5.6-2.1-11.2-3.1-16.8-.1-.5-.3-1.1-.2-1.6.1-.8.1-1.6.5-2.2 4.6-6.9 9.5-13.5 14.7-19.9 1-1.2 2-2.4 2.9-3.7 1-1.4 2.2-2.1 3.9-2.4 7.6-1.4 15.1-2.9 22.6-4.3 1-.2 2.1-.3 3.2-.4.3 0 .5.1.8.2-.1.2-.2.5-.3.7-6.3 7.4-12.3 15-17.9 23-9.2 13.2-17.3 27.2-24 41.9-3.1 6.9-5.9 14.1-8.8 21.1-.3.7-.6 1-1.3.9h-.9z"/><path class="st0" d="M150.1 107.2V94.3c0-1.6-1.1-2.6-2.7-2.3-4 .5-7.9 1-11.9 1.6-4.5.7-9 1.6-13.5 2.4-.9.2-1.7.4-2.6.5-.3 0-.6-.1-.8-.1.1-.3.1-.6.3-.8 3.3-3.5 6.5-7.1 9.9-10.5 2.5-2.6 5.3-5.1 7.8-7.7 1.5-1.5 3.3-2.3 5.3-2.9 4.6-1.3 9.2-2.3 13.9-2.2 2.7 0 5.5.3 8.1 1.3 2.1.9 3.7 2.3 4.6 4.4 1.2 2.8 1.8 5.7 2.2 8.7.4 3.9.2 7.7-.4 11.5-.1.8-.6 1.6-1.1 2.3-4.3 5.4-8.7 10.8-13 16.2-1.4 1.7-2.6 3.6-3.9 5.4-.2.2-.5.4-.7.5-.1-.3-.4-.5-.4-.8-.4-4.5-.7-9-1.1-14.6z"/><path class="st0" d="M147.7 127.4c.3.8-.2 1.5-.6 2.3-4.2 7.2-8.4 14.4-12.5 21.6-.4.7-.9 1.2-1.8 1.4-9 2.6-17.9 5.7-26.5 9.3-.4.2-.8.1-1.2.2.1-.4.1-.9.3-1.2 3.6-7.7 7.7-15.1 12-22.4 5.3-8.8 11.1-17.4 17.4-25.5 3.2-4.2 6.7-8.2 10-12.3.1-.1.2-.3.3-.4.2-.1.5-.2.7-.4.1.2.3.5.3.7.1 2.7.2 5.3.3 8 .3 5 .7 10 1 15 0 1.2.1 2.4.3 3.7zM99.6 175.2c.6-1.5 1.2-3.1 1.9-4.6 1.3-3 1.2-3.1 4.2-4.2 5.3-2 10.6-4 15.8-5.9.3-.1.6 0 .9 0-.1.3-.1.6-.2.8-.6 1.2-1.2 2.5-1.9 3.7-.3.5-.7 1-1.2 1.2-6 3-12.1 5.9-18.2 8.8-.4.2-.8.3-1.2.5 0-.1-.1-.2-.1-.3z"/></g><path class="st1" d="M0 0h256v256H0z"/></svg>